<svg width="1519" height="223" viewBox="0 0 1519 223" fill="none" xmlns="http://www.w3.org/2000/svg">
<g filter="url(#filter0_b_89_9046)">
<mask id="path-1-inside-1_89_9046" fill="white">
<path fill-rule="evenodd" clip-rule="evenodd" d="M1513 7.58171e-05V0L0 5.72205e-06V0.000132918L4.49995 0.000132722L4.49995 5.41955H4.49997L4.49996 0.000132722L10.5 0.000132459L15 0.000132263L15 6.00013L10.5 6.00013H9.99998L9.99998 10.2096H5L5 14.999H2.80692e-05L2.78598e-05 10.2096L2.78598e-05 10.2089L2.76758e-05 6.00013H0V223H0.00022519L0.000224797 218.5L0.000224272 212.5L0.000223879 208H6.00022V212.5V213H10.2097L10.2097 218H14.9991V223H10.2097H10.209L6.00022 223H1519V222.999H1514.5H1508.5H1504V216.999H1508.5H1509V212.789H1514V208H1519L1519 15H1513V10.5V10H1508.79V5.00005H1504V7.58171e-05H1508.79H1513Z"/>
</mask>
<path fill-rule="evenodd" clip-rule="evenodd" d="M1513 7.58171e-05V0L0 5.72205e-06V0.000132918L4.49995 0.000132722L4.49995 5.41955H4.49997L4.49996 0.000132722L10.5 0.000132459L15 0.000132263L15 6.00013L10.5 6.00013H9.99998L9.99998 10.2096H5L5 14.999H2.80692e-05L2.78598e-05 10.2096L2.78598e-05 10.2089L2.76758e-05 6.00013H0V223H0.00022519L0.000224797 218.5L0.000224272 212.5L0.000223879 208H6.00022V212.5V213H10.2097L10.2097 218H14.9991V223H10.2097H10.209L6.00022 223H1519V222.999H1514.5H1508.5H1504V216.999H1508.5H1509V212.789H1514V208H1519L1519 15H1513V10.5V10H1508.79V5.00005H1504V7.58171e-05H1508.79H1513Z" fill="#1E2234" fill-opacity="0.65"/>
<path d="M1513 0H1514V-1L1513 -1L1513 0ZM1513 7.58171e-05V1.00008H1514V7.58171e-05H1513ZM0 5.72205e-06L-3.78192e-09 -0.999994L-1 -0.999994V5.72205e-06H0ZM0 0.000132918H-1V1.00013L4.37112e-08 1.00013L0 0.000132918ZM4.49995 0.000132722L5.49995 0.000132634L5.49995 -0.999867L4.49995 -0.999867L4.49995 0.000132722ZM4.49995 5.41955L3.49995 5.41955L3.49995 6.41955H4.49995V5.41955ZM4.49997 5.41955V6.41955H5.49997L5.49997 5.41955L4.49997 5.41955ZM4.49996 0.000132722L4.49996 -0.999867L3.49996 -0.999867L3.49996 0.00013281L4.49996 0.000132722ZM10.5 0.000132459L10.5 1.00013L10.5 0.000132459ZM15 0.000132263L16 0.000132104L16 -0.999868L15 -0.999868L15 0.000132263ZM15 6.00013L15 7.00013L16 7.00013L16 6.00013L15 6.00013ZM10.5 6.00013L10.5 7.00013L10.5 7.00013L10.5 6.00013ZM9.99998 6.00013V5.00013H8.99998L8.99998 6.00013L9.99998 6.00013ZM9.99998 10.2096V11.2096H11L11 10.2096L9.99998 10.2096ZM5 10.2096V9.20963H4L4 10.2096L5 10.2096ZM5 14.999V15.999H6L6 14.999L5 14.999ZM2.80692e-05 14.999L-0.999972 14.999L-0.999972 15.999H2.80692e-05V14.999ZM2.78598e-05 10.2096L1.00003 10.2096L2.78598e-05 10.2096ZM2.78598e-05 10.2089L-0.999972 10.2089L2.78598e-05 10.2089ZM2.76758e-05 6.00013L1.00003 6.00013L1.00003 5.00013H2.76758e-05V6.00013ZM0 6.00013V5.00013H-1V6.00013H0ZM0 223H-1V224H0V223ZM0.00022519 223V224H1.00023L1.00023 223L0.00022519 223ZM0.000224797 218.5L1.00022 218.5L0.000224797 218.5ZM0.000224272 212.5L1.00022 212.5L0.000224272 212.5ZM0.000223879 208V207H-0.999776L-0.999776 208L0.000223879 208ZM6.00022 208H7.00022V207H6.00022V208ZM6.00022 213H5.00022V214H6.00022V213ZM10.2097 213L11.2097 213L11.2097 212H10.2097V213ZM10.2097 218L9.20972 218L9.20972 219H10.2097V218ZM14.9991 218H15.9991V217H14.9991V218ZM14.9991 223V224H15.9991V223H14.9991ZM10.209 223L10.209 222L10.209 222L10.209 223ZM6.00022 223L6.0002 222L6.00022 224V223ZM1519 223V224H1520V223H1519ZM1519 222.999H1520V221.999H1519V222.999ZM1504 222.999H1503V223.999H1504V222.999ZM1504 216.999V215.999H1503V216.999H1504ZM1509 216.999V217.999H1510V216.999H1509ZM1509 212.789V211.789H1508V212.789H1509ZM1514 212.789V213.789H1515V212.789H1514ZM1514 208V207H1513V208H1514ZM1519 208V209H1520L1520 208L1519 208ZM1519 15L1520 15L1520 14H1519V15ZM1513 15H1512V16H1513V15ZM1513 10H1514V9.00003H1513V10ZM1508.79 10H1507.79V11H1508.79V10ZM1508.79 5.00005H1509.79V4.00005H1508.79V5.00005ZM1504 5.00005H1503V6.00005H1504V5.00005ZM1504 7.58171e-05V-0.999924H1503V7.58171e-05H1504ZM1512 0V7.58171e-05H1514V0H1512ZM3.78192e-09 1.00001L1513 1L1513 -1L-3.78192e-09 -0.999994L3.78192e-09 1.00001ZM1 0.000132918V5.72205e-06H-1V0.000132918H1ZM4.49995 -0.999867L-4.37112e-08 -0.999867L4.37112e-08 1.00013L4.49995 1.00013L4.49995 -0.999867ZM5.49995 5.41955L5.49995 0.000132634L3.49995 0.00013281L3.49995 5.41955L5.49995 5.41955ZM4.49997 4.41955H4.49995V6.41955H4.49997V4.41955ZM3.49996 0.00013281L3.49997 5.41955L5.49997 5.41955L5.49996 0.000132634L3.49996 0.00013281ZM10.5 -0.999868L4.49996 -0.999867L4.49996 1.00013L10.5 1.00013L10.5 -0.999868ZM15 -0.999868L10.5 -0.999868L10.5 1.00013L15 1.00013L15 -0.999868ZM16 6.00013L16 0.000132104L14 0.000132422L14 6.00013L16 6.00013ZM10.5 7.00013L15 7.00013L15 5.00013L10.5 5.00013L10.5 7.00013ZM9.99998 7.00013H10.5V5.00013H9.99998V7.00013ZM11 10.2096L11 6.00013L8.99998 6.00013L8.99998 10.2096L11 10.2096ZM5 11.2096H9.99998V9.20963H5V11.2096ZM6 14.999L6 10.2096L4 10.2096L4 14.999L6 14.999ZM2.80692e-05 15.999H5V13.999H2.80692e-05V15.999ZM-0.999972 10.2096L-0.999972 14.999L1.00003 14.999L1.00003 10.2096L-0.999972 10.2096ZM-0.999972 10.2089L-0.999972 10.2096L1.00003 10.2096L1.00003 10.2089L-0.999972 10.2089ZM-0.999972 6.00013L-0.999972 10.2089L1.00003 10.2089L1.00003 6.00013L-0.999972 6.00013ZM0 7.00013H2.76758e-05V5.00013H0V7.00013ZM1 223V6.00013H-1V223H1ZM0.00022519 222H0V224H0.00022519V222ZM-0.999775 218.5L-0.999775 223L1.00023 223L1.00022 218.5L-0.999775 218.5ZM-0.999776 212.5L-0.999775 218.5L1.00022 218.5L1.00022 212.5L-0.999776 212.5ZM-0.999776 208L-0.999776 212.5L1.00022 212.5L1.00022 208L-0.999776 208ZM6.00022 207H0.000223879V209H6.00022V207ZM7.00022 212.5V208H5.00022V212.5H7.00022ZM7.00022 213V212.5H5.00022V213H7.00022ZM10.2097 212H6.00022V214H10.2097V212ZM11.2097 218L11.2097 213L9.20972 213L9.20972 218L11.2097 218ZM14.9991 217H10.2097V219H14.9991V217ZM15.9991 223V218H13.9991V223H15.9991ZM10.2097 224H14.9991V222H10.2097V224ZM10.209 224H10.2097V222H10.209V224ZM6.00024 224L10.2091 224L10.209 222L6.0002 222L6.00024 224ZM1519 222H6.00022V224H1519V222ZM1518 222.999V223H1520V222.999H1518ZM1514.5 223.999H1519V221.999H1514.5V223.999ZM1508.5 223.999H1514.5V221.999H1508.5V223.999ZM1504 223.999H1508.5V221.999H1504V223.999ZM1503 216.999V222.999H1505V216.999H1503ZM1508.5 215.999H1504V217.999H1508.5V215.999ZM1509 215.999H1508.5V217.999H1509V215.999ZM1508 212.789V216.999H1510V212.789H1508ZM1514 211.789H1509V213.789H1514V211.789ZM1513 208V212.789H1515V208H1513ZM1519 207H1514V209H1519V207ZM1518 15L1518 208L1520 208L1520 15L1518 15ZM1513 16H1519V14H1513V16ZM1512 10.5V15H1514V10.5H1512ZM1512 10V10.5H1514V10H1512ZM1508.79 11H1513V9.00003H1508.79V11ZM1507.79 5.00005V10H1509.79V5.00005H1507.79ZM1504 6.00005H1508.79V4.00005H1504V6.00005ZM1503 7.58171e-05V5.00005H1505V7.58171e-05H1503ZM1508.79 -0.999924H1504V1.00008H1508.79V-0.999924ZM1513 -0.999924H1508.79V1.00008H1513V-0.999924Z" fill="white" fill-opacity="0.15" mask="url(#path-1-inside-1_89_9046)"/>
</g>
<g filter="url(#filter1_b_89_9046)">
<mask id="path-3-inside-2_89_9046" fill="white">
<path fill-rule="evenodd" clip-rule="evenodd" d="M1513 7.00951e-05V-5.72205e-06L0 0V0.000127196L4.49995 0.000127L4.49995 5.41954H4.49997L4.49996 0.000127L10.5 0.000126737L15 0.000126541L15 6.00012L10.5 6.00012H9.99998L9.99998 10.2096H5L5 14.999H2.80692e-05L2.78598e-05 10.2096L2.78598e-05 10.2089L2.76758e-05 6.00012H0V223H0.00022519L0.000224797 218.5L0.000224272 212.5L0.000223879 208H6.00022V212.5V213H10.2097L10.2097 218H14.9991V223H10.2097H10.209L6.00022 223H1519V222.999H1514.5H1508.5H1504V216.999H1508.5H1509V212.789H1514V208H1519L1519 15H1513V10.5V10H1508.79V5.00005H1504V7.00951e-05H1508.79H1513Z"/>
</mask>
<path fill-rule="evenodd" clip-rule="evenodd" d="M1513 7.00951e-05V-5.72205e-06L0 0V0.000127196L4.49995 0.000127L4.49995 5.41954H4.49997L4.49996 0.000127L10.5 0.000126737L15 0.000126541L15 6.00012L10.5 6.00012H9.99998L9.99998 10.2096H5L5 14.999H2.80692e-05L2.78598e-05 10.2096L2.78598e-05 10.2089L2.76758e-05 6.00012H0V223H0.00022519L0.000224797 218.5L0.000224272 212.5L0.000223879 208H6.00022V212.5V213H10.2097L10.2097 218H14.9991V223H10.2097H10.209L6.00022 223H1519V222.999H1514.5H1508.5H1504V216.999H1508.5H1509V212.789H1514V208H1519L1519 15H1513V10.5V10H1508.79V5.00005H1504V7.00951e-05H1508.79H1513Z" fill="url(#paint0_linear_89_9046)" fill-opacity="0.65"/>
<path d="M1513 0H1514V-1L1513 -1L1513 0ZM1513 7.58171e-05V1.00008H1514V7.58171e-05H1513ZM0 5.72205e-06L-3.78192e-09 -0.999994L-1 -0.999994V5.72205e-06H0ZM0 0.000132918H-1V1.00013L4.37112e-08 1.00013L0 0.000132918ZM4.49995 0.000132722L5.49995 0.000132634L5.49995 -0.999867L4.49995 -0.999867L4.49995 0.000132722ZM4.49995 5.41955L3.49995 5.41955L3.49995 6.41955H4.49995V5.41955ZM4.49997 5.41955V6.41955H5.49997L5.49997 5.41955L4.49997 5.41955ZM4.49996 0.000132722L4.49996 -0.999867L3.49996 -0.999867L3.49996 0.00013281L4.49996 0.000132722ZM10.5 0.000132459L10.5 1.00013L10.5 0.000132459ZM15 0.000132263L16 0.000132104L16 -0.999868L15 -0.999868L15 0.000132263ZM15 6.00013L15 7.00013L16 7.00013L16 6.00013L15 6.00013ZM10.5 6.00013L10.5 7.00013L10.5 7.00013L10.5 6.00013ZM9.99998 6.00013V5.00013H8.99998L8.99998 6.00013L9.99998 6.00013ZM9.99998 10.2096V11.2096H11L11 10.2096L9.99998 10.2096ZM5 10.2096V9.20963H4L4 10.2096L5 10.2096ZM5 14.999V15.999H6L6 14.999L5 14.999ZM2.80692e-05 14.999L-0.999972 14.999L-0.999972 15.999H2.80692e-05V14.999ZM2.78598e-05 10.2096L1.00003 10.2096L2.78598e-05 10.2096ZM2.78598e-05 10.2089L-0.999972 10.2089L2.78598e-05 10.2089ZM2.76758e-05 6.00013L1.00003 6.00013L1.00003 5.00013H2.76758e-05V6.00013ZM0 6.00013V5.00013H-1V6.00013H0ZM0 223H-1V224H0V223ZM0.00022519 223V224H1.00023L1.00023 223L0.00022519 223ZM0.000224797 218.5L1.00022 218.5L0.000224797 218.5ZM0.000224272 212.5L1.00022 212.5L0.000224272 212.5ZM0.000223879 208V207H-0.999776L-0.999776 208L0.000223879 208ZM6.00022 208H7.00022V207H6.00022V208ZM6.00022 213H5.00022V214H6.00022V213ZM10.2097 213L11.2097 213L11.2097 212H10.2097V213ZM10.2097 218L9.20972 218L9.20972 219H10.2097V218ZM14.9991 218H15.9991V217H14.9991V218ZM14.9991 223V224H15.9991V223H14.9991ZM10.209 223L10.209 222L10.209 222L10.209 223ZM6.00022 223L6.0002 222L6.00022 224V223ZM1519 223V224H1520V223H1519ZM1519 222.999H1520V221.999H1519V222.999ZM1504 222.999H1503V223.999H1504V222.999ZM1504 216.999V215.999H1503V216.999H1504ZM1509 216.999V217.999H1510V216.999H1509ZM1509 212.789V211.789H1508V212.789H1509ZM1514 212.789V213.789H1515V212.789H1514ZM1514 208V207H1513V208H1514ZM1519 208V209H1520L1520 208L1519 208ZM1519 15L1520 15L1520 14H1519V15ZM1513 15H1512V16H1513V15ZM1513 10H1514V9.00003H1513V10ZM1508.79 10H1507.79V11H1508.79V10ZM1508.79 5.00005H1509.79V4.00005H1508.79V5.00005ZM1504 5.00005H1503V6.00005H1504V5.00005ZM1504 7.58171e-05V-0.999924H1503V7.58171e-05H1504ZM1512 0V7.58171e-05H1514V0H1512ZM3.78192e-09 1.00001L1513 1L1513 -1L-3.78192e-09 -0.999994L3.78192e-09 1.00001ZM1 0.000132918V5.72205e-06H-1V0.000132918H1ZM4.49995 -0.999867L-4.37112e-08 -0.999867L4.37112e-08 1.00013L4.49995 1.00013L4.49995 -0.999867ZM5.49995 5.41955L5.49995 0.000132634L3.49995 0.00013281L3.49995 5.41955L5.49995 5.41955ZM4.49997 4.41955H4.49995V6.41955H4.49997V4.41955ZM3.49996 0.00013281L3.49997 5.41955L5.49997 5.41955L5.49996 0.000132634L3.49996 0.00013281ZM10.5 -0.999868L4.49996 -0.999867L4.49996 1.00013L10.5 1.00013L10.5 -0.999868ZM15 -0.999868L10.5 -0.999868L10.5 1.00013L15 1.00013L15 -0.999868ZM16 6.00013L16 0.000132104L14 0.000132422L14 6.00013L16 6.00013ZM10.5 7.00013L15 7.00013L15 5.00013L10.5 5.00013L10.5 7.00013ZM9.99998 7.00013H10.5V5.00013H9.99998V7.00013ZM11 10.2096L11 6.00013L8.99998 6.00013L8.99998 10.2096L11 10.2096ZM5 11.2096H9.99998V9.20963H5V11.2096ZM6 14.999L6 10.2096L4 10.2096L4 14.999L6 14.999ZM2.80692e-05 15.999H5V13.999H2.80692e-05V15.999ZM-0.999972 10.2096L-0.999972 14.999L1.00003 14.999L1.00003 10.2096L-0.999972 10.2096ZM-0.999972 10.2089L-0.999972 10.2096L1.00003 10.2096L1.00003 10.2089L-0.999972 10.2089ZM-0.999972 6.00013L-0.999972 10.2089L1.00003 10.2089L1.00003 6.00013L-0.999972 6.00013ZM0 7.00013H2.76758e-05V5.00013H0V7.00013ZM1 223V6.00013H-1V223H1ZM0.00022519 222H0V224H0.00022519V222ZM-0.999775 218.5L-0.999775 223L1.00023 223L1.00022 218.5L-0.999775 218.5ZM-0.999776 212.5L-0.999775 218.5L1.00022 218.5L1.00022 212.5L-0.999776 212.5ZM-0.999776 208L-0.999776 212.5L1.00022 212.5L1.00022 208L-0.999776 208ZM6.00022 207H0.000223879V209H6.00022V207ZM7.00022 212.5V208H5.00022V212.5H7.00022ZM7.00022 213V212.5H5.00022V213H7.00022ZM10.2097 212H6.00022V214H10.2097V212ZM11.2097 218L11.2097 213L9.20972 213L9.20972 218L11.2097 218ZM14.9991 217H10.2097V219H14.9991V217ZM15.9991 223V218H13.9991V223H15.9991ZM10.2097 224H14.9991V222H10.2097V224ZM10.209 224H10.2097V222H10.209V224ZM6.00024 224L10.2091 224L10.209 222L6.0002 222L6.00024 224ZM1519 222H6.00022V224H1519V222ZM1518 222.999V223H1520V222.999H1518ZM1514.5 223.999H1519V221.999H1514.5V223.999ZM1508.5 223.999H1514.5V221.999H1508.5V223.999ZM1504 223.999H1508.5V221.999H1504V223.999ZM1503 216.999V222.999H1505V216.999H1503ZM1508.5 215.999H1504V217.999H1508.5V215.999ZM1509 215.999H1508.5V217.999H1509V215.999ZM1508 212.789V216.999H1510V212.789H1508ZM1514 211.789H1509V213.789H1514V211.789ZM1513 208V212.789H1515V208H1513ZM1519 207H1514V209H1519V207ZM1518 15L1518 208L1520 208L1520 15L1518 15ZM1513 16H1519V14H1513V16ZM1512 10.5V15H1514V10.5H1512ZM1512 10V10.5H1514V10H1512ZM1508.79 11H1513V9.00003H1508.79V11ZM1507.79 5.00005V10H1509.79V5.00005H1507.79ZM1504 6.00005H1508.79V4.00005H1504V6.00005ZM1503 7.58171e-05V5.00005H1505V7.58171e-05H1503ZM1508.79 -0.999924H1504V1.00008H1508.79V-0.999924ZM1513 -0.999924H1508.79V1.00008H1513V-0.999924Z" fill="white" fill-opacity="0.15" mask="url(#path-3-inside-2_89_9046)"/>
</g>
<path fill-rule="evenodd" clip-rule="evenodd" d="M20 1H583.152V221H20V1ZM165 93H391V124H485V153H391H165V93Z"/>
<path d="M187.864 134.8H195.928V136.816H192.952V146H190.84V136.816H187.864V134.8ZM197.565 139.152C197.565 137.701 197.928 136.576 198.653 135.776C199.389 134.976 200.402 134.576 201.693 134.576C202.984 134.576 203.992 134.976 204.717 135.776C205.453 136.576 205.821 137.701 205.821 139.152V141.648C205.821 143.141 205.453 144.277 204.717 145.056C203.992 145.835 202.984 146.224 201.693 146.224C200.402 146.224 199.389 145.835 198.653 145.056C197.928 144.277 197.565 143.141 197.565 141.648V139.152ZM201.693 144.304C202.077 144.304 202.397 144.245 202.653 144.128C202.909 144 203.117 143.824 203.277 143.6C203.437 143.376 203.549 143.109 203.613 142.8C203.677 142.491 203.709 142.149 203.709 141.776V139.024C203.709 138.672 203.672 138.341 203.597 138.032C203.522 137.723 203.405 137.456 203.245 137.232C203.085 137.008 202.877 136.832 202.621 136.704C202.365 136.565 202.056 136.496 201.693 136.496C201.33 136.496 201.021 136.565 200.765 136.704C200.509 136.832 200.301 137.008 200.141 137.232C199.981 137.456 199.864 137.723 199.789 138.032C199.714 138.341 199.677 138.672 199.677 139.024V141.776C199.677 142.149 199.709 142.491 199.773 142.8C199.837 143.109 199.949 143.376 200.109 143.6C200.269 143.824 200.477 144 200.733 144.128C200.989 144.245 201.309 144.304 201.693 144.304Z" fill="#2AD990"/>
<path d="M441.416 144.944H441.704V134.8H443.816V146H439.688L438.376 135.856H438.088V146H435.976V134.8H440.104L441.416 144.944ZM445.565 139.152C445.565 137.701 445.928 136.576 446.653 135.776C447.389 134.976 448.402 134.576 449.693 134.576C450.984 134.576 451.992 134.976 452.717 135.776C453.453 136.576 453.821 137.701 453.821 139.152V141.648C453.821 143.141 453.453 144.277 452.717 145.056C451.992 145.835 450.984 146.224 449.693 146.224C448.402 146.224 447.389 145.835 446.653 145.056C445.928 144.277 445.565 143.141 445.565 141.648V139.152ZM449.693 144.304C450.077 144.304 450.397 144.245 450.653 144.128C450.909 144 451.117 143.824 451.277 143.6C451.437 143.376 451.549 143.109 451.613 142.8C451.677 142.491 451.709 142.149 451.709 141.776V139.024C451.709 138.672 451.672 138.341 451.597 138.032C451.522 137.723 451.405 137.456 451.245 137.232C451.085 137.008 450.877 136.832 450.621 136.704C450.365 136.565 450.056 136.496 449.693 136.496C449.33 136.496 449.021 136.565 448.765 136.704C448.509 136.832 448.301 137.008 448.141 137.232C447.981 137.456 447.864 137.723 447.789 138.032C447.714 138.341 447.677 138.672 447.677 139.024V141.776C447.677 142.149 447.709 142.491 447.773 142.8C447.837 143.109 447.949 143.376 448.109 143.6C448.269 143.824 448.477 144 448.733 144.128C448.989 144.245 449.309 144.304 449.693 144.304ZM463.874 146H460.194L459.682 137.488V135.952H459.298V137.488L458.786 146H455.106L454.722 134.8H456.642L456.898 143.312V144.752H457.282V143.312L457.794 134.8H461.186L461.698 143.312V144.752H462.082V143.312L462.338 134.8H464.258L463.874 146Z" fill="#2AD990"/>
<path d="M149.152 100.8H156.64V102.816H153.952V109.984H156.64V112H149.152V109.984H151.84V102.816H149.152V100.8ZM164.213 110.944H164.501V100.8H166.613V112H162.485L161.173 101.856H160.885V112H158.773V100.8H162.901L164.213 110.944ZM167.978 100.8H170.154L172.346 110.944H172.634L174.826 100.8H177.002L174.474 112H170.506L167.978 100.8ZM178.543 100.8H186.031V102.816H183.343V109.984H186.031V112H178.543V109.984H181.231V102.816H178.543V100.8ZM188.052 100.8H196.116V102.816H193.14V112H191.028V102.816H188.052V100.8ZM198.296 100.8H205.368V102.816H200.408V105.376H205.176V107.392H200.408V109.984H205.56V112H198.296V100.8Z" fill="#2AD990"/>
<path d="M219.472 108.792H224.944V103.32H219.472V100.584H230.416V95.112H216.736V97.848H214V117H219.472V108.792ZM241.356 111.528H244.092V117H249.564V108.792H246.828V106.056H249.564V97.848H246.828V95.112H233.148V117H238.62V108.792H241.356V111.528ZM238.62 100.584H244.092V103.32H238.62V100.584ZM252.297 100.584H257.769V111.528H252.297V117H268.713V111.528H263.241V100.584H268.713V95.112H252.297V100.584ZM274.181 117H287.861V111.528H276.917V108.792H282.389V103.32H276.917V100.584H287.861V95.112H274.181V97.848H271.445V114.264H274.181V117ZM298.802 108.792H301.538V117H307.01V95.112H301.538V100.584H298.802V97.848H296.066V95.112H290.594V117H296.066V106.056H298.802V108.792ZM320.686 114.264H323.422V111.528H326.158V100.584H323.422V97.848H320.686V95.112H309.742V117H320.686V114.264ZM317.95 103.32H320.686V108.792H317.95V111.528H315.214V100.584H317.95V103.32ZM328.891 106.056H331.627V108.792H339.835V111.528H328.891V117H342.571V114.264H345.307V106.056H342.571V103.32H334.363V100.584H345.307V95.112H331.627V97.848H328.891V106.056Z" fill="white"/>
<path d="M219.472 141.056H222.208V143.792H224.944V141.056H227.68V152H233.152V130.112H227.68V132.848H224.944V135.584H222.208V132.848H219.472V130.112H214V152H219.472V141.056ZM235.895 141.056H238.631V143.792H241.367V152H246.839V143.792H249.575V141.056H252.311V130.112H246.839V138.32H241.367V130.112H235.895V141.056ZM282.399 146.528H285.135V152H290.607V143.792H287.871V141.056H290.607V132.848H287.871V130.112H274.191V152H279.663V143.792H282.399V146.528ZM279.663 135.584H285.135V138.32H279.663V135.584ZM296.076 152H309.756V146.528H298.812V143.792H304.284V138.32H298.812V135.584H309.756V130.112H296.076V132.848H293.34V149.264H296.076V152ZM317.96 143.792H323.432V138.32H317.96V135.584H328.904V130.112H315.224V132.848H312.488V152H317.96V143.792ZM334.373 152H348.053V146.528H337.109V143.792H342.581V138.32H337.109V135.584H348.053V130.112H334.373V132.848H331.637V149.264H334.373V152ZM358.993 146.528H361.729V152H367.201V143.792H364.465V141.056H367.201V132.848H364.465V130.112H350.785V152H356.257V143.792H358.993V146.528ZM356.257 135.584H361.729V138.32H356.257V135.584ZM378.142 146.528H380.878V152H386.35V143.792H383.614V141.056H386.35V132.848H383.614V130.112H369.934V152H375.406V143.792H378.142V146.528ZM375.406 135.584H380.878V138.32H375.406V135.584ZM394.554 143.792H400.026V152H405.498V132.848H402.762V130.112H391.818V132.848H389.082V152H394.554V143.792ZM394.554 138.32V135.584H400.026V138.32H394.554ZM410.966 152H424.646V146.528H413.702V130.112H408.23V149.264H410.966V152Z" fill="white"/>
<defs>
<filter id="filter0_b_89_9046" x="-55" y="-55" width="1629" height="333" filterUnits="userSpaceOnUse" color-interpolation-filters="sRGB">
<feFlood flood-opacity="0" result="BackgroundImageFix"/>
<feGaussianBlur in="BackgroundImageFix" stdDeviation="27.5"/>
<feComposite in2="SourceAlpha" operator="in" result="effect1_backgroundBlur_89_9046"/>
<feBlend mode="normal" in="SourceGraphic" in2="effect1_backgroundBlur_89_9046" result="shape"/>
</filter>
<filter id="filter1_b_89_9046" x="-55" y="-55" width="1629" height="333" filterUnits="userSpaceOnUse" color-interpolation-filters="sRGB">
<feFlood flood-opacity="0" result="BackgroundImageFix"/>
<feGaussianBlur in="BackgroundImageFix" stdDeviation="27.5"/>
<feComposite in2="SourceAlpha" operator="in" result="effect1_backgroundBlur_89_9046"/>
<feBlend mode="normal" in="SourceGraphic" in2="effect1_backgroundBlur_89_9046" result="shape"/>
</filter>
<linearGradient id="paint0_linear_89_9046" x1="750" y1="111" x2="5.82767e-06" y2="111" gradientUnits="userSpaceOnUse">
<stop stop-color="#208A51"/>
<stop offset="1" stop-color="#1E2234" stop-opacity="0"/>
</linearGradient>
</defs>
</svg>
