<svg width="20" height="20" viewBox="0 0 20 20" fill="none" xmlns="http://www.w3.org/2000/svg">
<path d="M4.32723 0.727295H11.8909V2.6182H4.32723V0.727295ZM2.43632 4.50911V2.6182H4.32723V4.50911H2.43632ZM2.43632 12.0728H0.54541V4.50911H2.43632V12.0728ZM4.32723 13.9637H2.43632V12.0728H4.32723V13.9637ZM11.8909 13.9637V15.8546H4.32723V13.9637H11.8909ZM13.7818 12.0728H11.8909V13.9637H13.7818V15.8546H15.6727V17.7455H17.5636V19.6364H19.4545V17.7455H17.5636V15.8546H15.6727V13.9637H13.7818V12.0728ZM13.7818 4.50911H15.6727V12.0728H13.7818V4.50911ZM13.7818 4.50911V2.6182H11.8909V4.50911H13.7818Z" fill="white"/>
</svg>
