<svg width="48" height="45" viewBox="0 0 48 45" fill="none" xmlns="http://www.w3.org/2000/svg">
<mask id="path-1-inside-1_54_25058" fill="white">
<path fill-rule="evenodd" clip-rule="evenodd" d="M0.607422 0H47.6486V0.000121284L42.9449 0.000121087V0.00012148L38.2427 0.000121284V4.50011H42.9449L42.9468 4.50012L47.6486 4.50011V4.50018H42.9449V9.00018H47.6486V36H42.9449V40.5H47.6486V40.5002H42.9468H42.9449H38.2427V45H0.607422V0ZM0.608661 4.50037H5.31277V9.00036H0.608661V4.50037ZM10.0149 0.000183106H5.31277V0.000182545H0.608661V4.50018L5.3108 4.50018L5.31277 4.50018L10.0149 4.50018V0.000183106ZM10.0149 40.4999H5.31277H5.3108H0.608662L0.608662 44.9999H5.3108H5.31277H10.0149V40.4999ZM0.608662 40.4998L0.608662 35.9998H5.31277V40.4998H0.608662Z"/>
</mask>
<path fill-rule="evenodd" clip-rule="evenodd" d="M0.607422 0H47.6486V0.000121284L42.9449 0.000121087V0.00012148L38.2427 0.000121284V4.50011H42.9449L42.9468 4.50012L47.6486 4.50011V4.50018H42.9449V9.00018H47.6486V36H42.9449V40.5H47.6486V40.5002H42.9468H42.9449H38.2427V45H0.607422V0ZM0.608661 4.50037H5.31277V9.00036H0.608661V4.50037ZM10.0149 0.000183106H5.31277V0.000182545H0.608661V4.50018L5.3108 4.50018L5.31277 4.50018L10.0149 4.50018V0.000183106ZM10.0149 40.4999H5.31277H5.3108H0.608662L0.608662 44.9999H5.3108H5.31277H10.0149V40.4999ZM0.608662 40.4998L0.608662 35.9998H5.31277V40.4998H0.608662Z" fill="#66BE47"/>
<path d="M47.6486 0H48.6486V-1H47.6486V0ZM0.607422 0V-1H-0.392578V0H0.607422ZM47.6486 0.000121284L47.6486 1.00012L48.6486 1.00012V0.000121284H47.6486ZM42.9449 0.000121087L42.9449 -0.999879L41.9449 -0.999879V0.000121087H42.9449ZM42.9449 0.00012148L42.9449 1.00012L43.9449 1.00012V0.00012148H42.9449ZM38.2427 0.000121284L38.2427 -0.999879L37.2427 -0.999879V0.000121284H38.2427ZM38.2427 4.50011H37.2427V5.50011H38.2427V4.50011ZM42.9449 4.50011L42.9451 3.50011H42.9449V4.50011ZM42.9468 4.50012L42.9466 5.50012L42.9468 5.50012L42.9468 4.50012ZM47.6486 4.50011H48.6486V3.50011L47.6486 3.50011L47.6486 4.50011ZM47.6486 4.50018V5.50018H48.6486V4.50018H47.6486ZM42.9449 4.50018V3.50018H41.9449V4.50018H42.9449ZM42.9449 9.00018H41.9449V10.0002H42.9449V9.00018ZM47.6486 9.00018H48.6486V8.00018H47.6486V9.00018ZM47.6486 36V37H48.6486V36H47.6486ZM42.9449 36V35H41.9449V36H42.9449ZM42.9449 40.5H41.9449V41.5H42.9449V40.5ZM47.6486 40.5H48.6486V39.5H47.6486V40.5ZM47.6486 40.5002V41.5002H48.6486V40.5002H47.6486ZM38.2427 40.5002V39.5002H37.2427V40.5002H38.2427ZM38.2427 45V46H39.2427V45H38.2427ZM0.607422 45H-0.392578V46H0.607422V45ZM5.31277 4.50037H6.31277V3.50037H5.31277V4.50037ZM0.608661 4.50037V3.50037H-0.391339V4.50037H0.608661ZM5.31277 9.00036V10.0004H6.31277V9.00036H5.31277ZM0.608661 9.00036H-0.391339V10.0004H0.608661V9.00036ZM5.31277 0.000183106H4.31277V1.00018H5.31277V0.000183106ZM10.0149 0.000183106H11.0149V-0.999817H10.0149V0.000183106ZM5.31277 0.000182545H6.31277V-0.999817H5.31277V0.000182545ZM0.608661 0.000182545V-0.999817H-0.391339V0.000182545H0.608661ZM0.608661 4.50018H-0.391339V5.50018L0.608661 5.50018L0.608661 4.50018ZM5.3108 4.50018L5.3108 5.50018L5.31104 5.50018L5.3108 4.50018ZM5.31277 4.50018L5.31277 3.50018L5.31253 3.50018L5.31277 4.50018ZM10.0149 4.50018L10.0149 5.50018L11.0149 5.50018V4.50018H10.0149ZM10.0149 40.4999H11.0149V39.4999H10.0149V40.4999ZM0.608662 40.4999V39.4999H-0.391338L-0.391338 40.4999L0.608662 40.4999ZM0.608662 44.9999L-0.391338 44.9999L-0.391338 45.9999H0.608662V44.9999ZM10.0149 44.9999V45.9999H11.0149V44.9999H10.0149ZM0.608662 35.9998V34.9998H-0.391338L-0.391338 35.9998L0.608662 35.9998ZM0.608662 40.4998L-0.391338 40.4998L-0.391338 41.4998H0.608662V40.4998ZM5.31277 35.9998H6.31277V34.9998H5.31277V35.9998ZM5.31277 40.4998V41.4998H6.31277V40.4998H5.31277ZM47.6486 -1H0.607422V1H47.6486V-1ZM48.6486 0.000121284V0H46.6486V0.000121284H48.6486ZM42.9449 1.00012L47.6486 1.00012L47.6486 -0.999879L42.9449 -0.999879L42.9449 1.00012ZM43.9449 0.00012148V0.000121087H41.9449V0.00012148H43.9449ZM38.2427 1.00012L42.9449 1.00012L42.9449 -0.999879L38.2427 -0.999879L38.2427 1.00012ZM39.2427 4.50011V0.000121284H37.2427V4.50011H39.2427ZM42.9449 3.50011H38.2427V5.50011H42.9449V3.50011ZM42.9471 3.50012L42.9451 3.50011L42.9446 5.50011L42.9466 5.50012L42.9471 3.50012ZM47.6486 3.50011L42.9468 3.50012L42.9468 5.50012L47.6486 5.50011L47.6486 3.50011ZM48.6486 4.50018V4.50011H46.6486V4.50018H48.6486ZM42.9449 5.50018H47.6486V3.50018H42.9449V5.50018ZM43.9449 9.00018V4.50018H41.9449V9.00018H43.9449ZM47.6486 8.00018H42.9449V10.0002H47.6486V8.00018ZM48.6486 36V9.00018H46.6486V36H48.6486ZM42.9449 37H47.6486V35H42.9449V37ZM43.9449 40.5V36H41.9449V40.5H43.9449ZM47.6486 39.5H42.9449V41.5H47.6486V39.5ZM48.6486 40.5002V40.5H46.6486V40.5002H48.6486ZM42.9468 41.5002H47.6486V39.5002H42.9468V41.5002ZM42.9449 41.5002H42.9468V39.5002H42.9449V41.5002ZM38.2427 41.5002H42.9449V39.5002H38.2427V41.5002ZM39.2427 45V40.5002H37.2427V45H39.2427ZM0.607422 46H38.2427V44H0.607422V46ZM-0.392578 0V45H1.60742V0H-0.392578ZM5.31277 3.50037H0.608661V5.50037H5.31277V3.50037ZM6.31277 9.00036V4.50037H4.31277V9.00036H6.31277ZM0.608661 10.0004H5.31277V8.00036H0.608661V10.0004ZM-0.391339 4.50037V9.00036H1.60866V4.50037H-0.391339ZM5.31277 1.00018H10.0149V-0.999817H5.31277V1.00018ZM4.31277 0.000182545V0.000183106H6.31277V0.000182545H4.31277ZM0.608661 1.00018H5.31277V-0.999817H0.608661V1.00018ZM1.60866 4.50018V0.000182545H-0.391339V4.50018H1.60866ZM5.3108 3.50018L0.608661 3.50018L0.608661 5.50018L5.3108 5.50018L5.3108 3.50018ZM5.31253 3.50018L5.31056 3.50018L5.31104 5.50018L5.31301 5.50018L5.31253 3.50018ZM10.0149 3.50018L5.31277 3.50018L5.31277 5.50018L10.0149 5.50018L10.0149 3.50018ZM9.01491 0.000183106V4.50018H11.0149V0.000183106H9.01491ZM5.31277 41.4999H10.0149V39.4999H5.31277V41.4999ZM5.3108 41.4999H5.31277V39.4999H5.3108V41.4999ZM0.608662 41.4999H5.3108V39.4999H0.608662V41.4999ZM1.60866 44.9999L1.60866 40.4999L-0.391338 40.4999L-0.391338 44.9999L1.60866 44.9999ZM5.3108 43.9999H0.608662V45.9999H5.3108V43.9999ZM5.31277 43.9999H5.3108V45.9999H5.31277V43.9999ZM10.0149 43.9999H5.31277V45.9999H10.0149V43.9999ZM9.01491 40.4999V44.9999H11.0149V40.4999H9.01491ZM-0.391338 35.9998L-0.391338 40.4998L1.60866 40.4998L1.60866 35.9998L-0.391338 35.9998ZM5.31277 34.9998H0.608662V36.9998H5.31277V34.9998ZM6.31277 40.4998V35.9998H4.31277V40.4998H6.31277ZM0.608662 41.4998H5.31277V39.4998H0.608662V41.4998Z" fill="#66BE47" fill-opacity="0.15" mask="url(#path-1-inside-1_54_25058)"/>
<path d="M30.3379 15.8824V17.4395H28.7179V18.9966H27.0979V20.5537H25.4778V22.1108H23.8578V23.6679H22.2378V25.2249H21.4278V26.0035H19.8078V25.2249H18.9978V23.6679H17.3778V22.8893H15.7578V25.2249H17.3778V26.782H18.9978V28.3391H19.8078V29.1177H21.4278V28.3391H22.2378V26.782H23.8578V25.2249H25.4778V23.6679H27.0979V22.1108H28.7179V20.5537H30.3379V18.9966H31.9579V15.8824H30.3379Z" fill="white"/>
</svg>
