<svg width="48" height="45" viewBox="0 0 48 45" fill="none" xmlns="http://www.w3.org/2000/svg">
<path fill-rule="evenodd" clip-rule="evenodd" d="M0.607422 0H47.6486V0.000121284L42.9449 0.000121087V0.00012148L38.2427 0.000121284V4.50011H42.9449L42.9468 4.50012L47.6486 4.50011V4.50021H42.9449V9.00021H47.6486V36H42.9449V40.5H47.6486V40.5002H42.9468H42.9449H38.2427V45H0.607422V0ZM0.608661 4.50037H5.31277V9.00036H0.608661V4.50037ZM10.0149 0.000183106H5.31277V0.000182545H0.608661V4.50018L5.3108 4.50018L5.31277 4.50018L10.0149 4.50018V0.000183106ZM10.0149 40.4999H5.31277H5.3108H0.608662L0.608662 44.9999H5.3108H5.31277H10.0149V40.4999ZM0.608662 40.4998L0.608662 35.9998H5.31277V40.4998H0.608662Z" fill="#447EF7"/>
<path d="M23.4973 19L25.5781 19L25.5781 17L23.4973 17L23.4973 19Z" fill="white"/>
<path d="M23.4973 29L25.5781 29L25.5781 21L23.4973 21L23.4973 29Z" fill="white"/>
<path d="M15.1737 30L15.1737 31L16.2141 31L16.2141 32L17.2545 32L17.2545 33L31.8202 33L31.8202 32L32.8606 32L32.8606 31L33.901 31L33.901 30L34.9414 30L34.9414 16L33.901 16L33.901 15L32.8606 15L32.8606 14L31.8202 14L31.8202 13L17.2545 13L17.2545 14L16.2141 14L16.2141 15L15.1737 15L15.1737 16L14.1333 16L14.1333 30L15.1737 30ZM16.2141 18L17.2545 18L17.2545 17L18.2949 17L18.2949 16L19.3353 16L19.3353 15L29.7394 15L29.7394 16L30.7798 16L30.7798 17L31.8202 17L31.8202 18L32.8606 18L32.8606 28L31.8202 28L31.8202 29L30.7798 29L30.7798 30L29.7394 30L29.7394 31L19.3353 31L19.3353 30L18.2949 30L18.2949 29L17.2545 29L17.2545 28L16.2141 28L16.2141 18Z" fill="white"/>
</svg>
