<svg width="48" height="45" viewBox="0 0 48 45" fill="none" xmlns="http://www.w3.org/2000/svg">
<path fill-rule="evenodd" clip-rule="evenodd" d="M0.607422 0H47.6486V0.000121284L42.9449 0.000121087V0.00012148L38.2427 0.000121284V4.50011H42.9449L42.9468 4.50012L47.6486 4.50011V4.50021H42.9449V9.00021H47.6486V36H42.9449V40.5H47.6486V40.5002H42.9468H42.9449H38.2427V45H0.607422V0ZM0.608661 4.50037H5.31277V9.00036H0.608661V4.50037ZM10.0149 0.000183106H5.31277V0.000182545H0.608661V4.50018L5.3108 4.50018L5.31277 4.50018L10.0149 4.50018V0.000183106ZM10.0149 40.4999H5.31277H5.3108H0.608662L0.608662 44.9999H5.3108H5.31277H10.0149V40.4999ZM0.608662 40.4998L0.608662 35.9998H5.31277V40.4998H0.608662Z" fill="#FFA72E"/>
<path d="M25.5749 27H23.4941V29H25.5749V27Z" fill="white"/>
<path d="M25.5749 17H23.4941V25H25.5749V17Z" fill="white"/>
<path d="M33.8985 16V15H32.8581V14H31.8177V13H17.2521V14H16.2117V15H15.1713V16H14.1309V30H15.1713V31H16.2117V32H17.2521V33H31.8177V32H32.8581V31H33.8985V30H34.9389V16H33.8985ZM32.8581 28H31.8177V29H30.7773V30H29.7369V31H19.3329V30H18.2925V29H17.2521V28H16.2117V18H17.2521V17H18.2925V16H19.3329V15H29.7369V16H30.7773V17H31.8177V18H32.8581V28Z" fill="white"/>
</svg>
