<svg width="48" height="45" viewBox="0 0 48 45" fill="none" xmlns="http://www.w3.org/2000/svg">
<path fill-rule="evenodd" clip-rule="evenodd" d="M0.607422 0H47.6486V0.000121284L42.9449 0.000121087V0.00012148L38.2427 0.000121284V4.50011H42.9449L42.9468 4.50012L47.6486 4.50011V4.50021H42.9449V9.00021H47.6486V36H42.9449V40.5H47.6486V40.5002H42.9468H42.9449H38.2427V45H0.607422V0ZM0.608661 4.50037H5.31277V9.00036H0.608661V4.50037ZM10.0149 0.000183106H5.31277V0.000182545H0.608661V4.50018L5.3108 4.50018L5.31277 4.50018L10.0149 4.50018V0.000183106ZM10.0149 40.4999H5.31277H5.3108H0.608662L0.608662 44.9999H5.3108H5.31277H10.0149V40.4999ZM0.608662 40.4998L0.608662 35.9998H5.31277V40.4998H0.608662Z" fill="#E86161"/>
<path d="M32.2088 16.375V15.5H31.2985V14.625H30.3881V13.75H17.6432V14.625H16.7328V15.5H15.8225V16.375H14.9121V28.625H15.8225V29.5H16.7328V30.375H17.6432V31.25H30.3881V30.375H31.2985V29.5H32.2088V28.625H33.1192V16.375H32.2088ZM31.2985 26.875H28.5674V25.125H26.7467V23.375H24.926V21.625H23.1053V19.875H21.2846V18.125H19.4639V15.5H28.5674V16.375H29.4778V17.25H30.3881V18.125H31.2985V26.875ZM18.5535 28.625V27.75H17.6432V26.875H16.7328V18.125H17.6432V19.875H19.4639V21.625H21.2846V23.375H23.1053V25.125H24.926V26.875H26.7467V28.625H28.5674V29.5H19.4639V28.625H18.5535Z" fill="white"/>
</svg>
