<svg width="79" height="42" viewBox="0 0 79 42" fill="none" xmlns="http://www.w3.org/2000/svg">
<path fill-rule="evenodd" clip-rule="evenodd" d="M66.8648 2.8H66.8636L63.9517 2.8V0L0.486328 1.62125e-05V42L0.487159 42V39.2V36.4H3.40029V39.2V42H3.4011V39.2V36.4H6.31301H6.31423H9.22615V39.2V42H9.22696V39.2H12.1389H12.1401H15.052V42L63.9517 42V39.2H66.8636L66.8648 39.2H69.7767V42H69.7775L69.7775 39.2V36.4H72.6894V33.6H75.6026V36.4L75.6026 39.2V42H75.6034V39.2V36.4V33.6L78.5165 33.6V36.4V39.2V42H78.5166V1.62125e-05L78.5165 3.09944e-06V2.8V5.59999L75.6034 5.59999V2.8V2.85466e-06L75.6026 2.85459e-06L75.6026 2.8V5.59999H72.6907H72.6894L69.7775 5.59999V2.8L69.7775 2.36513e-06L69.7767 2.36506e-06V2.8L66.8648 2.8ZM0.487159 14V11.2V11.2V8.40004H3.40029V11.2V11.2V14H0.487159ZM0.487159 8.39999V5.6V5.59999V2.80002V2.8V1.64826e-05H3.40029V2.8V2.80002V5.59999V5.6V8.39999H0.487159ZM3.4011 5.59999V2.80002V2.8V1.64826e-05H6.31301H6.31423H9.22615V2.8V2.80002V5.6H6.31423V8.39999H3.4011V5.6V5.59999ZM3.40029 28V30.8V33.6V36.4H0.487159V33.6V30.8V28H3.40029ZM6.31423 36.4V33.6H3.4011V36.4H6.31423ZM15.052 1.64826e-05V2.80002H12.1401H12.1389H9.22696V1.64826e-05H12.1389H12.1401H15.052ZM78.5165 28V30.8V33.6H75.6034V30.8V28H78.5165ZM78.5165 11.2V14H75.6034V11.2V8.40003V5.60004H78.5165V8.40003V11.2ZM72.6894 5.60004V8.40004L75.6026 8.40004V5.60004L72.6894 5.60004Z" fill="#66BE47"/>
</svg>
