<svg width="30" height="28" viewBox="0 0 30 28" fill="none" xmlns="http://www.w3.org/2000/svg">
<mask id="path-1-inside-1_54_25010" fill="white">
<path fill-rule="evenodd" clip-rule="evenodd" d="M0.144531 0H29.3948V6.12674e-05L26.4718 6.11451e-05V6.09128e-05L23.5468 6.07905e-05V2.79816L26.4709 2.79816L26.4718 2.79816L29.3948 2.79816V2.79822L26.4709 2.79822V5.59632H29.3948V22.3848H26.4709V25.1829H29.3948V25.183H26.4718H26.4709H23.5468V27.981H0.144531V0ZM0.144832 2.79834H3.06985V5.59644H0.144832V2.79834ZM5.99396 0.000125653L3.06894 0.000125653V0.000125897H0.144832V2.79823L3.06894 2.79823L3.06985 2.79823L5.99396 2.79823V0.000125653ZM5.99371 25.1829H3.06961H3.06869H0.144587L0.144587 27.981H3.06869H3.06961H5.99371V25.1829ZM0.144587 25.1828L0.144587 22.3847H3.06961L3.06961 25.1828H0.144587Z"/>
</mask>
<path fill-rule="evenodd" clip-rule="evenodd" d="M0.144531 0H29.3948V6.12674e-05L26.4718 6.11451e-05V6.09128e-05L23.5468 6.07905e-05V2.79816L26.4709 2.79816L26.4718 2.79816L29.3948 2.79816V2.79822L26.4709 2.79822V5.59632H29.3948V22.3848H26.4709V25.1829H29.3948V25.183H26.4718H26.4709H23.5468V27.981H0.144531V0ZM0.144832 2.79834H3.06985V5.59644H0.144832V2.79834ZM5.99396 0.000125653L3.06894 0.000125653V0.000125897H0.144832V2.79823L3.06894 2.79823L3.06985 2.79823L5.99396 2.79823V0.000125653ZM5.99371 25.1829H3.06961H3.06869H0.144587L0.144587 27.981H3.06869H3.06961H5.99371V25.1829ZM0.144587 25.1828L0.144587 22.3847H3.06961L3.06961 25.1828H0.144587Z" fill="white"/>
<path d="M29.3948 0H30.3948V-1H29.3948V0ZM0.144531 0V-1H-0.855469V0H0.144531ZM29.3948 6.12674e-05L29.3948 1.00006L30.3948 1.00006V6.12674e-05H29.3948ZM26.4718 6.11451e-05H25.4718V1.00006L26.4718 1.00006L26.4718 6.11451e-05ZM26.4718 6.09128e-05H27.4718V-0.999939L26.4718 -0.999939L26.4718 6.09128e-05ZM23.5468 6.07905e-05L23.5468 -0.999939L22.5468 -0.999939V6.07905e-05H23.5468ZM23.5468 2.79816H22.5468V3.79816L23.5468 3.79816L23.5468 2.79816ZM26.4709 2.79816L26.4709 3.79816L26.4711 3.79816L26.4709 2.79816ZM26.4718 2.79816L26.4718 1.79816L26.4715 1.79816L26.4718 2.79816ZM29.3948 2.79816H30.3948V1.79816L29.3948 1.79816L29.3948 2.79816ZM29.3948 2.79822L29.3948 3.79822L30.3948 3.79822V2.79822H29.3948ZM26.4709 2.79822L26.4709 1.79822L25.4709 1.79822V2.79822H26.4709ZM26.4709 5.59632H25.4709V6.59632H26.4709V5.59632ZM29.3948 5.59632H30.3948V4.59632H29.3948V5.59632ZM29.3948 22.3848V23.3848H30.3948V22.3848H29.3948ZM26.4709 22.3848V21.3848H25.4709V22.3848H26.4709ZM26.4709 25.1829H25.4709V26.1829H26.4709V25.1829ZM29.3948 25.1829H30.3948V24.1829H29.3948V25.1829ZM29.3948 25.183V26.183H30.3948V25.183H29.3948ZM23.5468 25.183V24.183H22.5468V25.183H23.5468ZM23.5468 27.981V28.981H24.5468V27.981H23.5468ZM0.144531 27.981H-0.855469V28.981H0.144531V27.981ZM3.06985 2.79834H4.06985V1.79834H3.06985V2.79834ZM0.144832 2.79834V1.79834H-0.855168V2.79834H0.144832ZM3.06985 5.59644V6.59644H4.06985V5.59644H3.06985ZM0.144832 5.59644H-0.855168V6.59644H0.144832V5.59644ZM3.06894 0.000125653L3.06894 -0.999874L2.06894 -0.999874V0.000125653H3.06894ZM5.99396 0.000125653H6.99396V-0.999874L5.99396 -0.999874L5.99396 0.000125653ZM3.06894 0.000125897V1.00013H4.06894V0.000125897H3.06894ZM0.144832 0.000125897V-0.999874H-0.855168V0.000125897H0.144832ZM0.144832 2.79823H-0.855168V3.79823L0.144832 3.79823L0.144832 2.79823ZM3.06894 2.79823L3.0692 1.79823L3.06894 1.79823L3.06894 2.79823ZM3.06985 2.79823L3.06959 3.79823L3.06985 3.79823L3.06985 2.79823ZM5.99396 2.79823L5.99396 3.79823L6.99396 3.79823V2.79823H5.99396ZM5.99371 25.1829H6.99371V24.1829H5.99371V25.1829ZM0.144587 25.1829V24.1829H-0.855413L-0.855413 25.1829L0.144587 25.1829ZM0.144587 27.981L-0.855413 27.981L-0.855413 28.981H0.144587V27.981ZM5.99371 27.981V28.981H6.99371V27.981H5.99371ZM0.144587 22.3847V21.3847H-0.855413L-0.855413 22.3847L0.144587 22.3847ZM0.144587 25.1828L-0.855413 25.1828L-0.855413 26.1828H0.144587V25.1828ZM3.06961 22.3847L4.06961 22.3847L4.06961 21.3847H3.06961V22.3847ZM3.06961 25.1828V26.1828H4.06961L4.06961 25.1828L3.06961 25.1828ZM29.3948 -1H0.144531V1H29.3948V-1ZM30.3948 6.12674e-05V0H28.3948V6.12674e-05H30.3948ZM26.4718 1.00006L29.3948 1.00006L29.3948 -0.999939L26.4718 -0.999939L26.4718 1.00006ZM25.4718 6.09128e-05V6.11451e-05H27.4718V6.09128e-05H25.4718ZM23.5468 1.00006L26.4718 1.00006L26.4718 -0.999939L23.5468 -0.999939L23.5468 1.00006ZM24.5468 2.79816V6.07905e-05H22.5468V2.79816H24.5468ZM26.4709 1.79816L23.5468 1.79816L23.5468 3.79816L26.4709 3.79816L26.4709 1.79816ZM26.4715 1.79816L26.4706 1.79816L26.4711 3.79816L26.472 3.79816L26.4715 1.79816ZM29.3948 1.79816L26.4718 1.79816L26.4718 3.79816L29.3948 3.79816L29.3948 1.79816ZM30.3948 2.79822V2.79816H28.3948V2.79822H30.3948ZM26.4709 3.79822L29.3948 3.79822L29.3948 1.79822L26.4709 1.79822L26.4709 3.79822ZM27.4709 5.59632V2.79822H25.4709V5.59632H27.4709ZM29.3948 4.59632H26.4709V6.59632H29.3948V4.59632ZM30.3948 22.3848V5.59632H28.3948V22.3848H30.3948ZM26.4709 23.3848H29.3948V21.3848H26.4709V23.3848ZM27.4709 25.1829V22.3848H25.4709V25.1829H27.4709ZM29.3948 24.1829H26.4709V26.1829H29.3948V24.1829ZM30.3948 25.183V25.1829H28.3948V25.183H30.3948ZM26.4718 26.183H29.3948V24.183H26.4718V26.183ZM26.4709 26.183H26.4718V24.183H26.4709V26.183ZM23.5468 26.183H26.4709V24.183H23.5468V26.183ZM24.5468 27.981V25.183H22.5468V27.981H24.5468ZM0.144531 28.981H23.5468V26.981H0.144531V28.981ZM-0.855469 0V27.981H1.14453V0H-0.855469ZM3.06985 1.79834H0.144832V3.79834H3.06985V1.79834ZM4.06985 5.59644V2.79834H2.06985V5.59644H4.06985ZM0.144832 6.59644H3.06985V4.59644H0.144832V6.59644ZM-0.855168 2.79834V5.59644H1.14483V2.79834H-0.855168ZM3.06894 1.00013L5.99396 1.00013L5.99396 -0.999874L3.06894 -0.999874L3.06894 1.00013ZM4.06894 0.000125897V0.000125653H2.06894V0.000125897H4.06894ZM0.144832 1.00013H3.06894V-0.999874H0.144832V1.00013ZM1.14483 2.79823V0.000125897H-0.855168V2.79823H1.14483ZM3.06894 1.79823L0.144832 1.79823L0.144832 3.79823L3.06894 3.79823L3.06894 1.79823ZM3.07011 1.79823L3.0692 1.79823L3.06868 3.79823L3.06959 3.79823L3.07011 1.79823ZM5.99396 1.79823L3.06985 1.79823L3.06985 3.79823L5.99396 3.79823L5.99396 1.79823ZM4.99396 0.000125653V2.79823H6.99396V0.000125653H4.99396ZM3.06961 26.1829H5.99371V24.1829H3.06961V26.1829ZM3.06869 26.1829H3.06961V24.1829H3.06869V26.1829ZM0.144587 26.1829H3.06869V24.1829H0.144587V26.1829ZM1.14459 27.981L1.14459 25.1829L-0.855413 25.1829L-0.855413 27.981L1.14459 27.981ZM3.06869 26.981H0.144587V28.981H3.06869V26.981ZM3.06961 26.981H3.06869V28.981H3.06961V26.981ZM5.99371 26.981H3.06961V28.981H5.99371V26.981ZM4.99371 25.1829V27.981H6.99371V25.1829H4.99371ZM-0.855413 22.3847L-0.855413 25.1828L1.14459 25.1828L1.14459 22.3847L-0.855413 22.3847ZM3.06961 21.3847H0.144587V23.3847H3.06961V21.3847ZM4.06961 25.1828L4.06961 22.3847L2.06961 22.3847L2.06961 25.1828L4.06961 25.1828ZM0.144587 26.1828H3.06961V24.1828H0.144587V26.1828Z" fill="white" fill-opacity="0.15" mask="url(#path-1-inside-1_54_25010)"/>
<path d="M18.6303 9.87567V10.8439H17.623V11.8121H16.6157V12.7803H15.6084V13.7485H14.6011V14.7167H13.5937V15.6849H13.0901V16.169H12.0828V15.6849H11.5791V14.7167H10.5718V14.2326H9.56445V15.6849H10.5718V16.6531H11.5791V17.6213H12.0828V18.1054H13.0901V17.6213H13.5937V16.6531H14.6011V15.6849H15.6084V14.7167H16.6157V13.7485H17.623V12.7803H18.6303V11.8121H19.6377V9.87567H18.6303Z" fill="#66BE47"/>
</svg>
