<svg width="28" height="28" viewBox="0 0 28 28" fill="none" xmlns="http://www.w3.org/2000/svg">
<path d="M11.0836 24.8898C11.6205 24.8898 12.0558 24.4545 12.0558 23.9175C12.0558 23.3806 11.6205 22.9453 11.0836 22.9453C10.5466 22.9453 10.1113 23.3806 10.1113 23.9175C10.1113 24.4545 10.5466 24.8898 11.0836 24.8898Z" stroke="#A3A3A3" stroke-width="2" stroke-linecap="round" stroke-linejoin="round"/>
<path d="M21.7776 24.8898C22.3146 24.8898 22.7499 24.4545 22.7499 23.9175C22.7499 23.3806 22.3146 22.9453 21.7776 22.9453C21.2407 22.9453 20.8054 23.3806 20.8054 23.9175C20.8054 24.4545 21.2407 24.8898 21.7776 24.8898Z" stroke="#A3A3A3" stroke-width="2" stroke-linecap="round" stroke-linejoin="round"/>
<path d="M8.16653 9.33377L9.79986 17.4907C9.88877 17.9383 10.1323 18.3404 10.4878 18.6266C10.8432 18.9127 11.288 19.0647 11.7443 19.056H21.1943C21.6506 19.0647 22.0954 18.9127 22.4509 18.6266C22.8063 18.3404 23.0498 17.9383 23.1388 17.4907L24.6943 9.33377H8.16653Z" fill="#A3A3A3"/>
<path d="M3.30542 4.47266H7.19431L9.79986 17.4907M9.79986 17.4907C9.88877 17.9383 10.1323 18.3404 10.4878 18.6266C10.8432 18.9127 11.288 19.0647 11.7443 19.056H21.1943C21.6506 19.0647 22.0954 18.9127 22.4509 18.6266C22.8063 18.3404 23.0498 17.9383 23.1388 17.4907L24.6943 9.33377H8.16653L9.79986 17.4907Z" stroke="#A3A3A3" stroke-width="2" stroke-linecap="round" stroke-linejoin="round"/>
</svg>
