<svg width="19" height="22" viewBox="0 0 19 22" fill="none" xmlns="http://www.w3.org/2000/svg">
<path fill-rule="evenodd" clip-rule="evenodd" d="M13.6831 5.81416C13.6831 8.10512 11.8549 9.96231 9.59977 9.96231C7.34461 9.96231 5.51644 8.10512 5.51644 5.81416C5.51644 3.5232 7.34461 1.66602 9.59977 1.66602C11.8549 1.66602 13.6831 3.5232 13.6831 5.81416ZM17.7664 18.2586V20.3327H1.43311V18.2586C1.43311 17.1585 1.86331 16.1034 2.62909 15.3254C3.39486 14.5475 4.43347 14.1105 5.51644 14.1105H13.6831C14.7661 14.1105 15.8047 14.5475 16.5705 15.3254C17.3362 16.1034 17.7664 17.1585 17.7664 18.2586Z" fill="#A3A3A3"/>
<path d="M17.7664 20.3327V21.3327C18.3187 21.3327 18.7664 20.885 18.7664 20.3327H17.7664ZM1.43311 20.3327H0.433105C0.433105 20.885 0.880821 21.3327 1.43311 21.3327L1.43311 20.3327ZM2.62909 15.3254L1.91643 14.6239H1.91643L2.62909 15.3254ZM16.5705 15.3254L17.2831 14.6239H17.2831L16.5705 15.3254ZM9.59977 10.9623C12.422 10.9623 14.6831 8.6425 14.6831 5.81416H12.6831C12.6831 7.56774 11.2879 8.96231 9.59977 8.96231V10.9623ZM4.51644 5.81416C4.51644 8.6425 6.77754 10.9623 9.59977 10.9623V8.96231C7.91168 8.96231 6.51644 7.56774 6.51644 5.81416H4.51644ZM9.59977 0.666016C6.77754 0.666016 4.51644 2.98583 4.51644 5.81416H6.51644C6.51644 4.06058 7.91168 2.66602 9.59977 2.66602V0.666016ZM14.6831 5.81416C14.6831 2.98583 12.422 0.666016 9.59977 0.666016V2.66602C11.2879 2.66602 12.6831 4.06058 12.6831 5.81416H14.6831ZM18.7664 20.3327V18.2586H16.7664V20.3327H18.7664ZM1.43311 21.3327H17.7664V19.3327H1.43311V21.3327ZM0.433105 18.2586V20.3327H2.43311V18.2586H0.433105ZM1.91643 14.6239C0.964906 15.5905 0.433105 16.8983 0.433105 18.2586H2.43311C2.43311 17.4186 2.76172 16.6162 3.34174 16.0269L1.91643 14.6239ZM5.51644 13.1105C4.16313 13.1105 2.86849 13.6567 1.91643 14.6239L3.34174 16.0269C3.92123 15.4383 4.70382 15.1105 5.51644 15.1105V13.1105ZM13.6831 13.1105H5.51644V15.1105H13.6831V13.1105ZM17.2831 14.6239C16.3311 13.6567 15.0364 13.1105 13.6831 13.1105V15.1105C14.4957 15.1105 15.2783 15.4383 15.8578 16.0269L17.2831 14.6239ZM18.7664 18.2586C18.7664 16.8983 18.2346 15.5905 17.2831 14.6239L15.8578 16.0269C16.4378 16.6162 16.7664 17.4186 16.7664 18.2586H18.7664Z" fill="#A3A3A3"/>
</svg>
