<svg width="54" height="55" viewBox="0 0 54 55" fill="none" xmlns="http://www.w3.org/2000/svg">
<path fill-rule="evenodd" clip-rule="evenodd" d="M50.8264 0.758789H50.8264V3.92676H53.9942V3.92694H50.8264V7.09484V7.09491V10.2627V10.2628V13.4307H53.9942V54.3706L13.0542 54.3706V51.2026H9.88625L9.88622 54.3706L9.88623 51.2026H6.71834H6.71826H3.55037L3.55037 54.3706H3.55029L3.55029 51.2026H0.382446V51.2025H3.55029L3.55029 48.0346V48.0345L3.55029 44.8666L3.55029 41.6987H0.382446V10.2628H0.382449L0.382449 13.4307H3.55042V10.2627H3.5504V7.09486L3.5504 7.09478V3.92689H0.382446V3.92684H3.5504L3.5504 0.758868L0.382446 0.758868V0.758807L41.3225 0.758798V3.92677H44.4904V0.758798L44.4905 0.758789V3.92676H47.6584H47.6585H50.8264V0.758789ZM13.0543 3.92684L9.8864 3.92684H9.88632H6.71852H6.71843H3.55055V0.758868L6.71843 0.758868H6.71852L9.88632 0.758868H9.8864L13.0543 0.758868V3.92684ZM9.8864 3.92689H6.71852H6.71843H3.55055V7.09478V7.09486V10.2628H6.71852V7.09486H9.8864V3.92689ZM50.8264 7.09491V10.2628H47.6584V7.09491H44.4905V3.92694H47.6584H47.6585H50.8264V7.09484V7.09491ZM44.4902 51.2025H41.3223V54.3705H44.4902H44.4903H47.658H47.6581H50.826V51.2025V48.0346V48.0346V44.8667H47.658V48.0346H44.4902V51.2025ZM50.8262 54.3705H53.9941V51.2025V48.0346V48.0346V44.8667V41.6987H50.8262L50.8262 44.8667V48.0346V48.0346V51.2025V54.3705ZM3.55037 48.0345L3.55037 44.8666H6.71834V48.0345H9.88623V51.2025H6.71834H6.71826H3.55037L3.55037 48.0346L3.55037 48.0345Z" fill="#447EF7"/>
<path d="M36.7618 19.0549V17.9911H17.6148V19.0549H16.551V36.0745H17.6148V37.1382H36.7618V36.0745H37.8255V19.0549H36.7618ZM35.6981 22.2461H34.6344V23.3098H32.5069V24.3735H30.3795V25.4372H28.252V26.501H26.1246V25.4372H23.9971V24.3735H21.8697V23.3098H19.7422V22.2461H18.6785V21.1823H19.7422V20.1186H34.6344V21.1823H35.6981V22.2461ZM35.6981 33.947H34.6344V35.0108H19.7422V33.947H18.6785V25.4372H19.7422V26.501H21.8697V27.5647H23.9971V28.6284H25.0608V29.6921H29.3157V28.6284H30.3795V27.5647H32.5069V26.501H34.6344V25.4372H35.6981V33.947Z" fill="white"/>
</svg>
