<svg width="54" height="54" viewBox="0 0 54 54" fill="none" xmlns="http://www.w3.org/2000/svg">
<path fill-rule="evenodd" clip-rule="evenodd" d="M0.382446 0.135254H53.9942V0.135295H50.8264V3.30326H53.9942V3.30338H50.8264V6.47128V6.47135V9.63917V9.63924V12.8071H53.9942V53.747L13.0542 53.747V50.579H9.88625L9.88623 53.747V50.579H6.71834H6.71826H3.55037L3.55037 53.747H3.55029L3.55029 50.579H0.382446V50.5789H3.55029L3.55029 47.411V47.411L3.55029 44.2431L3.55029 41.0752H0.382446V9.63916H0.382449L0.382449 12.8071H3.55042V9.63914H3.5504V6.47126L3.5504 6.47119V3.3033H0.382446V3.30324H3.5504L3.5504 0.135273L0.382446 0.135273V0.135254ZM13.0543 3.30324L9.8864 3.30324H9.88632H6.71852H6.71843H3.55055V0.135273L6.71843 0.135273L6.71852 0.135273L9.88632 0.135273L9.8864 0.135273L13.0543 0.135273V3.30324ZM9.8864 3.3033H6.71852H6.71843H3.55055V6.47119V6.47126V9.63916H6.71852V6.47126H9.8864V3.3033ZM50.8264 6.47135V9.63924H47.6584V6.47135H44.4905V3.30338H47.6584H47.6585H50.8264V6.47128V6.47135ZM50.8264 0.135295H47.6585H47.6584H44.4905V3.30326H47.6584H47.6585H50.8264V0.135295ZM44.4904 3.30324V0.135274H41.3225V3.30324H44.4904ZM44.4902 50.579V47.411H47.658V44.2431H50.826V47.411V47.4111V50.579V53.747H47.6581H47.658H44.4903H44.4902H41.3223V50.579H44.4902ZM50.8262 53.747H53.9941V50.579V47.4111V47.411V44.2431V41.0752H50.8262L50.8262 44.2431V47.411V47.4111V50.579V53.747ZM3.55037 47.4109L3.55037 44.2431L6.71834 44.2431V47.411H9.88623V50.5789H6.71834H6.71826H3.55037L3.55037 47.411L3.55037 47.4109Z" fill="#447EF7"/>
<path d="M32.5069 17.3676V18.4314H30.3795V17.3676H27.1883V16.3039H20.8059V17.3676H17.6147V37.5784H19.7422V32.2598H22.9334V31.1961H25.0608V32.2598H28.252V33.3235H34.6344V32.2598H36.7618V17.3676H32.5069ZM34.6344 30.1324H32.5069V31.1961H30.3795V30.1324H27.1883V29.0686H20.8059V30.1324H19.7422V19.4951H22.9334V18.4314H25.0608V19.4951H28.252V20.5588H34.6344V30.1324Z" fill="white"/>
</svg>
