<svg width="54" height="55" viewBox="0 0 54 55" fill="none" xmlns="http://www.w3.org/2000/svg">
<path fill-rule="evenodd" clip-rule="evenodd" d="M50.8264 0.511688H50.8264V3.67966H53.9942V3.67984H50.8264V6.84774V6.84781V10.0156V10.0157V13.1836H53.9942V54.1234L13.0542 54.1235V50.9555H9.88625L9.88622 54.1235L9.88623 50.9555H6.71834H6.71826H3.55037L3.55037 54.1235H3.55029L3.55029 50.9555H0.382446V50.9553H3.55029L3.55029 47.7874V47.7873L3.55029 44.6194L3.55029 41.4516H0.382446V10.0156H3.5504V6.84766L3.5504 6.84758V3.67969H0.382446V3.67967H3.5504L3.5504 0.511701L0.382446 0.511701V0.511692H41.3225V3.67966H44.4904V0.511692L44.4905 0.511688V3.67966H47.6584H47.6585H50.8264V0.511688ZM13.0543 3.67967L9.8864 3.67967H9.88632H6.71852H6.71843H3.55055V0.511701L6.71843 0.511701L6.71852 0.511701L9.88632 0.511701L9.8864 0.511701L13.0543 0.511701V3.67967ZM9.8864 3.67969H6.71852H6.71843H3.55055V6.84758V6.84766V10.0156H6.71852V6.84766H9.8864V3.67969ZM0.382449 13.1836L0.382449 10.0156H3.55042V13.1836H0.382449ZM50.8264 6.84781V10.0157H47.6584V6.84781H44.4905V3.67984H47.6584H47.6585H50.8264V6.84774V6.84781ZM41.3223 50.9554L44.4902 50.9554V47.7874H47.658V44.6196H50.826V47.7874V47.7875V50.9554V54.1234H47.6581H47.658H44.4903H44.4902H41.3223V50.9554ZM50.8262 54.1234H53.9941V50.9554V47.7875V47.7874V44.6196H50.8262V47.7874V47.7875V50.9554V54.1234ZM53.9941 41.4516V44.6195L50.8262 44.6195V41.4516H53.9941ZM3.55037 47.7873L3.55037 44.6194H6.71834V47.7873H9.88623V50.9553H6.71834H6.71826H3.55037L3.55037 47.7874L3.55037 47.7873Z" fill="#447EF7"/>
<path d="M31.0177 17.1058V18.3823H23.3589V17.1058H31.0177Z" fill="white"/>
<path d="M20.806 19.6588V18.3823H23.3589V19.6588H20.806Z" fill="white"/>
<path d="M19.5295 20.9352V19.6588H20.806V20.9352H19.5295Z" fill="white"/>
<path d="M18.253 23.4882V20.9352H19.5295V23.4882H18.253Z" fill="white"/>
<path d="M18.253 31.147H16.9766V23.4882H18.253V31.147Z" fill="white"/>
<path d="M19.5295 33.7H18.253V31.147H19.5295V33.7Z" fill="white"/>
<path d="M20.806 34.9764H19.5295V33.7H20.806V34.9764Z" fill="white"/>
<path d="M23.3589 36.2529H20.806V34.9764H23.3589V36.2529Z" fill="white"/>
<path d="M31.0177 36.2529V37.5294H23.3589V36.2529H31.0177Z" fill="white"/>
<path d="M33.5707 34.9764V36.2529H31.0177V34.9764H33.5707Z" fill="white"/>
<path d="M34.8471 33.7V34.9764H33.5707V33.7H34.8471Z" fill="white"/>
<path d="M36.1236 31.147V33.7H34.8471V31.147H36.1236Z" fill="white"/>
<path d="M36.1236 23.4882H37.4001V31.147H36.1236V23.4882Z" fill="white"/>
<path d="M34.8471 20.9352H36.1236V23.4882H34.8471V20.9352Z" fill="white"/>
<path d="M33.5707 19.6588H34.8471V20.9352H33.5707V19.6588Z" fill="white"/>
<path d="M33.5707 19.6588V18.3823H31.0177V19.6588H33.5707Z" fill="white"/>
<path d="M23.3589 31.147H24.6354V32.4235H25.9119V33.7H27.1883V32.4235H29.7413V31.147H31.0177V28.5941H29.7413V27.3176H27.1883V26.0411H24.6354V23.4882H29.7413V24.7647H31.0177V23.4882H29.7413V22.2117H28.4648V20.9352H27.1883V22.2117H24.6354V23.4882H23.3589V26.0411H24.6354V27.3176H27.1883V28.5941H29.7413V31.147H24.6354V29.8705H23.3589V31.147Z" fill="white"/>
<path d="M31.0177 18.3823V17.1058H23.3589V18.3823M31.0177 18.3823H23.3589M31.0177 18.3823H33.5707V19.6588M31.0177 18.3823V19.6588H33.5707M23.3589 18.3823H20.806V19.6588M23.3589 18.3823V19.6588H20.806M20.806 19.6588H19.5295V20.9352M20.806 19.6588V20.9352H19.5295M19.5295 20.9352H18.253V23.4882M19.5295 20.9352V23.4882H18.253M18.253 23.4882H16.9766V31.147H18.253M18.253 23.4882V31.147M18.253 31.147V33.7H19.5295M18.253 31.147H19.5295V33.7M19.5295 33.7V34.9764H20.806M19.5295 33.7H20.806V34.9764M20.806 34.9764V36.2529H23.3589M20.806 34.9764H23.3589V36.2529M23.3589 36.2529V37.5294H31.0177V36.2529M23.3589 36.2529H31.0177M31.0177 36.2529H33.5707V34.9764M31.0177 36.2529V34.9764H33.5707M33.5707 34.9764H34.8471V33.7M33.5707 34.9764V33.7H34.8471M34.8471 33.7H36.1236V31.147M34.8471 33.7V31.147H36.1236M36.1236 31.147H37.4001V23.4882H36.1236M36.1236 31.147V23.4882M36.1236 23.4882V20.9352H34.8471M36.1236 23.4882H34.8471V20.9352M34.8471 20.9352V19.6588H33.5707M34.8471 20.9352H33.5707V19.6588M24.6354 31.147H23.3589V29.8705H24.6354V31.147ZM24.6354 31.147V32.4235H25.9119V33.7H27.1883V32.4235H29.7413V31.147M24.6354 31.147H29.7413M29.7413 31.147H31.0177V28.5941H29.7413M29.7413 31.147V28.5941M29.7413 28.5941V27.3176H27.1883M29.7413 28.5941H27.1883V27.3176M27.1883 27.3176V26.0411H24.6354M27.1883 27.3176H24.6354V26.0411M24.6354 26.0411V23.4882M24.6354 26.0411H23.3589V23.4882H24.6354M24.6354 23.4882H29.7413M24.6354 23.4882V22.2117H27.1883V20.9352H28.4648V22.2117H29.7413V23.4882M29.7413 23.4882V24.7647H31.0177V23.4882H29.7413Z" stroke="white" stroke-width="0.5"/>
</svg>
