<svg width="54" height="54" viewBox="0 0 54 54" fill="none" xmlns="http://www.w3.org/2000/svg">
<path fill-rule="evenodd" clip-rule="evenodd" d="M0.382506 3.55027L0.382506 3.55032H3.55047V6.71821V6.71829V9.88618H0.382506L0.382507 41.3223H3.55036L3.55036 44.4902V44.4903L3.55036 47.6581V47.6581L3.55036 50.826H0.382507L0.382507 50.8262H3.55036L3.55036 53.9941H3.55044L3.55044 50.8262H6.71833H6.71841H9.8863V53.9941L9.88631 50.8261H13.0543V53.9941H53.9943V13.0542H50.8265V9.8863V9.88622V6.71847V6.71833V3.55051H53.9943V3.55032H50.8265V0.382351L53.9943 0.382324H13.0544V3.55026L9.88647 3.55026H9.88639H6.71859H6.7185H3.55062V0.382324H3.55047V3.55027H0.382506ZM9.88647 3.55032H6.71859H6.7185H3.55062L3.55062 6.71821L3.55062 6.71829L3.55062 9.88618H6.71859L6.71859 6.71829H9.88647V3.55032ZM0.382515 13.0542L0.382515 9.8862H3.55048V13.0542H0.382515ZM50.8264 6.71847V9.8863H47.6585V6.71847H44.4906V3.55051H47.6585H47.6585H50.8264V6.71833V6.71847ZM50.8264 3.55032V0.382351H47.6585H47.6585H44.4906V3.55032H47.6585H47.6585H50.8264ZM44.4905 0.382338H41.3225V3.5503H44.4905V0.382338ZM44.4902 47.6581V50.8261H41.3224V53.9941L44.4902 53.9941H44.4903L47.6581 53.9941L47.6582 53.9941L50.826 53.9941V50.8261V47.6582V47.6581V44.4902H47.6581V47.6581H44.4902ZM50.8262 47.6582V50.8261V53.9941L53.9942 53.9941V50.8261V47.6582V47.6581V44.4902V41.3223H50.8262L50.8262 44.4902V47.6581V47.6582ZM3.55044 47.6581L3.55044 44.4902H6.71841V47.6581H9.8863V50.826H6.71841H6.71833H3.55044L3.55044 47.6581L3.55044 47.6581Z" fill="#447EF7"/>
<path d="M22.9334 27.1882H23.9971V28.2519H30.3794V27.1882H31.4432V26.1245H32.5069V19.7421H31.4432V18.6784H30.3794V17.6147H23.9971V18.6784H22.9334V19.7421H21.8696V26.1245H22.9334V27.1882ZM23.9971 21.8696H25.0608V20.8059H26.1245V19.7421H28.252V20.8059H29.3157V21.8696H30.3794V23.997H29.3157V25.0608H28.252V26.1245H26.1245V25.0608H25.0608V23.997H23.9971V21.8696Z" fill="white"/>
<path d="M34.6343 31.4431V30.3794H33.5706V29.3157H20.8059V30.3794H19.7422V31.4431H18.6785V36.7618H20.8059V33.5706H21.8696V32.5069H22.9334V31.4431H31.4432V32.5069H32.5069V33.5706H33.5706V36.7618H35.6981V31.4431H34.6343Z" fill="white"/>
</svg>
