<svg width="54" height="55" viewBox="0 0 54 55" fill="none" xmlns="http://www.w3.org/2000/svg">
<path fill-rule="evenodd" clip-rule="evenodd" d="M50.8262 0.758789H50.8263V3.92676H53.9941V3.92694H50.8263V7.09484V7.09491V10.2627V10.2628V13.4307H53.9941V54.3706L13.0541 54.3706V51.2026H9.88615V54.3706H9.8861V51.2026H6.71824H6.71814H3.55028L3.55028 54.3706H3.55019L3.55019 51.2026H0.382324V51.2025H3.55019L3.55019 48.0345L3.55019 44.8667V44.8666L3.55019 41.6987H0.382324V0.758807L41.3224 0.758798V3.92677H44.4903V0.758798L44.4904 0.758789V3.92676H47.6583H47.6583H50.8262V0.758789ZM13.0542 3.92684L9.8863 3.92684H9.88622H6.71844H6.71833H3.55047V0.758868L6.71833 0.758868H6.71844L9.88622 0.758868H9.8863L13.0542 0.758868V3.92684ZM9.8863 3.92689H6.71844H6.71833H3.55047V7.09478V7.09486L3.55047 10.2628H6.71844V7.09486H9.8863V3.92689ZM0.382349 0.758868L0.382349 3.92684H3.55032V0.758868L0.382349 0.758868ZM0.382349 7.09478V3.92689H3.55032V7.09478V7.09486L3.55032 10.2627V13.4307H0.382352L0.382352 10.2628H0.382349V7.09486L0.382349 7.09478ZM50.8262 7.09491V10.2628H47.6583V7.09491H44.4904V3.92694H47.6583H47.6583H50.8262V7.09484V7.09491ZM44.4901 51.2025H41.3222V54.3705H44.4901H44.4901H47.6579H47.658H50.8258V51.2025V48.0346V48.0346V44.8667H47.6579V48.0346H44.4901V51.2025ZM53.994 54.3705V51.2025V48.0346V48.0346V44.8667V41.6987H50.826L50.8261 44.8667V48.0346V48.0346V51.2025V54.3705H53.994ZM3.55028 48.0345L3.55028 44.8666H6.71824V48.0345H9.8861V51.2025H6.71824H6.71814H3.55028L3.55028 48.0346L3.55028 48.0345Z" fill="#447EF7"/>
<path d="M36.7618 20.1186V19.0549H32.5069V17.9911H30.3795V19.0549H23.9971V17.9911H21.8697V19.0549H17.6148V20.1186H16.551V37.1382H17.6148V38.2019H36.7618V37.1382H37.8255V20.1186H36.7618ZM35.6981 24.3735H18.6785V22.2461H19.7422V21.1823H21.8697V23.3098H23.9971V21.1823H30.3795V23.3098H32.5069V21.1823H34.6344V22.2461H35.6981V24.3735ZM35.6981 35.0108H34.6344V36.0745H19.7422V35.0108H18.6785V26.501H35.6981V35.0108Z" fill="white"/>
</svg>
