<svg width="54" height="55" viewBox="0 0 54 55" fill="none" xmlns="http://www.w3.org/2000/svg">
<path fill-rule="evenodd" clip-rule="evenodd" d="M44.4903 0.888214H53.9941L50.8263 0.888218V4.05618H53.9941V4.05637H50.8263V7.22423V7.22434V10.3921V10.3922V13.5601H53.9941V54.5L9.8861 54.5V51.332H6.71824H6.71814H3.55028L3.55028 54.5H3.55019L3.55019 51.332H0.382324V51.3318H3.55019L3.55019 48.1638L3.55019 44.9961V44.996L3.55019 41.8281H0.382324V0.888214H41.3224V4.05618H44.4903V0.888214ZM13.0542 4.0562L9.8863 4.0562H9.88622H6.71844H6.71833H3.55047V0.888231L6.71833 0.888231L6.71844 0.888231L9.88622 0.888231L9.8863 0.888231L13.0542 0.888231V4.0562ZM9.8863 4.05622H6.71844H6.71833H3.55047V7.22411V7.22419L3.55047 10.3921H6.71844V7.22419H9.8863V4.05622ZM0.382349 0.888231L0.382349 4.0562H3.55032V0.888231L0.382349 0.888231ZM0.382349 7.22411V4.05622H3.55032V7.22411V7.22419V10.3921H0.382349V7.22419L0.382349 7.22411ZM0.382352 13.5601L0.382352 10.3921H3.55032V13.5601H0.382352ZM50.8262 7.22434V10.3922H47.6583V7.22434H44.4904V4.05637H47.6583H47.6583H50.8262V7.22423V7.22434ZM50.8262 4.05618V0.888218H47.6583H47.6583H44.4904V4.05618H47.6583H47.6583H50.8262ZM41.3222 51.3319L44.4901 51.3319V48.164H47.6579V44.9961H50.8258V48.164V48.164V51.3319V54.4999H47.658H47.6579H44.4901H44.4901H41.3222V51.3319ZM53.994 54.4999V51.3319V48.164V48.164V44.9961H50.8261V48.164V48.164V51.3319V54.4999H53.994ZM53.994 41.8281V44.9961L50.826 44.9961V41.8281H53.994ZM6.71814 51.3318H3.55028L3.55028 48.1639L3.55028 48.1638L3.55028 44.996H6.71824V48.1638H9.8861V51.3318H6.71824H6.71814ZM9.88615 54.5H13.0541V51.332H9.88615V54.5Z" fill="#447EF7"/>
<path d="M21.0023 36.5443H19.6276V35.1828H21.0023V36.5443Z" fill="white"/>
<path d="M34.7489 36.5443H33.3742V35.1828H34.7489V36.5443Z" fill="white"/>
<path d="M23.7516 20.2055H22.3769V18.8439H23.7516V20.2055Z" fill="white"/>
<path d="M31.9995 20.2055H30.6249V18.8439H31.9995V20.2055Z" fill="white"/>
<path d="M21.0023 28.3749H22.3769V25.6518H31.9995V28.3749H33.3742V25.6518H34.7489V24.2902H33.3742V20.2055H31.9995V24.2902H22.3769V20.2055H21.0023V24.2902H19.6276V25.6518H21.0023V28.3749Z" fill="white"/>
<path d="M23.7516 17.4824V18.8439H30.6249V17.4824H23.7516Z" fill="white"/>
<path d="M36.1235 25.6518H34.7489V35.1828H36.1235V25.6518Z" fill="white"/>
<path d="M27.8756 33.8212V32.4596H29.2502V31.098H27.8756V29.7365H26.5009V31.098H25.1262V32.4596H26.5009V33.8212H27.8756Z" fill="white"/>
<path d="M18.2529 35.1828H19.6276V25.6518H18.2529V35.1828Z" fill="white"/>
<path d="M21.0023 36.5443V37.9059H33.3742V36.5443H21.0023Z" fill="white"/>
<path d="M21.0023 36.5443V37.9059H33.3742V36.5443M21.0023 36.5443H19.6276V35.1828M21.0023 36.5443V35.1828H19.6276M21.0023 36.5443H33.3742M19.6276 35.1828H18.2529V25.6518H19.6276M19.6276 35.1828V25.6518M19.6276 25.6518H21.0023V28.3749H22.3769V25.6518H31.9995V28.3749H33.3742V25.6518H34.7489M19.6276 25.6518V24.2902H21.0023V20.2055H22.3769M34.7489 25.6518V24.2902H33.3742V20.2055H31.9995M34.7489 25.6518H36.1235V35.1828H34.7489M34.7489 25.6518V35.1828M33.3742 36.5443H34.7489V35.1828M33.3742 36.5443V35.1828H34.7489M22.3769 20.2055H23.7516V18.8439M22.3769 20.2055V18.8439H23.7516M22.3769 20.2055V24.2902H31.9995V20.2055M23.7516 18.8439V17.4824H30.6249V18.8439M23.7516 18.8439H30.6249M31.9995 20.2055H30.6249V18.8439M31.9995 20.2055V18.8439H30.6249M27.8756 33.8212V32.4596H29.2502V31.098H27.8756V29.7365H26.5009V31.098H25.1262V32.4596H26.5009V33.8212H27.8756Z" stroke="white" stroke-width="0.5"/>
</svg>
