<svg width="54" height="55" viewBox="0 0 54 55" fill="none" xmlns="http://www.w3.org/2000/svg">
<path fill-rule="evenodd" clip-rule="evenodd" d="M44.4904 0.888214H53.9942L50.8264 0.888218V4.05618H53.9942V4.05637H50.8264V7.22423V7.22434V10.3921V10.3922V13.5601H53.9942V54.5L9.88622 54.5L9.88623 51.332H6.71834H6.71826H3.55037L3.55037 54.5H3.55029L3.55029 51.332H0.382446V51.3318H3.55029L3.55029 48.1639V48.1638L3.55029 44.996L3.55029 41.8281H0.382446V10.3921H3.5504V7.22419L3.5504 7.22411V4.05622H0.382446V4.0562H3.5504L3.5504 0.888231L0.382446 0.888231V0.888214H41.3225V4.05618H44.4904V0.888214ZM13.0543 4.0562L9.8864 4.0562H9.88632H6.71852H6.71843H3.55055V0.888231L6.71843 0.888231L6.71852 0.888231L9.88632 0.888231L9.8864 0.888231L13.0543 0.888231V4.0562ZM9.8864 4.05622H6.71852H6.71843H3.55055V7.22411V7.22419V10.3921H6.71852V7.22419H9.8864V4.05622ZM0.382449 13.5601L0.382449 10.3921H3.55042V13.5601H0.382449ZM50.8264 7.22434V10.3922H47.6584V7.22434H44.4905V4.05637H47.6584H47.6585H50.8264V7.22423V7.22434ZM50.8264 4.05618V0.888218H47.6585H47.6584H44.4905V4.05618H47.6584H47.6585H50.8264ZM41.3223 51.3319L44.4902 51.3319V48.164H47.658V44.9961H50.826V48.164V48.164V51.3319V54.4999H47.6581H47.658H44.4903H44.4902H41.3223V51.3319ZM50.8262 48.164V51.3319V54.4999H53.9941V51.3319V48.164V48.164V44.9961H50.8262V48.164V48.164ZM53.9941 41.8281V44.9961L50.8262 44.9961V41.8281H53.9941ZM6.71826 51.3318H3.55037L3.55037 48.1639L3.55037 48.1638L3.55037 44.996H6.71834V48.1638H9.88623V51.3318H6.71834H6.71826ZM9.88625 54.5H13.0542V51.332H9.88625V54.5Z" fill="#447EF7"/>
<path d="M33.5706 21.3118V18.1206H32.5069V17.0569H28.252V18.1206H27.1883H26.1246V17.0569H21.8697V18.1206H20.8059V21.3118H16.551V27.6941H17.6148V38.3314H36.7618V27.6941H37.8255V21.3118H33.5706ZM35.6981 25.5667H28.252V23.4392H35.6981V25.5667ZM34.6344 36.2039H28.252V27.6941H34.6344V36.2039ZM19.7422 27.6941H26.1246V36.2039H19.7422V27.6941ZM18.6785 23.4392H26.1246V25.5667H18.6785V23.4392ZM22.9334 19.1843H25.0608V20.248H26.1246V21.3118H22.9334V19.1843ZM29.3157 19.1843H31.4432V21.3118H28.252V20.248H29.3157V19.1843Z" fill="white"/>
</svg>
