<svg width="54" height="55" viewBox="0 0 54 55" fill="none" xmlns="http://www.w3.org/2000/svg">
<path fill-rule="evenodd" clip-rule="evenodd" d="M50.8262 0.511688H50.8263V3.67966H53.9941V3.67984H50.8263V6.84774V6.84781V10.0156V10.0157V13.1836H53.9941V54.1234L13.0541 54.1235V50.9555H9.88615V54.1235L9.8861 54.1235V50.9555H6.71824H6.71814H3.55028L3.55028 54.1235H3.55019L3.55019 50.9555H0.382324V50.9553H3.55019L3.55019 47.7873L3.55019 44.6196V44.6194L3.55019 41.4516H0.382324V0.511692H41.3224V3.67966H44.4903V0.511692L44.4904 0.511688V3.67966H47.6583H47.6583H50.8262V0.511688ZM13.0542 3.67967L9.8863 3.67967H9.88622H6.71844H6.71833H3.55047V0.511701L6.71833 0.511701L6.71844 0.511701L9.88622 0.511701L9.8863 0.511701L13.0542 0.511701V3.67967ZM9.8863 3.67969H6.71844H6.71833H3.55047V6.84758V6.84766L3.55047 10.0156H6.71844V6.84766H9.8863V3.67969ZM0.382349 0.511701L0.382349 3.67967H3.55032V0.511701L0.382349 0.511701ZM0.382349 6.84758V3.67969H3.55032V6.84758V6.84766V10.0156H0.382349V6.84766L0.382349 6.84758ZM0.382352 13.1836L0.382352 10.0156H3.55032V13.1836H0.382352ZM50.8262 6.84781V10.0157H47.6583V6.84781H44.4904V3.67984H47.6583H47.6583H50.8262V6.84774V6.84781ZM41.3222 50.9554L44.4901 50.9554V47.7874H47.6579V44.6196H50.8258V47.7874V47.7875V50.9554V54.1234H47.658H47.6579H44.4901H44.4901H41.3222V50.9554ZM53.994 54.1234V50.9554V47.7875V47.7874V44.6196H50.8261V47.7874V47.7875V50.9554V54.1234H53.994ZM53.994 41.4516V44.6195L50.826 44.6195V41.4516H53.994ZM3.55028 47.7873L3.55028 44.6194H6.71824V47.7873H9.8861V50.9553H6.71824H6.71814H3.55028L3.55028 47.7874L3.55028 47.7873Z" fill="#447EF7"/>
<path d="M21.0023 36.1678H19.6276V34.8062H21.0023V36.1678Z" fill="white"/>
<path d="M34.7489 36.1678H33.3742V34.8062H34.7489V36.1678Z" fill="white"/>
<path d="M23.7516 19.829H22.3769V18.4674H23.7516V19.829Z" fill="white"/>
<path d="M31.9995 19.829H30.6249V18.4674H31.9995V19.829Z" fill="white"/>
<path d="M21.0023 27.9984H22.3769V25.2752H31.9995V27.9984H33.3742V25.2752H34.7489V23.9137H33.3742V19.829H31.9995V23.9137H22.3769V19.829H21.0023V23.9137H19.6276V25.2752H21.0023V27.9984Z" fill="white"/>
<path d="M23.7516 17.1058V18.4674H30.6249V17.1058H23.7516Z" fill="white"/>
<path d="M36.1235 25.2752H34.7489V34.8062H36.1235V25.2752Z" fill="white"/>
<path d="M27.8756 33.4447V32.0831H29.2502V30.7215H27.8756V29.36H26.5009V30.7215H25.1262V32.0831H26.5009V33.4447H27.8756Z" fill="white"/>
<path d="M18.2529 34.8062H19.6276V25.2752H18.2529V34.8062Z" fill="white"/>
<path d="M21.0023 36.1678V37.5294H33.3742V36.1678H21.0023Z" fill="white"/>
<path d="M21.0023 36.1678V37.5294H33.3742V36.1678M21.0023 36.1678H19.6276V34.8062M21.0023 36.1678V34.8062H19.6276M21.0023 36.1678H33.3742M19.6276 34.8062H18.2529V25.2752H19.6276M19.6276 34.8062V25.2752M19.6276 25.2752H21.0023V27.9984H22.3769V25.2752H31.9995V27.9984H33.3742V25.2752H34.7489M19.6276 25.2752V23.9137H21.0023V19.829H22.3769M34.7489 25.2752V23.9137H33.3742V19.829H31.9995M34.7489 25.2752H36.1235V34.8062H34.7489M34.7489 25.2752V34.8062M33.3742 36.1678H34.7489V34.8062M33.3742 36.1678V34.8062H34.7489M22.3769 19.829H23.7516V18.4674M22.3769 19.829V18.4674H23.7516M22.3769 19.829V23.9137H31.9995V19.829M23.7516 18.4674V17.1058H30.6249V18.4674M23.7516 18.4674H30.6249M31.9995 19.829H30.6249V18.4674M31.9995 19.829V18.4674H30.6249M27.8756 33.4447V32.0831H29.2502V30.7215H27.8756V29.36H26.5009V30.7215H25.1262V32.0831H26.5009V33.4447H27.8756Z" stroke="white" stroke-width="0.5"/>
</svg>
