<svg width="54" height="54" viewBox="0 0 54 54" fill="none" xmlns="http://www.w3.org/2000/svg">
<path fill-rule="evenodd" clip-rule="evenodd" d="M0.382349 0.382324L0.382349 3.55027H3.55032V0.382324H3.55047V3.55026H6.71833H6.71844H9.88622H9.8863L13.0542 3.55026V0.382324H53.9941L50.8263 0.382351V3.55032H53.9941V3.55051H50.8263V6.71833V6.71847V9.88622V9.8863V13.0542H53.9941V53.9941H13.0541V50.8261H9.88615V53.9941H9.8861V50.8262H6.71824H6.71814H3.55028L3.55028 53.9941H3.55019L3.55019 50.8262H0.382324V50.826H3.55019L3.55019 47.6581L3.55019 44.4903V44.4902L3.55019 41.3223H0.382324V0.382324H0.382349ZM9.8863 3.55032H6.71844H6.71833H3.55047V6.71821V6.71829L3.55047 9.88618H6.71844V6.71829H9.8863V3.55032ZM0.382349 6.71821L0.382349 3.55032H3.55032V6.71821V6.71829V9.88618H0.382349V6.71829L0.382349 6.71821ZM0.382352 13.0542L0.382352 9.8862H3.55032V13.0542H0.382352ZM50.8262 6.71847V9.8863H47.6583V6.71847H44.4904V3.55051H47.6583H47.6583H50.8262V6.71833V6.71847ZM50.8262 3.55032V0.382351H47.6583H47.6583H44.4904V3.55032H47.6583H47.6583H50.8262ZM44.4903 0.382338H41.3224V3.5503H44.4903V0.382338ZM50.8258 53.9941V50.8261V47.6582V47.6581V44.4902H47.6579V47.6581H44.4901V50.8261H41.3222V53.9941L44.4901 53.9941H44.4901L47.6579 53.9941L47.658 53.9941L50.8258 53.9941ZM53.994 53.9941V50.8261V47.6582V47.6581V44.4902V41.3223H50.826L50.8261 44.4902V47.6581V47.6582V50.8261V53.9941L53.994 53.9941ZM3.55028 47.6581L3.55028 44.4902H6.71824V47.6581H9.8861V50.826H6.71824H6.71814H3.55028L3.55028 47.6581L3.55028 47.6581Z" fill="#447EF7"/>
<path d="M20.8059 27.1882H21.8696V28.2519H28.252V27.1882H29.3157V26.1245H30.3794V19.7421H29.3157V18.6784H28.252V17.6147H21.8696V18.6784H20.8059V19.7421H19.7422V26.1245H20.8059V27.1882ZM21.8696 21.8696H22.9334V20.8059H23.9971V19.7421H26.1245V20.8059H27.1883V21.8696H28.252V23.997H27.1883V25.0608H26.1245V26.1245H23.9971V25.0608H22.9334V23.997H21.8696V21.8696Z" fill="white"/>
<path d="M32.5069 30.3794H31.4432V29.3157H18.6785V30.3794H17.6148V31.4431H16.551V36.7618H18.6785V33.5706H19.7422V32.5069H20.8059V31.4431H29.3157V32.5069H30.3795V33.5706H31.4432V36.7618H33.5706V31.4431H32.5069V30.3794Z" fill="white"/>
<path d="M36.7617 19.7421V20.8059H35.698V21.8696H34.6343V22.9333H33.5706V21.8696H31.4431V23.997H32.5068V25.0608H35.698V23.997H36.7617V22.9333H37.8255V21.8696H38.8892V19.7421H36.7617Z" fill="white"/>
</svg>
