<svg width="54" height="54" viewBox="0 0 54 54" fill="none" xmlns="http://www.w3.org/2000/svg">
<path fill-rule="evenodd" clip-rule="evenodd" d="M0.382324 0.135254H53.9941V0.135295H50.8263V3.30326H53.9941V3.30338H50.8263V6.47128V6.47135V9.63917V9.63924V12.8071H53.9941V53.747L13.0541 53.747V50.579H9.88615V53.747H9.8861V50.579H6.71824H6.71814H3.55028L3.55028 53.747H3.55019L3.55019 50.579H0.382324V50.5789H3.55019L3.55019 47.411L3.55019 44.2431V44.2431L3.55019 41.0752H0.382324V0.135254ZM13.0542 3.30324L9.8863 3.30324H9.88622H6.71844H6.71833H3.55047V0.135273L6.71833 0.135273L6.71844 0.135273L9.88622 0.135273L9.8863 0.135273L13.0542 0.135273V3.30324ZM9.8863 3.3033H6.71844H6.71833H3.55047V6.47119V6.47126L3.55047 9.63916H6.71844V6.47126H9.8863V3.3033ZM0.382349 0.135273L0.382349 3.30324H3.55032V0.135273L0.382349 0.135273ZM0.382349 6.47119V3.3033H3.55032V6.47119V6.47126L3.55032 9.63914V12.8071H0.382352L0.382352 9.63916H0.382349V6.47126L0.382349 6.47119ZM50.8262 6.47135V9.63924H47.6583V6.47135H44.4904V3.30338H47.6583H47.6583H50.8262V6.47128V6.47135ZM50.8262 0.135295H47.6583H47.6583H44.4904V3.30326H47.6583H47.6583H50.8262V0.135295ZM44.4903 3.30324V0.135274H41.3224V3.30324H44.4903ZM44.4901 50.579V47.411H47.6579V44.2431H50.8258V47.411V47.4111V50.579V53.747H47.658H47.6579H44.4901H44.4901H41.3222V50.579H44.4901ZM53.994 53.747V50.579V47.4111V47.411V44.2431V41.0752H50.826L50.8261 44.2431V47.411V47.4111V50.579V53.747H53.994ZM3.55028 47.4109L3.55028 44.2431L6.71824 44.2431V47.411H9.8861V50.5789H6.71824H6.71814H3.55028L3.55028 47.411L3.55028 47.4109Z" fill="#447EF7"/>
<path d="M34.6344 20.5588V19.4951H32.5069V18.4314H30.3795V17.3676H29.3157V16.3039H25.0608V17.3676H23.9971V18.4314H21.8696V19.4951H19.7422V20.5588H17.6147V30.1324H18.6785V31.1961H19.7422V32.2598H20.8059V33.3235H21.8696V34.3873H22.9334V35.451H23.9971V36.5147H25.0608V37.5784H29.3157V36.5147H30.3795V35.451H31.4432V34.3873H32.5069V33.3235H33.5706V32.2598H34.6344V31.1961H35.6981V30.1324H36.7618V20.5588H34.6344ZM34.6344 28.0049H33.5706V30.1324H32.5069V31.1961H31.4432V32.2598H30.3795V33.3235H29.3157V34.3873H25.0608V33.3235H23.9971V32.2598H22.9334V31.1961H21.8696V30.1324H20.8059V28.0049H19.7422V22.6863H21.8696V21.6226H23.9971V20.5588H26.1245V19.4951H28.252V20.5588H30.3795V21.6226H32.5069V22.6863H34.6344V28.0049Z" fill="white"/>
</svg>
