<svg width="76" height="77" viewBox="0 0 76 77" fill="none" xmlns="http://www.w3.org/2000/svg">
<path fill-rule="evenodd" clip-rule="evenodd" d="M73.5782 36.5659L73.5782 36.5658L71.3381 38.8059L69.0981 36.5659L69.098 36.5658L66.858 34.3258L69.0981 32.0857L46.8694 9.85703L44.6294 12.097L42.3893 9.857L42.3893 9.85695L40.1493 7.61696L40.1493 7.61691L37.9092 5.37687L40.1492 3.13686L40.1491 3.13677L37.9091 5.37679L35.6691 3.13674L35.669 3.13679L37.9091 5.37684L35.669 7.61688L35.669 7.61693L33.4289 9.85697L31.1889 7.61692L33.429 9.857L31.1889 12.0971L28.9488 9.85702L-0.00013785 38.806L28.9487 67.7548L31.1887 65.5149L33.4287 67.7549L33.4288 67.755L35.6687 69.9949L35.6688 69.995L37.9088 72.235L35.6688 74.4749L35.669 74.4751L37.9089 72.2351L40.149 74.4752L37.9091 76.7152L66.858 47.7663L64.6179 45.5262L66.8579 43.2862L66.858 43.2861L69.098 41.0462L69.098 41.0461L71.3381 38.8061L73.5781 41.0461L73.5782 41.046L71.3382 38.806L73.5782 36.5659ZM66.8579 43.2862L69.0979 41.0461L69.098 41.0461L71.338 38.806L69.098 36.566L69.0979 36.5659L66.8579 34.3259L64.6178 36.566L66.8578 38.806L64.6178 41.0461L66.8579 43.2862ZM66.858 29.8456L69.0981 32.0857L66.858 34.3258L64.6179 32.0857L66.858 29.8456ZM35.6687 69.9949L33.4288 67.7549L35.6688 65.5148L37.9088 67.7548L40.1489 65.5147L42.389 67.7548L40.1489 69.9949L40.1489 69.9949L37.9088 72.2349L35.6688 69.995L35.6687 69.9949ZM37.909 72.2351L40.1491 74.4752L42.3891 72.2351L42.3892 72.2351L44.6292 69.995L42.3891 67.755L40.1491 69.995L40.149 69.995L37.909 72.2351ZM44.6292 69.995L46.8693 67.7549L44.6292 65.5148L42.3891 67.7549L44.6292 69.995ZM11.2004 36.5658L8.96031 34.3257L11.2003 32.0857L8.96025 29.8456L6.72022 32.0856L6.72016 32.0857L4.48023 34.3256L4.48013 34.3257L2.24014 36.5657L4.48023 38.8058L6.72027 41.0458L6.72032 41.0459L8.96035 43.2859L11.2004 41.0458L8.96041 38.8058L11.2004 36.5658ZM6.72011 41.046L4.48008 38.8059L2.23999 36.5658L-0.000100086 38.8059L2.23999 41.046L4.48002 43.2861L4.48008 43.2861L6.72011 45.5261L8.9602 47.7662L11.2003 45.5261L8.9602 43.2861L6.72017 41.046L6.72011 41.046ZM40.1492 7.61702L42.3893 9.85706L40.1492 12.0972L37.9092 9.85711L35.6691 12.0971L33.429 9.85705L35.6691 7.61702L35.6691 7.61696L37.9092 5.37693L40.1492 7.61697L40.1492 7.61702Z" fill="#447EF7"/>
<path d="M33.6543 38.8059H34.718V39.8696H41.1004V38.8059H42.1641V37.7422H43.2278V31.3598H42.1641V30.2961H41.1004V29.2324H34.718V30.2961H33.6543V31.3598H32.5906V37.7422H33.6543V38.8059ZM34.718 33.4873H35.7818V32.4235H36.8455V31.3598H38.9729V32.4235H40.0367V33.4873H41.1004V35.6147H40.0367V36.6784H38.9729V37.7422H36.8455V36.6784H35.7818V35.6147H34.718V33.4873Z" fill="white"/>
<path d="M45.3553 43.0608V41.9971H44.2916V40.9333H31.5269V41.9971H30.4631V43.0608H29.3994V48.3794H31.5269V45.1883H32.5906V44.1245H33.6543V43.0608H42.1641V44.1245H43.2278V45.1883H44.2916V48.3794H46.419V43.0608H45.3553Z" fill="white"/>
</svg>
