<svg width="48" height="48" viewBox="0 0 48 48" fill="none" xmlns="http://www.w3.org/2000/svg">
<path fill-rule="evenodd" clip-rule="evenodd" d="M0 0H36.6548V2.83636H39.4911H42.3274H42.3275H45.1638H48V2.83649H45.1638V5.67283V8.50913V8.50919V11.3455H48L48 36.6546H45.1636L45.1636 39.4909L45.1636 39.4909L45.1636 42.3272V42.3273V45.1636H48V45.1636H45.1636V48H45.1634V45.1636H42.3272H42.327H39.4909H39.4909H36.6546V48L11.3454 48V45.1636H8.50907V48H8.50904L8.50904 45.1636H5.67273H5.67267H2.83637L2.83637 48H2.83628L2.83628 45.1636H0V45.1635H2.83628L2.83628 42.3272L2.83628 39.4909V39.4908L2.83628 36.6545H0V0ZM11.3456 2.83638L8.50922 2.83638V1.96518e-05L11.3456 1.96856e-05V2.83638ZM5.67284 1.9618e-05L5.67298 1.9618e-05L8.50921 1.96518e-05V2.83638H5.67298H5.67284H2.83661V1.95841e-05L5.67284 1.9618e-05ZM8.50921 2.8364H5.67298H5.67284H2.83661V5.67274V5.67276V8.5091H5.67298V5.67276H8.50921V2.8364ZM8.85348e-05 1.95503e-05L8.8501e-05 2.83638H2.83645V1.95841e-05L8.85348e-05 1.95503e-05ZM8.85348e-05 5.67274V2.8364H2.83645V5.67274V5.67276V8.5091H2.83644V11.3454H7.47681e-05L7.48019e-05 8.50907H8.8501e-05V5.67276L8.85348e-05 5.67274ZM45.1638 5.67283V8.50919H42.3274V5.67283L39.4912 5.67285V2.83649H42.3274H42.3275H45.1638V5.67283ZM39.4909 45.1636H42.327H42.3272H45.1634V42.3273V42.3272V39.4909H42.327V42.3272H39.4909V45.1636ZM2.83637 42.3272L2.83637 39.4908H5.67273L5.67273 42.3272L8.50904 42.3271L8.50904 45.1635H5.67273H5.67267H2.83637L2.83637 42.3272Z" fill="#447EF7"/>
<path d="M18.4 31.8H17.2V30.6H18.4V31.8Z" fill="white"/>
<path d="M30.4 31.8H29.2V30.6H30.4V31.8Z" fill="white"/>
<path d="M20.8 17.4H19.6V16.2H20.8V17.4Z" fill="white"/>
<path d="M28 17.4H26.8V16.2H28V17.4Z" fill="white"/>
<path d="M18.4 24.6H19.6V22.2H28V24.6H29.2V22.2H30.4V21H29.2V17.4H28V21H19.6V17.4H18.4V21H17.2V22.2H18.4V24.6Z" fill="white"/>
<path d="M20.8 15V16.2H26.8V15H20.8Z" fill="white"/>
<path d="M31.6 22.2H30.4V30.6H31.6V22.2Z" fill="white"/>
<path d="M24.4 29.4V28.2H25.6V27H24.4V25.8H23.2V27H22V28.2H23.2V29.4H24.4Z" fill="white"/>
<path d="M16 30.6H17.2V22.2H16V30.6Z" fill="white"/>
<path d="M18.4 31.8V33H29.2V31.8H18.4Z" fill="white"/>
<path d="M18.4 31.8V33H29.2V31.8M18.4 31.8H17.2V30.6M18.4 31.8V30.6H17.2M18.4 31.8H29.2M17.2 30.6H16V22.2H17.2M17.2 30.6V22.2M17.2 22.2H18.4V24.6H19.6V22.2H28V24.6H29.2V22.2H30.4M17.2 22.2V21H18.4V17.4H19.6M30.4 22.2V21H29.2V17.4H28M30.4 22.2H31.6V30.6H30.4M30.4 22.2V30.6M29.2 31.8H30.4V30.6M29.2 31.8V30.6H30.4M19.6 17.4H20.8V16.2M19.6 17.4V16.2H20.8M19.6 17.4V21H28V17.4M20.8 16.2V15H26.8V16.2M20.8 16.2H26.8M28 17.4H26.8V16.2M28 17.4V16.2H26.8M24.4 29.4V28.2H25.6V27H24.4V25.8H23.2V27H22V28.2H23.2V29.4H24.4Z" stroke="white" stroke-width="0.5"/>
</svg>
