<svg width="31" height="30" viewBox="0 0 31 30" fill="none" xmlns="http://www.w3.org/2000/svg">
<mask id="path-1-inside-1_57_940" fill="white">
<path fill-rule="evenodd" clip-rule="evenodd" d="M0 0H30.1429V30H0V0ZM30.1428 23.9999V26.9998L27.1285 26.9998V23.9999H30.1428ZM24.1142 27V30H27.1284V27H24.1142ZM30.1428 27V30H27.1285V27H30.1428ZM24.1144 1.0548e-05V3.00001L27.1285 3.00001L27.1287 3.00001L30.1428 3.00001V1.10249e-05L27.1287 1.06792e-05L24.1144 1.0548e-05ZM30.1428 3.00014V6.00014L27.1285 6.00014V3.00014H30.1428ZM5.12349e-05 3.00014H3.01434V6.00014H5.12349e-05L5.12349e-05 3.00014ZM6.02838 1.05957e-05L3.0141 1.05957e-05L5.09714e-05 1.0858e-05L5.09714e-05 3.00001H3.01434L6.02838 3.00001V1.05957e-05ZM3.01438 27V30H6.02866V27H3.01438ZM5.094e-05 26.9998L5.08083e-05 23.9999H3.01434L3.01434 26.9998H5.094e-05ZM5.07267e-05 27L5.08585e-05 30H3.01434V27H5.07267e-05Z"/>
</mask>
<path fill-rule="evenodd" clip-rule="evenodd" d="M0 0H30.1429V30H0V0ZM30.1428 23.9999V26.9998L27.1285 26.9998V23.9999H30.1428ZM24.1142 27V30H27.1284V27H24.1142ZM30.1428 27V30H27.1285V27H30.1428ZM24.1144 1.0548e-05V3.00001L27.1285 3.00001L27.1287 3.00001L30.1428 3.00001V1.10249e-05L27.1287 1.06792e-05L24.1144 1.0548e-05ZM30.1428 3.00014V6.00014L27.1285 6.00014V3.00014H30.1428ZM5.12349e-05 3.00014H3.01434V6.00014H5.12349e-05L5.12349e-05 3.00014ZM6.02838 1.05957e-05L3.0141 1.05957e-05L5.09714e-05 1.0858e-05L5.09714e-05 3.00001H3.01434L6.02838 3.00001V1.05957e-05ZM3.01438 27V30H6.02866V27H3.01438ZM5.094e-05 26.9998L5.08083e-05 23.9999H3.01434L3.01434 26.9998H5.094e-05ZM5.07267e-05 27L5.08585e-05 30H3.01434V27H5.07267e-05Z" fill="#447EF7"/>
<path d="M30.1429 0H31.1429V-1H30.1429V0ZM0 0V-1H-1V0H0ZM30.1429 30V31H31.1429V30H30.1429ZM0 30H-1V31H0V30ZM30.1428 26.9998V27.9998H31.1428V26.9998H30.1428ZM30.1428 23.9999H31.1428V22.9999H30.1428V23.9999ZM27.1285 26.9998H26.1285V27.9998H27.1285V26.9998ZM27.1285 23.9999V22.9999H26.1285V23.9999H27.1285ZM24.1142 30H23.1142V31H24.1142V30ZM24.1142 27V26H23.1142V27H24.1142ZM27.1284 30V31H28.1284V30H27.1284ZM27.1284 27H28.1284V26H27.1284V27ZM30.1428 30V31H31.1428V30H30.1428ZM30.1428 27H31.1428V26H30.1428V27ZM27.1285 30H26.1285V31H27.1285V30ZM27.1285 27V26H26.1285V27H27.1285ZM24.1144 3.00001H23.1144V4.00001H24.1144V3.00001ZM24.1144 1.0548e-05V-0.999989L23.1144 -0.99999V1.0548e-05H24.1144ZM27.1285 3.00001V4.00001L27.1295 4.00001L27.1285 3.00001ZM27.1287 3.00001V2.00001L27.1277 2.00001L27.1287 3.00001ZM30.1428 3.00001V4.00001L31.1428 4.00001V3.00001H30.1428ZM30.1428 1.10249e-05H31.1428V-0.999989L30.1428 -0.999989V1.10249e-05ZM27.1287 1.06792e-05V-0.999989V1.06792e-05ZM30.1428 6.00014V7.00014H31.1428V6.00014H30.1428ZM30.1428 3.00014H31.1428V2.00014H30.1428V3.00014ZM27.1285 6.00014H26.1285V7.00014H27.1285V6.00014ZM27.1285 3.00014V2.00014H26.1285V3.00014H27.1285ZM3.01434 3.00014H4.01434V2.00014H3.01434V3.00014ZM5.12349e-05 3.00014V2.00014H-0.999949V3.00014H5.12349e-05ZM3.01434 6.00014V7.00014H4.01434V6.00014H3.01434ZM5.12349e-05 6.00014H-0.999949V7.00014H5.12349e-05V6.00014ZM3.0141 1.05957e-05V-0.999989V1.05957e-05ZM6.02838 1.05957e-05H7.02838V-0.999989H6.02838V1.05957e-05ZM5.09714e-05 1.0858e-05L5.08844e-05 -0.999989L-0.999949 -0.999989V1.0858e-05L5.09714e-05 1.0858e-05ZM5.09714e-05 3.00001H-0.999949V4.00001H5.09714e-05V3.00001ZM3.01434 3.00001V4.00001L3.01434 4.00001L3.01434 3.00001ZM6.02838 3.00001V4.00001H7.02838V3.00001H6.02838ZM3.01438 30H2.01438V31H3.01438V30ZM3.01438 27V26H2.01438V27H3.01438ZM6.02866 30V31H7.02866V30H6.02866ZM6.02866 27H7.02866V26H6.02866V27ZM5.08083e-05 23.9999V22.9999H-0.999949V23.9999H5.08083e-05ZM5.094e-05 26.9998H-0.999949V27.9998H5.094e-05V26.9998ZM3.01434 23.9999H4.01434V22.9999H3.01434V23.9999ZM3.01434 26.9998V27.9998H4.01434V26.9998H3.01434ZM5.08585e-05 30H-0.999949L-0.999949 31H5.08585e-05V30ZM5.07267e-05 27V26H-0.999949L-0.999949 27H5.07267e-05ZM3.01434 30V31H4.01434V30H3.01434ZM3.01434 27H4.01434V26H3.01434V27ZM30.1429 -1H0V1H30.1429V-1ZM31.1429 30V0H29.1429V30H31.1429ZM0 31H30.1429V29H0V31ZM-1 0V30H1V0H-1ZM31.1428 26.9998V23.9999H29.1428V26.9998H31.1428ZM27.1285 27.9998L30.1428 27.9998V25.9998L27.1285 25.9998V27.9998ZM26.1285 23.9999V26.9998H28.1285V23.9999H26.1285ZM30.1428 22.9999H27.1285V24.9999H30.1428V22.9999ZM25.1142 30V27H23.1142V30H25.1142ZM27.1284 29H24.1142V31H27.1284V29ZM26.1284 27V30H28.1284V27H26.1284ZM24.1142 28H27.1284V26H24.1142V28ZM31.1428 30V27H29.1428V30H31.1428ZM27.1285 31H30.1428V29H27.1285V31ZM26.1285 27V30H28.1285V27H26.1285ZM30.1428 26H27.1285V28H30.1428V26ZM25.1144 3.00001V1.0548e-05H23.1144V3.00001H25.1144ZM27.1285 2.00001L24.1144 2.00001V4.00001L27.1285 4.00001V2.00001ZM27.1277 2.00001L27.1275 2.00001L27.1295 4.00001H27.1297L27.1277 2.00001ZM30.1428 2.00001L27.1287 2.00001V4.00001H30.1428V2.00001ZM29.1428 1.10249e-05V3.00001H31.1428V1.10249e-05H29.1428ZM27.1287 1.00001L30.1428 1.00001V-0.999989L27.1287 -0.999989V1.00001ZM24.1144 1.00001L27.1287 1.00001V-0.999989L24.1144 -0.999989V1.00001ZM31.1428 6.00014V3.00014H29.1428V6.00014H31.1428ZM27.1285 7.00014L30.1428 7.00014V5.00014L27.1285 5.00014V7.00014ZM26.1285 3.00014V6.00014H28.1285V3.00014H26.1285ZM30.1428 2.00014H27.1285V4.00014H30.1428V2.00014ZM3.01434 2.00014H5.12349e-05V4.00014H3.01434V2.00014ZM4.01434 6.00014V3.00014H2.01434V6.00014H4.01434ZM5.12349e-05 7.00014H3.01434V5.00014H5.12349e-05V7.00014ZM-0.999949 3.00014V6.00014H1.00005V3.00014H-0.999949ZM3.0141 1.00001H6.02838V-0.999989H3.0141V1.00001ZM5.10584e-05 1.00001L3.0141 1.00001V-0.999989L5.08844e-05 -0.999989L5.10584e-05 1.00001ZM1.00005 3.00001V1.0858e-05L-0.999949 1.0858e-05V3.00001H1.00005ZM3.01434 2.00001H5.09714e-05V4.00001H3.01434V2.00001ZM6.02838 2.00001L3.01434 2.00001L3.01434 4.00001L6.02838 4.00001V2.00001ZM5.02838 1.05957e-05V3.00001H7.02838V1.05957e-05H5.02838ZM4.01438 30V27H2.01438V30H4.01438ZM6.02866 29H3.01438V31H6.02866V29ZM5.02866 27V30H7.02866V27H5.02866ZM3.01438 28H6.02866V26H3.01438V28ZM-0.999949 23.9999L-0.999949 26.9998H1.00005L1.00005 23.9999H-0.999949ZM3.01434 22.9999H5.08083e-05V24.9999H3.01434V22.9999ZM4.01434 26.9998L4.01434 23.9999H2.01434L2.01434 26.9998H4.01434ZM5.094e-05 27.9998H3.01434V25.9998H5.094e-05V27.9998ZM1.00005 30L1.00005 27H-0.999949L-0.999949 30H1.00005ZM3.01434 29H5.08585e-05V31H3.01434V29ZM2.01434 27V30H4.01434V27H2.01434ZM5.07267e-05 28H3.01434V26H5.07267e-05V28Z" fill="white" fill-opacity="0.15" mask="url(#path-1-inside-1_57_940)"/>
<mask id="path-3-inside-2_57_940" fill="white">
<path fill-rule="evenodd" clip-rule="evenodd" d="M9.04297 10.2V10.2L10.2486 10.2L10.2487 10.2L11.4543 10.2V9H18.6886V10.2H19.8943L19.8943 10.2L21.1 10.2V9H21.1001V21H21.1V19.8H19.8943H19.8943H18.6886V21H9.04297V21H10.2484V19.8H9.04297V19.7999H10.2484L10.2484 18.5999H9.04297V11.4H10.2487V10.2H9.04297ZM21.1 19.8H19.8943V18.6L21.1 18.6V19.8ZM21.1 10.2V11.4L19.8943 11.4V10.2H21.1ZM10.2485 19.8V21H11.4542L11.4542 19.8H10.2485Z"/>
</mask>
<path fill-rule="evenodd" clip-rule="evenodd" d="M9.04297 10.2V10.2L10.2486 10.2L10.2487 10.2L11.4543 10.2V9H18.6886V10.2H19.8943L19.8943 10.2L21.1 10.2V9H21.1001V21H21.1V19.8H19.8943H19.8943H18.6886V21H9.04297V21H10.2484V19.8H9.04297V19.7999H10.2484L10.2484 18.5999H9.04297V11.4H10.2487V10.2H9.04297ZM21.1 19.8H19.8943V18.6L21.1 18.6V19.8ZM21.1 10.2V11.4L19.8943 11.4V10.2H21.1ZM10.2485 19.8V21H11.4542L11.4542 19.8H10.2485Z" fill="white"/>
<path d="M9.04297 10.2L9.04297 9.19999L8.04297 9.19999V10.2H9.04297ZM9.04297 10.2H8.04297V11.2H9.04297V10.2ZM10.2486 10.2L10.251 9.19999H10.2486V10.2ZM10.2487 10.2L10.2463 11.2L10.2487 11.2L10.2487 10.2ZM11.4543 10.2L11.4543 11.2H12.4543V10.2H11.4543ZM11.4543 9V8H10.4543V9H11.4543ZM18.6886 9H19.6886V8H18.6886V9ZM18.6886 10.2H17.6886V11.2H18.6886V10.2ZM19.8943 10.2L19.8966 9.19999H19.8943V10.2ZM19.8943 10.2L19.892 11.2L19.8943 11.2V10.2ZM21.1 10.2V11.2H22.1V10.2H21.1ZM21.1 9V8H20.1V9H21.1ZM21.1001 9H22.1001V8H21.1001V9ZM21.1001 21V22H22.1001V21H21.1001ZM21.1 21H20.1V22H21.1V21ZM21.1 19.8H22.1V18.8H21.1V19.8ZM18.6886 19.8V18.8H17.6886V19.8H18.6886ZM18.6886 21V22H19.6886V21H18.6886ZM9.04297 21H8.04297V22H9.04297V21ZM9.04297 21V20H8.04297V21H9.04297ZM10.2484 21V22H11.2484V21H10.2484ZM10.2484 19.8H11.2484V18.8H10.2484V19.8ZM9.04297 19.8H8.04297V20.8H9.04297V19.8ZM9.04297 19.7999V18.7999H8.04297V19.7999H9.04297ZM10.2484 19.7999V20.7999H11.2484V19.7999H10.2484ZM10.2484 18.5999H11.2484V17.5999H10.2484V18.5999ZM9.04297 18.5999H8.04297V19.5999H9.04297V18.5999ZM9.04297 11.4V10.4H8.04297V11.4H9.04297ZM10.2487 11.4V12.4H11.2487V11.4H10.2487ZM10.2487 10.2H11.2487V9.20004H10.2487V10.2ZM19.8943 19.8H18.8943V20.8H19.8943V19.8ZM21.1 19.8V20.8H22.1V19.8H21.1ZM19.8943 18.6L19.8943 17.6L18.8943 17.6V18.6H19.8943ZM21.1 18.6H22.1V17.6L21.1 17.6L21.1 18.6ZM21.1 11.4V12.4L22.1 12.4V11.4H21.1ZM21.1 10.2H22.1V9.20004H21.1V10.2ZM19.8943 11.4H18.8943V12.4L19.8943 12.4V11.4ZM19.8943 10.2V9.20004H18.8943V10.2H19.8943ZM10.2485 21H9.24853V22H10.2485V21ZM10.2485 19.8V18.8H9.24853V19.8H10.2485ZM11.4542 21V22H12.4542L12.4542 21H11.4542ZM11.4542 19.8H12.4542L12.4542 18.8H11.4542V19.8ZM8.04297 10.2V10.2H10.043V10.2H8.04297ZM10.2486 9.19999L9.04297 9.19999L9.04297 11.2H10.2486L10.2486 9.19999ZM10.2511 9.19999L10.251 9.19999L10.2462 11.2L10.2463 11.2L10.2511 9.19999ZM11.4543 9.19999L10.2487 9.19999L10.2487 11.2H11.4543L11.4543 9.19999ZM10.4543 9V10.2H12.4543V9H10.4543ZM18.6886 8H11.4543V10H18.6886V8ZM19.6886 10.2V9H17.6886V10.2H19.6886ZM19.8943 9.19999H18.6886V11.2H19.8943V9.19999ZM19.8967 9.19999L19.8966 9.19999L19.8919 11.2L19.892 11.2L19.8967 9.19999ZM21.1 9.19999L19.8943 9.19999V11.2H21.1V9.19999ZM20.1 9V10.2H22.1V9H20.1ZM21.1001 8H21.1V10H21.1001V8ZM22.1001 21V9H20.1001V21H22.1001ZM21.1 22H21.1001V20H21.1V22ZM20.1 19.8V21H22.1V19.8H20.1ZM19.8943 20.8H21.1V18.8H19.8943V20.8ZM19.8943 20.8H19.8943V18.8H19.8943V20.8ZM18.6886 20.8H19.8943V18.8H18.6886V20.8ZM19.6886 21V19.8H17.6886V21H19.6886ZM9.04297 22H18.6886V20H9.04297V22ZM8.04297 21V21H10.043V21H8.04297ZM10.2484 20H9.04297V22H10.2484V20ZM9.24838 19.8V21H11.2484V19.8H9.24838ZM9.04297 20.8H10.2484V18.8H9.04297V20.8ZM8.04297 19.7999V19.8H10.043V19.7999H8.04297ZM10.2484 18.7999H9.04297V20.7999H10.2484V18.7999ZM9.24838 18.5999L9.24838 19.7999H11.2484L11.2484 18.5999H9.24838ZM9.04297 19.5999H10.2484V17.5999H9.04297V19.5999ZM8.04297 11.4V18.5999H10.043V11.4H8.04297ZM10.2487 10.4H9.04297V12.4H10.2487V10.4ZM9.24868 10.2V11.4H11.2487V10.2H9.24868ZM9.04297 11.2H10.2487V9.20004H9.04297V11.2ZM19.8943 20.8H21.1V18.8H19.8943V20.8ZM18.8943 18.6V19.8H20.8943V18.6H18.8943ZM21.1 17.6L19.8943 17.6L19.8943 19.6L21.1 19.6L21.1 17.6ZM22.1 19.8V18.6H20.1V19.8H22.1ZM22.1 11.4V10.2H20.1V11.4H22.1ZM19.8943 12.4L21.1 12.4V10.4L19.8943 10.4V12.4ZM18.8943 10.2V11.4H20.8943V10.2H18.8943ZM21.1 9.20004H19.8943V11.2H21.1V9.20004ZM11.2485 21V19.8H9.24853V21H11.2485ZM11.4542 20H10.2485V22H11.4542V20ZM10.4542 19.8L10.4542 21H12.4542L12.4542 19.8H10.4542ZM10.2485 20.8H11.4542V18.8H10.2485V20.8Z" fill="white" fill-opacity="0.15" mask="url(#path-3-inside-2_57_940)"/>
</svg>
