<svg width="31" height="30" viewBox="0 0 31 30" fill="none" xmlns="http://www.w3.org/2000/svg">
<mask id="path-1-inside-1_54_11268" fill="white">
<path fill-rule="evenodd" clip-rule="evenodd" d="M0 0H30.1429V30H0V0ZM30.1428 23.9999V26.9998L27.1285 26.9998V23.9999H30.1428ZM24.1142 27V30H27.1284V27H24.1142ZM30.1428 27V30H27.1285V27H30.1428ZM24.1144 1.0548e-05V3.00001L27.1285 3.00001L27.1287 3.00001L30.1428 3.00001V1.10249e-05L27.1287 1.06792e-05L24.1144 1.0548e-05ZM30.1428 3.00014V6.00014L27.1285 6.00014V3.00014H30.1428ZM5.12349e-05 3.00014H3.01434V6.00014H5.12349e-05L5.12349e-05 3.00014ZM6.02838 1.05957e-05L3.0141 1.05957e-05L5.09714e-05 1.0858e-05L5.09714e-05 3.00001H3.01434L6.02838 3.00001V1.05957e-05ZM3.01438 27V30H6.02866V27H3.01438ZM5.094e-05 26.9998L5.08083e-05 23.9999H3.01434L3.01434 26.9998H5.094e-05ZM5.07267e-05 27L5.08585e-05 30H3.01434V27H5.07267e-05Z"/>
</mask>
<path fill-rule="evenodd" clip-rule="evenodd" d="M0 0H30.1429V30H0V0ZM30.1428 23.9999V26.9998L27.1285 26.9998V23.9999H30.1428ZM24.1142 27V30H27.1284V27H24.1142ZM30.1428 27V30H27.1285V27H30.1428ZM24.1144 1.0548e-05V3.00001L27.1285 3.00001L27.1287 3.00001L30.1428 3.00001V1.10249e-05L27.1287 1.06792e-05L24.1144 1.0548e-05ZM30.1428 3.00014V6.00014L27.1285 6.00014V3.00014H30.1428ZM5.12349e-05 3.00014H3.01434V6.00014H5.12349e-05L5.12349e-05 3.00014ZM6.02838 1.05957e-05L3.0141 1.05957e-05L5.09714e-05 1.0858e-05L5.09714e-05 3.00001H3.01434L6.02838 3.00001V1.05957e-05ZM3.01438 27V30H6.02866V27H3.01438ZM5.094e-05 26.9998L5.08083e-05 23.9999H3.01434L3.01434 26.9998H5.094e-05ZM5.07267e-05 27L5.08585e-05 30H3.01434V27H5.07267e-05Z" fill="white" fill-opacity="0.01"/>
<path d="M30.1429 0H31.1429V-1H30.1429V0ZM0 0V-1H-1V0H0ZM30.1429 30V31H31.1429V30H30.1429ZM0 30H-1V31H0V30ZM30.1428 26.9998V27.9998H31.1428V26.9998H30.1428ZM30.1428 23.9999H31.1428V22.9999H30.1428V23.9999ZM27.1285 26.9998H26.1285V27.9998H27.1285V26.9998ZM27.1285 23.9999V22.9999H26.1285V23.9999H27.1285ZM24.1142 30H23.1142V31H24.1142V30ZM24.1142 27V26H23.1142V27H24.1142ZM27.1284 30V31H28.1284V30H27.1284ZM27.1284 27H28.1284V26H27.1284V27ZM30.1428 30V31H31.1428V30H30.1428ZM30.1428 27H31.1428V26H30.1428V27ZM27.1285 30H26.1285V31H27.1285V30ZM27.1285 27V26H26.1285V27H27.1285ZM24.1144 3.00001H23.1144V4.00001H24.1144V3.00001ZM24.1144 1.0548e-05V-0.999989L23.1144 -0.99999V1.0548e-05H24.1144ZM27.1285 3.00001V4.00001L27.1295 4.00001L27.1285 3.00001ZM27.1287 3.00001V2.00001L27.1277 2.00001L27.1287 3.00001ZM30.1428 3.00001V4.00001L31.1428 4.00001V3.00001H30.1428ZM30.1428 1.10249e-05H31.1428V-0.999989L30.1428 -0.999989V1.10249e-05ZM27.1287 1.06792e-05V-0.999989V1.06792e-05ZM30.1428 6.00014V7.00014H31.1428V6.00014H30.1428ZM30.1428 3.00014H31.1428V2.00014H30.1428V3.00014ZM27.1285 6.00014H26.1285V7.00014H27.1285V6.00014ZM27.1285 3.00014V2.00014H26.1285V3.00014H27.1285ZM3.01434 3.00014H4.01434V2.00014H3.01434V3.00014ZM5.12349e-05 3.00014V2.00014H-0.999949V3.00014H5.12349e-05ZM3.01434 6.00014V7.00014H4.01434V6.00014H3.01434ZM5.12349e-05 6.00014H-0.999949V7.00014H5.12349e-05V6.00014ZM3.0141 1.05957e-05V-0.999989V1.05957e-05ZM6.02838 1.05957e-05H7.02838V-0.999989H6.02838V1.05957e-05ZM5.09714e-05 1.0858e-05L5.08844e-05 -0.999989L-0.999949 -0.999989V1.0858e-05L5.09714e-05 1.0858e-05ZM5.09714e-05 3.00001H-0.999949V4.00001H5.09714e-05V3.00001ZM3.01434 3.00001V4.00001L3.01434 4.00001L3.01434 3.00001ZM6.02838 3.00001V4.00001H7.02838V3.00001H6.02838ZM3.01438 30H2.01438V31H3.01438V30ZM3.01438 27V26H2.01438V27H3.01438ZM6.02866 30V31H7.02866V30H6.02866ZM6.02866 27H7.02866V26H6.02866V27ZM5.08083e-05 23.9999V22.9999H-0.999949V23.9999H5.08083e-05ZM5.094e-05 26.9998H-0.999949V27.9998H5.094e-05V26.9998ZM3.01434 23.9999H4.01434V22.9999H3.01434V23.9999ZM3.01434 26.9998V27.9998H4.01434V26.9998H3.01434ZM5.08585e-05 30H-0.999949L-0.999949 31H5.08585e-05V30ZM5.07267e-05 27V26H-0.999949L-0.999949 27H5.07267e-05ZM3.01434 30V31H4.01434V30H3.01434ZM3.01434 27H4.01434V26H3.01434V27ZM30.1429 -1H0V1H30.1429V-1ZM31.1429 30V0H29.1429V30H31.1429ZM0 31H30.1429V29H0V31ZM-1 0V30H1V0H-1ZM31.1428 26.9998V23.9999H29.1428V26.9998H31.1428ZM27.1285 27.9998L30.1428 27.9998V25.9998L27.1285 25.9998V27.9998ZM26.1285 23.9999V26.9998H28.1285V23.9999H26.1285ZM30.1428 22.9999H27.1285V24.9999H30.1428V22.9999ZM25.1142 30V27H23.1142V30H25.1142ZM27.1284 29H24.1142V31H27.1284V29ZM26.1284 27V30H28.1284V27H26.1284ZM24.1142 28H27.1284V26H24.1142V28ZM31.1428 30V27H29.1428V30H31.1428ZM27.1285 31H30.1428V29H27.1285V31ZM26.1285 27V30H28.1285V27H26.1285ZM30.1428 26H27.1285V28H30.1428V26ZM25.1144 3.00001V1.0548e-05H23.1144V3.00001H25.1144ZM27.1285 2.00001L24.1144 2.00001V4.00001L27.1285 4.00001V2.00001ZM27.1277 2.00001L27.1275 2.00001L27.1295 4.00001H27.1297L27.1277 2.00001ZM30.1428 2.00001L27.1287 2.00001V4.00001H30.1428V2.00001ZM29.1428 1.10249e-05V3.00001H31.1428V1.10249e-05H29.1428ZM27.1287 1.00001L30.1428 1.00001V-0.999989L27.1287 -0.999989V1.00001ZM24.1144 1.00001L27.1287 1.00001V-0.999989L24.1144 -0.999989V1.00001ZM31.1428 6.00014V3.00014H29.1428V6.00014H31.1428ZM27.1285 7.00014L30.1428 7.00014V5.00014L27.1285 5.00014V7.00014ZM26.1285 3.00014V6.00014H28.1285V3.00014H26.1285ZM30.1428 2.00014H27.1285V4.00014H30.1428V2.00014ZM3.01434 2.00014H5.12349e-05V4.00014H3.01434V2.00014ZM4.01434 6.00014V3.00014H2.01434V6.00014H4.01434ZM5.12349e-05 7.00014H3.01434V5.00014H5.12349e-05V7.00014ZM-0.999949 3.00014V6.00014H1.00005V3.00014H-0.999949ZM3.0141 1.00001H6.02838V-0.999989H3.0141V1.00001ZM5.10584e-05 1.00001L3.0141 1.00001V-0.999989L5.08844e-05 -0.999989L5.10584e-05 1.00001ZM1.00005 3.00001V1.0858e-05L-0.999949 1.0858e-05V3.00001H1.00005ZM3.01434 2.00001H5.09714e-05V4.00001H3.01434V2.00001ZM6.02838 2.00001L3.01434 2.00001L3.01434 4.00001L6.02838 4.00001V2.00001ZM5.02838 1.05957e-05V3.00001H7.02838V1.05957e-05H5.02838ZM4.01438 30V27H2.01438V30H4.01438ZM6.02866 29H3.01438V31H6.02866V29ZM5.02866 27V30H7.02866V27H5.02866ZM3.01438 28H6.02866V26H3.01438V28ZM-0.999949 23.9999L-0.999949 26.9998H1.00005L1.00005 23.9999H-0.999949ZM3.01434 22.9999H5.08083e-05V24.9999H3.01434V22.9999ZM4.01434 26.9998L4.01434 23.9999H2.01434L2.01434 26.9998H4.01434ZM5.094e-05 27.9998H3.01434V25.9998H5.094e-05V27.9998ZM1.00005 30L1.00005 27H-0.999949L-0.999949 30H1.00005ZM3.01434 29H5.08585e-05V31H3.01434V29ZM2.01434 27V30H4.01434V27H2.01434ZM5.07267e-05 28H3.01434V26H5.07267e-05V28Z" fill="white" fill-opacity="0.15" mask="url(#path-1-inside-1_54_11268)"/>
</svg>
