<svg width="140" height="140" viewBox="0 0 140 140" fill="none" xmlns="http://www.w3.org/2000/svg">
<path fill-rule="evenodd" clip-rule="evenodd" d="M140 131.728L140 131.728L131.727 131.728L123.455 131.728L115.182 131.728L106.909 131.728L106.909 140L-6.11959e-06 140L-6.11959e-06 140L8.27226 140L8.27226 131.727L-5.75798e-06 131.727L-5.75795e-06 131.727L8.27226 131.727L8.27226 123.454L8.27226 123.454L8.27226 115.182L8.27226 115.182L8.27226 106.909L-4.67314e-06 106.909L-1.44644e-06 33.0907L8.27238 33.0907L8.27238 24.818L-1.08482e-06 24.8179L8.27254 24.8179L16.5453 24.8179L16.5453 16.5454L16.5453 16.5452L16.5453 8.27266L8.27254 8.27266L-3.6161e-07 8.27266L-3.61603e-07 8.27251L8.27254 8.27251L16.5453 8.27251L24.818 8.27251L33.0908 8.27251L33.0908 -4.67315e-06L106.909 -1.44645e-06L106.909 8.27273L115.182 8.27273L115.182 8.27273L123.454 8.27273L123.454 -7.23237e-07L123.454 -7.23236e-07L123.454 8.27273L131.727 8.27273L131.727 -3.61624e-07L131.727 -3.61622e-07L131.727 8.27273L140 8.27273L140 0L140 0L140 106.91L131.727 106.91L131.727 115.182L140 115.182L140 115.182L131.727 115.182L131.727 123.455L131.727 123.455L131.727 131.728L140 131.728ZM140 24.8181L140 33.0908L131.727 33.0908L131.727 24.8184L131.727 16.5458L131.727 16.5456L131.727 8.27304L140 8.27304L140 16.5456L140 16.5458L140 24.8181L140 24.8181ZM131.727 24.8184L131.727 16.5458L131.727 16.5456L131.727 8.27304L123.454 8.27304L123.454 16.5456L123.454 16.5458L123.454 24.8184L131.727 24.8184ZM115.182 8.27304L123.454 8.27304L123.454 16.5458L115.182 16.5458L115.182 8.27304ZM123.454 131.728L115.182 131.728L115.182 123.455L123.454 123.455L123.454 131.728ZM131.727 131.728L123.455 131.728L123.455 123.455L123.455 123.455L123.455 115.182L131.727 115.182L131.727 123.455L131.727 123.455L131.727 131.728ZM8.27229 131.727L16.545 131.727L16.545 123.454L16.545 123.454L16.545 115.182L8.27229 115.182L8.27229 123.454L8.27229 123.454L8.27229 131.727ZM24.8178 131.727L16.545 131.727L16.545 123.454L24.8178 123.454L24.8178 131.727ZM16.545 140L8.27229 140L8.27229 131.727L16.545 131.727L16.545 140ZM16.545 140L24.8178 140L24.8178 131.727L16.545 131.727L16.545 140ZM33.0907 140L24.8179 140L24.8179 131.727L33.0907 131.727L33.0907 140ZM16.5453 16.5454L16.5453 8.27266L24.818 8.27266L24.818 16.5454L16.5453 16.5454Z" fill="#171A2B"/>
<path d="M31 61V62H29V64H27V66H25V68H23V69H22V70H21V72H22V73H23V74H25V76H27V78H28H29V79V80H31V81H33V78H31V76H29V74H27V72H25V70H27V68H29V66H31V64H33V61H31Z" fill="white"/>
<path d="M118 70V69H117V68H115V66H113V64H111V62H109V61H107V64H109V66H111V68H113V70H115V72H113V74H111V76H109V78H107V81H109V80H111V78H113V77V76H115V75V74H117V73H118V72H119V71V70H118Z" fill="white"/>
<g clip-path="url(#clip0_65_7033)">
<path d="M59.1602 32.225L58.2941 32.725L57.2941 30.993L55.5621 31.993L54.5621 30.2609L52.83 31.2609L51.83 29.5289L50.098 30.5289L49.098 28.7968L48.232 29.2968L47.732 28.4308L46.8659 28.9308L46.3659 28.0648L44.6339 29.0648L45.1339 29.9308L44.2679 30.4308L44.7679 31.2968L43.9018 31.7968L44.9018 33.5289L43.1698 34.5289L44.1698 36.2609L42.4377 37.2609L42.9377 38.1269L43.4377 38.993L42.5717 39.493L41.7057 39.993L42.7057 41.725L41.8396 42.225L42.8396 43.9571L45.4377 42.4571L44.4377 40.725L46.1698 39.725L45.1698 37.993L46.9018 36.993L45.9018 35.2609L47.6339 34.2609L46.6339 32.5289L48.3659 31.5289L49.3659 33.2609L51.098 32.2609L52.098 33.993L53.83 32.993L54.83 34.725L56.5621 33.725L57.5621 35.4571L60.1602 33.9571L59.1602 32.225Z" fill="white"/>
</g>
<g clip-path="url(#clip1_65_7033)">
<path d="M94.8659 112.069L95.732 111.569L95.232 110.703L96.098 110.203L95.098 108.471L96.83 107.471L95.83 105.739L97.5621 104.739L96.5621 103.007L98.2941 102.007L97.2941 100.275L98.1602 99.775L97.1602 98.0429L94.5621 99.5429L95.5621 101.275L93.83 102.275L94.83 104.007L93.098 105.007L94.098 106.739L92.3659 107.739L93.3659 109.471L91.6339 110.471L90.6339 108.739L88.9018 109.739L87.9018 108.007L86.1698 109.007L85.1698 107.275L83.4377 108.275L82.4377 106.543L79.8396 108.043L80.8396 109.775L81.7057 109.275L82.7057 111.007L84.4377 110.007L85.4377 111.739L86.3037 111.239L87.1698 110.739L88.1698 112.471L89.0358 111.971L89.9018 111.471L90.9018 113.203L91.7679 112.703L92.2679 113.569L93.1339 113.069L93.6339 113.935L94.4999 113.435L95.3659 112.935L94.8659 112.069Z" fill="white"/>
</g>
<path d="M98.1602 42.225L97.2941 41.725L98.2941 39.993L96.5621 38.993L97.5621 37.2609L95.83 36.2609L96.83 34.5289L95.098 33.5289L96.098 31.7968L95.232 31.2968L95.732 30.4308L94.8659 29.9308L95.3659 29.0648L93.6339 28.0648L93.1339 28.9308L92.2679 28.4308L91.7679 29.2968L90.9018 28.7968L89.9018 30.5289L88.1698 29.5289L87.1698 31.2609L85.4377 30.2609L84.9377 31.1269L84.4377 31.993L83.5717 31.493L82.7057 30.993L81.7057 32.725L80.8396 32.225L79.8396 33.9571L82.4377 35.4571L83.4377 33.725L85.1698 34.725L86.1698 32.993L87.9018 33.993L88.9018 32.2609L90.6339 33.2609L91.6339 31.5289L93.3659 32.5289L92.3659 34.2609L94.098 35.2609L93.098 36.993L94.83 37.993L93.83 39.725L95.5621 40.725L94.5621 42.4571L97.1602 43.9571L98.1602 42.225Z" fill="white"/>
<g clip-path="url(#clip2_65_7033)">
<path d="M46.8659 113.069L47.732 113.569L48.232 112.703L49.098 113.203L50.098 111.471L51.83 112.471L52.83 110.739L54.5621 111.739L55.5621 110.007L57.2941 111.007L58.2941 109.275L59.1602 109.775L60.1602 108.043L57.5621 106.543L56.5621 108.275L54.83 107.275L53.83 109.007L52.098 108.007L51.098 109.739L49.3659 108.739L48.3659 110.471L46.6339 109.471L47.6339 107.739L45.9018 106.739L46.9018 105.007L45.1698 104.007L46.1698 102.275L44.4377 101.275L45.4377 99.5429L42.8396 98.0429L41.8396 99.775L42.7057 100.275L41.7057 102.007L43.4377 103.007L42.4377 104.739L43.3037 105.239L44.1698 105.739L43.1698 107.471L44.0358 107.971L44.9018 108.471L43.9018 110.203L44.7679 110.703L44.2679 111.569L45.1339 112.069L44.6339 112.935L45.4999 113.435L46.3659 113.935L46.8659 113.069Z" fill="white"/>
</g>
<path d="M60.3333 70H62.6667V72.3333H76.6667V70H79V67.6667H81.3333V53.6667H79V51.3333H76.6667V49H62.6667V51.3333H60.3333V53.6667H58V67.6667H60.3333V70ZM62.6667 58.3333H65V56H67.3333V53.6667H72V56H74.3333V58.3333H76.6667V63H74.3333V65.3333H72V67.6667H67.3333V65.3333H65V63H62.6667V58.3333Z" fill="white"/>
<path d="M86 77H83.6667V74.6667H55.6667V77H53.3333V79.3333H51V91H55.6667V84H58V81.6667H60.3333V79.3333H79V81.6667H81.3333V84H83.6667V91H88.3333V79.3333H86V77Z" fill="white"/>
<defs>
<clipPath id="clip0_65_7033">
<rect width="24" height="24" fill="white" transform="translate(52.8921 17.3686) rotate(60)"/>
</clipPath>
<clipPath id="clip1_65_7033">
<rect width="24" height="24" fill="white" transform="translate(95.8921 91.8468) rotate(60)"/>
</clipPath>
<clipPath id="clip2_65_7033">
<rect width="24" height="24" fill="white" transform="translate(64.8921 103.847) rotate(120)"/>
</clipPath>
</defs>
</svg>
