<svg width="35" height="35" viewBox="0 0 35 35" fill="none" xmlns="http://www.w3.org/2000/svg">
<mask id="path-1-inside-1_74_7037" fill="white">
<path fill-rule="evenodd" clip-rule="evenodd" d="M30.7461 0.715149L0 0.715151V0.715158L3.41619 0.715158V0.715164L6.83203 0.715164V4.11516H3.41584V4.11515H0V4.1153H3.41619V7.5153H0V27.915H3.41619L3.41619 31.315H0V31.3151L3.41584 31.3151H6.83203V34.7151L3.41619 34.7151L0 34.7152H34.1619L30.7458 34.7151V31.3151H34.1619V31.315H30.7458V27.915H34.1619V7.51529L30.7461 7.51529V4.1153L34.1619 4.1153V4.11514L30.7465 4.11515L27.3303 4.11515V0.715155L30.7461 0.715149ZM27.3292 31.3151V34.7151H30.7454V31.3151H27.3292Z"/>
</mask>
<path fill-rule="evenodd" clip-rule="evenodd" d="M30.7461 0.715149L0 0.715151V0.715158L3.41619 0.715158V0.715164L6.83203 0.715164V4.11516H3.41584V4.11515H0V4.1153H3.41619V7.5153H0V27.915H3.41619L3.41619 31.315H0V31.3151L3.41584 31.3151H6.83203V34.7151L3.41619 34.7151L0 34.7152H34.1619L30.7458 34.7151V31.3151H34.1619V31.315H30.7458V27.915H34.1619V7.51529L30.7461 7.51529V4.1153L34.1619 4.1153V4.11514L30.7465 4.11515L27.3303 4.11515V0.715155L30.7461 0.715149ZM27.3292 31.3151V34.7151H30.7454V31.3151H27.3292Z" fill="white" fill-opacity="0.01"/>
<path d="M0 0.715151L-8.16404e-08 -0.284849L-1 -0.284849V0.715151H0ZM0 0.715158H-1V1.71516H0L0 0.715158ZM3.41619 0.715158H4.41619V-0.284842H3.41619V0.715158ZM3.41619 0.715164H2.41619V1.71516H3.41619V0.715164ZM6.83203 0.715164H7.83203V-0.284836H6.83203V0.715164ZM6.83203 4.11516V5.11516H7.83203V4.11516H6.83203ZM3.41584 4.11516H2.41584V5.11516H3.41584V4.11516ZM3.41584 4.11515H4.41584V3.11515H3.41584V4.11515ZM0 4.11515V3.11515H-1V4.11515H0ZM0 4.1153H-1V5.1153H0V4.1153ZM3.41619 4.1153H4.41619V3.1153H3.41619V4.1153ZM3.41619 7.5153V8.5153H4.41619V7.5153H3.41619ZM0 7.5153V6.5153H-1V7.5153H0ZM0 27.915H-1V28.915H0V27.915ZM3.41619 27.915H4.41619V26.915H3.41619V27.915ZM3.41619 31.315V32.315H4.41619V31.315H3.41619ZM0 31.315V30.315H-1V31.315H0ZM0 31.3151H-1V32.3151L1.11677e-06 32.3151L0 31.3151ZM3.41584 31.3151V30.3151H3.41584L3.41584 31.3151ZM6.83203 31.3151H7.83203V30.3151H6.83203V31.3151ZM6.83203 34.7151L6.83203 35.7151L7.83203 35.7151V34.7151H6.83203ZM3.41619 34.7151L3.41619 33.7151H3.41618L3.41619 34.7151ZM0 34.7152L-6.69992e-06 33.7152L0 35.7152V34.7152ZM30.7458 34.7151H29.7458V35.7151L30.7458 35.7151L30.7458 34.7151ZM30.7458 31.3151V30.3151H29.7458V31.3151H30.7458ZM34.1619 31.3151V32.3151H35.1619V31.3151H34.1619ZM34.1619 31.315H35.1619V30.315H34.1619V31.315ZM30.7458 31.315H29.7458V32.315H30.7458V31.315ZM30.7458 27.915V26.915H29.7458V27.915H30.7458ZM34.1619 27.915V28.915H35.1619V27.915H34.1619ZM34.1619 7.51529H35.1619V6.51529L34.1619 6.51529V7.51529ZM30.7461 7.51529H29.7461V8.51529H30.7461V7.51529ZM30.7461 4.1153V3.1153L29.7461 3.11529V4.1153H30.7461ZM34.1619 4.1153V5.1153H35.1619V4.1153H34.1619ZM34.1619 4.11514H35.1619V3.11514L34.1619 3.11514V4.11514ZM30.7465 4.11515V5.11515H30.7465L30.7465 4.11515ZM27.3303 4.11515H26.3303V5.11515H27.3303V4.11515ZM27.3303 0.715155L27.3303 -0.284845L26.3303 -0.284843V0.715155H27.3303ZM27.3292 34.7151H26.3292V35.7151H27.3292V34.7151ZM27.3292 31.3151V30.3151H26.3292V31.3151H27.3292ZM30.7454 34.7151V35.7151H31.7454V34.7151H30.7454ZM30.7454 31.3151H31.7454V30.3151H30.7454V31.3151ZM8.16404e-08 1.71515L30.7461 1.71515V-0.284851L-8.16404e-08 -0.284849L8.16404e-08 1.71515ZM1 0.715158V0.715151H-1V0.715158H1ZM3.41619 -0.284842H0L0 1.71516H3.41619V-0.284842ZM4.41619 0.715164V0.715158H2.41619V0.715164H4.41619ZM6.83203 -0.284836H3.41619V1.71516H6.83203V-0.284836ZM7.83203 4.11516V0.715164H5.83203V4.11516H7.83203ZM3.41584 5.11516H6.83203V3.11516H3.41584V5.11516ZM2.41584 4.11515V4.11516H4.41584V4.11515H2.41584ZM0 5.11515H3.41584V3.11515H0V5.11515ZM1 4.1153V4.11515H-1V4.1153H1ZM3.41619 3.1153H0V5.1153H3.41619V3.1153ZM4.41619 7.5153V4.1153H2.41619V7.5153H4.41619ZM0 8.5153H3.41619V6.5153H0V8.5153ZM1 27.915V7.5153H-1V27.915H1ZM3.41619 26.915H0V28.915H3.41619V26.915ZM4.41619 31.315L4.41619 27.915H2.41619L2.41619 31.315H4.41619ZM0 32.315H3.41619V30.315H0V32.315ZM1 31.3151V31.315H-1V31.3151H1ZM1.11677e-06 32.3151L3.41584 32.3151L3.41584 30.3151L-1.11677e-06 30.3151L1.11677e-06 32.3151ZM3.41584 32.3151H6.83203V30.3151H3.41584V32.3151ZM5.83203 31.3151V34.7151H7.83203V31.3151H5.83203ZM6.83203 33.7151L3.41619 33.7151L3.41619 35.7151L6.83203 35.7151L6.83203 33.7151ZM3.41618 33.7151L-6.69992e-06 33.7152L6.69992e-06 35.7152L3.4162 35.7151L3.41618 33.7151ZM34.1619 33.7152H0V35.7152H34.1619V33.7152ZM30.7458 35.7151L34.1619 35.7152L34.1619 33.7152L30.7458 33.7151L30.7458 35.7151ZM29.7458 31.3151V34.7151H31.7458V31.3151H29.7458ZM34.1619 30.3151H30.7458V32.3151H34.1619V30.3151ZM33.1619 31.315V31.3151H35.1619V31.315H33.1619ZM30.7458 32.315H34.1619V30.315H30.7458V32.315ZM29.7458 27.915V31.315H31.7458V27.915H29.7458ZM34.1619 26.915H30.7458V28.915H34.1619V26.915ZM33.1619 7.51529V27.915H35.1619V7.51529H33.1619ZM30.7461 8.51529L34.1619 8.51529V6.51529L30.7461 6.51529V8.51529ZM29.7461 4.1153V7.51529H31.7461V4.1153H29.7461ZM34.1619 3.1153L30.7461 3.1153V5.11529L34.1619 5.1153V3.1153ZM33.1619 4.11514V4.1153H35.1619V4.11514H33.1619ZM30.7465 5.11515L34.1619 5.11514V3.11514L30.7465 3.11515L30.7465 5.11515ZM27.3303 5.11515L30.7465 5.11515V3.11515L27.3303 3.11515V5.11515ZM26.3303 0.715155V4.11515H28.3303V0.715155H26.3303ZM30.7461 -0.284851L27.3303 -0.284845L27.3303 1.71516L30.7461 1.71515L30.7461 -0.284851ZM28.3292 34.7151V31.3151H26.3292V34.7151H28.3292ZM30.7454 33.7151H27.3292V35.7151H30.7454V33.7151ZM29.7454 31.3151V34.7151H31.7454V31.3151H29.7454ZM27.3292 32.3151H30.7454V30.3151H27.3292V32.3151Z" fill="white" fill-opacity="0.15" mask="url(#path-1-inside-1_74_7037)"/>
<g opacity="0.25">
<path d="M13.667 11.0485V11.8818H14.5003V12.7151H20.3337V13.5485H21.167V14.3818H22.8337V11.8818H22.0003V11.0485H16.167V10.2151H15.3337V9.38181H9.50033V10.2151H8.66699V20.2151H10.3337V11.8818H11.167V11.0485H13.667Z" fill="white"/>
<path d="M24.5 16.8818V16.0485H19.5V15.2151H18.6667V14.3818H12.8333V15.2151H12V25.2151H12.8333V26.0485H24.5V25.2151H25.3333V16.8818H24.5ZM23.6667 23.5485H22.8333V24.3818H14.5V23.5485H13.6667V16.8818H14.5V16.0485H17V16.8818H17.8333V17.7151H22.8333V18.5485H23.6667V23.5485Z" fill="white"/>
</g>
</svg>
