<svg width="54" height="54" viewBox="0 0 54 54" fill="none" xmlns="http://www.w3.org/2000/svg">
<path fill-rule="evenodd" clip-rule="evenodd" d="M50.8271 0.0974731H50.8271V3.26544H53.9946V3.26563H50.8271V6.43349V6.4336V9.60138V9.60146V12.7693H53.9946V53.7092L9.88659 53.7092V50.5413H6.71873H6.71863H3.55077L3.55077 53.7092H3.55068L3.55068 50.5413H0.382812V50.5411H3.55068L3.55068 47.3731L3.55068 44.2053V44.2052L3.55068 41.0373H0.382812V0.0974731H41.3232V3.26544H44.4911V0.0974731H44.4912V3.26544H47.6591H47.6592H50.8271V0.0974731ZM13.0547 3.26546L9.88679 3.26546H9.88671H6.71893H6.71882H3.55096V0.0974901L6.71882 0.0974901L6.71893 0.0974901L9.88671 0.0974902L9.88679 0.0974902L13.0547 0.0974902V3.26546ZM9.88679 3.26548H6.71893H6.71882H3.55096V6.43337V6.43345L3.55096 9.60134H6.71893V6.43345H9.88679V3.26548ZM0.382837 0.0974901L0.382837 3.26546H3.5508V0.0974901L0.382837 0.0974901ZM0.382837 6.43337V3.26548H3.5508V6.43337V6.43345V9.60134H0.382837V6.43345L0.382837 6.43337ZM0.38284 12.7693L0.38284 9.60137H3.55081V12.7693H0.38284ZM50.8271 6.4336V9.60146H47.6591V6.4336H44.4912V3.26563H47.6591H47.6592H50.8271V6.43349V6.4336ZM41.3222 50.5412L44.4901 50.5412V47.3732H47.6579V44.2053H50.8259V47.3732V47.3733V50.5412V53.7092H47.6581H47.6579H44.4902H44.4901H41.3222V50.5412ZM53.9941 53.7092V50.5412V47.3733V47.3732V44.2053H50.8261V47.3732V47.3733V50.5412V53.7092H53.9941ZM53.9941 41.0374V44.2053L50.8261 44.2053V41.0374H53.9941ZM6.71863 50.5411H3.55077L3.55077 47.3732L3.55077 47.3731L3.55077 44.2052H6.71873V47.3731H9.88659V50.5411H6.71873H6.71863ZM9.88664 53.7092H13.0546V50.5412H9.88664V53.7092Z" fill="#447EF7"/>
<path d="M28 21H26V23H28V21Z" fill="white"/>
<path d="M28 25H26V33H28V25Z" fill="white"/>
<path d="M36 20V19H35V18H34V17H20V18H19V19H18V20H17V34H18V35H19V36H20V37H34V36H35V35H36V34H37V20H36ZM35 32H34V33H33V34H32V35H22V34H21V33H20V32H19V22H20V21H21V20H22V19H32V20H33V21H34V22H35V32Z" fill="white"/>
</svg>
