<svg width="54" height="54" viewBox="0 0 54 54" fill="none" xmlns="http://www.w3.org/2000/svg">
<path fill-rule="evenodd" clip-rule="evenodd" d="M50.8271 0.382324H50.8271V3.55029H53.9946V3.55048H50.8271V6.71834V6.71845V9.88623V9.88631V13.0542H53.9946V53.9941L9.88659 53.9941V50.8261H6.71873H6.71863H3.55077L3.55077 53.9941H3.55068L3.55068 50.8261H0.382812V50.8259H3.55068L3.55068 47.6579L3.55068 44.4902V44.4901L3.55068 41.3222H0.382812V0.382324H41.3232V3.55029H44.4911V0.382324H44.4912V3.55029H47.6591H47.6592H50.8271V0.382324ZM13.0547 3.55031L9.88679 3.55031H9.88671H6.71893H6.71882H3.55096V0.382341L6.71882 0.382341L6.71893 0.382341L9.88671 0.382341L9.88679 0.382341L13.0547 0.382341V3.55031ZM9.88679 3.55033H6.71893H6.71882H3.55096V6.71822V6.7183L3.55096 9.88619H6.71893V6.7183H9.88679V3.55033ZM0.382837 0.382341L0.382837 3.55031H3.5508V0.382341L0.382837 0.382341ZM0.382837 6.71822V3.55033H3.5508V6.71822V6.7183V9.88619H0.382837V6.7183L0.382837 6.71822ZM0.38284 13.0542L0.38284 9.88622H3.55081V13.0542H0.38284ZM50.8271 6.71845V9.88631H47.6591V6.71845H44.4912V3.55048H47.6591H47.6592H50.8271V6.71834V6.71845ZM41.3222 50.826L44.4901 50.826V47.6581H47.6579V44.4902H50.8259V47.6581V47.6582V50.826V53.994H47.6581H47.6579H44.4902H44.4901H41.3222V50.826ZM53.9941 53.994V50.826V47.6582V47.6581V44.4902H50.8261V47.6581V47.6582V50.826V53.994H53.9941ZM53.9941 41.3222V44.4902L50.8261 44.4902V41.3222H53.9941ZM6.71863 50.8259H3.55077L3.55077 47.6581L3.55077 47.6579L3.55077 44.4901H6.71873V47.6579H9.88659V50.8259H6.71873H6.71863ZM9.88664 53.9941H13.0546V50.8261H9.88664V53.9941Z" fill="#447EF7"/>
<path d="M21.0023 36.0384H19.6276V34.6769H21.0023V36.0384Z" fill="white"/>
<path d="M34.7489 36.0384H33.3742V34.6769H34.7489V36.0384Z" fill="white"/>
<path d="M23.7516 19.6996H22.3769V18.3381H23.7516V19.6996Z" fill="white"/>
<path d="M31.9995 19.6996H30.6249V18.3381H31.9995V19.6996Z" fill="white"/>
<path d="M21.0023 27.869H22.3769V25.1459H31.9995V27.869H33.3742V25.1459H34.7489V23.7843H33.3742V19.6996H31.9995V23.7843H22.3769V19.6996H21.0023V23.7843H19.6276V25.1459H21.0023V27.869Z" fill="white"/>
<path d="M23.7516 16.9765V18.3381H30.6249V16.9765H23.7516Z" fill="white"/>
<path d="M36.1235 25.1459H34.7489V34.6769H36.1235V25.1459Z" fill="white"/>
<path d="M27.8756 33.3153V31.9537H29.2502V30.5922H27.8756V29.2306H26.5009V30.5922H25.1262V31.9537H26.5009V33.3153H27.8756Z" fill="white"/>
<path d="M18.2529 34.6769H19.6276V25.1459H18.2529V34.6769Z" fill="white"/>
<path d="M21.0023 36.0384V37.4H33.3742V36.0384H21.0023Z" fill="white"/>
<path d="M21.0023 36.0384V37.4H33.3742V36.0384M21.0023 36.0384H19.6276V34.6769M21.0023 36.0384V34.6769H19.6276M21.0023 36.0384H33.3742M19.6276 34.6769H18.2529V25.1459H19.6276M19.6276 34.6769V25.1459M19.6276 25.1459H21.0023V27.869H22.3769V25.1459H31.9995V27.869H33.3742V25.1459H34.7489M19.6276 25.1459V23.7843H21.0023V19.6996H22.3769M34.7489 25.1459V23.7843H33.3742V19.6996H31.9995M34.7489 25.1459H36.1235V34.6769H34.7489M34.7489 25.1459V34.6769M33.3742 36.0384H34.7489V34.6769M33.3742 36.0384V34.6769H34.7489M22.3769 19.6996H23.7516V18.3381M22.3769 19.6996V18.3381H23.7516M22.3769 19.6996V23.7843H31.9995V19.6996M23.7516 18.3381V16.9765H30.6249V18.3381M23.7516 18.3381H30.6249M31.9995 19.6996H30.6249V18.3381M31.9995 19.6996V18.3381H30.6249M27.8756 33.3153V31.9537H29.2502V30.5922H27.8756V29.2306H26.5009V30.5922H25.1262V31.9537H26.5009V33.3153H27.8756Z" stroke="white" stroke-width="0.5"/>
</svg>
