<svg width="54" height="54" viewBox="0 0 54 54" fill="none" xmlns="http://www.w3.org/2000/svg">
<path fill-rule="evenodd" clip-rule="evenodd" d="M0.382812 3.55027L0.382813 3.55032H3.55078V6.71821V6.71829V9.88618H0.382812L0.382813 41.3223H3.55067L3.55067 44.4902V44.4903L3.55067 47.6581V47.6581L3.55067 50.826H0.382814L0.382814 50.8262H3.55067L3.55067 53.9941H3.55075L3.55075 50.8262H6.71864H6.71872H9.8866V53.9941L9.88662 50.8261H13.0546V53.9941H53.9946V13.0542H50.8268V9.8863V9.88622V6.71847V6.71833V3.55051H53.9946V3.55032H50.8268V0.382351L53.9946 0.382324H13.0547V3.55026L9.88678 3.55026H9.88669H6.71889H6.71881H3.55093V0.382324H3.55078V3.55027H0.382812ZM9.88678 3.55032H6.71889H6.71881H3.55093L3.55093 6.71821L3.55093 6.71829L3.55093 9.88618H6.71889L6.71889 6.71829H9.88678V3.55032ZM0.382821 13.0542L0.382821 9.8862H3.55079V13.0542H0.382821ZM50.8267 6.71847V9.8863H47.6588V6.71847H44.4909V3.55051H47.6588H47.6588H50.8267V6.71833V6.71847ZM50.8267 3.55032V0.382351H47.6588H47.6588H44.4909V3.55032H47.6588H47.6588H50.8267ZM44.4908 0.382338H41.3228V3.5503H44.4908V0.382338ZM44.4906 47.6581V50.8261H41.3227V53.9941L44.4905 53.9941H44.4906L47.6584 53.9941L47.6585 53.9941L50.8263 53.9941V50.8261V47.6582V47.6581V44.4902H47.6584V47.6581H44.4906ZM50.8265 47.6582V50.8261V53.9941L53.9945 53.9941V50.8261V47.6582V47.6581V44.4902V41.3223H50.8265L50.8265 44.4902V47.6581V47.6582ZM3.55075 47.6581L3.55075 44.4902H6.71872V47.6581H9.8866V50.826H6.71872H6.71863H3.55075L3.55075 47.6581L3.55075 47.6581Z" fill="#E86161"/>
<path d="M28 31H26V33H28V31Z" fill="white"/>
<path d="M28 21H26V29H28V21Z" fill="white"/>
<path d="M36 20V19H35V18H34V17H20V18H19V19H18V20H17V34H18V35H19V36H20V37H34V36H35V35H36V34H37V20H36ZM35 32H34V33H33V34H32V35H22V34H21V33H20V32H19V22H20V21H21V20H22V19H32V20H33V21H34V22H35V32Z" fill="white"/>
</svg>
