<svg width="1600" height="1342" viewBox="0 0 1600 1342" fill="none" xmlns="http://www.w3.org/2000/svg">
<g filter="url(#filter0_b_87_3722)">
<mask id="path-1-inside-1_87_3722" fill="white">
<path fill-rule="evenodd" clip-rule="evenodd" d="M1585.05 47.2536V31.5024H1570.09V15.7512L1555.14 15.7511V-1.39061e-05L0 0V1.6026e-05L14.953 1.67145e-05L14.953 15.7511V15.7512V31.5023L0 31.5023V31.5024H14.953L14.953 47.2535L0 47.2535V1294.75H14.9531V1310.5H29.9065L29.9065 1326.25H44.8597V1342H1555.14V1326.25L1570.09 1326.25L1570.09 1310.5H1585.05V1294.75H1600V47.2536L1585.05 47.2536ZM29.9064 15.7511L29.9064 1.6026e-05L14.9532 1.53375e-05V15.7511L14.9532 15.7512L14.9532 31.5023H29.9064V15.7512L44.8596 15.7512L44.8596 1.91522e-05L29.9064 1.84637e-05L29.9064 15.7511Z"/>
</mask>
<path fill-rule="evenodd" clip-rule="evenodd" d="M1585.05 47.2536V31.5024H1570.09V15.7512L1555.14 15.7511V-1.39061e-05L0 0V1.6026e-05L14.953 1.67145e-05L14.953 15.7511V15.7512V31.5023L0 31.5023V31.5024H14.953L14.953 47.2535L0 47.2535V1294.75H14.9531V1310.5H29.9065L29.9065 1326.25H44.8597V1342H1555.14V1326.25L1570.09 1326.25L1570.09 1310.5H1585.05V1294.75H1600V47.2536L1585.05 47.2536ZM29.9064 15.7511L29.9064 1.6026e-05L14.9532 1.53375e-05V15.7511L14.9532 15.7512L14.9532 31.5023H29.9064V15.7512L44.8596 15.7512L44.8596 1.91522e-05L29.9064 1.84637e-05L29.9064 15.7511Z" fill="white" fill-opacity="0.01"/>
<path d="M1585.05 31.5024H1586.05V30.5024H1585.05V31.5024ZM1585.05 47.2536H1584.05V48.2536H1585.05V47.2536ZM1570.09 31.5024H1569.09V32.5024H1570.09V31.5024ZM1570.09 15.7513H1571.09V14.7513L1570.09 14.7513V15.7513ZM1555.14 15.7511H1554.14V16.7511L1555.14 16.7511V15.7511ZM1555.14 0H1556.14V-1H1555.14V0ZM0 1.39061e-05L-8.94203e-09 -0.999986H-1V1.39061e-05H0ZM0 2.99321e-05H-1V1.00003H-4.60449e-08L0 2.99321e-05ZM14.953 3.06206e-05L15.953 3.06812e-05V-0.999969L14.953 -0.999969V3.06206e-05ZM14.953 15.7512H13.953H14.953ZM14.953 31.5023V32.5023H15.953V31.5023H14.953ZM0 31.5023L1.27556e-07 30.5023H-1V31.5023H0ZM0 31.5024H-1V32.5024H0V31.5024ZM14.953 31.5024H15.953V30.5024H14.953V31.5024ZM14.953 47.2536V48.2536H15.953V47.2536H14.953ZM0 47.2536L2.55112e-07 46.2536H-1V47.2536H0ZM0 1294.75H-1V1295.75H0V1294.75ZM14.9531 1294.75H15.9531V1293.75H14.9531V1294.75ZM14.9531 1310.5H13.9531V1311.5H14.9531V1310.5ZM29.9065 1310.5H30.9065V1309.5H29.9065V1310.5ZM29.9065 1326.25H28.9065V1327.25H29.9065V1326.25ZM44.8597 1326.25H45.8597V1325.25H44.8597V1326.25ZM44.8597 1342H43.8597V1343H44.8597V1342ZM1555.14 1342V1343H1556.14V1342H1555.14ZM1555.14 1326.25V1325.25H1554.14V1326.25H1555.14ZM1570.09 1326.25V1327.25H1571.09V1326.25H1570.09ZM1570.09 1310.5V1309.5H1569.09V1310.5H1570.09ZM1585.05 1310.5V1311.5H1586.05V1310.5H1585.05ZM1585.05 1294.75V1293.75H1584.05V1294.75H1585.05ZM1600 1294.75V1295.75H1601V1294.75H1600ZM1600 47.2536H1601V46.2536H1600V47.2536ZM29.9064 2.99321e-05L30.9064 2.9811e-05V-0.99997L29.9064 -0.99997V2.99321e-05ZM14.9532 2.92436e-05V-0.999971L13.9532 -0.999971V2.92436e-05H14.9532ZM14.9532 15.7512L15.9523 15.7928L15.9532 15.772V15.7512H14.9532ZM14.9532 15.7512L13.954 15.7095L13.9532 15.7303V15.7512H14.9532ZM14.9532 31.5023H13.9532V32.5023H14.9532V31.5023ZM29.9064 31.5023V32.5023H30.9064V31.5023H29.9064ZM29.9064 15.7512V14.7512L28.9064 14.7512V15.7512H29.9064ZM44.8596 15.7512V16.7512H45.8596V15.7512H44.8596ZM44.8596 3.30583e-05L45.8596 3.33005e-05V-0.999967H44.8596V3.30583e-05ZM29.9064 3.23698e-05V-0.999968L28.9064 -0.999968V3.21276e-05L29.9064 3.23698e-05ZM1584.05 31.5024V47.2536H1586.05V31.5024H1584.05ZM1570.09 32.5024H1585.05V30.5024H1570.09V32.5024ZM1569.09 15.7513V31.5024H1571.09V15.7513H1569.09ZM1555.14 16.7511L1570.09 16.7513V14.7513L1555.14 14.7511V16.7511ZM1554.14 0V15.7511H1556.14V0H1554.14ZM8.94203e-09 1.00001L1555.14 1V-1L-8.94203e-09 -0.999986L8.94203e-09 1.00001ZM1 2.99321e-05V1.39061e-05H-1V2.99321e-05H1ZM14.953 -0.999969L4.60449e-08 -0.99997L-4.60449e-08 1.00003L14.953 1.00003V-0.999969ZM15.953 15.7512L15.953 3.06812e-05L13.953 3.05601e-05L13.953 15.7512H15.953ZM15.953 15.7512V15.7512H13.953V15.7512H15.953ZM15.953 31.5023V15.7512H13.953V31.5023H15.953ZM-1.27556e-07 32.5023H14.953V30.5023L1.27556e-07 30.5023L-1.27556e-07 32.5023ZM1 31.5024V31.5023H-1V31.5024H1ZM14.953 30.5024H0V32.5024H14.953V30.5024ZM15.953 47.2536L15.953 31.5024H13.953L13.953 47.2536H15.953ZM-2.55112e-07 48.2536L14.953 48.2536V46.2536L2.55112e-07 46.2536L-2.55112e-07 48.2536ZM1 1294.75V47.2536H-1V1294.75H1ZM14.9531 1293.75H0V1295.75H14.9531V1293.75ZM15.9531 1310.5V1294.75H13.9531V1310.5H15.9531ZM29.9065 1309.5H14.9531V1311.5H29.9065V1309.5ZM30.9065 1326.25L30.9065 1310.5H28.9065L28.9065 1326.25H30.9065ZM44.8597 1325.25H29.9065V1327.25H44.8597V1325.25ZM45.8597 1342V1326.25H43.8597V1342H45.8597ZM1555.14 1341H44.8597V1343H1555.14V1341ZM1554.14 1326.25V1342H1556.14V1326.25H1554.14ZM1570.09 1325.25L1555.14 1325.25V1327.25L1570.09 1327.25V1325.25ZM1571.09 1326.25L1571.09 1310.5H1569.09L1569.09 1326.25H1571.09ZM1570.09 1311.5H1585.05V1309.5H1570.09V1311.5ZM1584.05 1294.75V1310.5H1586.05V1294.75H1584.05ZM1600 1293.75H1585.05V1295.75H1600V1293.75ZM1599 47.2536V1294.75H1601V47.2536H1599ZM1585.05 48.2536L1600 48.2536V46.2536L1585.05 46.2536V48.2536ZM28.9064 3.00532e-05L28.9064 15.7512L30.9064 15.7512L30.9064 2.9811e-05L28.9064 3.00532e-05ZM14.9532 1.00003L29.9064 1.00003V-0.99997L14.9532 -0.999971V1.00003ZM15.9532 15.7512V2.92436e-05H13.9532V15.7512H15.9532ZM15.9523 15.7928L15.9523 15.7928L13.954 15.7095L13.954 15.7095L15.9523 15.7928ZM15.9532 31.5023L15.9532 15.7512H13.9532L13.9532 31.5023H15.9532ZM29.9064 30.5023H14.9532V32.5023H29.9064V30.5023ZM28.9064 15.7512V31.5023H30.9064V15.7512H28.9064ZM44.8596 14.7512L29.9064 14.7512V16.7512L44.8596 16.7512V14.7512ZM43.8596 3.28161e-05L43.8596 15.7512L45.8596 15.7512L45.8596 3.33005e-05L43.8596 3.28161e-05ZM29.9064 1.00003L44.8596 1.00003V-0.999967L29.9064 -0.999968V1.00003ZM30.9064 15.7512L30.9064 3.2612e-05L28.9064 3.21276e-05L28.9064 15.7512L30.9064 15.7512Z" fill="white" fill-opacity="0.15" mask="url(#path-1-inside-1_87_3722)"/>
</g>
<g opacity="0.65">
<mask id="path-3-inside-2_87_3722" fill="white">
<path fill-rule="evenodd" clip-rule="evenodd" d="M1043.96 141.097V145.234H1048V179.545H1043.5V184.273H1038V189L47.7498 189L47.7498 184.864H43.5553L43.5553 180.727H40V145.194H44.1545L44.1545 141.097L44.1545 141.097L44.1545 137L40 137V137H1039.15V141.097L1043.96 141.097ZM48.3092 137L44.1545 137V141.097H48.3092V137Z"/>
</mask>
<path fill-rule="evenodd" clip-rule="evenodd" d="M1043.96 141.097V145.234H1048V179.545H1043.5V184.273H1038V189L47.7498 189L47.7498 184.864H43.5553L43.5553 180.727H40V145.194H44.1545L44.1545 141.097L44.1545 141.097L44.1545 137L40 137V137H1039.15V141.097L1043.96 141.097ZM48.3092 137L44.1545 137V141.097H48.3092V137Z" fill="#1E2234"/>
<path d="M1043.96 145.234H1042.96V146.234H1043.96V145.234ZM1043.96 141.097H1044.96V140.097L1043.96 140.097V141.097ZM1048 145.234H1049V144.234H1048V145.234ZM1048 179.545V180.545H1049V179.545H1048ZM1043.5 179.545V178.545H1042.5V179.545H1043.5ZM1043.5 184.273V185.273H1044.5V184.273H1043.5ZM1038 184.273V183.273H1037V184.273H1038ZM1038 189V190H1039V189H1038ZM47.7498 189H46.7498V190H47.7498V189ZM47.7498 184.864H48.7498V183.864H47.7498V184.864ZM43.5553 184.864H42.5553V185.864H43.5553V184.864ZM43.5553 180.727H44.5553V179.727H43.5553V180.727ZM40 180.727H39V181.727H40V180.727ZM40 145.194V144.194H39V145.194H40ZM44.1545 145.194V146.194H45.1545V145.194H44.1545ZM44.1545 141.097L43.1548 141.072L43.1545 141.084V141.097H44.1545ZM44.1545 141.097L45.1542 141.122L45.1545 141.109V141.097H44.1545ZM44.1545 137L45.1545 137V136H44.1545V137ZM40 137H39V138H40L40 137ZM40 137V136H39V137H40ZM1039.15 137H1040.15V136H1039.15V137ZM1039.15 141.097H1038.15V142.097L1039.15 142.097V141.097ZM44.1545 137V136H43.1545V137H44.1545ZM48.3092 137H49.3092V136H48.3092V137ZM44.1545 141.097H43.1545V142.097H44.1545V141.097ZM48.3092 141.097V142.097H49.3092V141.097H48.3092ZM1044.96 145.234V141.097H1042.96V145.234H1044.96ZM1048 144.234H1043.96V146.234H1048V144.234ZM1049 179.545V145.234H1047V179.545H1049ZM1043.5 180.545H1048V178.545H1043.5V180.545ZM1044.5 184.273V179.545H1042.5V184.273H1044.5ZM1038 185.273H1043.5V183.273H1038V185.273ZM1039 189V184.273H1037V189H1039ZM47.7498 190L1038 190V188L47.7498 188V190ZM46.7498 184.864L46.7498 189H48.7498L48.7498 184.864H46.7498ZM43.5553 185.864H47.7498V183.864H43.5553V185.864ZM42.5553 180.727L42.5553 184.864H44.5553V180.727H42.5553ZM40 181.727H43.5553V179.727H40V181.727ZM39 145.194V180.727H41V145.194H39ZM44.1545 144.194H40V146.194H44.1545V144.194ZM43.1545 141.097L43.1545 145.194H45.1545L45.1545 141.097H43.1545ZM43.1548 141.072L43.1548 141.072L45.1542 141.122L45.1542 141.122L43.1548 141.072ZM43.1545 137L43.1545 141.097H45.1545L45.1545 137L43.1545 137ZM40 138H44.1545V136H40L40 138ZM39 137V137H41V137H39ZM1039.15 136H40V138H1039.15V136ZM1040.15 141.097V137H1038.15V141.097H1040.15ZM1043.96 140.097L1039.15 140.097V142.097L1043.96 142.097V140.097ZM44.1545 138H48.3092V136H44.1545V138ZM45.1545 141.097V137H43.1545V141.097H45.1545ZM48.3092 140.097H44.1545V142.097H48.3092V140.097ZM47.3092 137V141.097H49.3092V137H47.3092Z" fill="white" fill-opacity="0.15" mask="url(#path-3-inside-2_87_3722)"/>
</g>
<path d="M101.718 161.032C101.718 160.669 101.643 160.349 101.494 160.072C101.355 159.795 101.163 159.565 100.918 159.384C100.672 159.203 100.39 159.064 100.07 158.968C99.7498 158.872 99.4138 158.824 99.0618 158.824C98.7525 158.824 98.4592 158.867 98.1818 158.952C97.9045 159.027 97.6538 159.139 97.4298 159.288C97.2165 159.437 97.0458 159.624 96.9178 159.848C96.7898 160.061 96.7258 160.312 96.7258 160.6V160.696C96.7258 161.005 96.7898 161.272 96.9178 161.496C97.0458 161.709 97.2325 161.896 97.4778 162.056C97.7338 162.205 98.0485 162.333 98.4218 162.44C98.7952 162.536 99.2325 162.621 99.7338 162.696C100.907 162.877 101.771 163.224 102.326 163.736C102.88 164.237 103.158 164.915 103.158 165.768V165.96C103.158 166.44 103.072 166.883 102.902 167.288C102.742 167.683 102.496 168.024 102.166 168.312C101.846 168.6 101.446 168.824 100.966 168.984C100.486 169.144 99.9312 169.224 99.3018 169.224C98.5872 169.224 97.9525 169.123 97.3978 168.92C96.8538 168.707 96.3952 168.419 96.0218 168.056C95.6592 167.683 95.3818 167.251 95.1898 166.76C94.9978 166.259 94.9018 165.715 94.9018 165.128V164.648H96.2458V165.032C96.2458 166.013 96.5125 166.749 97.0458 167.24C97.5898 167.731 98.3418 167.976 99.3018 167.976C100.134 167.976 100.758 167.795 101.174 167.432C101.6 167.059 101.814 166.568 101.814 165.96V165.864C101.814 165.277 101.595 164.829 101.158 164.52C100.731 164.211 100.032 163.987 99.0618 163.848C98.4965 163.773 97.9845 163.661 97.5258 163.512C97.0778 163.352 96.6938 163.149 96.3738 162.904C96.0538 162.648 95.8085 162.344 95.6378 161.992C95.4672 161.64 95.3818 161.224 95.3818 160.744V160.552C95.3818 160.115 95.4725 159.715 95.6538 159.352C95.8352 158.989 96.0858 158.675 96.4058 158.408C96.7365 158.141 97.1258 157.939 97.5738 157.8C98.0325 157.651 98.5338 157.576 99.0778 157.576C99.7072 157.576 100.267 157.667 100.758 157.848C101.259 158.029 101.68 158.275 102.022 158.584C102.363 158.883 102.619 159.24 102.79 159.656C102.971 160.061 103.062 160.488 103.062 160.936V161.608H101.718V161.032ZM106.283 165.416C106.315 166.205 106.56 166.84 107.019 167.32C107.477 167.8 108.117 168.04 108.939 168.04C109.312 168.04 109.637 167.997 109.915 167.912C110.192 167.827 110.427 167.709 110.619 167.56C110.821 167.411 110.981 167.24 111.099 167.048C111.227 166.845 111.328 166.632 111.403 166.408L112.587 166.728C112.363 167.464 111.947 168.067 111.339 168.536C110.741 168.995 109.931 169.224 108.907 169.224C108.341 169.224 107.819 169.128 107.339 168.936C106.869 168.733 106.464 168.451 106.123 168.088C105.781 167.725 105.515 167.293 105.323 166.792C105.131 166.291 105.035 165.736 105.035 165.128V164.744C105.035 164.189 105.131 163.672 105.323 163.192C105.525 162.712 105.803 162.301 106.155 161.96C106.507 161.608 106.917 161.336 107.387 161.144C107.867 160.941 108.384 160.84 108.939 160.84C109.589 160.84 110.149 160.963 110.619 161.208C111.099 161.443 111.488 161.736 111.787 162.088C112.096 162.44 112.32 162.824 112.459 163.24C112.608 163.656 112.683 164.04 112.683 164.392V165.416H106.283ZM108.939 162.024C108.587 162.024 108.256 162.083 107.947 162.2C107.648 162.307 107.381 162.461 107.147 162.664C106.923 162.867 106.736 163.107 106.587 163.384C106.448 163.651 106.357 163.944 106.315 164.264H111.435C111.413 163.923 111.328 163.613 111.179 163.336C111.04 163.059 110.853 162.824 110.619 162.632C110.395 162.44 110.133 162.291 109.835 162.184C109.547 162.077 109.248 162.024 108.939 162.024ZM120.928 167.656H120.736C120.48 168.189 120.122 168.584 119.664 168.84C119.216 169.096 118.741 169.224 118.24 169.224C117.717 169.224 117.232 169.139 116.784 168.968C116.336 168.787 115.941 168.525 115.6 168.184C115.269 167.832 115.008 167.405 114.816 166.904C114.624 166.403 114.528 165.821 114.528 165.16V164.904C114.528 164.253 114.624 163.677 114.816 163.176C115.008 162.675 115.269 162.253 115.6 161.912C115.941 161.56 116.336 161.293 116.784 161.112C117.232 160.931 117.706 160.84 118.208 160.84C118.752 160.84 119.242 160.963 119.68 161.208C120.128 161.443 120.48 161.811 120.736 162.312H120.928V161.064H122.176V167.368C122.176 167.688 122.32 167.848 122.608 167.848H123.008V169H122.16C121.797 169 121.498 168.883 121.264 168.648C121.04 168.413 120.928 168.115 120.928 167.752V167.656ZM118.368 168.04C118.741 168.04 119.082 167.971 119.392 167.832C119.712 167.693 119.984 167.496 120.208 167.24C120.432 166.984 120.608 166.68 120.736 166.328C120.864 165.965 120.928 165.565 120.928 165.128V164.936C120.928 164.509 120.864 164.12 120.736 163.768C120.608 163.405 120.426 163.096 120.192 162.84C119.968 162.584 119.696 162.387 119.376 162.248C119.066 162.099 118.73 162.024 118.368 162.024C117.994 162.024 117.653 162.093 117.344 162.232C117.034 162.371 116.762 162.568 116.528 162.824C116.304 163.069 116.128 163.373 116 163.736C115.872 164.088 115.808 164.477 115.808 164.904V165.16C115.808 166.067 116.042 166.776 116.512 167.288C116.992 167.789 117.61 168.04 118.368 168.04ZM124.516 161.064H127.396V162.12H127.588C127.791 161.683 128.079 161.363 128.452 161.16C128.826 160.947 129.252 160.84 129.732 160.84C130.532 160.84 131.178 161.101 131.668 161.624C132.159 162.147 132.42 162.909 132.452 163.912L131.14 164.104C131.14 163.368 130.964 162.84 130.612 162.52C130.26 162.189 129.828 162.024 129.316 162.024C128.986 162.024 128.698 162.088 128.452 162.216C128.218 162.344 128.02 162.52 127.86 162.744C127.7 162.968 127.583 163.229 127.508 163.528C127.434 163.827 127.396 164.147 127.396 164.488V167.848H129.412V169H124.324V167.848H126.148V162.216H124.516V161.064ZM142.185 166.184C142.1 166.621 141.951 167.027 141.737 167.4C141.535 167.773 141.273 168.099 140.953 168.376C140.633 168.643 140.26 168.851 139.833 169C139.407 169.149 138.932 169.224 138.409 169.224C137.855 169.224 137.327 169.133 136.825 168.952C136.335 168.771 135.903 168.509 135.529 168.168C135.156 167.816 134.857 167.389 134.633 166.888C134.42 166.387 134.313 165.811 134.313 165.16V164.968C134.313 164.328 134.42 163.752 134.633 163.24C134.857 162.728 135.156 162.296 135.529 161.944C135.903 161.592 136.335 161.32 136.825 161.128C137.327 160.936 137.855 160.84 138.409 160.84C138.911 160.84 139.375 160.915 139.801 161.064C140.228 161.213 140.601 161.427 140.921 161.704C141.252 161.971 141.519 162.291 141.721 162.664C141.935 163.037 142.079 163.443 142.153 163.88L140.905 164.168C140.873 163.891 140.793 163.624 140.665 163.368C140.548 163.101 140.383 162.872 140.169 162.68C139.967 162.477 139.716 162.317 139.417 162.2C139.119 162.083 138.772 162.024 138.377 162.024C137.993 162.024 137.631 162.099 137.289 162.248C136.959 162.387 136.665 162.589 136.409 162.856C136.153 163.112 135.951 163.421 135.801 163.784C135.663 164.147 135.593 164.541 135.593 164.968V165.16C135.593 165.608 135.663 166.013 135.801 166.376C135.951 166.728 136.153 167.027 136.409 167.272C136.665 167.517 136.964 167.709 137.305 167.848C137.647 167.976 138.015 168.04 138.409 168.04C138.804 168.04 139.145 167.981 139.433 167.864C139.732 167.736 139.983 167.576 140.185 167.384C140.399 167.181 140.564 166.952 140.681 166.696C140.809 166.44 140.895 166.173 140.937 165.896L142.185 166.184ZM145.806 169H144.558V157.8H145.806V162.504H145.998C146.244 161.992 146.585 161.587 147.022 161.288C147.47 160.989 148.014 160.84 148.654 160.84C149.518 160.84 150.217 161.128 150.75 161.704C151.294 162.269 151.566 163.123 151.566 164.264V169H150.318V164.52C150.318 163.688 150.132 163.064 149.758 162.648C149.385 162.232 148.878 162.024 148.238 162.024C147.481 162.024 146.884 162.285 146.446 162.808C146.02 163.32 145.806 164.008 145.806 164.872V169ZM164.072 161.064H166.52V159.048C166.52 158.685 166.632 158.387 166.856 158.152C167.091 157.917 167.389 157.8 167.752 157.8H170.888V158.952H168.2C167.912 158.952 167.768 159.112 167.768 159.432V161.064H171.08V162.216H167.768V169H166.52V162.216H164.072V161.064ZM181.437 165.128C181.437 165.789 181.325 166.376 181.101 166.888C180.887 167.389 180.599 167.816 180.237 168.168C179.874 168.509 179.447 168.771 178.957 168.952C178.477 169.133 177.975 169.224 177.453 169.224C176.919 169.224 176.413 169.133 175.933 168.952C175.453 168.771 175.031 168.509 174.669 168.168C174.306 167.816 174.013 167.389 173.789 166.888C173.575 166.376 173.469 165.789 173.469 165.128V164.936C173.469 164.285 173.575 163.709 173.789 163.208C174.013 162.696 174.306 162.264 174.669 161.912C175.042 161.56 175.469 161.293 175.949 161.112C176.429 160.931 176.93 160.84 177.453 160.84C177.975 160.84 178.477 160.931 178.957 161.112C179.437 161.293 179.858 161.56 180.221 161.912C180.594 162.264 180.887 162.696 181.101 163.208C181.325 163.709 181.437 164.285 181.437 164.936V165.128ZM177.453 168.04C177.837 168.04 178.189 167.976 178.509 167.848C178.839 167.709 179.127 167.512 179.373 167.256C179.618 167 179.81 166.696 179.949 166.344C180.087 165.981 180.157 165.576 180.157 165.128V164.936C180.157 164.509 180.087 164.12 179.949 163.768C179.81 163.405 179.618 163.096 179.373 162.84C179.127 162.584 178.839 162.387 178.509 162.248C178.178 162.099 177.826 162.024 177.453 162.024C177.079 162.024 176.727 162.099 176.397 162.248C176.066 162.387 175.778 162.584 175.533 162.84C175.287 163.096 175.095 163.405 174.957 163.768C174.818 164.12 174.749 164.509 174.749 164.936V165.128C174.749 165.576 174.818 165.981 174.957 166.344C175.095 166.696 175.287 167 175.533 167.256C175.778 167.512 176.061 167.709 176.381 167.848C176.711 167.976 177.069 168.04 177.453 168.04ZM183.298 161.064H186.178V162.12H186.37C186.572 161.683 186.86 161.363 187.234 161.16C187.607 160.947 188.034 160.84 188.514 160.84C189.314 160.84 189.959 161.101 190.45 161.624C190.94 162.147 191.202 162.909 191.234 163.912L189.922 164.104C189.922 163.368 189.746 162.84 189.394 162.52C189.042 162.189 188.61 162.024 188.098 162.024C187.767 162.024 187.479 162.088 187.234 162.216C186.999 162.344 186.802 162.52 186.642 162.744C186.482 162.968 186.364 163.229 186.29 163.528C186.215 163.827 186.178 164.147 186.178 164.488V167.848H188.194V169H183.106V167.848H184.93V162.216H183.298V161.064ZM204.587 169H203.339V161.064H204.587V162.408H204.779C205.27 161.363 206.123 160.84 207.339 160.84C208.257 160.84 208.987 161.128 209.531 161.704C210.075 162.269 210.347 163.123 210.347 164.264V169H209.099V164.52C209.099 163.688 208.913 163.064 208.539 162.648C208.166 162.232 207.659 162.024 207.019 162.024C206.262 162.024 205.665 162.285 205.227 162.808C204.801 163.32 204.587 164.008 204.587 164.872V169ZM218.896 167.656H218.704C218.448 168.189 218.091 168.584 217.632 168.84C217.184 169.096 216.71 169.224 216.208 169.224C215.686 169.224 215.2 169.139 214.752 168.968C214.304 168.787 213.91 168.525 213.568 168.184C213.238 167.832 212.976 167.405 212.784 166.904C212.592 166.403 212.496 165.821 212.496 165.16V164.904C212.496 164.253 212.592 163.677 212.784 163.176C212.976 162.675 213.238 162.253 213.568 161.912C213.91 161.56 214.304 161.293 214.752 161.112C215.2 160.931 215.675 160.84 216.176 160.84C216.72 160.84 217.211 160.963 217.648 161.208C218.096 161.443 218.448 161.811 218.704 162.312H218.896V161.064H220.144V167.368C220.144 167.688 220.288 167.848 220.576 167.848H220.976V169H220.128C219.766 169 219.467 168.883 219.232 168.648C219.008 168.413 218.896 168.115 218.896 167.752V167.656ZM216.336 168.04C216.71 168.04 217.051 167.971 217.36 167.832C217.68 167.693 217.952 167.496 218.176 167.24C218.4 166.984 218.576 166.68 218.704 166.328C218.832 165.965 218.896 165.565 218.896 165.128V164.936C218.896 164.509 218.832 164.12 218.704 163.768C218.576 163.405 218.395 163.096 218.16 162.84C217.936 162.584 217.664 162.387 217.344 162.248C217.035 162.099 216.699 162.024 216.336 162.024C215.963 162.024 215.622 162.093 215.312 162.232C215.003 162.371 214.731 162.568 214.496 162.824C214.272 163.069 214.096 163.373 213.968 163.736C213.84 164.088 213.776 164.477 213.776 164.904V165.16C213.776 166.067 214.011 166.776 214.48 167.288C214.96 167.789 215.579 168.04 216.336 168.04ZM230.565 169H229.317V163.304C229.317 162.931 229.232 162.627 229.061 162.392C228.891 162.147 228.619 162.024 228.245 162.024C227.893 162.024 227.605 162.157 227.381 162.424C227.168 162.68 227.061 163.08 227.061 163.624V169H225.813V163.24C225.813 162.888 225.717 162.6 225.525 162.376C225.333 162.141 225.077 162.024 224.757 162.024C224.373 162.024 224.075 162.163 223.861 162.44C223.659 162.717 223.557 163.08 223.557 163.528V169H222.309V161.064H223.557V161.928H223.749C223.888 161.555 224.091 161.283 224.357 161.112C224.624 160.931 224.939 160.84 225.301 160.84C225.685 160.84 226 160.941 226.245 161.144C226.501 161.347 226.677 161.608 226.773 161.928H226.965C227.328 161.203 227.904 160.84 228.693 160.84C229.291 160.84 229.749 161.032 230.069 161.416C230.4 161.789 230.565 162.28 230.565 162.888V169ZM233.642 165.416C233.674 166.205 233.919 166.84 234.378 167.32C234.837 167.8 235.477 168.04 236.298 168.04C236.671 168.04 236.997 167.997 237.274 167.912C237.551 167.827 237.786 167.709 237.978 167.56C238.181 167.411 238.341 167.24 238.458 167.048C238.586 166.845 238.687 166.632 238.762 166.408L239.946 166.728C239.722 167.464 239.306 168.067 238.698 168.536C238.101 168.995 237.29 169.224 236.266 169.224C235.701 169.224 235.178 169.128 234.698 168.936C234.229 168.733 233.823 168.451 233.482 168.088C233.141 167.725 232.874 167.293 232.682 166.792C232.49 166.291 232.394 165.736 232.394 165.128V164.744C232.394 164.189 232.49 163.672 232.682 163.192C232.885 162.712 233.162 162.301 233.514 161.96C233.866 161.608 234.277 161.336 234.746 161.144C235.226 160.941 235.743 160.84 236.298 160.84C236.949 160.84 237.509 160.963 237.978 161.208C238.458 161.443 238.847 161.736 239.146 162.088C239.455 162.44 239.679 162.824 239.818 163.24C239.967 163.656 240.042 164.04 240.042 164.392V165.416H233.642ZM236.298 162.024C235.946 162.024 235.615 162.083 235.306 162.2C235.007 162.307 234.741 162.461 234.506 162.664C234.282 162.867 234.095 163.107 233.946 163.384C233.807 163.651 233.717 163.944 233.674 164.264H238.794C238.773 163.923 238.687 163.613 238.538 163.336C238.399 163.059 238.213 162.824 237.978 162.632C237.754 162.44 237.493 162.291 237.194 162.184C236.906 162.077 236.607 162.024 236.298 162.024Z" fill="white"/>
<path d="M64.3273 153.727H71.8909V155.618H64.3273V153.727ZM62.4364 157.509V155.618H64.3273V157.509H62.4364ZM62.4364 165.073H60.5455V157.509H62.4364V165.073ZM64.3273 166.964H62.4364V165.073H64.3273V166.964ZM71.8909 166.964V168.855H64.3273V166.964H71.8909ZM73.7818 165.073H71.8909V166.964H73.7818V168.855H75.6727V170.745H77.5637V172.636H79.4546V170.745H77.5637V168.855H75.6727V166.964H73.7818V165.073ZM73.7818 157.509H75.6727V165.073H73.7818V157.509ZM73.7818 157.509V155.618H71.8909V157.509H73.7818Z" fill="white"/>
<g opacity="0.65">
<mask id="path-7-inside-3_87_3722" fill="white">
<path fill-rule="evenodd" clip-rule="evenodd" d="M1555.96 141.097V145.233H1560V179.545H1555.5V184.273H1560L1555.5 184.273H1550V189H1327.33V184.864L1322.66 184.864L1322.66 180.727H1319V145.194H1323.33L1323.33 141.097L1323.33 141.097L1323.33 137L1319 137V137H1551.15V141.097L1555.96 141.097ZM1327.95 137L1323.33 137V141.097H1327.95V137Z"/>
</mask>
<path fill-rule="evenodd" clip-rule="evenodd" d="M1555.96 141.097V145.233H1560V179.545H1555.5V184.273H1560L1555.5 184.273H1550V189H1327.33V184.864L1322.66 184.864L1322.66 180.727H1319V145.194H1323.33L1323.33 141.097L1323.33 141.097L1323.33 137L1319 137V137H1551.15V141.097L1555.96 141.097ZM1327.95 137L1323.33 137V141.097H1327.95V137Z" fill="#1E2234"/>
<path d="M1555.96 145.233H1554.96V146.233H1555.96V145.233ZM1555.96 141.097H1556.96V140.097L1555.96 140.097L1555.96 141.097ZM1560 145.233H1561V144.233H1560V145.233ZM1560 179.545V180.545H1561V179.545H1560ZM1555.5 179.545V178.545H1554.5V179.545H1555.5ZM1555.5 184.273H1554.5V185.273H1555.5V184.273ZM1560 184.273V185.273V183.273V184.273ZM1555.5 184.273V185.273V184.273ZM1550 184.273V183.273H1549V184.273H1550ZM1550 189V190H1551V189H1550ZM1327.33 189H1326.33V190H1327.33V189ZM1327.33 184.864H1328.33V183.864H1327.33L1327.33 184.864ZM1322.66 184.864H1321.66V185.864H1322.66L1322.66 184.864ZM1322.66 180.727H1323.66V179.727H1322.66V180.727ZM1319 180.727H1318V181.727H1319V180.727ZM1319 145.194V144.194H1318V145.194H1319ZM1323.33 145.194V146.194H1324.33V145.194H1323.33ZM1323.33 141.097H1324.33L1324.33 141.086L1323.33 141.097ZM1323.33 141.097H1322.33L1322.33 141.108L1323.33 141.097ZM1323.33 137L1324.33 137V136H1323.33V137ZM1319 137H1318V138H1319L1319 137ZM1319 137V136H1318V137H1319ZM1551.15 137H1552.15V136H1551.15V137ZM1551.15 141.097H1550.15V142.097L1551.15 142.097L1551.15 141.097ZM1323.33 137V136H1322.33V137H1323.33ZM1327.95 137H1328.95V136H1327.95V137ZM1323.33 141.097H1322.33V142.097H1323.33V141.097ZM1327.95 141.097V142.097H1328.95V141.097H1327.95ZM1556.96 145.233V141.097H1554.96V145.233H1556.96ZM1560 144.233H1555.96V146.233H1560V144.233ZM1561 179.545V145.233H1559V179.545H1561ZM1555.5 180.545H1560V178.545H1555.5V180.545ZM1556.5 184.273V179.545H1554.5V184.273H1556.5ZM1560 183.273H1555.5V185.273H1560V183.273ZM1555.5 185.273L1560 185.273V183.273L1555.5 183.273V185.273ZM1550 185.273H1555.5V183.273H1550V185.273ZM1551 189V184.273H1549V189H1551ZM1327.33 190H1550V188H1327.33V190ZM1326.33 184.864V189H1328.33V184.864H1326.33ZM1322.66 185.864L1327.33 185.864L1327.33 183.864L1322.66 183.864L1322.66 185.864ZM1321.66 180.727L1321.66 184.864H1323.66V180.727H1321.66ZM1319 181.727H1322.66V179.727H1319V181.727ZM1318 145.194V180.727H1320V145.194H1318ZM1323.33 144.194H1319V146.194H1323.33V144.194ZM1322.33 141.097L1322.33 145.194H1324.33L1324.33 141.097H1322.33ZM1322.33 141.108L1322.33 141.108L1324.33 141.086L1324.33 141.086L1322.33 141.108ZM1322.33 137L1322.33 141.097H1324.33L1324.33 137L1322.33 137ZM1319 138H1323.33V136H1319L1319 138ZM1318 137V137H1320V137H1318ZM1551.15 136H1319V138H1551.15V136ZM1552.15 141.097V137H1550.15V141.097H1552.15ZM1555.96 140.097L1551.15 140.097L1551.15 142.097L1555.96 142.097L1555.96 140.097ZM1323.33 138H1327.95V136H1323.33V138ZM1324.33 141.097V137H1322.33V141.097H1324.33ZM1327.95 140.097H1323.33V142.097H1327.95V140.097ZM1326.95 137V141.097H1328.95V137H1326.95Z" fill="white" fill-opacity="0.15" mask="url(#path-7-inside-3_87_3722)"/>
</g>
<path fill-rule="evenodd" clip-rule="evenodd" d="M1343 154H1339V156H1337V158H1335V164H1337V166H1339V168H1341V170H1343V172H1345V174H1347V172H1349V170H1351V168H1353V166H1355V164H1357V158H1355V156H1353V154H1349V156H1347V158H1345V156H1343V154ZM1343 156V158H1345V160H1347V158H1349V156H1353V158H1355V164H1353V166H1351V168H1349V170H1347V172H1345V170H1343V168H1341V166H1339V164H1337V158H1339V156H1343Z" fill="white"/>
<path d="M1370.23 158.2H1376.5V159.964H1372.08V162.204H1376.42V163.968H1372.08V168H1370.23V158.2ZM1383.16 166.992C1382.97 167.431 1382.71 167.743 1382.37 167.93C1382.04 168.107 1381.65 168.196 1381.2 168.196C1380.78 168.196 1380.38 168.117 1380.01 167.958C1379.64 167.799 1379.32 167.566 1379.04 167.258C1378.76 166.95 1378.54 166.577 1378.37 166.138C1378.21 165.699 1378.13 165.2 1378.13 164.64V164.416C1378.13 163.865 1378.21 163.371 1378.37 162.932C1378.53 162.493 1378.74 162.12 1379.01 161.812C1379.28 161.504 1379.6 161.271 1379.95 161.112C1380.32 160.944 1380.7 160.86 1381.11 160.86C1381.61 160.86 1382.01 160.944 1382.3 161.112C1382.61 161.28 1382.85 161.541 1383.03 161.896H1383.28V161.056H1385.05V165.9C1385.05 166.18 1385.17 166.32 1385.43 166.32H1385.69V168H1384.49C1384.17 168 1383.91 167.907 1383.7 167.72C1383.51 167.533 1383.41 167.291 1383.41 166.992H1383.16ZM1381.59 166.516C1382.1 166.516 1382.51 166.348 1382.82 166.012C1383.13 165.667 1383.28 165.2 1383.28 164.612V164.444C1383.28 163.856 1383.13 163.394 1382.82 163.058C1382.51 162.713 1382.1 162.54 1381.59 162.54C1381.08 162.54 1380.67 162.713 1380.36 163.058C1380.05 163.394 1379.9 163.856 1379.9 164.444V164.612C1379.9 165.2 1380.05 165.667 1380.36 166.012C1380.67 166.348 1381.08 166.516 1381.59 166.516ZM1386.75 161.056H1388.65L1390.29 167.16H1390.54L1392.18 161.056H1394.08L1392.09 168H1388.73L1386.75 161.056ZM1402.61 164.612C1402.61 165.191 1402.51 165.704 1402.32 166.152C1402.12 166.591 1401.86 166.964 1401.52 167.272C1401.18 167.571 1400.8 167.799 1400.36 167.958C1399.93 168.117 1399.48 168.196 1399 168.196C1398.52 168.196 1398.07 168.117 1397.63 167.958C1397.2 167.799 1396.82 167.571 1396.48 167.272C1396.14 166.964 1395.88 166.591 1395.68 166.152C1395.49 165.704 1395.39 165.191 1395.39 164.612V164.444C1395.39 163.875 1395.49 163.371 1395.68 162.932C1395.88 162.484 1396.14 162.106 1396.48 161.798C1396.82 161.49 1397.2 161.257 1397.63 161.098C1398.07 160.939 1398.52 160.86 1399 160.86C1399.48 160.86 1399.93 160.939 1400.36 161.098C1400.8 161.257 1401.18 161.49 1401.52 161.798C1401.86 162.106 1402.12 162.484 1402.32 162.932C1402.51 163.371 1402.61 163.875 1402.61 164.444V164.612ZM1399 166.516C1399.25 166.516 1399.49 166.474 1399.71 166.39C1399.94 166.306 1400.13 166.185 1400.3 166.026C1400.47 165.867 1400.6 165.676 1400.69 165.452C1400.8 165.219 1400.85 164.957 1400.85 164.668V164.388C1400.85 164.099 1400.8 163.842 1400.69 163.618C1400.6 163.385 1400.47 163.189 1400.3 163.03C1400.13 162.871 1399.94 162.75 1399.71 162.666C1399.49 162.582 1399.25 162.54 1399 162.54C1398.75 162.54 1398.51 162.582 1398.29 162.666C1398.06 162.75 1397.87 162.871 1397.7 163.03C1397.53 163.189 1397.4 163.385 1397.29 163.618C1397.2 163.842 1397.15 164.099 1397.15 164.388V164.668C1397.15 164.957 1397.2 165.219 1397.29 165.452C1397.4 165.676 1397.53 165.867 1397.7 166.026C1397.87 166.185 1398.06 166.306 1398.29 166.39C1398.51 166.474 1398.75 166.516 1399 166.516ZM1404.05 161.056H1406.99V162.064H1407.24C1407.37 161.681 1407.59 161.387 1407.9 161.182C1408.21 160.967 1408.59 160.86 1409.03 160.86C1409.72 160.86 1410.28 161.079 1410.7 161.518C1411.12 161.947 1411.33 162.605 1411.33 163.492V163.8L1409.51 163.968V163.772C1409.51 163.389 1409.41 163.086 1409.21 162.862C1409.02 162.629 1408.72 162.512 1408.33 162.512C1407.94 162.512 1407.63 162.647 1407.41 162.918C1407.18 163.189 1407.07 163.576 1407.07 164.08V166.32H1408.67V168H1403.88V166.32H1405.31V162.736H1404.05V161.056ZM1413.08 166.32H1415.43V162.736H1413.25V161.056H1417.2V166.32H1419.21V168H1413.08V166.32ZM1417.63 158.998C1417.63 159.185 1417.59 159.362 1417.52 159.53C1417.45 159.689 1417.36 159.829 1417.24 159.95C1417.12 160.062 1416.97 160.155 1416.8 160.23C1416.64 160.295 1416.48 160.328 1416.3 160.328C1416.11 160.328 1415.94 160.295 1415.78 160.23C1415.62 160.155 1415.48 160.062 1415.36 159.95C1415.24 159.829 1415.14 159.689 1415.07 159.53C1415 159.362 1414.97 159.185 1414.97 158.998C1414.97 158.811 1415 158.639 1415.07 158.48C1415.14 158.312 1415.24 158.172 1415.36 158.06C1415.48 157.939 1415.62 157.845 1415.78 157.78C1415.94 157.705 1416.11 157.668 1416.3 157.668C1416.48 157.668 1416.64 157.705 1416.8 157.78C1416.97 157.845 1417.12 157.939 1417.24 158.06C1417.36 158.172 1417.45 158.312 1417.52 158.48C1417.59 158.639 1417.63 158.811 1417.63 158.998ZM1421.33 161.056H1423.39V158.2H1425.15V161.056H1427.66V162.736H1425.15V165.9C1425.15 166.18 1425.28 166.32 1425.53 166.32H1427.41V168H1424.47C1424.15 168 1423.89 167.897 1423.68 167.692C1423.49 167.487 1423.39 167.225 1423.39 166.908V162.736H1421.33V161.056ZM1431.65 165.102C1431.66 165.307 1431.71 165.499 1431.79 165.676C1431.89 165.844 1432.01 165.993 1432.16 166.124C1432.31 166.245 1432.49 166.343 1432.69 166.418C1432.89 166.483 1433.11 166.516 1433.33 166.516C1433.77 166.516 1434.11 166.441 1434.34 166.292C1434.57 166.133 1434.74 165.947 1434.84 165.732L1436.36 166.572C1436.27 166.749 1436.16 166.936 1436.01 167.132C1435.86 167.319 1435.66 167.491 1435.42 167.65C1435.18 167.809 1434.9 167.939 1434.55 168.042C1434.21 168.145 1433.82 168.196 1433.36 168.196C1432.84 168.196 1432.36 168.112 1431.93 167.944C1431.5 167.776 1431.13 167.533 1430.81 167.216C1430.5 166.899 1430.26 166.511 1430.08 166.054C1429.92 165.597 1429.83 165.079 1429.83 164.5V164.416C1429.83 163.884 1429.92 163.399 1430.1 162.96C1430.28 162.521 1430.54 162.148 1430.85 161.84C1431.17 161.532 1431.54 161.294 1431.96 161.126C1432.39 160.949 1432.85 160.86 1433.33 160.86C1433.93 160.86 1434.44 160.967 1434.87 161.182C1435.3 161.387 1435.66 161.653 1435.94 161.98C1436.22 162.297 1436.42 162.652 1436.55 163.044C1436.68 163.427 1436.75 163.8 1436.75 164.164V165.102H1431.65ZM1433.32 162.456C1432.87 162.456 1432.51 162.573 1432.23 162.806C1431.95 163.03 1431.76 163.291 1431.68 163.59H1434.96C1434.9 163.263 1434.72 162.993 1434.42 162.778C1434.13 162.563 1433.77 162.456 1433.32 162.456ZM1440.88 163.016C1440.88 163.24 1441 163.403 1441.23 163.506C1441.47 163.599 1441.89 163.679 1442.51 163.744C1443.22 163.819 1443.79 164.033 1444.24 164.388C1444.69 164.733 1444.91 165.219 1444.91 165.844V165.928C1444.91 166.619 1444.66 167.169 1444.16 167.58C1443.65 167.991 1442.94 168.196 1442.03 168.196C1441.49 168.196 1441.03 168.126 1440.64 167.986C1440.26 167.846 1439.94 167.673 1439.69 167.468C1439.44 167.253 1439.24 167.02 1439.1 166.768C1438.97 166.507 1438.88 166.255 1438.84 166.012L1440.46 165.48C1440.54 165.779 1440.69 166.04 1440.92 166.264C1441.17 166.488 1441.54 166.6 1442.03 166.6C1442.47 166.6 1442.77 166.535 1442.93 166.404C1443.09 166.264 1443.18 166.115 1443.18 165.956C1443.18 165.863 1443.15 165.779 1443.11 165.704C1443.07 165.62 1443 165.545 1442.88 165.48C1442.77 165.405 1442.62 165.345 1442.42 165.298C1442.24 165.251 1442 165.214 1441.71 165.186C1440.92 165.121 1440.3 164.92 1439.83 164.584C1439.37 164.239 1439.15 163.735 1439.15 163.072V162.988C1439.15 162.643 1439.22 162.339 1439.37 162.078C1439.52 161.817 1439.72 161.597 1439.96 161.42C1440.2 161.233 1440.48 161.093 1440.8 161C1441.12 160.907 1441.44 160.86 1441.78 160.86C1442.22 160.86 1442.59 160.916 1442.91 161.028C1443.24 161.131 1443.51 161.271 1443.74 161.448C1443.96 161.616 1444.14 161.807 1444.28 162.022C1444.42 162.227 1444.53 162.428 1444.61 162.624L1443.01 163.268C1442.93 163.016 1442.78 162.82 1442.58 162.68C1442.37 162.531 1442.1 162.456 1441.78 162.456C1441.48 162.456 1441.26 162.512 1441.11 162.624C1440.96 162.727 1440.88 162.857 1440.88 163.016Z" fill="white"/>
<g opacity="0.65">
<mask id="path-11-inside-4_87_3722" fill="white">
<path fill-rule="evenodd" clip-rule="evenodd" d="M1300.96 141.097V145.233H1305V179.545H1300.5V184.273H1305L1300.5 184.273H1295V189H1072.33V184.864L1067.66 184.864L1067.66 180.727H1064V145.194H1068.33L1068.33 141.097L1068.33 141.097L1068.33 137L1064 137V137H1296.15V141.097L1300.96 141.097ZM1072.95 137L1068.33 137V141.097H1072.95V137Z"/>
</mask>
<path fill-rule="evenodd" clip-rule="evenodd" d="M1300.96 141.097V145.233H1305V179.545H1300.5V184.273H1305L1300.5 184.273H1295V189H1072.33V184.864L1067.66 184.864L1067.66 180.727H1064V145.194H1068.33L1068.33 141.097L1068.33 141.097L1068.33 137L1064 137V137H1296.15V141.097L1300.96 141.097ZM1072.95 137L1068.33 137V141.097H1072.95V137Z" fill="#1E2234"/>
<path d="M1300.96 145.233H1299.96V146.233H1300.96V145.233ZM1300.96 141.097H1301.96V140.097L1300.96 140.097L1300.96 141.097ZM1305 145.233H1306V144.233H1305V145.233ZM1305 179.545V180.545H1306V179.545H1305ZM1300.5 179.545V178.545H1299.5V179.545H1300.5ZM1300.5 184.273H1299.5V185.273H1300.5V184.273ZM1305 184.273V185.273V183.273V184.273ZM1300.5 184.273V185.273V184.273ZM1295 184.273V183.273H1294V184.273H1295ZM1295 189V190H1296V189H1295ZM1072.33 189H1071.33V190H1072.33V189ZM1072.33 184.864H1073.33V183.864H1072.33L1072.33 184.864ZM1067.66 184.864H1066.66V185.864H1067.66L1067.66 184.864ZM1067.66 180.727H1068.66V179.727H1067.66V180.727ZM1064 180.727H1063V181.727H1064V180.727ZM1064 145.194V144.194H1063V145.194H1064ZM1068.33 145.194V146.194H1069.33V145.194H1068.33ZM1068.33 141.097H1069.33L1069.33 141.086L1068.33 141.097ZM1068.33 141.097H1067.33L1067.33 141.108L1068.33 141.097ZM1068.33 137L1069.33 137V136H1068.33V137ZM1064 137H1063V138H1064L1064 137ZM1064 137V136H1063V137H1064ZM1296.15 137H1297.15V136H1296.15V137ZM1296.15 141.097H1295.15V142.097L1296.15 142.097L1296.15 141.097ZM1068.33 137V136H1067.33V137H1068.33ZM1072.95 137H1073.95V136H1072.95V137ZM1068.33 141.097H1067.33V142.097H1068.33V141.097ZM1072.95 141.097V142.097H1073.95V141.097H1072.95ZM1301.96 145.233V141.097H1299.96V145.233H1301.96ZM1305 144.233H1300.96V146.233H1305V144.233ZM1306 179.545V145.233H1304V179.545H1306ZM1300.5 180.545H1305V178.545H1300.5V180.545ZM1301.5 184.273V179.545H1299.5V184.273H1301.5ZM1305 183.273H1300.5V185.273H1305V183.273ZM1300.5 185.273L1305 185.273V183.273L1300.5 183.273V185.273ZM1295 185.273H1300.5V183.273H1295V185.273ZM1296 189V184.273H1294V189H1296ZM1072.33 190H1295V188H1072.33V190ZM1071.33 184.864V189H1073.33V184.864H1071.33ZM1067.66 185.864L1072.33 185.864L1072.33 183.864L1067.66 183.864L1067.66 185.864ZM1066.66 180.727L1066.66 184.864H1068.66V180.727H1066.66ZM1064 181.727H1067.66V179.727H1064V181.727ZM1063 145.194V180.727H1065V145.194H1063ZM1068.33 144.194H1064V146.194H1068.33V144.194ZM1067.33 141.097L1067.33 145.194H1069.33L1069.33 141.097H1067.33ZM1067.33 141.108L1067.33 141.108L1069.33 141.086L1069.33 141.086L1067.33 141.108ZM1067.33 137L1067.33 141.097H1069.33L1069.33 137L1067.33 137ZM1064 138H1068.33V136H1064L1064 138ZM1063 137V137H1065V137H1063ZM1296.15 136H1064V138H1296.15V136ZM1297.15 141.097V137H1295.15V141.097H1297.15ZM1300.96 140.097L1296.15 140.097L1296.15 142.097L1300.96 142.097L1300.96 140.097ZM1068.33 138H1072.95V136H1068.33V138ZM1069.33 141.097V137H1067.33V141.097H1069.33ZM1072.95 140.097H1068.33V142.097H1072.95V140.097ZM1071.95 137V141.097H1073.95V137H1071.95Z" fill="white" fill-opacity="0.15" mask="url(#path-11-inside-4_87_3722)"/>
</g>
<g opacity="0.25">
<path fill-rule="evenodd" clip-rule="evenodd" d="M1274 159H1272V161H1274V163H1276V165H1278V167H1280V165H1282V163H1284V161H1286V159H1284V161H1282V163H1280V165H1278V163H1276V161H1274V159Z" fill="white"/>
</g>
<path fill-rule="evenodd" clip-rule="evenodd" d="M1085 155H1099V157H1101V159V161V163H1093V165H1099V167H1095V169H1093V171H1081V169V167V165V163V161V159H1083V157H1085V155ZM1087 161H1089V159H1087V161Z" fill="white"/>
<path d="M1116.86 164.304V168H1115.01V158.2H1118.84C1119.35 158.2 1119.79 158.284 1120.16 158.452C1120.53 158.611 1120.84 158.825 1121.08 159.096C1121.34 159.357 1121.52 159.661 1121.64 160.006C1121.77 160.342 1121.84 160.687 1121.84 161.042V161.378C1121.84 161.742 1121.77 162.101 1121.64 162.456C1121.52 162.801 1121.34 163.114 1121.08 163.394C1120.84 163.665 1120.53 163.884 1120.16 164.052C1119.79 164.22 1119.35 164.304 1118.84 164.304H1116.86ZM1116.86 162.54H1118.66C1119.07 162.54 1119.39 162.428 1119.63 162.204C1119.87 161.98 1119.99 161.691 1119.99 161.336V161.168C1119.99 160.813 1119.87 160.524 1119.63 160.3C1119.39 160.076 1119.07 159.964 1118.66 159.964H1116.86V162.54ZM1123.33 161.056H1126.27V162.064H1126.52C1126.65 161.681 1126.87 161.387 1127.18 161.182C1127.5 160.967 1127.87 160.86 1128.31 160.86C1129 160.86 1129.56 161.079 1129.98 161.518C1130.4 161.947 1130.61 162.605 1130.61 163.492V163.8L1128.79 163.968V163.772C1128.79 163.389 1128.69 163.086 1128.49 162.862C1128.3 162.629 1128 162.512 1127.61 162.512C1127.22 162.512 1126.91 162.647 1126.69 162.918C1126.46 163.189 1126.35 163.576 1126.35 164.08V166.32H1127.95V168H1123.16V166.32H1124.59V162.736H1123.33V161.056ZM1139.04 164.612C1139.04 165.191 1138.94 165.704 1138.75 166.152C1138.55 166.591 1138.28 166.964 1137.95 167.272C1137.61 167.571 1137.23 167.799 1136.79 167.958C1136.36 168.117 1135.9 168.196 1135.43 168.196C1134.95 168.196 1134.5 168.117 1134.06 167.958C1133.63 167.799 1133.24 167.571 1132.91 167.272C1132.57 166.964 1132.31 166.591 1132.11 166.152C1131.91 165.704 1131.82 165.191 1131.82 164.612V164.444C1131.82 163.875 1131.91 163.371 1132.11 162.932C1132.31 162.484 1132.57 162.106 1132.91 161.798C1133.24 161.49 1133.63 161.257 1134.06 161.098C1134.5 160.939 1134.95 160.86 1135.43 160.86C1135.9 160.86 1136.36 160.939 1136.79 161.098C1137.23 161.257 1137.61 161.49 1137.95 161.798C1138.28 162.106 1138.55 162.484 1138.75 162.932C1138.94 163.371 1139.04 163.875 1139.04 164.444V164.612ZM1135.43 166.516C1135.68 166.516 1135.92 166.474 1136.14 166.39C1136.37 166.306 1136.56 166.185 1136.73 166.026C1136.9 165.867 1137.03 165.676 1137.12 165.452C1137.23 165.219 1137.28 164.957 1137.28 164.668V164.388C1137.28 164.099 1137.23 163.842 1137.12 163.618C1137.03 163.385 1136.9 163.189 1136.73 163.03C1136.56 162.871 1136.37 162.75 1136.14 162.666C1135.92 162.582 1135.68 162.54 1135.43 162.54C1135.18 162.54 1134.94 162.582 1134.71 162.666C1134.49 162.75 1134.29 162.871 1134.13 163.03C1133.96 163.189 1133.82 163.385 1133.72 163.618C1133.63 163.842 1133.58 164.099 1133.58 164.388V164.668C1133.58 164.957 1133.63 165.219 1133.72 165.452C1133.82 165.676 1133.96 165.867 1134.13 166.026C1134.29 166.185 1134.49 166.306 1134.71 166.39C1134.94 166.474 1135.18 166.516 1135.43 166.516ZM1140.32 161.056H1142.22L1143.86 167.16H1144.11L1145.75 161.056H1147.65L1145.67 168H1142.31L1140.32 161.056ZM1149.51 166.32H1151.86V162.736H1149.68V161.056H1153.62V166.32H1155.64V168H1149.51V166.32ZM1154.06 158.998C1154.06 159.185 1154.02 159.362 1153.95 159.53C1153.88 159.689 1153.79 159.829 1153.67 159.95C1153.54 160.062 1153.4 160.155 1153.23 160.23C1153.07 160.295 1152.9 160.328 1152.73 160.328C1152.54 160.328 1152.37 160.295 1152.21 160.23C1152.05 160.155 1151.91 160.062 1151.79 159.95C1151.67 159.829 1151.57 159.689 1151.5 159.53C1151.43 159.362 1151.4 159.185 1151.4 158.998C1151.4 158.811 1151.43 158.639 1151.5 158.48C1151.57 158.312 1151.67 158.172 1151.79 158.06C1151.91 157.939 1152.05 157.845 1152.21 157.78C1152.37 157.705 1152.54 157.668 1152.73 157.668C1152.9 157.668 1153.07 157.705 1153.23 157.78C1153.4 157.845 1153.54 157.939 1153.67 158.06C1153.79 158.172 1153.88 158.312 1153.95 158.48C1154.02 158.639 1154.06 158.811 1154.06 158.998ZM1162.94 166.992H1162.69C1162.61 167.151 1162.52 167.305 1162.41 167.454C1162.3 167.594 1162.16 167.72 1161.99 167.832C1161.82 167.944 1161.61 168.033 1161.37 168.098C1161.14 168.163 1160.85 168.196 1160.52 168.196C1160.09 168.196 1159.68 168.121 1159.31 167.972C1158.95 167.813 1158.63 167.585 1158.35 167.286C1158.07 166.978 1157.86 166.605 1157.7 166.166C1157.55 165.727 1157.48 165.223 1157.48 164.654V164.402C1157.48 163.842 1157.56 163.343 1157.72 162.904C1157.88 162.465 1158.11 162.097 1158.39 161.798C1158.68 161.49 1159.01 161.257 1159.38 161.098C1159.76 160.939 1160.17 160.86 1160.59 160.86C1161.15 160.86 1161.59 160.967 1161.92 161.182C1162.24 161.387 1162.5 161.681 1162.69 162.064H1162.94V158.2H1164.7V168H1162.94V166.992ZM1161.09 166.516C1161.64 166.516 1162.08 166.343 1162.42 165.998C1162.76 165.643 1162.94 165.181 1162.94 164.612V164.444C1162.94 163.875 1162.76 163.417 1162.42 163.072C1162.08 162.717 1161.64 162.54 1161.09 162.54C1160.54 162.54 1160.09 162.713 1159.75 163.058C1159.41 163.394 1159.24 163.856 1159.24 164.444V164.612C1159.24 165.2 1159.41 165.667 1159.75 166.012C1160.09 166.348 1160.54 166.516 1161.09 166.516ZM1168.08 165.102C1168.09 165.307 1168.14 165.499 1168.22 165.676C1168.31 165.844 1168.43 165.993 1168.58 166.124C1168.74 166.245 1168.92 166.343 1169.12 166.418C1169.32 166.483 1169.54 166.516 1169.76 166.516C1170.2 166.516 1170.53 166.441 1170.77 166.292C1171 166.133 1171.17 165.947 1171.27 165.732L1172.78 166.572C1172.7 166.749 1172.58 166.936 1172.43 167.132C1172.28 167.319 1172.09 167.491 1171.85 167.65C1171.61 167.809 1171.32 167.939 1170.98 168.042C1170.64 168.145 1170.24 168.196 1169.79 168.196C1169.26 168.196 1168.79 168.112 1168.36 167.944C1167.93 167.776 1167.56 167.533 1167.24 167.216C1166.93 166.899 1166.69 166.511 1166.51 166.054C1166.34 165.597 1166.26 165.079 1166.26 164.5V164.416C1166.26 163.884 1166.35 163.399 1166.53 162.96C1166.71 162.521 1166.96 162.148 1167.28 161.84C1167.6 161.532 1167.97 161.294 1168.39 161.126C1168.82 160.949 1169.27 160.86 1169.76 160.86C1170.36 160.86 1170.87 160.967 1171.3 161.182C1171.73 161.387 1172.08 161.653 1172.36 161.98C1172.64 162.297 1172.85 162.652 1172.98 163.044C1173.11 163.427 1173.18 163.8 1173.18 164.164V165.102H1168.08ZM1169.75 162.456C1169.3 162.456 1168.93 162.573 1168.65 162.806C1168.37 163.03 1168.19 163.291 1168.11 163.59H1171.38C1171.33 163.263 1171.15 162.993 1170.85 162.778C1170.56 162.563 1170.19 162.456 1169.75 162.456ZM1174.76 161.056H1177.7V162.064H1177.95C1178.08 161.681 1178.3 161.387 1178.61 161.182C1178.93 160.967 1179.31 160.86 1179.75 160.86C1180.44 160.86 1180.99 161.079 1181.41 161.518C1181.83 161.947 1182.04 162.605 1182.04 163.492V163.8L1180.22 163.968V163.772C1180.22 163.389 1180.12 163.086 1179.93 162.862C1179.73 162.629 1179.44 162.512 1179.05 162.512C1178.65 162.512 1178.35 162.647 1178.12 162.918C1177.9 163.189 1177.79 163.576 1177.79 164.08V166.32H1179.38V168H1174.59V166.32H1176.02V162.736H1174.76V161.056ZM1185.88 163.016C1185.88 163.24 1186 163.403 1186.23 163.506C1186.47 163.599 1186.89 163.679 1187.51 163.744C1188.22 163.819 1188.79 164.033 1189.24 164.388C1189.69 164.733 1189.91 165.219 1189.91 165.844V165.928C1189.91 166.619 1189.66 167.169 1189.16 167.58C1188.65 167.991 1187.94 168.196 1187.03 168.196C1186.49 168.196 1186.03 168.126 1185.64 167.986C1185.26 167.846 1184.94 167.673 1184.69 167.468C1184.44 167.253 1184.24 167.02 1184.1 166.768C1183.97 166.507 1183.88 166.255 1183.84 166.012L1185.46 165.48C1185.54 165.779 1185.69 166.04 1185.92 166.264C1186.17 166.488 1186.54 166.6 1187.03 166.6C1187.47 166.6 1187.77 166.535 1187.93 166.404C1188.09 166.264 1188.18 166.115 1188.18 165.956C1188.18 165.863 1188.15 165.779 1188.11 165.704C1188.07 165.62 1188 165.545 1187.88 165.48C1187.77 165.405 1187.62 165.345 1187.42 165.298C1187.24 165.251 1187 165.214 1186.71 165.186C1185.92 165.121 1185.3 164.92 1184.83 164.584C1184.37 164.239 1184.15 163.735 1184.15 163.072V162.988C1184.15 162.643 1184.22 162.339 1184.37 162.078C1184.52 161.817 1184.72 161.597 1184.96 161.42C1185.2 161.233 1185.48 161.093 1185.8 161C1186.12 160.907 1186.44 160.86 1186.78 160.86C1187.22 160.86 1187.59 160.916 1187.91 161.028C1188.24 161.131 1188.51 161.271 1188.74 161.448C1188.96 161.616 1189.14 161.807 1189.28 162.022C1189.42 162.227 1189.53 162.428 1189.61 162.624L1188.01 163.268C1187.93 163.016 1187.78 162.82 1187.58 162.68C1187.37 162.531 1187.1 162.456 1186.78 162.456C1186.48 162.456 1186.26 162.512 1186.11 162.624C1185.96 162.727 1185.88 162.857 1185.88 163.016Z" fill="white"/>
<defs>
<filter id="filter0_b_87_3722" x="-25" y="-25" width="1650" height="1392" filterUnits="userSpaceOnUse" color-interpolation-filters="sRGB">
<feFlood flood-opacity="0" result="BackgroundImageFix"/>
<feGaussianBlur in="BackgroundImageFix" stdDeviation="12.5"/>
<feComposite in2="SourceAlpha" operator="in" result="effect1_backgroundBlur_87_3722"/>
<feBlend mode="normal" in="SourceGraphic" in2="effect1_backgroundBlur_87_3722" result="shape"/>
</filter>
</defs>
</svg>
