<svg width="1876" height="230" viewBox="0 0 1876 230" fill="none" xmlns="http://www.w3.org/2000/svg">
<g filter="url(#filter0_b_63_2625)">
<mask id="path-1-inside-1_63_2625" fill="white">
<path fill-rule="evenodd" clip-rule="evenodd" d="M6.10352e-05 0H1876L1860.99 2.95639e-05V0.000250816H1850.46H1850.46H1838.48V14.7438H1850.46V29.4872H1860.99V30.9615V44.2307H1876L1876 185.769H1860.99V199.038V200.513H1850.46V215.256V230H1860.99H1862.45L1876 230L35.947 230V215.256H23.9654V230H23.9631V215.256V200.513H11.9816V185.77H6.10352e-05V44.2311H11.9816V29.4878H11.9838H11.9839H23.9654V14.7443H11.9839H11.9838H0.00232983V29.4876H6.10352e-05V0ZM1838.48 215.256V230H1850.46V215.256H1838.48ZM35.9477 14.7441V0.000522347H23.9661V14.7441H35.9477ZM23.9654 0.000522347V14.744H11.9839H11.9838H0.00232887V0.000522347H11.9838H11.9839H23.9654Z"/>
</mask>
<path fill-rule="evenodd" clip-rule="evenodd" d="M6.10352e-05 0H1876L1860.99 2.95639e-05V0.000250816H1850.46H1850.46H1838.48V14.7438H1850.46V29.4872H1860.99V30.9615V44.2307H1876L1876 185.769H1860.99V199.038V200.513H1850.46V215.256V230H1860.99H1862.45L1876 230L35.947 230V215.256H23.9654V230H23.9631V215.256V200.513H11.9816V185.77H6.10352e-05V44.2311H11.9816V29.4878H11.9838H11.9839H23.9654V14.7443H11.9839H11.9838H0.00232983V29.4876H6.10352e-05V0ZM1838.48 215.256V230H1850.46V215.256H1838.48ZM35.9477 14.7441V0.000522347H23.9661V14.7441H35.9477ZM23.9654 0.000522347V14.744H11.9839H11.9838H0.00232887V0.000522347H11.9838H11.9839H23.9654Z" fill="black"/>
<path d="M0 0V-1H-1V0H0ZM1860.99 2.95639e-05L1860.99 -0.99997L1859.99 -0.999968V2.95639e-05H1860.99ZM1860.99 0.000250816V1.00025H1861.99V0.000250816H1860.99ZM1838.48 0.000250816V-0.999749H1837.48V0.000250816H1838.48ZM1838.48 14.7438H1837.48V15.7438H1838.48V14.7438ZM1850.46 14.7438H1851.46V13.7438H1850.46V14.7438ZM1850.46 29.4872H1849.46V30.4872H1850.46V29.4872ZM1860.99 29.4872H1861.99V28.4872H1860.99V29.4872ZM1860.99 44.2307H1859.99V45.2307H1860.99V44.2307ZM1876 44.2307L1877 44.2307L1877 43.2307H1876V44.2307ZM1876 185.769V186.769H1877L1877 185.769L1876 185.769ZM1860.99 185.769V184.769H1859.99V185.769H1860.99ZM1860.99 200.513V201.513H1861.99V200.513H1860.99ZM1850.46 200.513V199.513H1849.46V200.513H1850.46ZM1850.46 230H1849.46V231H1850.46V230ZM1862.45 230L1862.45 229H1862.45V230ZM35.9469 230H34.9469V231L35.9469 231L35.9469 230ZM35.9469 215.256H36.9469V214.256H35.9469V215.256ZM23.9653 215.256V214.256H22.9653V215.256H23.9653ZM23.9653 230V231H24.9653V230H23.9653ZM23.9631 230H22.9631V231H23.9631V230ZM23.9631 200.513H24.9631V199.513H23.9631V200.513ZM11.9816 200.513H10.9816V201.513H11.9816V200.513ZM11.9816 185.77H12.9816V184.77H11.9816V185.77ZM0 185.77H-1V186.77H0V185.77ZM0 44.2311V43.2311H-1V44.2311H0ZM11.9815 44.2311V45.2311H12.9815V44.2311H11.9815ZM11.9815 29.4878V28.4878H10.9815V29.4878H11.9815ZM23.9653 29.4878V30.4878H24.9653V29.4878H23.9653ZM23.9653 14.7443H24.9653V13.7443H23.9653V14.7443ZM0.00226879 14.7443V13.7443H-0.997731V14.7443H0.00226879ZM0.00226879 29.4876V30.4876H1.00227V29.4876H0.00226879ZM0 29.4876H-1V30.4876H0V29.4876ZM1838.48 230H1837.48V231H1838.48V230ZM1838.48 215.256V214.256H1837.48V215.256H1838.48ZM1850.46 230V231H1851.46V230H1850.46ZM1850.46 215.256H1851.46V214.256H1850.46V215.256ZM35.9476 0.000522347H36.9476V-0.999478H35.9476V0.000522347ZM35.9476 14.7441V15.7441H36.9476V14.7441H35.9476ZM23.9661 0.000522347V-0.999478H22.9661V0.000522347H23.9661ZM23.9661 14.7441H22.9661V15.7441H23.9661V14.7441ZM23.9653 14.744V15.744H24.9653V14.744H23.9653ZM23.9653 0.000522347H24.9653V-0.999478H23.9653V0.000522347ZM0.00226784 14.744H-0.997732V15.744H0.00226784V14.744ZM0.00226784 0.000522347V-0.999478H-0.997732V0.000522347H0.00226784ZM1876 -1H0V1H1876V-1ZM1860.99 1.00003L1876 1L1876 -1L1860.99 -0.99997L1860.99 1.00003ZM1861.99 0.000250816V2.95639e-05H1859.99V0.000250816H1861.99ZM1850.46 1.00025H1860.99V-0.999749H1850.46V1.00025ZM1850.46 1.00025H1850.46V-0.999749H1850.46V1.00025ZM1838.48 1.00025H1850.46V-0.999749H1838.48V1.00025ZM1839.48 14.7438V0.000250816H1837.48V14.7438H1839.48ZM1850.46 13.7438H1838.48V15.7438H1850.46V13.7438ZM1849.46 14.7438V29.4872H1851.46V14.7438H1849.46ZM1850.46 30.4872H1860.99V28.4872H1850.46V30.4872ZM1861.99 30.9615V29.4872H1859.99V30.9615H1861.99ZM1861.99 44.2307V30.9615H1859.99V44.2307H1861.99ZM1876 43.2307H1860.99V45.2307H1876V43.2307ZM1877 185.769L1877 44.2307L1875 44.2307L1875 185.769L1877 185.769ZM1860.99 186.769H1876V184.769H1860.99V186.769ZM1861.99 199.038V185.769H1859.99V199.038H1861.99ZM1861.99 200.513V199.038H1859.99V200.513H1861.99ZM1850.46 201.513H1860.99V199.513H1850.46V201.513ZM1851.46 215.256V200.513H1849.46V215.256H1851.46ZM1851.46 230V215.256H1849.46V230H1851.46ZM1860.99 229H1850.46V231H1860.99V229ZM1862.45 229H1860.99V231H1862.45V229ZM1876 229L1862.45 229L1862.45 231L1876 231L1876 229ZM35.9469 231L1876 231L1876 229L35.9469 229L35.9469 231ZM34.9469 215.256V230H36.9469V215.256H34.9469ZM23.9653 216.256H35.9469V214.256H23.9653V216.256ZM24.9653 230V215.256H22.9653V230H24.9653ZM23.9631 231H23.9653V229H23.9631V231ZM22.9631 215.256V230H24.9631V215.256H22.9631ZM22.9631 200.513V215.256H24.9631V200.513H22.9631ZM11.9816 201.513H23.9631V199.513H11.9816V201.513ZM10.9816 185.77V200.513H12.9816V185.77H10.9816ZM0 186.77H11.9816V184.77H0V186.77ZM-1 44.2311V185.77H1V44.2311H-1ZM11.9815 43.2311H0V45.2311H11.9815V43.2311ZM10.9815 29.4878V44.2311H12.9815V29.4878H10.9815ZM11.9838 28.4878H11.9815V30.4878H11.9838V28.4878ZM11.9838 28.4878H11.9838V30.4878H11.9838V28.4878ZM23.9653 28.4878H11.9838V30.4878H23.9653V28.4878ZM22.9653 14.7443V29.4878H24.9653V14.7443H22.9653ZM11.9838 15.7443H23.9653V13.7443H11.9838V15.7443ZM11.9838 15.7443H11.9838V13.7443H11.9838V15.7443ZM0.00226879 15.7443H11.9838V13.7443H0.00226879V15.7443ZM1.00227 29.4876V14.7443H-0.997731V29.4876H1.00227ZM0 30.4876H0.00226879V28.4876H0V30.4876ZM-1 0V29.4876H1V0H-1ZM1839.48 230V215.256H1837.48V230H1839.48ZM1850.46 229H1838.48V231H1850.46V229ZM1849.46 215.256V230H1851.46V215.256H1849.46ZM1838.48 216.256H1850.46V214.256H1838.48V216.256ZM34.9476 0.000522347V14.7441H36.9476V0.000522347H34.9476ZM23.9661 1.00052H35.9476V-0.999478H23.9661V1.00052ZM24.9661 14.7441V0.000522347H22.9661V14.7441H24.9661ZM35.9476 13.7441H23.9661V15.7441H35.9476V13.7441ZM24.9653 14.744V0.000522347H22.9653V14.744H24.9653ZM11.9838 15.744H23.9653V13.744H11.9838V15.744ZM11.9838 15.744H11.9838V13.744H11.9838V15.744ZM0.00226784 15.744H11.9838V13.744H0.00226784V15.744ZM-0.997732 0.000522347V14.744H1.00227V0.000522347H-0.997732ZM11.9838 -0.999478H0.00226784V1.00052H11.9838V-0.999478ZM11.9838 -0.999478H11.9838V1.00052H11.9838V-0.999478ZM23.9653 -0.999478H11.9838V1.00052H23.9653V-0.999478Z" fill="black" mask="url(#path-1-inside-1_63_2625)"/>
</g>
<path fill-rule="evenodd" clip-rule="evenodd" d="M15.0083 33.0256V33.0256H28.015V17.6923H28.0152V33.0256H41.0221V17.6923H401.464V33.0255L414.596 33.0255L414.596 33.0255L427.728 33.0255V17.6923H427.728V176.923H414.472V194.615V212.308L427.728 212.308H15.0083L26.1391 212.308L26.1391 196.827L26.1391 181.346H15.0083V48.359H28.015V33.0256H15.0083ZM399.464 212.308H414.472V194.615H399.464V212.308ZM427.728 33.0257V48.5066L414.596 48.5065V33.0257L427.728 33.0257ZM26.14 196.827V212.308H39.272V196.827H26.14Z" fill="#0E101B"/>
<path fill-rule="evenodd" clip-rule="evenodd" d="M326.423 97.3076H318.919V106.154H326.423V115H333.927V123.846H341.431V132.692H348.935V123.846H356.439V115H363.943V106.154H371.447V97.3076H363.943V106.154H356.439V115H348.935V123.846H341.431V115H333.927V106.154H326.423V97.3076Z" fill="black"/>
<path d="M208.817 72.5461V78.9581C208.817 80.0781 208.519 80.9555 207.921 81.5901C207.333 82.2248 206.456 82.5421 205.289 82.5421C204.123 82.5421 203.241 82.2248 202.643 81.5901C202.055 80.9555 201.761 80.0781 201.761 78.9581V72.5461H203.609V78.9581C203.609 79.5368 203.745 79.9895 204.015 80.3161C204.286 80.6428 204.711 80.8061 205.289 80.8061C205.868 80.8061 206.293 80.6428 206.563 80.3161C206.834 79.9895 206.969 79.5368 206.969 78.9581V72.5461H208.817ZM215.542 75.5421C215.542 75.1501 215.388 74.8095 215.08 74.5201C214.781 74.2308 214.356 74.0861 213.806 74.0861C213.339 74.0861 212.97 74.1841 212.7 74.3801C212.429 74.5668 212.294 74.8235 212.294 75.1501C212.294 75.3181 212.326 75.4721 212.392 75.6121C212.457 75.7428 212.569 75.8641 212.728 75.9761C212.896 76.0788 213.11 76.1721 213.372 76.2561C213.642 76.3401 213.983 76.4195 214.394 76.4941C215.42 76.6808 216.204 76.9935 216.746 77.4321C217.287 77.8708 217.558 78.5195 217.558 79.3781V79.5461C217.558 80.0035 217.474 80.4188 217.306 80.7921C217.147 81.1561 216.914 81.4688 216.606 81.7301C216.298 81.9915 215.924 82.1921 215.486 82.3321C215.047 82.4721 214.552 82.5421 214.002 82.5421C213.358 82.5421 212.788 82.4535 212.294 82.2761C211.808 82.0895 211.402 81.8375 211.076 81.5201C210.749 81.1935 210.502 80.8155 210.334 80.3861C210.166 79.9475 210.082 79.4715 210.082 78.9581V78.5381H211.93V78.8741C211.93 79.4621 212.098 79.9335 212.434 80.2881C212.779 80.6335 213.311 80.8061 214.03 80.8061C214.59 80.8061 215.005 80.6848 215.276 80.4421C215.546 80.1995 215.682 79.9101 215.682 79.5741C215.682 79.4155 215.654 79.2661 215.598 79.1261C215.542 78.9768 215.444 78.8461 215.304 78.7341C215.164 78.6128 214.972 78.5055 214.73 78.4121C214.487 78.3188 214.179 78.2395 213.806 78.1741C213.311 78.0901 212.858 77.9828 212.448 77.8521C212.037 77.7121 211.678 77.5301 211.37 77.3061C211.071 77.0821 210.838 76.8021 210.67 76.4661C210.502 76.1301 210.418 75.7195 210.418 75.2341V75.1501C210.418 74.7488 210.497 74.3801 210.656 74.0441C210.824 73.6988 211.052 73.4001 211.342 73.1481C211.64 72.8961 211.995 72.7001 212.406 72.5601C212.826 72.4201 213.292 72.3501 213.806 72.3501C214.384 72.3501 214.898 72.4341 215.346 72.6021C215.794 72.7608 216.167 72.9801 216.466 73.2601C216.774 73.5401 217.002 73.8621 217.152 74.2261C217.31 74.5901 217.39 74.9728 217.39 75.3741V75.8781H215.542V75.5421ZM218.794 72.5461H222.35C223.563 72.5461 224.464 72.8308 225.052 73.4001C225.64 73.9601 225.934 74.8328 225.934 76.0181V78.8741C225.934 80.0595 225.64 80.9368 225.052 81.5061C224.464 82.0661 223.563 82.3461 222.35 82.3461H218.794V80.5681H219.718V74.3101H218.794V72.5461ZM222.35 80.5821C222.994 80.5821 223.442 80.4328 223.694 80.1341C223.955 79.8261 224.086 79.3501 224.086 78.7061V76.0181C224.086 75.4581 223.955 75.0335 223.694 74.7441C223.442 74.4548 222.994 74.3101 222.35 74.3101H221.566V80.5821H222.35Z" fill="black"/>
<path d="M110.215 75.1923V80.1683H84.8887V75.1923H110.215Z" fill="black"/>
<path d="M76.4467 85.1442V80.1683H84.8887V85.1442H76.4467Z" fill="black"/>
<path d="M72.2257 90.1202V85.1442H76.4467V90.1202H72.2257Z" fill="black"/>
<path d="M68.0047 100.072V90.1202H72.2257V100.072H68.0047Z" fill="black"/>
<path d="M68.0047 129.928H63.7837V100.072H68.0047V129.928Z" fill="black"/>
<path d="M72.2257 139.88H68.0047V129.928H72.2257V139.88Z" fill="black"/>
<path d="M76.4467 144.856H72.2257V139.88H76.4467V144.856Z" fill="black"/>
<path d="M84.8887 149.832H76.4467V144.856H84.8887V149.832Z" fill="black"/>
<path d="M110.215 149.832V154.808H84.8887V149.832H110.215Z" fill="black"/>
<path d="M118.657 144.856V149.832H110.215V144.856H118.657Z" fill="black"/>
<path d="M122.878 139.88V144.856H118.657V139.88H122.878Z" fill="black"/>
<path d="M127.099 129.928V139.88H122.878V129.928H127.099Z" fill="black"/>
<path d="M127.099 100.072H131.32V129.928H127.099V100.072Z" fill="black"/>
<path d="M122.878 90.1202H127.099V100.072H122.878V90.1202Z" fill="black"/>
<path d="M118.657 85.1442H122.878V90.1202H118.657V85.1442Z" fill="black"/>
<path d="M118.657 85.1442V80.1683H110.215V85.1442H118.657Z" fill="black"/>
<path d="M84.8887 129.928H89.1097V134.904H93.3307V139.88H97.5517V134.904H105.994V129.928H110.215V119.976H105.994V115H97.5517V110.024H89.1097V100.072H105.994V105.048H110.215V100.072H105.994V95.0962H101.773V90.1202H97.5517V95.0962H89.1097V100.072H84.8887V110.024H89.1097V115H97.5517V119.976H105.994V129.928H89.1097V124.952H84.8887V129.928Z" fill="black"/>
<path d="M110.215 80.1683V75.1923H84.8887V80.1683M110.215 80.1683H84.8887M110.215 80.1683H118.657V85.1442M110.215 80.1683V85.1442H118.657M84.8887 80.1683H76.4467V85.1442M84.8887 80.1683V85.1442H76.4467M76.4467 85.1442H72.2257V90.1202M76.4467 85.1442V90.1202H72.2257M72.2257 90.1202H68.0047V100.072M72.2257 90.1202V100.072H68.0047M68.0047 100.072H63.7837V129.928H68.0047M68.0047 100.072V129.928M68.0047 129.928V139.88H72.2257M68.0047 129.928H72.2257V139.88M72.2257 139.88V144.856H76.4467M72.2257 139.88H76.4467V144.856M76.4467 144.856V149.832H84.8887M76.4467 144.856H84.8887V149.832M84.8887 149.832V154.808H110.215V149.832M84.8887 149.832H110.215M110.215 149.832H118.657V144.856M110.215 149.832V144.856H118.657M118.657 144.856H122.878V139.88M118.657 144.856V139.88H122.878M122.878 139.88H127.099V129.928M122.878 139.88V129.928H127.099M127.099 129.928H131.32V100.072H127.099M127.099 129.928V100.072M127.099 100.072V90.1202H122.878M127.099 100.072H122.878V90.1202M122.878 90.1202V85.1442H118.657M122.878 90.1202H118.657V85.1442M89.1097 129.928H84.8887V124.952H89.1097V129.928ZM89.1097 129.928V134.904H93.3307V139.88H97.5517V134.904H105.994V129.928M89.1097 129.928H105.994M105.994 129.928H110.215V119.976H105.994M105.994 129.928V119.976M105.994 119.976V115H97.5517M105.994 119.976H97.5517V115M97.5517 115V110.024H89.1097M97.5517 115H89.1097V110.024M89.1097 110.024V100.072M89.1097 110.024H84.8887V100.072H89.1097M89.1097 100.072H105.994M89.1097 100.072V95.0962H97.5517V90.1202H101.773V95.0962H105.994V100.072M105.994 100.072V105.048H110.215V100.072H105.994Z" stroke="black" stroke-width="0.5"/>
<path d="M1728.28 71.884V64.9H1736.71V67.168H1730.66V70.588H1730.98C1731.15 70.12 1731.46 69.718 1731.92 69.382C1732.39 69.034 1733.01 68.86 1733.79 68.86C1734.38 68.86 1734.91 68.962 1735.37 69.166C1735.84 69.37 1736.24 69.652 1736.56 70.012C1736.89 70.372 1737.13 70.804 1737.3 71.308C1737.48 71.812 1737.57 72.364 1737.57 72.964V73.072C1737.57 73.708 1737.46 74.308 1737.25 74.872C1737.04 75.436 1736.74 75.934 1736.33 76.366C1735.93 76.786 1735.44 77.122 1734.85 77.374C1734.26 77.626 1733.59 77.752 1732.82 77.752C1732.05 77.752 1731.37 77.65 1730.78 77.446C1730.2 77.23 1729.7 76.936 1729.29 76.564C1728.89 76.18 1728.59 75.73 1728.37 75.214C1728.17 74.686 1728.07 74.116 1728.07 73.504V73.072H1730.44V73.288C1730.44 73.924 1730.63 74.452 1731.02 74.872C1731.41 75.28 1731.99 75.484 1732.75 75.484C1733.5 75.484 1734.1 75.28 1734.53 74.872C1734.97 74.464 1735.19 73.9 1735.19 73.18C1735.19 72.496 1735.03 71.986 1734.71 71.65C1734.38 71.302 1733.96 71.128 1733.43 71.128C1733.08 71.128 1732.8 71.206 1732.58 71.362C1732.37 71.506 1732.23 71.68 1732.17 71.884H1728.28ZM1742.11 71.2C1742.11 70.792 1742.26 70.438 1742.56 70.138C1742.86 69.838 1743.21 69.688 1743.62 69.688C1744.03 69.688 1744.38 69.838 1744.68 70.138C1744.98 70.438 1745.13 70.792 1745.13 71.2C1745.13 71.608 1744.98 71.962 1744.68 72.262C1744.38 72.562 1744.03 72.712 1743.62 72.712C1743.21 72.712 1742.86 72.562 1742.56 72.262C1742.26 71.962 1742.11 71.608 1742.11 71.2ZM1738.98 69.796C1738.98 68.164 1739.39 66.898 1740.2 65.998C1741.03 65.098 1742.17 64.648 1743.62 64.648C1745.07 64.648 1746.21 65.098 1747.02 65.998C1747.85 66.898 1748.27 68.164 1748.27 69.796V72.604C1748.27 74.284 1747.85 75.562 1747.02 76.438C1746.21 77.314 1745.07 77.752 1743.62 77.752C1742.17 77.752 1741.03 77.314 1740.2 76.438C1739.39 75.562 1738.98 74.284 1738.98 72.604V69.796ZM1743.62 75.592C1744.05 75.592 1744.41 75.526 1744.7 75.394C1744.99 75.25 1745.22 75.052 1745.4 74.8C1745.58 74.548 1745.71 74.248 1745.78 73.9C1745.85 73.552 1745.89 73.168 1745.89 72.748V69.652C1745.89 69.256 1745.85 68.884 1745.76 68.536C1745.68 68.188 1745.55 67.888 1745.37 67.636C1745.19 67.384 1744.95 67.186 1744.67 67.042C1744.38 66.886 1744.03 66.808 1743.62 66.808C1743.21 66.808 1742.87 66.886 1742.58 67.042C1742.29 67.186 1742.06 67.384 1741.88 67.636C1741.7 67.888 1741.56 68.188 1741.48 68.536C1741.4 68.884 1741.35 69.256 1741.35 69.652V72.748C1741.35 73.168 1741.39 73.552 1741.46 73.9C1741.53 74.248 1741.66 74.548 1741.84 74.8C1742.02 75.052 1742.25 75.25 1742.54 75.394C1742.83 75.526 1743.19 75.592 1743.62 75.592ZM1756.35 76.042C1756.35 76.282 1756.31 76.51 1756.21 76.726C1756.13 76.93 1756.01 77.11 1755.85 77.266C1755.69 77.41 1755.51 77.524 1755.29 77.608C1755.09 77.704 1754.87 77.752 1754.64 77.752C1754.4 77.752 1754.18 77.704 1753.98 77.608C1753.77 77.524 1753.59 77.41 1753.44 77.266C1753.28 77.11 1753.16 76.93 1753.06 76.726C1752.98 76.51 1752.93 76.282 1752.93 76.042C1752.93 75.802 1752.98 75.58 1753.06 75.376C1753.16 75.16 1753.28 74.98 1753.44 74.836C1753.59 74.68 1753.77 74.56 1753.98 74.476C1754.18 74.38 1754.4 74.332 1754.64 74.332C1754.87 74.332 1755.09 74.38 1755.29 74.476C1755.51 74.56 1755.69 74.68 1755.85 74.836C1756.01 74.98 1756.13 75.16 1756.21 75.376C1756.31 75.58 1756.35 75.802 1756.35 76.042ZM1764.15 71.2C1764.15 70.792 1764.3 70.438 1764.6 70.138C1764.9 69.838 1765.26 69.688 1765.67 69.688C1766.07 69.688 1766.43 69.838 1766.73 70.138C1767.03 70.438 1767.18 70.792 1767.18 71.2C1767.18 71.608 1767.03 71.962 1766.73 72.262C1766.43 72.562 1766.07 72.712 1765.67 72.712C1765.26 72.712 1764.9 72.562 1764.6 72.262C1764.3 71.962 1764.15 71.608 1764.15 71.2ZM1761.02 69.796C1761.02 68.164 1761.43 66.898 1762.25 65.998C1763.07 65.098 1764.21 64.648 1765.67 64.648C1767.12 64.648 1768.25 65.098 1769.07 65.998C1769.9 66.898 1770.31 68.164 1770.31 69.796V72.604C1770.31 74.284 1769.9 75.562 1769.07 76.438C1768.25 77.314 1767.12 77.752 1765.67 77.752C1764.21 77.752 1763.07 77.314 1762.25 76.438C1761.43 75.562 1761.02 74.284 1761.02 72.604V69.796ZM1765.67 75.592C1766.1 75.592 1766.46 75.526 1766.75 75.394C1767.03 75.25 1767.27 75.052 1767.45 74.8C1767.63 74.548 1767.75 74.248 1767.83 73.9C1767.9 73.552 1767.93 73.168 1767.93 72.748V69.652C1767.93 69.256 1767.89 68.884 1767.81 68.536C1767.72 68.188 1767.59 67.888 1767.41 67.636C1767.23 67.384 1767 67.186 1766.71 67.042C1766.42 66.886 1766.07 66.808 1765.67 66.808C1765.26 66.808 1764.91 66.886 1764.62 67.042C1764.33 67.186 1764.1 67.384 1763.92 67.636C1763.74 67.888 1763.61 68.188 1763.52 68.536C1763.44 68.884 1763.4 69.256 1763.4 69.652V72.748C1763.4 73.168 1763.43 73.552 1763.51 73.9C1763.58 74.248 1763.7 74.548 1763.88 74.8C1764.06 75.052 1764.3 75.25 1764.59 75.394C1764.87 75.526 1765.23 75.592 1765.67 75.592ZM1775.18 71.2C1775.18 70.792 1775.33 70.438 1775.63 70.138C1775.93 69.838 1776.28 69.688 1776.69 69.688C1777.1 69.688 1777.45 69.838 1777.75 70.138C1778.05 70.438 1778.2 70.792 1778.2 71.2C1778.2 71.608 1778.05 71.962 1777.75 72.262C1777.45 72.562 1777.1 72.712 1776.69 72.712C1776.28 72.712 1775.93 72.562 1775.63 72.262C1775.33 71.962 1775.18 71.608 1775.18 71.2ZM1772.04 69.796C1772.04 68.164 1772.45 66.898 1773.27 65.998C1774.1 65.098 1775.24 64.648 1776.69 64.648C1778.14 64.648 1779.27 65.098 1780.09 65.998C1780.92 66.898 1781.33 68.164 1781.33 69.796V72.604C1781.33 74.284 1780.92 75.562 1780.09 76.438C1779.27 77.314 1778.14 77.752 1776.69 77.752C1775.24 77.752 1774.1 77.314 1773.27 76.438C1772.45 75.562 1772.04 74.284 1772.04 72.604V69.796ZM1776.69 75.592C1777.12 75.592 1777.48 75.526 1777.77 75.394C1778.06 75.25 1778.29 75.052 1778.47 74.8C1778.65 74.548 1778.78 74.248 1778.85 73.9C1778.92 73.552 1778.96 73.168 1778.96 72.748V69.652C1778.96 69.256 1778.91 68.884 1778.83 68.536C1778.75 68.188 1778.61 67.888 1778.43 67.636C1778.25 67.384 1778.02 67.186 1777.73 67.042C1777.44 66.886 1777.1 66.808 1776.69 66.808C1776.28 66.808 1775.93 66.886 1775.64 67.042C1775.36 67.186 1775.12 67.384 1774.94 67.636C1774.76 67.888 1774.63 68.188 1774.55 68.536C1774.46 68.884 1774.42 69.256 1774.42 69.652V72.748C1774.42 73.168 1774.46 73.552 1774.53 73.9C1774.6 74.248 1774.73 74.548 1774.91 74.8C1775.09 75.052 1775.32 75.25 1775.61 75.394C1775.9 75.526 1776.26 75.592 1776.69 75.592Z" fill="black"/>
<defs>
<filter id="filter0_b_63_2625" x="-55" y="-55" width="1986" height="340" filterUnits="userSpaceOnUse" color-interpolation-filters="sRGB">
<feFlood flood-opacity="0" result="BackgroundImageFix"/>
<feGaussianBlur in="BackgroundImageFix" stdDeviation="27.5"/>
<feComposite in2="SourceAlpha" operator="in" result="effect1_backgroundBlur_63_2625"/>
<feBlend mode="normal" in="SourceGraphic" in2="effect1_backgroundBlur_63_2625" result="shape"/>
</filter>
</defs>
</svg>
