<svg width="44" height="44" viewBox="0 0 44 44" fill="none" xmlns="http://www.w3.org/2000/svg">
<g filter="url(#filter0_b_106_7067)">
<path fill-rule="evenodd" clip-rule="evenodd" d="M0 3.46668V3.46667H3.46642V0H37V3.46668L40.5 3.46668L40.5 6.9667L44 6.9667V36H40.4667L40.4667 40L36.4667 40V44L0 44L2.96668 44V40.5L0 40.5H2.96668V37L0 37V6.93334H3.46642V3.46668H0ZM6.93335 9.91431e-06L3.46668 9.91431e-06V3.46668H6.93335V9.91431e-06ZM6.46668 40.5H2.96669V44H6.46668L6.46668 40.5Z" fill="#447EF7"/>
</g>
<path d="M17 21V20H19V18H21V30H23V18H25V20H27V21H29V18H27V16H25V14H24V13H23V12H21V13H20V14H19V16H17V18H15V21H17Z" fill="white"/>
<path d="M27 23L27 24L25 24L25 26L23 26L23 14L21 14L21 26L19 26L19 24L17 24L17 23L15 23L15 26L17 26L17 28L19 28L19 30L20 30L20 31L21 31L21 32L23 32L23 31L24 31L24 30L25 30L25 28L27 28L27 26L29 26L29 23L27 23Z" fill="white"/>
<defs>
<filter id="filter0_b_106_7067" x="-45" y="-45" width="134" height="134" filterUnits="userSpaceOnUse" color-interpolation-filters="sRGB">
<feFlood flood-opacity="0" result="BackgroundImageFix"/>
<feGaussianBlur in="BackgroundImageFix" stdDeviation="22.5"/>
<feComposite in2="SourceAlpha" operator="in" result="effect1_backgroundBlur_106_7067"/>
<feBlend mode="normal" in="SourceGraphic" in2="effect1_backgroundBlur_106_7067" result="shape"/>
</filter>
</defs>
</svg>
