<svg width="110" height="42" viewBox="0 0 110 42" fill="none" xmlns="http://www.w3.org/2000/svg">
<path fill-rule="evenodd" clip-rule="evenodd" d="M98.8 2.8L96 2.8V0L14 1.93916e-06V2.8H11.2H8.4V5.6H5.6V8.4H2.8V11.2V14H0V28H2.8V30.8V33.6L5.6 33.6V36.4H8.4V39.2H11.2H14V42L96 42V39.2H98.8H101.6V36.4H104.4V33.6H107.2V30.8V28H110V14H107.2V11.2V8.4H104.4V5.6L101.6 5.6V2.8L98.8 2.8Z" fill="#447EF7"/>
<path d="M36.896 26H33.844L33.452 20.736V19.896H33.116V20.736L32.724 26H29.672L29.21 19.056H30.834L31.142 24.32V25.16H31.478V24.32L31.828 19.056H34.74L35.09 24.32V25.16H35.426V24.32L35.734 19.056H37.358L36.896 26ZM43.1583 24.992C42.9716 25.4307 42.7103 25.7433 42.3743 25.93C42.0383 26.1073 41.6463 26.196 41.1983 26.196C40.7783 26.196 40.3816 26.1167 40.0083 25.958C39.6443 25.7993 39.3223 25.566 39.0423 25.258C38.7623 24.95 38.5383 24.5767 38.3703 24.138C38.2116 23.6993 38.1323 23.2 38.1323 22.64V22.416C38.1323 21.8653 38.2116 21.3707 38.3703 20.932C38.5289 20.4933 38.7436 20.12 39.0143 19.812C39.2849 19.504 39.5976 19.2707 39.9523 19.112C40.3163 18.944 40.7036 18.86 41.1143 18.86C41.6089 18.86 42.0056 18.944 42.3043 19.112C42.6123 19.28 42.8549 19.5413 43.0323 19.896H43.2843V19.056H45.0483V23.9C45.0483 24.18 45.1743 24.32 45.4263 24.32H45.6923V26H44.4883C44.1709 26 43.9096 25.9067 43.7043 25.72C43.5083 25.5333 43.4103 25.2907 43.4103 24.992H43.1583ZM41.5903 24.516C42.1036 24.516 42.5143 24.348 42.8223 24.012C43.1303 23.6667 43.2843 23.2 43.2843 22.612V22.444C43.2843 21.856 43.1303 21.394 42.8223 21.058C42.5143 20.7127 42.1036 20.54 41.5903 20.54C41.0769 20.54 40.6663 20.7127 40.3583 21.058C40.0503 21.394 39.8963 21.856 39.8963 22.444V22.612C39.8963 23.2 40.0503 23.6667 40.3583 24.012C40.6663 24.348 41.0769 24.516 41.5903 24.516ZM47.1945 24.32H49.6305V17.88H47.2785V16.2H51.3945V24.32H53.6625V26H47.1945V24.32ZM55.7668 24.32H58.2028V17.88H55.8508V16.2H59.9668V24.32H62.2348V26H55.7668V24.32ZM65.9351 23.102C65.9444 23.3073 65.9911 23.4987 66.0751 23.676C66.1684 23.844 66.2897 23.9933 66.4391 24.124C66.5977 24.2453 66.7751 24.3433 66.9711 24.418C67.1764 24.4833 67.3911 24.516 67.6151 24.516C68.0537 24.516 68.3897 24.4413 68.6231 24.292C68.8564 24.1333 69.0244 23.9467 69.1271 23.732L70.6391 24.572C70.5551 24.7493 70.4384 24.936 70.2891 25.132C70.1397 25.3187 69.9437 25.4913 69.7011 25.65C69.4677 25.8087 69.1784 25.9393 68.8331 26.042C68.4971 26.1447 68.1004 26.196 67.6431 26.196C67.1204 26.196 66.6444 26.112 66.2151 25.944C65.7857 25.776 65.4124 25.5333 65.0951 25.216C64.7871 24.8987 64.5444 24.5113 64.3671 24.054C64.1991 23.5967 64.1151 23.0787 64.1151 22.5V22.416C64.1151 21.884 64.2037 21.3987 64.3811 20.96C64.5677 20.5213 64.8197 20.148 65.1371 19.84C65.4544 19.532 65.8231 19.294 66.2431 19.126C66.6724 18.9487 67.1297 18.86 67.6151 18.86C68.2124 18.86 68.7257 18.9673 69.1551 19.182C69.5844 19.3873 69.9391 19.6533 70.2191 19.98C70.4991 20.2973 70.7044 20.652 70.8351 21.044C70.9657 21.4267 71.0311 21.8 71.0311 22.164V23.102H65.9351ZM67.6011 20.456C67.1531 20.456 66.7891 20.5727 66.5091 20.806C66.2291 21.03 66.0471 21.2913 65.9631 21.59H69.2391C69.1831 21.2633 69.0057 20.9927 68.7071 20.778C68.4177 20.5633 68.0491 20.456 67.6011 20.456ZM72.7573 19.056H74.8153V16.2H76.5793V19.056H79.0853V20.736H76.5793V23.9C76.5793 24.18 76.7053 24.32 76.9573 24.32H78.8333V26H75.8933C75.576 26 75.3147 25.8973 75.1093 25.692C74.9133 25.4867 74.8153 25.2253 74.8153 24.908V20.736H72.7573V19.056Z" fill="white"/>
</svg>
