<svg width="16" height="17" viewBox="0 0 16 17" fill="none" xmlns="http://www.w3.org/2000/svg">
<path d="M0.317082 10.2939L0.440552 16.2926L4.9396 16.2L4.81613 10.2013L0.317082 10.2939Z" fill="#C4C4C4"/>
<path d="M4.81611 10.2013L4.93958 16.2L10.9383 16.0765L10.8148 10.0778L4.81611 10.2013Z" fill="#C4C4C4"/>
<path d="M10.8148 10.0778L10.9382 16.0765L15.4373 15.9839L15.3138 9.98521L10.8148 10.0778Z" fill="#C4C4C4"/>
<path d="M10.2282 5.87951L10.3268 10.6686L15.3257 10.5657L15.2271 5.77662L10.2282 5.87951Z" fill="#C4C4C4"/>
<path d="M10.1297 1.09112L10.2283 5.88019L15.2272 5.7773L15.1286 0.98823L10.1297 1.09112Z" fill="#C4C4C4"/>
<path d="M5.22931 5.98242L5.32788 10.7715L10.3268 10.6686L10.2282 5.87953L5.22931 5.98242Z" fill="#C4C4C4"/>
</svg>
