<svg width="242" height="241" viewBox="0 0 242 241" fill="none" xmlns="http://www.w3.org/2000/svg">
<g filter="url(#filter0_b_148_907)">
<path fill-rule="evenodd" clip-rule="evenodd" d="M0.714676 0.135742H241.256V0.135843L233.649 0.135842H225.852V7.89475V15.6537H233.649V23.4126H241.256V216.61H233.649V224.757V232.904V240.311H233.648V232.904H225.852H225.851H218.055V240.311H23.9158L23.9158 232.904H16.119L16.119 240.311H16.1186L16.1186 232.904L16.1186 224.757H8.32201L8.32201 216.61H0.714676V23.4125H8.32173V15.6536H0.714676V15.6536H8.32173L8.32173 7.89471H0.714676V7.8947H8.32173L8.32173 0.135791L0.714676 0.13579V0.135742ZM23.9155 0.13579V7.8947L16.1189 7.8947L16.1187 7.8947L8.3221 7.8947L8.3221 0.13579L16.1187 0.13579L23.9155 0.13579ZM16.1189 15.6536V7.89471L8.3221 7.89471L8.3221 15.6536L16.1189 15.6536ZM225.851 7.89475L218.055 7.89475V0.135842L225.851 0.135843V7.89475ZM225.851 224.757V232.904H233.648V224.757H225.851Z" fill="#1E2234" fill-opacity="0.85"/>
</g>
<path fill-rule="evenodd" clip-rule="evenodd" d="M91.7474 79.277L91.7474 79.277L97.5948 79.277L97.595 79.277L103.442 79.277V73.4578H138.528V79.277L144.375 79.277L144.376 79.277L150.223 79.277V73.4578H150.223V131.65L103.442 131.65L103.442 125.831H97.595H97.5948H91.7474L91.7474 125.831H97.595L97.595 120.011H91.7474L91.7474 85.0962H97.595V79.277H91.7474ZM150.223 120.011V125.83H144.375V120.011H150.223ZM138.528 131.65H144.375H144.376H150.223V125.831H144.376L144.375 125.831H138.528V131.65ZM150.223 79.277V85.0962H144.375V79.277L150.223 79.277Z" fill="#447EF7"/>
<path d="M111.629 93.825H115.723L129.757 100.808V104.299L116.307 111.192H111.629V93.825Z" fill="white"/>
<path d="M112.214 93.8249H110.459V111.282H112.214V93.8249Z" fill="white"/>
<path d="M112.214 92.0792L112.214 93.8249L115.722 93.8249V92.0792H112.214Z" fill="white"/>
<path d="M115.722 93.8249L115.722 95.5707L119.231 95.5707L119.231 93.8249L115.722 93.8249Z" fill="white"/>
<path d="M119.231 95.5707V97.3164L122.739 97.3164L122.739 95.5707H119.231Z" fill="white"/>
<path d="M122.739 97.3164V99.0622L126.248 99.0622L126.248 97.3164H122.739Z" fill="white"/>
<path d="M126.248 99.0622V100.808L129.756 100.808L129.756 99.0622H126.248Z" fill="white"/>
<path d="M129.756 104.299H131.511V100.808H129.756V104.299Z" fill="white"/>
<path d="M126.248 104.299V106.045H129.756L129.756 104.299L126.248 104.299Z" fill="white"/>
<path d="M122.739 106.045V107.791H126.248L126.248 106.045L122.739 106.045Z" fill="white"/>
<path d="M119.231 107.791V109.537H122.739L122.739 107.791L119.231 107.791Z" fill="white"/>
<path d="M115.722 109.537L115.722 111.282L119.231 111.282L119.231 109.537L115.722 109.537Z" fill="white"/>
<path d="M112.214 111.282L112.214 113.028H115.722V111.282L112.214 111.282Z" fill="white"/>
<path d="M112.214 93.8249H110.459V111.282H112.214M112.214 93.8249L112.214 92.0792H115.722V93.8249M112.214 93.8249V111.282M112.214 93.8249L115.722 93.8249M112.214 111.282L112.214 113.028H115.722V111.282M112.214 111.282L115.722 111.282M115.722 111.282L115.722 109.537L119.231 109.537M115.722 111.282L119.231 111.282L119.231 109.537M115.722 93.8249L115.722 95.5707L119.231 95.5707M115.722 93.8249L119.231 93.8249L119.231 95.5707M119.231 109.537V107.791L122.739 107.791M119.231 109.537H122.739L122.739 107.791M119.231 95.5707V97.3164L122.739 97.3164M119.231 95.5707H122.739L122.739 97.3164M122.739 107.791V106.045L126.248 106.045M122.739 107.791H126.248L126.248 106.045M122.739 97.3164V99.0622L126.248 99.0622M122.739 97.3164H126.248L126.248 99.0622M126.248 106.045V104.299L129.756 104.299M126.248 106.045H129.756L129.756 104.299M126.248 99.0622V100.808L129.756 100.808M126.248 99.0622H129.756L129.756 100.808M129.756 104.299H131.511V100.808H129.756M129.756 104.299V100.808" stroke="white" stroke-width="0.5"/>
<path d="M66.0178 160.616H68.8978V156.296H73.2178V154.856H74.6578V150.536H73.2178V149.096H67.4578V150.536H66.0178V160.616ZM68.8978 151.976H71.7778V153.416H68.8978V151.976ZM77.536 160.616H84.736V157.736H78.976V149.096H76.096V159.176H77.536V160.616ZM89.0541 156.296H91.9341V160.616H94.8141V150.536H93.3741V149.096H87.6141V150.536H86.1741V160.616H89.0541V156.296ZM89.0541 153.416V151.976H91.9341V153.416H89.0541ZM96.2522 154.856H97.6922V156.296H99.1322V160.616H102.012V156.296H103.452V154.856H104.892V149.096H102.012V153.416H99.1322V149.096H96.2522V154.856ZM116.408 159.176H117.848V160.616H123.608V159.176H125.048V153.416H120.728V156.296H122.168V157.736H119.288V151.976H125.048V149.096H117.848V150.536H116.408V159.176ZM129.367 156.296H132.247V160.616H135.127V150.536H133.687V149.096H127.927V150.536H126.487V160.616H129.367V156.296ZM129.367 153.416V151.976H132.247V153.416H129.367ZM140.885 160.616H143.765V151.976H145.205V160.616H148.085V150.536H146.645V149.096H138.005V150.536H136.565V160.616H139.445V151.976H140.885V160.616ZM150.973 160.616H158.173V157.736H152.413V156.296H155.293V153.416H152.413V151.976H158.173V149.096H150.973V150.536H149.533V159.176H150.973V160.616Z" fill="white"/>
<defs>
<filter id="filter0_b_148_907" x="-9.28532" y="-9.86426" width="260.541" height="260.176" filterUnits="userSpaceOnUse" color-interpolation-filters="sRGB">
<feFlood flood-opacity="0" result="BackgroundImageFix"/>
<feGaussianBlur in="BackgroundImageFix" stdDeviation="5"/>
<feComposite in2="SourceAlpha" operator="in" result="effect1_backgroundBlur_148_907"/>
<feBlend mode="normal" in="SourceGraphic" in2="effect1_backgroundBlur_148_907" result="shape"/>
</filter>
</defs>
</svg>
