<svg width="79" height="42" viewBox="0 0 79 42" fill="none" xmlns="http://www.w3.org/2000/svg">
<path fill-rule="evenodd" clip-rule="evenodd" d="M66.8648 2.8H66.8636L63.9517 2.8V0L0.486328 1.62125e-05V42L0.487159 42V39.2V36.4H3.40029V39.2V42H3.4011V39.2V36.4H6.31301H6.31423H9.22615V39.2V42H9.22696V39.2H12.1389H12.1401H15.052V42L63.9517 42V39.2H66.8636L66.8648 39.2H69.7767V42H69.7775L69.7775 39.2V36.4H72.6894V33.6H75.6026V36.4L75.6026 39.2V42H75.6034V39.2V36.4V33.6L78.5165 33.6V36.4V39.2V42H78.5166V1.62125e-05L78.5165 3.09944e-06V2.8V5.59999L75.6034 5.59999V2.8V2.85466e-06L75.6026 2.85459e-06L75.6026 2.8V5.59999H72.6907H72.6894L69.7775 5.59999V2.8L69.7775 2.36513e-06L69.7767 2.36506e-06V2.8L66.8648 2.8ZM0.487159 14V11.2V11.2V8.40004H3.40029V11.2V11.2V14H0.487159ZM0.487159 8.39999V5.6V5.59999V2.80002V2.8V1.64826e-05H3.40029V2.8V2.80002V5.59999V5.6V8.39999H0.487159ZM3.4011 5.59999V2.80002V2.8V1.64826e-05H6.31301H6.31423H9.22615V2.8V2.80002V5.6H6.31423V8.39999H3.4011V5.6V5.59999ZM3.40029 28V30.8V33.6V36.4H0.487159V33.6V30.8V28H3.40029ZM6.31423 36.4V33.6H3.4011V36.4H6.31423ZM15.052 1.64826e-05V2.80002H12.1401H12.1389H9.22696V1.64826e-05H12.1389H12.1401H15.052ZM78.5165 28V30.8V33.6H75.6034V30.8V28H78.5165ZM78.5165 11.2V14H75.6034V11.2V8.40003V5.60004H78.5165V8.40003V11.2ZM72.6894 5.60004V8.40004L75.6026 8.40004V5.60004L72.6894 5.60004Z" fill="#66BE47"/>
<mask id="path-2-inside-1_54_24955" fill="white">
<path fill-rule="evenodd" clip-rule="evenodd" d="M43.1445 7H72.3948V7.00006L69.4718 7.00006V7.00006L66.5468 7.00006V9.79816L69.4709 9.79816L69.4718 9.79816L72.3948 9.79816V9.79822L69.4709 9.79822V12.5963H72.3948V29.3848H69.4709V32.1829H72.3948V32.183H69.4718H69.4709H66.5468V34.981H43.1445V7ZM43.1448 9.79834H46.0699V12.5964H43.1448V9.79834ZM48.994 7.00013L46.0689 7.00013V7.00013H43.1448V9.79823L46.0689 9.79823L46.0699 9.79823L48.994 9.79823V7.00013ZM48.9937 32.1829H46.0696H46.0687H43.1446L43.1446 34.981H46.0687H46.0696H48.9937V32.1829ZM43.1446 32.1828L43.1446 29.3847H46.0696L46.0696 32.1828H43.1446Z"/>
</mask>
<path fill-rule="evenodd" clip-rule="evenodd" d="M43.1445 7H72.3948V7.00006L69.4718 7.00006V7.00006L66.5468 7.00006V9.79816L69.4709 9.79816L69.4718 9.79816L72.3948 9.79816V9.79822L69.4709 9.79822V12.5963H72.3948V29.3848H69.4709V32.1829H72.3948V32.183H69.4718H69.4709H66.5468V34.981H43.1445V7ZM43.1448 9.79834H46.0699V12.5964H43.1448V9.79834ZM48.994 7.00013L46.0689 7.00013V7.00013H43.1448V9.79823L46.0689 9.79823L46.0699 9.79823L48.994 9.79823V7.00013ZM48.9937 32.1829H46.0696H46.0687H43.1446L43.1446 34.981H46.0687H46.0696H48.9937V32.1829ZM43.1446 32.1828L43.1446 29.3847H46.0696L46.0696 32.1828H43.1446Z" fill="white"/>
<path d="M72.3948 7H73.3948V6H72.3948V7ZM43.1445 7V6H42.1445V7H43.1445ZM72.3948 7.00006L72.3948 8.00006L73.3948 8.00006V7.00006H72.3948ZM69.4718 7.00006H68.4718V8.00006L69.4718 8.00006L69.4718 7.00006ZM69.4718 7.00006H70.4718V6.00006L69.4718 6.00006L69.4718 7.00006ZM66.5468 7.00006L66.5468 6.00006L65.5468 6.00006V7.00006H66.5468ZM66.5468 9.79816H65.5468V10.7982L66.5468 10.7982L66.5468 9.79816ZM69.4709 9.79816L69.4709 10.7982L69.4711 10.7982L69.4709 9.79816ZM69.4718 9.79816L69.4718 8.79816L69.4715 8.79816L69.4718 9.79816ZM72.3948 9.79816H73.3948V8.79816L72.3948 8.79816L72.3948 9.79816ZM72.3948 9.79822L72.3948 10.7982L73.3948 10.7982V9.79822H72.3948ZM69.4709 9.79822L69.4709 8.79822L68.4709 8.79822V9.79822H69.4709ZM69.4709 12.5963H68.4709V13.5963H69.4709V12.5963ZM72.3948 12.5963H73.3948V11.5963H72.3948V12.5963ZM72.3948 29.3848V30.3848H73.3948V29.3848H72.3948ZM69.4709 29.3848V28.3848H68.4709V29.3848H69.4709ZM69.4709 32.1829H68.4709V33.1829H69.4709V32.1829ZM72.3948 32.1829H73.3948V31.1829H72.3948V32.1829ZM72.3948 32.183V33.183H73.3948V32.183H72.3948ZM66.5468 32.183V31.183H65.5468V32.183H66.5468ZM66.5468 34.981V35.981H67.5468V34.981H66.5468ZM43.1445 34.981H42.1445V35.981H43.1445V34.981ZM46.0699 9.79834H47.0699V8.79834H46.0699V9.79834ZM43.1448 9.79834V8.79834H42.1448V9.79834H43.1448ZM46.0699 12.5964V13.5964H47.0699V12.5964H46.0699ZM43.1448 12.5964H42.1448V13.5964H43.1448V12.5964ZM46.0689 7.00013L46.0689 6.00013L45.0689 6.00013V7.00013H46.0689ZM48.994 7.00013H49.994V6.00013L48.994 6.00013L48.994 7.00013ZM46.0689 7.00013V8.00013H47.0689V7.00013H46.0689ZM43.1448 7.00013V6.00013H42.1448V7.00013H43.1448ZM43.1448 9.79823H42.1448V10.7982L43.1448 10.7982L43.1448 9.79823ZM46.0689 9.79823L46.0692 8.79823L46.0689 8.79823L46.0689 9.79823ZM46.0699 9.79823L46.0696 10.7982L46.0699 10.7982L46.0699 9.79823ZM48.994 9.79823L48.994 10.7982L49.994 10.7982V9.79823H48.994ZM48.9937 32.1829H49.9937V31.1829H48.9937V32.1829ZM43.1446 32.1829V31.1829H42.1446L42.1446 32.1829L43.1446 32.1829ZM43.1446 34.981L42.1446 34.981L42.1446 35.981H43.1446V34.981ZM48.9937 34.981V35.981H49.9937V34.981H48.9937ZM43.1446 29.3847V28.3847H42.1446L42.1446 29.3847L43.1446 29.3847ZM43.1446 32.1828L42.1446 32.1828L42.1446 33.1828H43.1446V32.1828ZM46.0696 29.3847L47.0696 29.3847L47.0696 28.3847H46.0696V29.3847ZM46.0696 32.1828V33.1828H47.0696L47.0696 32.1828L46.0696 32.1828ZM72.3948 6H43.1445V8H72.3948V6ZM73.3948 7.00006V7H71.3948V7.00006H73.3948ZM69.4718 8.00006L72.3948 8.00006L72.3948 6.00006L69.4718 6.00006L69.4718 8.00006ZM68.4718 7.00006V7.00006H70.4718V7.00006H68.4718ZM66.5468 8.00006L69.4718 8.00006L69.4718 6.00006L66.5468 6.00006L66.5468 8.00006ZM67.5468 9.79816V7.00006H65.5468V9.79816H67.5468ZM69.4709 8.79816L66.5468 8.79816L66.5468 10.7982L69.4709 10.7982L69.4709 8.79816ZM69.4715 8.79816L69.4706 8.79816L69.4711 10.7982L69.472 10.7982L69.4715 8.79816ZM72.3948 8.79816L69.4718 8.79816L69.4718 10.7982L72.3948 10.7982L72.3948 8.79816ZM73.3948 9.79822V9.79816H71.3948V9.79822H73.3948ZM69.4709 10.7982L72.3948 10.7982L72.3948 8.79822L69.4709 8.79822L69.4709 10.7982ZM70.4709 12.5963V9.79822H68.4709V12.5963H70.4709ZM72.3948 11.5963H69.4709V13.5963H72.3948V11.5963ZM73.3948 29.3848V12.5963H71.3948V29.3848H73.3948ZM69.4709 30.3848H72.3948V28.3848H69.4709V30.3848ZM70.4709 32.1829V29.3848H68.4709V32.1829H70.4709ZM72.3948 31.1829H69.4709V33.1829H72.3948V31.1829ZM73.3948 32.183V32.1829H71.3948V32.183H73.3948ZM69.4718 33.183H72.3948V31.183H69.4718V33.183ZM69.4709 33.183H69.4718V31.183H69.4709V33.183ZM66.5468 33.183H69.4709V31.183H66.5468V33.183ZM67.5468 34.981V32.183H65.5468V34.981H67.5468ZM43.1445 35.981H66.5468V33.981H43.1445V35.981ZM42.1445 7V34.981H44.1445V7H42.1445ZM46.0699 8.79834H43.1448V10.7983H46.0699V8.79834ZM47.0699 12.5964V9.79834H45.0699V12.5964H47.0699ZM43.1448 13.5964H46.0699V11.5964H43.1448V13.5964ZM42.1448 9.79834V12.5964H44.1448V9.79834H42.1448ZM46.0689 8.00013L48.994 8.00013L48.994 6.00013L46.0689 6.00013L46.0689 8.00013ZM47.0689 7.00013V7.00013H45.0689V7.00013H47.0689ZM43.1448 8.00013H46.0689V6.00013H43.1448V8.00013ZM44.1448 9.79823V7.00013H42.1448V9.79823H44.1448ZM46.0689 8.79823L43.1448 8.79823L43.1448 10.7982L46.0689 10.7982L46.0689 8.79823ZM46.0701 8.79823L46.0692 8.79823L46.0687 10.7982L46.0696 10.7982L46.0701 8.79823ZM48.994 8.79823L46.0699 8.79823L46.0699 10.7982L48.994 10.7982L48.994 8.79823ZM47.994 7.00013V9.79823H49.994V7.00013H47.994ZM46.0696 33.1829H48.9937V31.1829H46.0696V33.1829ZM46.0687 33.1829H46.0696V31.1829H46.0687V33.1829ZM43.1446 33.1829H46.0687V31.1829H43.1446V33.1829ZM44.1446 34.981L44.1446 32.1829L42.1446 32.1829L42.1446 34.981L44.1446 34.981ZM46.0687 33.981H43.1446V35.981H46.0687V33.981ZM46.0696 33.981H46.0687V35.981H46.0696V33.981ZM48.9937 33.981H46.0696V35.981H48.9937V33.981ZM47.9937 32.1829V34.981H49.9937V32.1829H47.9937ZM42.1446 29.3847L42.1446 32.1828L44.1446 32.1828L44.1446 29.3847L42.1446 29.3847ZM46.0696 28.3847H43.1446V30.3847H46.0696V28.3847ZM47.0696 32.1828L47.0696 29.3847L45.0696 29.3847L45.0696 32.1828L47.0696 32.1828ZM43.1446 33.1828H46.0696V31.1828H43.1446V33.1828Z" fill="white" fill-opacity="0.15" mask="url(#path-2-inside-1_54_24955)"/>
<path d="M61.6303 16.8757V17.8439H60.623V18.8121H59.6157V19.7803H58.6084V20.7485H57.6011V21.7167H56.5937V22.6849H56.0901V23.169H55.0828V22.6849H54.5791V21.7167H53.5718V21.2326H52.5645V22.6849H53.5718V23.6531H54.5791V24.6213H55.0828V25.1054H56.0901V24.6213H56.5937V23.6531H57.6011V22.6849H58.6084V21.7167H59.6157V20.7485H60.623V19.7803H61.6303V18.8121H62.6377V16.8757H61.6303Z" fill="#66BE47"/>
</svg>
