<svg xmlns="http://www.w3.org/2000/svg" xmlns:xlink="http://www.w3.org/1999/xlink" version="1.1" id="Layer_1" x="0px" y="0px" width="1016.5px" height="598.1px" viewBox="0 0 1016.5 598.1" style="enable-background:new 0 0 1016.5 598.1;" xml:space="preserve">
<style type="text/css">
	.st0{fill:#FFFFFF;}
</style>
<g>
	<path class="st0" d="M8.2,186.3L67.9,9.6h25.3L153,186.3h-24l-16.7-53.9H48l-17,53.9H8.2z M62,87.4l-8.3,26.9h53.1l-8.3-26.9   c-3.2-9.9-6.3-19.7-9.2-29.5c-2.9-9.8-5.7-19.8-8.6-30h-1.1c-2.7,10.2-5.5,20.2-8.3,30C68.3,67.7,65.2,77.6,62,87.4z"/>
	<path class="st0" d="M178.1,186.3V9.6h125.2v176.7H281V28.5h-80.5v157.8H178.1z"/>
	<path class="st0" d="M351.8,186.3V9.6H477v176.7h-22.4V28.5h-80.5v157.8H351.8z"/>
</g>
<g>
	<path class="st0" d="M9.9,350.6l26-76.7h11l26,76.7H62.4l-7.3-23.4h-28l-7.4,23.4H9.9z M33.3,307.7l-3.6,11.7h23l-3.6-11.7   c-1.4-4.3-2.7-8.6-4-12.8c-1.2-4.2-2.5-8.6-3.7-13h-0.5c-1.2,4.4-2.4,8.8-3.6,13C36,299.2,34.7,303.4,33.3,307.7z"/>
	<path class="st0" d="M105.2,352.1c-5,0-9.5-1.2-13.6-3.5c-4.1-2.3-7.3-5.7-9.6-10.2c-2.3-4.4-3.5-9.8-3.5-16   c0-6.4,1.3-11.8,3.8-16.3c2.5-4.4,5.9-7.8,10.1-10.2c4.2-2.3,8.7-3.5,13.5-3.5c3.7,0,7,0.7,9.6,2c2.7,1.3,5,2.9,7,4.7l-4.9,6.3   c-1.6-1.5-3.4-2.7-5.2-3.6c-1.8-0.9-3.9-1.4-6.1-1.4c-3.4,0-6.5,0.9-9.2,2.7c-2.7,1.8-4.8,4.4-6.3,7.7c-1.5,3.3-2.3,7.2-2.3,11.5   c0,6.5,1.6,11.7,4.9,15.7c3.2,4,7.5,6,12.7,6c2.6,0,5.1-0.6,7.4-1.7c2.3-1.1,4.2-2.5,6-4l4.2,6.4c-2.6,2.3-5.4,4-8.5,5.3   C111.9,351.4,108.7,352.1,105.2,352.1z"/>
	<path class="st0" d="M156.1,352.1c-5,0-9.5-1.2-13.6-3.5c-4.1-2.3-7.3-5.7-9.6-10.2c-2.3-4.4-3.5-9.8-3.5-16   c0-6.4,1.3-11.8,3.8-16.3c2.5-4.4,5.9-7.8,10.1-10.2c4.2-2.3,8.7-3.5,13.5-3.5c3.7,0,7,0.7,9.6,2c2.7,1.3,5,2.9,7,4.7l-4.9,6.3   c-1.6-1.5-3.4-2.7-5.2-3.6c-1.8-0.9-3.9-1.4-6.1-1.4c-3.4,0-6.5,0.9-9.2,2.7c-2.7,1.8-4.8,4.4-6.3,7.7c-1.5,3.3-2.3,7.2-2.3,11.5   c0,6.5,1.6,11.7,4.9,15.7c3.2,4,7.5,6,12.7,6c2.6,0,5.1-0.6,7.4-1.7c2.3-1.1,4.2-2.5,6-4l4.2,6.4c-2.6,2.3-5.4,4-8.5,5.3   C162.8,351.4,159.5,352.1,156.1,352.1z"/>
	<path class="st0" d="M206.6,352.1c-4.6,0-8.9-1.2-12.9-3.5c-4-2.3-7.3-5.7-9.7-10.2c-2.5-4.4-3.7-9.8-3.7-16   c0-6.4,1.2-11.8,3.7-16.3c2.5-4.4,5.7-7.8,9.7-10.2c4-2.3,8.3-3.5,12.9-3.5c4.7,0,9,1.2,13,3.5c4,2.3,7.2,5.7,9.6,10.2   c2.5,4.4,3.7,9.9,3.7,16.3c0,6.2-1.2,11.6-3.7,16c-2.5,4.4-5.7,7.8-9.6,10.2C215.6,350.9,211.3,352.1,206.6,352.1z M206.6,344.1   c4.9,0,8.9-2,11.9-6c3-4,4.5-9.3,4.5-15.7c0-6.5-1.5-11.9-4.5-15.9c-3-4.1-7-6.1-11.9-6.1c-4.8,0-8.8,2-11.8,6.1   c-3,4.1-4.6,9.4-4.6,15.9c0,6.5,1.5,11.7,4.6,15.7C197.9,342.1,201.8,344.1,206.6,344.1z"/>
	<path class="st0" d="M291.7,370.8v-20.1h-43.7v-56.8h9.6v49H283v-49h9.6v49h8.3v6.1l-0.9,21.9H291.7z"/>
	<path class="st0" d="M312.7,350.6v-56.8h9.4v23.6c0,3-0.1,6.4-0.3,10c-0.2,3.6-0.4,7.3-0.6,10.9h0.5c1.1-1.8,2.4-3.8,3.8-6.1   c1.4-2.3,2.7-4.3,3.7-6l21.5-32.4h9v56.8h-9.4V327c0-3,0.1-6.4,0.3-10.1c0.2-3.7,0.4-7.3,0.6-11h-0.5c-1,1.7-2.3,3.7-3.7,6.1   c-1.5,2.3-2.7,4.4-3.7,6.1l-21.6,32.5H312.7z"/>
	<path class="st0" d="M391.9,352.1c-4.8,0-8.7-1.4-11.9-4.3c-3.2-2.8-4.7-6.8-4.7-11.9c0-6.2,2.8-11,8.4-14.3   c5.6-3.3,14.4-5.6,26.5-7c0-2.4-0.3-4.7-1-6.9c-0.7-2.2-1.8-4-3.5-5.3c-1.7-1.4-4.1-2-7.2-2c-3.3,0-6.4,0.6-9.2,1.9   c-2.9,1.2-5.5,2.7-7.7,4.2l-3.7-6.7c2.6-1.7,5.9-3.4,9.8-5c3.9-1.6,8.1-2.4,12.6-2.4c6.9,0,12,2.1,15.1,6.4c3.1,4.3,4.7,9.9,4.7,17   v34.9h-8l-0.8-6.8h-0.4c-2.7,2.2-5.6,4.1-8.7,5.7C398.8,351.2,395.5,352.1,391.9,352.1z M394.7,344.3c2.7,0,5.3-0.7,7.7-2   c2.4-1.3,5-3.2,7.7-5.6v-15.8c-9.4,1.2-16,2.9-19.8,5.3c-3.8,2.3-5.7,5.3-5.7,9c0,3.2,1,5.5,2.9,7   C389.5,343.6,391.9,344.3,394.7,344.3z"/>
	<path class="st0" d="M481.5,370.8v-20.1h-43.7v-56.8h9.6v49h25.5v-49h9.6v49h8.3v6.1l-0.9,21.9H481.5z"/>
	<path class="st0" d="M502.5,350.6v-56.8h9.4v23.6c0,3-0.1,6.4-0.3,10c-0.2,3.6-0.4,7.3-0.6,10.9h0.5c1.1-1.8,2.4-3.8,3.8-6.1   c1.4-2.3,2.7-4.3,3.7-6l21.5-32.4h9v56.8h-9.4V327c0-3,0.1-6.4,0.3-10.1c0.2-3.7,0.4-7.3,0.6-11h-0.5c-1,1.7-2.3,3.7-3.7,6.1   c-1.5,2.3-2.7,4.4-3.7,6.1l-21.6,32.5H502.5z"/>
	<path class="st0" d="M9.9,459v-56.8h45.5V459h-9.6v-49H19.5v49H9.9z"/>
	<path class="st0" d="M74.6,483v-80.8h8l0.8,6.5h0.4c2.6-2.2,5.4-4.1,8.5-5.6c3.1-1.6,6.3-2.3,9.6-2.3c7.3,0,12.9,2.6,16.7,7.9   c3.8,5.3,5.7,12.3,5.7,21.1c0,6.4-1.2,11.9-3.5,16.5c-2.3,4.6-5.3,8.1-9,10.5c-3.7,2.4-7.7,3.6-12.1,3.6c-2.7,0-5.3-0.6-7.9-1.8   c-2.6-1.2-5.2-2.8-7.9-4.8l0.2,9.9V483H74.6z M98.1,452.3c4.7,0,8.6-2,11.6-6c3.1-4,4.6-9.5,4.6-16.6c0-6.2-1.2-11.3-3.5-15.1   c-2.3-3.9-6.1-5.8-11.5-5.8c-2.4,0-4.9,0.7-7.3,2c-2.5,1.3-5.1,3.2-7.9,5.7v29.8c2.6,2.2,5.1,3.7,7.5,4.6   C94.1,451.9,96.2,452.3,98.1,452.3z"/>
	<path class="st0" d="M161.6,460.4c-4.6,0-8.9-1.2-12.9-3.5c-4-2.3-7.3-5.7-9.7-10.2c-2.5-4.4-3.7-9.8-3.7-16   c0-6.4,1.2-11.8,3.7-16.3c2.5-4.4,5.7-7.8,9.7-10.2c4-2.3,8.3-3.5,12.9-3.5c4.7,0,9,1.2,13,3.5c4,2.3,7.2,5.7,9.6,10.2   c2.5,4.4,3.7,9.9,3.7,16.3c0,6.2-1.2,11.6-3.7,16c-2.5,4.4-5.7,7.8-9.6,10.2C170.6,459.2,166.3,460.4,161.6,460.4z M161.6,452.5   c4.9,0,8.9-2,11.9-6c3-4,4.5-9.3,4.5-15.7c0-6.5-1.5-11.9-4.5-15.9c-3-4.1-7-6.1-11.9-6.1c-4.8,0-8.8,2-11.8,6.1   c-3,4.1-4.6,9.4-4.6,15.9c0,6.5,1.5,11.7,4.6,15.7C152.8,450.5,156.8,452.5,161.6,452.5z"/>
	<path class="st0" d="M231.5,483v-18.2l0.2-8.5c-1.6,1.2-3.3,2.2-5.2,3c-1.9,0.8-4,1.2-6.3,1.2c-6.5,0-11.7-2.6-15.6-7.8   c-3.9-5.2-5.9-12.5-5.9-21.9c0-6.2,1-11.5,3-16c2-4.5,4.6-7.9,7.9-10.4c3.3-2.4,6.8-3.6,10.6-3.6c2.3,0,4.3,0.4,6.1,1.2   c1.8,0.8,3.6,1.8,5.3,2.9l-0.2-8.4v-20.7h9.4v20.7l-0.2,8.7c1.8-1.3,3.8-2.4,5.9-3.2c2.1-0.8,4.3-1.2,6.4-1.2   c6.7,0,11.8,2.6,15.4,7.9c3.5,5.3,5.3,12.3,5.3,21.1c0,6.4-1,11.9-3,16.5c-2,4.6-4.6,8.1-8,10.5c-3.3,2.4-6.9,3.6-10.8,3.6   c-1.8,0-3.6-0.4-5.6-1.1c-1.9-0.7-3.8-1.7-5.7-3l0.2,8.4V483H231.5z M222.4,452.3c1.7,0,3.3-0.3,4.8-0.9c1.5-0.6,3-1.7,4.6-3.2   v-35.6c-1.6-1.4-3.2-2.4-4.9-3c-1.7-0.6-3.3-0.9-5-0.9c-3.7,0-6.9,2-9.4,6c-2.5,4-3.8,9.3-3.8,15.7c0,6.8,1.2,12.1,3.6,16   C214.8,450.4,218.1,452.3,222.4,452.3z M250.3,452.3c4,0,7.2-2,9.7-6c2.5-4,3.7-9.5,3.7-16.6c0-6.2-1-11.3-3.1-15.1   c-2.1-3.9-5.4-5.8-10-5.8c-1.6,0-3.2,0.3-4.8,0.8c-1.6,0.5-3.4,1.6-5.1,3.2v35.7c1.7,1.5,3.4,2.5,5.1,3   C247.5,452.1,249,452.3,250.3,452.3z"/>
	<path class="st0" d="M311.8,460.4c-5.1,0-9.7-1.2-13.8-3.6c-4.1-2.4-7.4-5.8-9.8-10.2c-2.4-4.4-3.6-9.7-3.6-15.9   c0-6.2,1.2-11.6,3.7-16c2.5-4.4,5.6-7.9,9.5-10.3c3.9-2.4,8-3.6,12.3-3.6c7.3,0,12.8,2.4,16.8,7.3c3.9,4.8,5.9,11.3,5.9,19.4   c0,1,0,2-0.1,3c0,1-0.1,1.8-0.3,2.5H294c0.4,6,2.3,10.8,5.7,14.4c3.4,3.6,7.8,5.4,13.3,5.4c2.7,0,5.2-0.4,7.5-1.2   c2.3-0.8,4.5-1.9,6.6-3.2l3.4,6.3c-2.4,1.6-5.2,2.9-8.2,4.1C319.2,459.8,315.7,460.4,311.8,460.4z M293.9,426h30.4   c0-5.8-1.2-10.2-3.7-13.2c-2.5-3-5.9-4.5-10.4-4.5c-4,0-7.5,1.5-10.7,4.6C296.4,416.1,294.5,420.4,293.9,426z"/>
	<path class="st0" d="M369.2,460.4c-5,0-9.5-1.2-13.6-3.5c-4.1-2.3-7.3-5.7-9.6-10.2c-2.3-4.4-3.5-9.8-3.5-16   c0-6.4,1.3-11.8,3.8-16.3c2.5-4.4,5.9-7.8,10.1-10.2c4.2-2.3,8.7-3.5,13.5-3.5c3.7,0,7,0.7,9.6,2c2.7,1.3,5,2.9,7,4.7l-4.9,6.3   c-1.6-1.5-3.4-2.7-5.2-3.6c-1.8-0.9-3.9-1.4-6.1-1.4c-3.4,0-6.5,0.9-9.2,2.7c-2.7,1.8-4.8,4.4-6.3,7.7c-1.5,3.3-2.3,7.2-2.3,11.5   c0,6.5,1.6,11.7,4.9,15.7c3.2,4,7.5,6,12.7,6c2.6,0,5.1-0.6,7.4-1.7c2.3-1.1,4.2-2.5,6-4l4.2,6.4c-2.6,2.3-5.4,4-8.5,5.3   C375.9,459.8,372.6,460.4,369.2,460.4z"/>
	<path class="st0" d="M420.1,460.4c-5,0-9.5-1.2-13.6-3.5c-4.1-2.3-7.3-5.7-9.6-10.2c-2.3-4.4-3.5-9.8-3.5-16   c0-6.4,1.3-11.8,3.8-16.3c2.5-4.4,5.9-7.8,10.1-10.2c4.2-2.3,8.7-3.5,13.5-3.5c3.7,0,7,0.7,9.6,2c2.7,1.3,5,2.9,7,4.7l-4.9,6.3   c-1.6-1.5-3.4-2.7-5.2-3.6c-1.8-0.9-3.9-1.4-6.1-1.4c-3.4,0-6.5,0.9-9.2,2.7c-2.7,1.8-4.8,4.4-6.3,7.7c-1.5,3.3-2.3,7.2-2.3,11.5   c0,6.5,1.6,11.7,4.9,15.7c3.2,4,7.5,6,12.7,6c2.6,0,5.1-0.6,7.4-1.7c2.3-1.1,4.2-2.5,6-4l4.2,6.4c-2.6,2.3-5.4,4-8.5,5.3   C426.8,459.8,423.5,460.4,420.1,460.4z"/>
	<path class="st0" d="M451,459v-56.8h9.4v23.6c0,3-0.1,6.4-0.3,10c-0.2,3.6-0.4,7.3-0.6,10.9h0.5c1.1-1.8,2.4-3.8,3.8-6.1   c1.4-2.3,2.7-4.3,3.7-6l21.5-32.4h9V459h-9.4v-23.6c0-3,0.1-6.4,0.3-10.1c0.2-3.7,0.4-7.3,0.6-11H489c-1,1.7-2.3,3.7-3.7,6.1   c-1.5,2.3-2.7,4.4-3.7,6.1L459.8,459H451z"/>
	<path class="st0" d="M539.1,460.4c-4.6,0-8.9-1.2-12.9-3.5c-4-2.3-7.3-5.7-9.7-10.2c-2.5-4.4-3.7-9.8-3.7-16   c0-6.4,1.2-11.8,3.7-16.3c2.5-4.4,5.7-7.8,9.7-10.2c4-2.3,8.3-3.5,12.9-3.5c4.7,0,9,1.2,13,3.5c4,2.3,7.2,5.7,9.6,10.2   c2.5,4.4,3.7,9.9,3.7,16.3c0,6.2-1.2,11.6-3.7,16c-2.5,4.4-5.7,7.8-9.6,10.2C548.1,459.2,543.8,460.4,539.1,460.4z M539.1,452.5   c4.9,0,8.9-2,11.9-6c3-4,4.5-9.3,4.5-15.7c0-6.5-1.5-11.9-4.5-15.9c-3-4.1-7-6.1-11.9-6.1c-4.8,0-8.8,2-11.8,6.1   c-3,4.1-4.6,9.4-4.6,15.9c0,6.5,1.5,11.7,4.6,15.7C530.4,450.5,534.3,452.5,539.1,452.5z"/>
	<path class="st0" d="M580.4,459v-56.8h9.6v23h27.4v-23h9.6V459h-9.6v-25.3H590V459H580.4z"/>
	<path class="st0" d="M659.3,460.4c-4.8,0-8.7-1.4-11.9-4.3c-3.2-2.8-4.7-6.8-4.7-11.9c0-6.2,2.8-11,8.4-14.3   c5.6-3.3,14.4-5.6,26.5-7c0-2.4-0.3-4.7-1-6.9c-0.7-2.2-1.8-4-3.5-5.3c-1.7-1.4-4.1-2-7.2-2c-3.3,0-6.4,0.6-9.2,1.9   c-2.9,1.2-5.5,2.7-7.7,4.2l-3.7-6.7c2.6-1.7,5.9-3.4,9.8-5c3.9-1.6,8.1-2.4,12.6-2.4c6.9,0,12,2.1,15.1,6.4c3.1,4.3,4.7,9.9,4.7,17   V459h-8l-0.8-6.8h-0.4c-2.7,2.2-5.6,4.1-8.7,5.7C666.2,459.6,662.8,460.4,659.3,460.4z M662.1,452.7c2.7,0,5.3-0.7,7.7-2   c2.4-1.3,5-3.2,7.7-5.6v-15.8c-9.4,1.2-16,2.9-19.8,5.3c-3.8,2.3-5.7,5.3-5.7,9c0,3.2,1,5.5,2.9,7   C656.9,452,659.3,452.7,662.1,452.7z"/>
	<path class="st0" d="M701.8,460.4c-1,0-1.9-0.1-2.7-0.2c-0.8-0.2-1.6-0.4-2.5-0.7l1.9-8.9c0.4,0.1,0.8,0.2,1.2,0.3   c0.4,0.1,0.9,0.2,1.4,0.2c2,0,3.7-1,4.9-2.9c1.2-1.9,2.1-5,2.7-9.2c0.8-6.2,1.5-12.3,2.2-18.4c0.7-6.1,1.4-12.3,2.1-18.4h35V459   h-9.7v-49h-17.7c-0.5,5.2-1.2,10.5-1.8,15.7c-0.7,5.3-1.3,10.5-1.9,15.7C715.3,454.1,710.2,460.4,701.8,460.4z"/>
	<path class="st0" d="M767.2,459v-56.8h9.6v20.9h10.8c6.7,0,12.1,1.4,16.3,4.2c4.2,2.8,6.3,7.3,6.3,13.6c0,6.3-2.1,10.9-6.3,13.8   c-4.2,2.9-9.6,4.3-16.3,4.3H767.2z M776.8,451.3h9.7c9.4,0,14.2-3.5,14.2-10.4c0-3.6-1.2-6.2-3.5-7.8c-2.3-1.6-5.9-2.5-10.7-2.5   h-9.7V451.3z"/>
	<path class="st0" d="M824.6,459v-56.8h9.6v23h27.4v-23h9.6V459h-9.6v-25.3h-27.4V459H824.6z"/>
	<path class="st0" d="M890.4,459v-56.8h9.6v20.9h8.1c6.7,0,12.1,1.4,16.3,4.2c4.2,2.8,6.3,7.3,6.3,13.6c0,6.3-2.1,10.9-6.3,13.8   c-4.2,2.9-9.6,4.3-16.3,4.3H890.4z M900,451.3h7c9.4,0,14.2-3.5,14.2-10.4c0-3.6-1.2-6.2-3.5-7.8c-2.3-1.6-5.9-2.5-10.7-2.5h-7   V451.3z M940.4,459v-56.8h9.6V459H940.4z"/>
	<path class="st0" d="M961.2,459l18.6-29.7l-17.2-27.1h10.4l7.6,12.5c0.9,1.5,1.8,3,2.7,4.7s1.9,3.2,2.9,4.8h0.5   c0.9-1.6,1.7-3.2,2.6-4.8c0.9-1.6,1.7-3.2,2.6-4.7l6.9-12.5h10.1l-17.2,28.2l18.5,28.7h-10.4l-8.3-13.2c-1-1.7-2-3.4-3-5.1   c-1-1.7-2.1-3.4-3.2-5h-0.5c-1,1.6-2,3.3-2.9,5c-0.9,1.7-1.9,3.4-2.8,5.2l-7.7,13.2H961.2z"/>
	<path class="st0" d="M9.9,567.4v-56.8h45.5v56.8h-9.6v-49H19.5v49H9.9z"/>
	<path class="st0" d="M97.6,568.8c-5.1,0-9.7-1.2-13.8-3.6c-4.1-2.4-7.4-5.8-9.8-10.2c-2.4-4.4-3.6-9.7-3.6-15.9   c0-6.2,1.2-11.6,3.7-16c2.5-4.4,5.6-7.9,9.5-10.3c3.9-2.4,8-3.6,12.3-3.6c7.3,0,12.8,2.4,16.8,7.3c3.9,4.8,5.9,11.3,5.9,19.4   c0,1,0,2-0.1,3c0,1-0.1,1.8-0.3,2.5H79.8c0.4,6,2.3,10.8,5.7,14.4c3.4,3.6,7.8,5.4,13.3,5.4c2.7,0,5.2-0.4,7.5-1.2   c2.3-0.8,4.5-1.9,6.6-3.2l3.4,6.3c-2.4,1.6-5.2,2.9-8.2,4.1C105,568.2,101.5,568.8,97.6,568.8z M79.7,534.4h30.4   c0-5.8-1.2-10.2-3.7-13.2c-2.5-3-5.9-4.5-10.4-4.5c-4,0-7.5,1.5-10.7,4.6C82.2,524.4,80.3,528.8,79.7,534.4z"/>
	<path class="st0" d="M132.6,591.4v-80.8h8l0.8,6.5h0.4c2.6-2.2,5.4-4.1,8.5-5.6c3.1-1.6,6.3-2.3,9.6-2.3c7.3,0,12.9,2.6,16.7,7.9   c3.8,5.3,5.7,12.3,5.7,21.1c0,6.4-1.2,11.9-3.5,16.5c-2.3,4.6-5.3,8.1-9,10.5c-3.7,2.4-7.7,3.6-12.1,3.6c-2.7,0-5.3-0.6-7.9-1.8   c-2.6-1.2-5.2-2.8-7.9-4.8l0.2,9.9v19.2H132.6z M156.1,560.7c4.7,0,8.6-2,11.6-6c3.1-4,4.6-9.5,4.6-16.6c0-6.2-1.2-11.3-3.5-15.1   c-2.3-3.9-6.1-5.8-11.5-5.8c-2.4,0-4.9,0.7-7.3,2c-2.5,1.3-5.1,3.2-7.9,5.7v29.8c2.6,2.2,5.1,3.7,7.5,4.6   C152.1,560.3,154.2,560.7,156.1,560.7z"/>
	<path class="st0" d="M220.5,568.8c-5.1,0-9.7-1.2-13.8-3.6c-4.1-2.4-7.4-5.8-9.8-10.2c-2.4-4.4-3.6-9.7-3.6-15.9   c0-6.2,1.2-11.6,3.7-16c2.5-4.4,5.6-7.9,9.5-10.3c3.9-2.4,8-3.6,12.3-3.6c7.3,0,12.8,2.4,16.8,7.3c3.9,4.8,5.9,11.3,5.9,19.4   c0,1,0,2-0.1,3c0,1-0.1,1.8-0.3,2.5h-38.4c0.4,6,2.3,10.8,5.7,14.4c3.4,3.6,7.8,5.4,13.3,5.4c2.7,0,5.2-0.4,7.5-1.2   c2.3-0.8,4.5-1.9,6.6-3.2l3.4,6.3c-2.4,1.6-5.2,2.9-8.2,4.1C227.9,568.2,224.4,568.8,220.5,568.8z M202.6,534.4h30.4   c0-5.8-1.2-10.2-3.7-13.2c-2.5-3-5.9-4.5-10.4-4.5c-4,0-7.5,1.5-10.7,4.6C205.2,524.4,203.3,528.8,202.6,534.4z"/>
	<path class="st0" d="M255.5,567.4v-56.8h21.9c6.2,0,11.3,1.1,15.1,3.3c3.9,2.2,5.8,5.9,5.8,11.1c0,3.1-0.8,5.7-2.5,7.8   c-1.7,2.1-4,3.5-7,4.4v0.4c3.2,0.8,6,2.2,8.4,4.3c2.4,2.1,3.6,5.2,3.6,9.4c0,5.6-2.1,9.7-6.3,12.3c-4.2,2.6-9.6,3.9-16.1,3.9H255.5   z M265,534.4h10.8c4.8,0,8.1-0.8,10.2-2.3c2-1.5,3-3.6,3-6.3c0-2.6-1-4.7-3-6.2c-2-1.5-5.2-2.2-9.5-2.2H265V534.4z M265,560.5h12.3   c4.7,0,8.2-0.9,10.5-2.6c2.3-1.8,3.5-4.2,3.5-7.3c0-2.9-1.2-5.1-3.6-6.8c-2.4-1.6-6-2.5-10.9-2.5H265V560.5z"/>
	<path class="st0" d="M337,568.8c-4.6,0-8.9-1.2-12.9-3.5c-4-2.3-7.3-5.7-9.7-10.2c-2.5-4.4-3.7-9.8-3.7-16c0-6.4,1.2-11.8,3.7-16.3   c2.5-4.4,5.7-7.8,9.7-10.2c4-2.3,8.3-3.5,12.9-3.5c4.7,0,9,1.2,13,3.5c4,2.3,7.2,5.7,9.6,10.2c2.5,4.4,3.7,9.9,3.7,16.3   c0,6.2-1.2,11.6-3.7,16c-2.5,4.4-5.7,7.8-9.6,10.2C346,567.6,341.7,568.8,337,568.8z M337,560.8c4.9,0,8.9-2,11.9-6   c3-4,4.5-9.3,4.5-15.7c0-6.5-1.5-11.9-4.5-15.9c-3-4.1-7-6.1-11.9-6.1c-4.8,0-8.8,2-11.8,6.1c-3,4.1-4.6,9.4-4.6,15.9   c0,6.5,1.5,11.7,4.6,15.7C328.3,558.8,332.2,560.8,337,560.8z"/>
	<path class="st0" d="M380.3,567.4v20.1H372l-1.1-21.9v-6.1h2.8c1.1-0.6,2.1-1.6,3-3c0.9-1.4,1.8-3.7,2.6-6.9   c0.9-3.2,1.6-7.9,2.3-14l3-25.1h35.3v49h8.3v6.1l-0.9,21.9h-8.3v-20.1H380.3z M390.1,537.5c-0.6,5.6-1.5,10.2-2.5,13.7   c-1.1,3.5-2.2,6.3-3.6,8.3h26.4v-41.2h-18.1L390.1,537.5z"/>
	<path class="st0" d="M471.2,567.4v-22.7c-1.9,0.4-3.7,0.7-5.1,0.9c-1.5,0.2-3.5,0.3-6,0.3c-7.2,0-12.7-1.5-16.7-4.6   c-4-3-6-8.1-6-15.2v-15.6h9.6v15.6c0,4.2,1.2,7.3,3.6,9.1c2.4,1.9,6.2,2.8,11.4,2.8c1.7,0,3.3-0.1,4.7-0.3c1.4-0.2,2.9-0.4,4.6-0.8   v-26.4h9.6v56.8H471.2z"/>
	<path class="st0" d="M500,567.4v-56.8h9.4v23.6c0,3-0.1,6.4-0.3,10c-0.2,3.6-0.4,7.3-0.6,10.9h0.5c1.1-1.8,2.4-3.8,3.8-6.1   c1.4-2.3,2.7-4.3,3.7-6l21.5-32.4h9v56.8h-9.4v-23.6c0-3,0.1-6.4,0.3-10.1c0.2-3.7,0.4-7.3,0.6-11H538c-1,1.7-2.3,3.7-3.7,6.1   c-1.5,2.3-2.7,4.4-3.7,6.1l-21.6,32.5H500z"/>
	<path class="st0" d="M566,567.4v-56.8h9.6v23.4h11l5.6-12.6c1.6-3.4,3.1-6,4.6-7.8c1.5-1.8,3.1-2.9,4.8-3.5   c1.7-0.6,3.6-0.9,5.6-0.9c1.2,0,2.3,0.2,3.3,0.6l-1.6,9c-0.5-0.2-1.1-0.2-1.9-0.2c-1.5,0-2.8,0.4-4.1,1.3c-1.2,0.9-2.7,3-4.2,6.4   l-4.8,11.2l19.3,29.9h-10.5l-15.8-25.6h-11.2v25.6H566z"/>
	<path class="st0" d="M644.4,568.8c-4.6,0-8.9-1.2-12.9-3.5c-4-2.3-7.3-5.7-9.7-10.2c-2.5-4.4-3.7-9.8-3.7-16   c0-6.4,1.2-11.8,3.7-16.3c2.5-4.4,5.7-7.8,9.7-10.2c4-2.3,8.3-3.5,12.9-3.5c4.7,0,9,1.2,13,3.5c4,2.3,7.2,5.7,9.6,10.2   c2.5,4.4,3.7,9.9,3.7,16.3c0,6.2-1.2,11.6-3.7,16c-2.5,4.4-5.7,7.8-9.6,10.2C653.4,567.6,649.1,568.8,644.4,568.8z M644.4,560.8   c4.9,0,8.9-2,11.9-6c3-4,4.5-9.3,4.5-15.7c0-6.5-1.5-11.9-4.5-15.9c-3-4.1-7-6.1-11.9-6.1c-4.8,0-8.8,2-11.8,6.1   c-3,4.1-4.6,9.4-4.6,15.9c0,6.5,1.5,11.7,4.6,15.7C635.6,558.8,639.6,560.8,644.4,560.8z"/>
	<path class="st0" d="M685.7,567.4v-56.8h21.9c6.2,0,11.3,1.1,15.1,3.3c3.9,2.2,5.8,5.9,5.8,11.1c0,3.1-0.8,5.7-2.5,7.8   c-1.7,2.1-4,3.5-7,4.4v0.4c3.2,0.8,6,2.2,8.4,4.3c2.4,2.1,3.6,5.2,3.6,9.4c0,5.6-2.1,9.7-6.3,12.3c-4.2,2.6-9.6,3.9-16.1,3.9H685.7   z M695.2,534.4h10.8c4.8,0,8.1-0.8,10.2-2.3c2-1.5,3-3.6,3-6.3c0-2.6-1-4.7-3-6.2c-2-1.5-5.2-2.2-9.5-2.2h-11.5V534.4z    M695.2,560.5h12.3c4.7,0,8.2-0.9,10.5-2.6c2.3-1.8,3.5-4.2,3.5-7.3c0-2.9-1.2-5.1-3.6-6.8c-2.4-1.6-6-2.5-10.9-2.5h-11.7V560.5z"/>
	<path class="st0" d="M601.5,350.6v-22.5h-10.5h-0.1l-15.7,22.5h-10.9l17.3-23.7c-3.6-1.1-6.6-2.9-9.2-5.6   c-2.5-2.6-3.8-6.2-3.8-10.7c0-4.2,1-7.5,2.9-10c1.9-2.5,4.6-4.2,8-5.3c3.4-1.1,7.2-1.6,11.4-1.6h20.1v56.8H601.5z M592.6,321.2h8.9   v-19.9h-8.9c-4.4,0-7.9,0.8-10.5,2.3c-2.5,1.5-3.8,4-3.8,7.3c0,3.4,1.3,5.9,3.8,7.7C584.6,320.3,588.1,321.2,592.6,321.2z"/>
</g>
</svg>