<?xml version="1.0" encoding="utf-8"?>
<!-- Generator: Adobe Illustrator 24.0.0, SVG Export Plug-In . SVG Version: 6.00 Build 0)  -->
<svg version="1.1" id="Layer_1" xmlns="http://www.w3.org/2000/svg" xmlns:xlink="http://www.w3.org/1999/xlink" x="0px" y="0px"
	 width="217.7px" height="43.5px" viewBox="0 0 217.7 43.5" style="enable-background:new 0 0 217.7 43.5;" xml:space="preserve">
<style type="text/css">
	.st0{display:none;}
	.st1{display:inline;}
	.st2{fill:#00306E;}
</style>
<g class="st0">
	<path class="st1" d="M108.6,14.6l3.1-8.1h1.2l3.3,8.1h-1.2l-0.9-2.5h-3.4l-0.9,2.5H108.6z M110.9,11.3h2.7L112.8,9
		c-0.3-0.7-0.4-1.2-0.6-1.7c-0.1,0.5-0.2,1-0.4,1.5L110.9,11.3z"/>
	<path class="st1" d="M120.7,12.5l1,0.1c-0.1,0.7-0.4,1.2-0.8,1.6c-0.4,0.4-1,0.6-1.6,0.6c-0.8,0-1.4-0.3-1.9-0.8
		c-0.5-0.5-0.7-1.3-0.7-2.3c0-0.6,0.1-1.2,0.3-1.7c0.2-0.5,0.5-0.8,1-1.1c0.4-0.2,0.9-0.4,1.4-0.4c0.6,0,1.2,0.2,1.6,0.5
		c0.4,0.3,0.7,0.8,0.8,1.4l-1,0.1c-0.1-0.4-0.3-0.7-0.5-0.9c-0.2-0.2-0.5-0.3-0.8-0.3c-0.5,0-0.9,0.2-1.2,0.5
		c-0.3,0.4-0.5,0.9-0.5,1.7c0,0.8,0.2,1.4,0.5,1.7s0.7,0.5,1.2,0.5c0.4,0,0.7-0.1,1-0.4C120.4,13.3,120.6,13,120.7,12.5z"/>
	<path class="st1" d="M126.3,12.5l1,0.1c-0.1,0.7-0.4,1.2-0.8,1.6c-0.4,0.4-1,0.6-1.6,0.6c-0.8,0-1.4-0.3-1.9-0.8
		c-0.5-0.5-0.7-1.3-0.7-2.3c0-0.6,0.1-1.2,0.3-1.7c0.2-0.5,0.5-0.8,1-1.1c0.4-0.2,0.9-0.4,1.4-0.4c0.6,0,1.2,0.2,1.6,0.5
		c0.4,0.3,0.7,0.8,0.8,1.4l-1,0.1c-0.1-0.4-0.3-0.7-0.5-0.9c-0.2-0.2-0.5-0.3-0.8-0.3c-0.5,0-0.9,0.2-1.2,0.5
		c-0.3,0.4-0.5,0.9-0.5,1.7c0,0.8,0.2,1.4,0.5,1.7s0.7,0.5,1.2,0.5c0.4,0,0.7-0.1,1-0.4C126.1,13.3,126.3,13,126.3,12.5z"/>
	<path class="st1" d="M127.9,11.7c0-1.1,0.3-1.9,0.9-2.4c0.5-0.4,1.1-0.7,1.8-0.7c0.8,0,1.5,0.3,2,0.8c0.5,0.5,0.8,1.3,0.8,2.2
		c0,0.8-0.1,1.3-0.3,1.8c-0.2,0.4-0.6,0.8-1,1c-0.4,0.2-0.9,0.4-1.4,0.4c-0.8,0-1.5-0.3-2-0.8C128.2,13.4,127.9,12.7,127.9,11.7z
		 M128.9,11.7c0,0.8,0.2,1.3,0.5,1.7c0.3,0.4,0.7,0.6,1.2,0.6c0.5,0,0.9-0.2,1.2-0.6c0.3-0.4,0.5-0.9,0.5-1.7c0-0.7-0.2-1.3-0.5-1.6
		c-0.3-0.4-0.7-0.6-1.2-0.6c-0.5,0-0.9,0.2-1.2,0.6S128.9,10.9,128.9,11.7z"/>
	<path class="st1" d="M134.6,8.7h1v5h2.7v-5h1v5h0.6v2.5h-0.8v-1.7h-4.6V8.7z"/>
	<path class="st1" d="M141,8.7h1v4.5l2.8-4.5h1.1v5.9h-1v-4.4l-2.8,4.4H141V8.7z"/>
	<path class="st1" d="M151.2,13.9c-0.4,0.3-0.7,0.5-1.1,0.7c-0.3,0.1-0.7,0.2-1.1,0.2c-0.6,0-1.1-0.2-1.5-0.5
		c-0.3-0.3-0.5-0.7-0.5-1.2c0-0.3,0.1-0.5,0.2-0.8c0.1-0.2,0.3-0.4,0.5-0.6c0.2-0.1,0.4-0.3,0.7-0.3c0.2-0.1,0.5-0.1,0.9-0.1
		c0.8-0.1,1.4-0.2,1.8-0.3c0-0.1,0-0.2,0-0.3c0-0.4-0.1-0.7-0.3-0.9c-0.3-0.2-0.6-0.3-1.1-0.3c-0.5,0-0.8,0.1-1,0.2
		c-0.2,0.2-0.4,0.5-0.5,0.9l-1-0.1c0.1-0.4,0.2-0.8,0.4-1c0.2-0.3,0.5-0.5,0.9-0.6c0.4-0.1,0.8-0.2,1.3-0.2c0.5,0,0.9,0.1,1.2,0.2
		s0.5,0.3,0.7,0.4c0.1,0.2,0.2,0.4,0.3,0.7c0,0.2,0,0.5,0,0.9v1.3c0,0.9,0,1.5,0.1,1.8c0,0.2,0.1,0.5,0.3,0.7h-1
		C151.3,14.4,151.2,14.2,151.2,13.9z M151.1,11.7c-0.4,0.1-0.9,0.3-1.6,0.4c-0.4,0.1-0.7,0.1-0.9,0.2c-0.2,0.1-0.3,0.2-0.4,0.3
		c-0.1,0.1-0.1,0.3-0.1,0.5c0,0.3,0.1,0.5,0.3,0.7c0.2,0.2,0.5,0.3,0.9,0.3c0.4,0,0.7-0.1,1-0.3c0.3-0.2,0.5-0.4,0.7-0.7
		c0.1-0.2,0.2-0.6,0.2-1V11.7z"/>
	<path class="st1" d="M153.7,8.7h1v5h2.7v-5h1v5h0.6v2.5h-0.8v-1.7h-4.6V8.7z"/>
	<path class="st1" d="M160.1,8.7h1v4.5l2.8-4.5h1.1v5.9h-1v-4.4l-2.8,4.4h-1.1V8.7z"/>
	<path class="st1" d="M108.6,19.8h4.6v5.9h-1v-5h-2.6v5h-1V19.8z"/>
	<path class="st1" d="M114.7,27.9v-8.1h0.9v0.8c0.2-0.3,0.5-0.5,0.7-0.7c0.3-0.1,0.6-0.2,1-0.2c0.5,0,0.9,0.1,1.3,0.4
		s0.7,0.6,0.9,1.1c0.2,0.5,0.3,1,0.3,1.5c0,0.6-0.1,1.1-0.3,1.6c-0.2,0.5-0.5,0.8-0.9,1.1c-0.4,0.3-0.8,0.4-1.3,0.4
		c-0.3,0-0.6-0.1-0.9-0.2s-0.5-0.3-0.6-0.5v2.9H114.7z M115.6,22.8c0,0.8,0.2,1.3,0.5,1.7c0.3,0.4,0.7,0.5,1.1,0.5
		c0.4,0,0.8-0.2,1.1-0.6c0.3-0.4,0.5-1,0.5-1.7c0-0.7-0.2-1.3-0.5-1.7c-0.3-0.4-0.7-0.6-1.1-0.6c-0.4,0-0.8,0.2-1.1,0.6
		C115.7,21.5,115.6,22,115.6,22.8z"/>
	<path class="st1" d="M120.6,22.8c0-1.1,0.3-1.9,0.9-2.4c0.5-0.4,1.1-0.7,1.8-0.7c0.8,0,1.5,0.3,2,0.8c0.5,0.5,0.8,1.3,0.8,2.2
		c0,0.8-0.1,1.3-0.3,1.8c-0.2,0.4-0.6,0.8-1,1c-0.4,0.2-0.9,0.4-1.4,0.4c-0.8,0-1.5-0.3-2-0.8S120.6,23.7,120.6,22.8z M121.6,22.8
		c0,0.8,0.2,1.3,0.5,1.7c0.3,0.4,0.7,0.6,1.2,0.6c0.5,0,0.9-0.2,1.2-0.6c0.3-0.4,0.5-0.9,0.5-1.7c0-0.7-0.2-1.3-0.5-1.6
		c-0.3-0.4-0.7-0.6-1.2-0.6c-0.5,0-0.9,0.2-1.2,0.6C121.8,21.4,121.6,22,121.6,22.8z"/>
	<path class="st1" d="M130.7,17.6h1v2.8c0.2-0.2,0.4-0.4,0.7-0.5c0.2-0.1,0.5-0.2,0.8-0.2c0.7,0,1.2,0.3,1.7,0.9
		c0.4,0.6,0.6,1.3,0.6,2.2c0,0.9-0.2,1.7-0.7,2.2c-0.4,0.6-1,0.8-1.6,0.8c-0.2,0-0.4,0-0.7-0.1c-0.2-0.1-0.5-0.2-0.8-0.5v2.8h-1
		v-2.8c-0.2,0.2-0.4,0.4-0.7,0.5c-0.2,0.1-0.5,0.2-0.8,0.2c-0.6,0-1.2-0.3-1.6-0.8c-0.5-0.5-0.7-1.3-0.7-2.3c0-0.8,0.2-1.6,0.6-2.1
		c0.4-0.6,1-0.9,1.7-0.9c0.3,0,0.6,0.1,0.8,0.2c0.2,0.1,0.5,0.3,0.6,0.5V17.6z M127.9,22.7c0,0.8,0.1,1.4,0.4,1.8
		c0.3,0.4,0.6,0.5,1,0.5c0.4,0,0.8-0.2,1-0.5c0.2-0.4,0.3-0.9,0.3-1.6c0-0.8-0.1-1.4-0.3-1.7c-0.2-0.4-0.6-0.6-1-0.6
		c-0.4,0-0.7,0.2-1,0.6C128,21.4,127.9,22,127.9,22.7z M131.6,22.8c0,0.9,0.1,1.5,0.4,1.8c0.2,0.3,0.5,0.5,0.9,0.5
		c0.4,0,0.7-0.2,1-0.6c0.3-0.4,0.4-1,0.4-1.7c0-0.7-0.1-1.3-0.4-1.7c-0.3-0.4-0.6-0.5-1-0.5c-0.4,0-0.8,0.2-1,0.6
		C131.7,21.4,131.6,22,131.6,22.8z"/>
	<path class="st1" d="M140.5,23.8l1,0.1c-0.2,0.6-0.5,1.1-0.9,1.4s-1,0.5-1.7,0.5c-0.9,0-1.5-0.3-2-0.8c-0.5-0.5-0.8-1.3-0.8-2.2
		c0-1,0.3-1.8,0.8-2.3s1.2-0.8,2-0.8c0.8,0,1.4,0.3,1.9,0.8c0.5,0.5,0.7,1.3,0.7,2.3c0,0.1,0,0.1,0,0.3h-4.4c0,0.6,0.2,1.1,0.5,1.5
		s0.7,0.5,1.2,0.5c0.4,0,0.7-0.1,0.9-0.3C140.2,24.5,140.4,24.2,140.5,23.8z M137.3,22.2h3.3c0-0.5-0.2-0.9-0.4-1.1
		c-0.3-0.4-0.7-0.6-1.2-0.6c-0.5,0-0.8,0.2-1.2,0.5C137.5,21.3,137.3,21.7,137.3,22.2z"/>
	<path class="st1" d="M146.6,23.5l1,0.1c-0.1,0.7-0.4,1.2-0.8,1.6c-0.4,0.4-1,0.6-1.6,0.6c-0.8,0-1.4-0.3-1.9-0.8
		c-0.5-0.5-0.7-1.3-0.7-2.3c0-0.6,0.1-1.2,0.3-1.7c0.2-0.5,0.5-0.8,1-1.1c0.4-0.2,0.9-0.4,1.4-0.4c0.6,0,1.2,0.2,1.6,0.5
		c0.4,0.3,0.7,0.8,0.8,1.4l-1,0.1c-0.1-0.4-0.3-0.7-0.5-0.9c-0.2-0.2-0.5-0.3-0.8-0.3c-0.5,0-0.9,0.2-1.2,0.5
		c-0.3,0.4-0.5,0.9-0.5,1.7c0,0.8,0.2,1.4,0.5,1.7c0.3,0.4,0.7,0.5,1.2,0.5c0.4,0,0.7-0.1,1-0.4C146.4,24.4,146.6,24,146.6,23.5z"/>
	<path class="st1" d="M152.3,23.5l1,0.1c-0.1,0.7-0.4,1.2-0.8,1.6c-0.4,0.4-1,0.6-1.6,0.6c-0.8,0-1.4-0.3-1.9-0.8
		c-0.5-0.5-0.7-1.3-0.7-2.3c0-0.6,0.1-1.2,0.3-1.7s0.5-0.8,1-1.1c0.4-0.2,0.9-0.4,1.4-0.4c0.6,0,1.2,0.2,1.6,0.5
		c0.4,0.3,0.7,0.8,0.8,1.4l-1,0.1c-0.1-0.4-0.3-0.7-0.5-0.9s-0.5-0.3-0.8-0.3c-0.5,0-0.9,0.2-1.2,0.5c-0.3,0.4-0.5,0.9-0.5,1.7
		c0,0.8,0.2,1.4,0.5,1.7c0.3,0.4,0.7,0.5,1.2,0.5c0.4,0,0.7-0.1,1-0.4C152.1,24.4,152.2,24,152.3,23.5z"/>
	<path class="st1" d="M154.1,19.8h1v4.5l2.8-4.5h1.1v5.9h-1v-4.4l-2.8,4.4h-1.1V19.8z"/>
	<path class="st1" d="M160.1,22.8c0-1.1,0.3-1.9,0.9-2.4c0.5-0.4,1.1-0.7,1.8-0.7c0.8,0,1.5,0.3,2,0.8c0.5,0.5,0.8,1.3,0.8,2.2
		c0,0.8-0.1,1.3-0.3,1.8c-0.2,0.4-0.6,0.8-1,1c-0.4,0.2-0.9,0.4-1.4,0.4c-0.8,0-1.5-0.3-2-0.8C160.3,24.5,160.1,23.7,160.1,22.8z
		 M161.1,22.8c0,0.8,0.2,1.3,0.5,1.7c0.3,0.4,0.7,0.6,1.2,0.6c0.5,0,0.9-0.2,1.2-0.6c0.3-0.4,0.5-0.9,0.5-1.7c0-0.7-0.2-1.3-0.5-1.6
		c-0.3-0.4-0.7-0.6-1.2-0.6c-0.5,0-0.9,0.2-1.2,0.6S161.1,22,161.1,22.8z"/>
	<path class="st1" d="M166.7,19.8h1v2.4h2.8v-2.4h1v5.9h-1v-2.6h-2.8v2.6h-1V19.8z"/>
	<path class="st1" d="M176.8,25c-0.4,0.3-0.7,0.5-1.1,0.7s-0.7,0.2-1.1,0.2c-0.6,0-1.1-0.2-1.5-0.5c-0.3-0.3-0.5-0.7-0.5-1.2
		c0-0.3,0.1-0.5,0.2-0.8c0.1-0.2,0.3-0.4,0.5-0.6c0.2-0.1,0.4-0.3,0.7-0.3c0.2-0.1,0.5-0.1,0.9-0.1c0.8-0.1,1.4-0.2,1.8-0.3
		c0-0.1,0-0.2,0-0.3c0-0.4-0.1-0.7-0.3-0.9c-0.3-0.2-0.6-0.3-1.1-0.3c-0.5,0-0.8,0.1-1,0.2c-0.2,0.2-0.4,0.5-0.5,0.9l-1-0.1
		c0.1-0.4,0.2-0.8,0.4-1c0.2-0.3,0.5-0.5,0.9-0.6c0.4-0.1,0.8-0.2,1.3-0.2c0.5,0,0.9,0.1,1.2,0.2c0.3,0.1,0.5,0.3,0.7,0.4
		c0.1,0.2,0.2,0.4,0.3,0.7c0,0.2,0,0.5,0,0.9v1.3c0,0.9,0,1.5,0.1,1.8c0,0.2,0.1,0.5,0.3,0.7h-1C176.9,25.5,176.8,25.2,176.8,25z
		 M176.7,22.7c-0.4,0.1-0.9,0.3-1.6,0.4c-0.4,0.1-0.7,0.1-0.9,0.2c-0.2,0.1-0.3,0.2-0.4,0.3c-0.1,0.1-0.1,0.3-0.1,0.5
		c0,0.3,0.1,0.5,0.3,0.7c0.2,0.2,0.5,0.3,0.9,0.3c0.4,0,0.7-0.1,1-0.3c0.3-0.2,0.5-0.4,0.7-0.7c0.1-0.2,0.2-0.6,0.2-1V22.7z"/>
	<path class="st1" d="M179.7,19.8h4.6v5.9h-1v-5h-2.6v2.9c0,0.7,0,1.1-0.1,1.3c0,0.2-0.2,0.4-0.4,0.6c-0.2,0.2-0.5,0.2-0.9,0.2
		c-0.2,0-0.5,0-0.8,0v-0.8h0.4c0.2,0,0.4,0,0.4-0.1c0.1,0,0.1-0.1,0.2-0.2c0-0.1,0-0.4,0-0.9V19.8z"/>
	<path class="st1" d="M185.8,19.8h1v2.3h1.3c0.8,0,1.5,0.2,1.9,0.5c0.4,0.3,0.7,0.8,0.7,1.3c0,0.5-0.2,0.9-0.6,1.3
		c-0.4,0.3-1,0.5-1.8,0.5h-2.5V19.8z M186.8,24.9h1c0.6,0,1.1-0.1,1.3-0.2s0.4-0.4,0.4-0.7c0-0.3-0.1-0.5-0.3-0.7s-0.6-0.3-1.3-0.3
		h-1.2V24.9z"/>
	<path class="st1" d="M191.7,19.8h1v2.4h2.8v-2.4h1v5.9h-1v-2.6h-2.8v2.6h-1V19.8z"/>
	<path class="st1" d="M198,19.8h1v2.3h1.3c0.8,0,1.5,0.2,1.9,0.5c0.4,0.3,0.7,0.8,0.7,1.3c0,0.5-0.2,0.9-0.6,1.3
		c-0.4,0.3-1,0.5-1.8,0.5H198V19.8z M199,24.9h1c0.6,0,1.1-0.1,1.3-0.2s0.4-0.4,0.4-0.7c0-0.3-0.1-0.5-0.3-0.7s-0.6-0.3-1.3-0.3H199
		V24.9z M203.6,19.8h1v5.9h-1V19.8z"/>
	<path class="st1" d="M205.4,25.7l2.1-3l-2-2.8h1.2l0.9,1.4c0.2,0.3,0.3,0.5,0.4,0.7c0.2-0.2,0.3-0.5,0.4-0.6l1-1.4h1.2l-2,2.8
		l2.2,3.1h-1.2l-1.2-1.8l-0.3-0.5l-1.5,2.3H205.4z"/>
	<path class="st1" d="M108.6,30.9h4.6v5.9h-1v-5h-2.6v5h-1V30.9z"/>
	<path class="st1" d="M118.7,34.9l1,0.1c-0.2,0.6-0.5,1.1-0.9,1.4c-0.4,0.3-1,0.5-1.7,0.5c-0.9,0-1.5-0.3-2-0.8
		c-0.5-0.5-0.8-1.3-0.8-2.2c0-1,0.3-1.8,0.8-2.3c0.5-0.5,1.2-0.8,2-0.8c0.8,0,1.4,0.3,1.9,0.8s0.7,1.3,0.7,2.3c0,0.1,0,0.1,0,0.3
		h-4.4c0,0.6,0.2,1.1,0.5,1.5c0.3,0.3,0.7,0.5,1.2,0.5c0.4,0,0.7-0.1,0.9-0.3C118.3,35.6,118.5,35.3,118.7,34.9z M115.4,33.3h3.3
		c0-0.5-0.2-0.9-0.4-1.1c-0.3-0.4-0.7-0.6-1.2-0.6c-0.5,0-0.8,0.2-1.2,0.5C115.6,32.3,115.5,32.8,115.4,33.3z"/>
	<path class="st1" d="M121,39v-8.1h0.9v0.8c0.2-0.3,0.5-0.5,0.7-0.7c0.3-0.1,0.6-0.2,1-0.2c0.5,0,0.9,0.1,1.3,0.4
		c0.4,0.3,0.7,0.6,0.9,1.1c0.2,0.5,0.3,1,0.3,1.5c0,0.6-0.1,1.1-0.3,1.6c-0.2,0.5-0.5,0.8-0.9,1.1c-0.4,0.3-0.8,0.4-1.3,0.4
		c-0.3,0-0.6-0.1-0.9-0.2c-0.3-0.1-0.5-0.3-0.6-0.5V39H121z M121.9,33.9c0,0.8,0.2,1.3,0.5,1.7c0.3,0.4,0.7,0.5,1.1,0.5
		c0.4,0,0.8-0.2,1.1-0.6c0.3-0.4,0.5-1,0.5-1.7c0-0.7-0.2-1.3-0.5-1.7c-0.3-0.4-0.7-0.6-1.1-0.6c-0.4,0-0.8,0.2-1.1,0.6
		C122,32.5,121.9,33.1,121.9,33.9z"/>
	<path class="st1" d="M131.3,34.9l1,0.1c-0.2,0.6-0.5,1.1-0.9,1.4c-0.4,0.3-1,0.5-1.7,0.5c-0.9,0-1.5-0.3-2-0.8
		c-0.5-0.5-0.8-1.3-0.8-2.2c0-1,0.3-1.8,0.8-2.3c0.5-0.5,1.2-0.8,2-0.8c0.8,0,1.4,0.3,1.9,0.8c0.5,0.5,0.7,1.3,0.7,2.3
		c0,0.1,0,0.1,0,0.3h-4.4c0,0.6,0.2,1.1,0.5,1.5c0.3,0.3,0.7,0.5,1.2,0.5c0.4,0,0.7-0.1,0.9-0.3C130.9,35.6,131.1,35.3,131.3,34.9z
		 M128,33.3h3.3c0-0.5-0.2-0.9-0.4-1.1c-0.3-0.4-0.7-0.6-1.2-0.6c-0.5,0-0.8,0.2-1.2,0.5C128.2,32.3,128,32.8,128,33.3z"/>
	<path class="st1" d="M133.5,30.9h2.3c0.6,0,1,0,1.3,0.1c0.3,0.1,0.5,0.3,0.7,0.5c0.2,0.3,0.3,0.5,0.3,0.9c0,0.3-0.1,0.5-0.2,0.7
		c-0.1,0.2-0.3,0.4-0.5,0.5c0.3,0.1,0.5,0.3,0.7,0.5c0.2,0.3,0.3,0.6,0.3,0.9c0,0.6-0.2,1-0.6,1.2s-0.9,0.4-1.6,0.4h-2.6V30.9z
		 M134.5,33.4h1.1c0.4,0,0.7,0,0.9-0.1c0.2,0,0.3-0.1,0.4-0.3c0.1-0.1,0.2-0.3,0.2-0.5c0-0.3-0.1-0.5-0.3-0.6s-0.6-0.2-1.1-0.2h-1.1
		V33.4z M134.5,35.9h1.3c0.6,0,0.9-0.1,1.2-0.2c0.2-0.1,0.3-0.4,0.3-0.7c0-0.2-0.1-0.4-0.2-0.5c-0.1-0.2-0.3-0.3-0.5-0.3
		c-0.2,0-0.5-0.1-0.9-0.1h-1.2V35.9z"/>
	<path class="st1" d="M139,33.8c0-1.1,0.3-1.9,0.9-2.4c0.5-0.4,1.1-0.7,1.8-0.7c0.8,0,1.5,0.3,2,0.8c0.5,0.5,0.8,1.3,0.8,2.2
		c0,0.8-0.1,1.3-0.3,1.8c-0.2,0.4-0.6,0.8-1,1c-0.4,0.2-0.9,0.4-1.4,0.4c-0.8,0-1.5-0.3-2-0.8C139.3,35.6,139,34.8,139,33.8z
		 M140.1,33.8c0,0.8,0.2,1.3,0.5,1.7c0.3,0.4,0.7,0.6,1.2,0.6c0.5,0,0.9-0.2,1.2-0.6s0.5-0.9,0.5-1.7c0-0.7-0.2-1.3-0.5-1.6
		c-0.3-0.4-0.7-0.6-1.2-0.6c-0.5,0-0.9,0.2-1.2,0.6S140.1,33.1,140.1,33.8z"/>
	<path class="st1" d="M146.2,30.9h4.1v5h0.6v2.5h-0.8v-1.7h-4.6v1.7h-0.8v-2.5h0.5C145.9,35,146.3,33.3,146.2,30.9z M147.1,31.7
		c-0.1,1.9-0.4,3.3-0.9,4.2h3.2v-4.2H147.1z"/>
	<path class="st1" d="M151.7,30.9h1V32c0,0.5,0,0.8,0.1,1c0.1,0.2,0.2,0.4,0.4,0.6c0.2,0.2,0.5,0.2,0.8,0.2c0.4,0,0.9-0.1,1.5-0.3
		v-2.7h1v5.9h-1v-2.4c-0.6,0.2-1.2,0.3-1.7,0.3c-0.4,0-0.8-0.1-1.2-0.3c-0.3-0.2-0.6-0.5-0.7-0.8c-0.1-0.3-0.2-0.7-0.2-1.1V30.9z"/>
	<path class="st1" d="M157.9,30.9h1v4.5l2.8-4.5h1.1v5.9h-1v-4.4l-2.8,4.4h-1.1V30.9z"/>
	<path class="st1" d="M164.2,30.9h1v2.5c0.3,0,0.5-0.1,0.7-0.2c0.1-0.1,0.3-0.5,0.6-1.1c0.2-0.5,0.4-0.8,0.5-0.9s0.3-0.2,0.4-0.3
		c0.2-0.1,0.4-0.1,0.8-0.1h0.2v0.8l-0.3,0c-0.3,0-0.4,0-0.5,0.1c-0.1,0.1-0.2,0.3-0.4,0.7c-0.2,0.4-0.3,0.6-0.4,0.8
		c-0.1,0.1-0.3,0.3-0.6,0.4c0.4,0.1,0.8,0.5,1.3,1.2l1.1,1.8h-1.1l-1.1-1.8c-0.2-0.4-0.4-0.6-0.6-0.7c-0.2-0.1-0.4-0.2-0.6-0.2v2.7
		h-1V30.9z"/>
	<path class="st1" d="M168.9,33.8c0-1.1,0.3-1.9,0.9-2.4c0.5-0.4,1.1-0.7,1.8-0.7c0.8,0,1.5,0.3,2,0.8c0.5,0.5,0.8,1.3,0.8,2.2
		c0,0.8-0.1,1.3-0.3,1.8c-0.2,0.4-0.6,0.8-1,1c-0.4,0.2-0.9,0.4-1.4,0.4c-0.8,0-1.5-0.3-2-0.8C169.2,35.6,168.9,34.8,168.9,33.8z
		 M170,33.8c0,0.8,0.2,1.3,0.5,1.7c0.3,0.4,0.7,0.6,1.2,0.6c0.5,0,0.9-0.2,1.2-0.6s0.5-0.9,0.5-1.7c0-0.7-0.2-1.3-0.5-1.6
		c-0.3-0.4-0.7-0.6-1.2-0.6c-0.5,0-0.9,0.2-1.2,0.6C170.1,32.5,170,33.1,170,33.8z"/>
	<path class="st1" d="M175.6,30.9h2.3c0.6,0,1,0,1.3,0.1c0.3,0.1,0.5,0.3,0.7,0.5c0.2,0.3,0.3,0.5,0.3,0.9c0,0.3-0.1,0.5-0.2,0.7
		c-0.1,0.2-0.3,0.4-0.5,0.5c0.3,0.1,0.5,0.3,0.7,0.5c0.2,0.3,0.3,0.6,0.3,0.9c0,0.6-0.2,1-0.6,1.2s-0.9,0.4-1.6,0.4h-2.6V30.9z
		 M176.6,33.4h1.1c0.4,0,0.7,0,0.9-0.1c0.2,0,0.3-0.1,0.4-0.3c0.1-0.1,0.2-0.3,0.2-0.5c0-0.3-0.1-0.5-0.3-0.6s-0.6-0.2-1.1-0.2h-1.1
		V33.4z M176.6,35.9h1.3c0.6,0,0.9-0.1,1.2-0.2c0.2-0.1,0.3-0.4,0.3-0.7c0-0.2-0.1-0.4-0.2-0.5c-0.1-0.2-0.3-0.3-0.5-0.3
		c-0.2,0-0.5-0.1-0.9-0.1h-1.2V35.9z"/>
	<path class="st1" d="M171.2,8.7v5.9h-1v-2.3h-0.6c-0.3,0-0.6,0-0.8,0.1c-0.2,0.1-0.4,0.4-0.7,0.9l-0.9,1.3H166l1.1-1.6
		c0.3-0.5,0.7-0.8,1-0.8c-0.6-0.1-1-0.3-1.3-0.6c-0.3-0.3-0.4-0.7-0.4-1.1c0-0.5,0.2-0.9,0.5-1.2c0.4-0.3,0.9-0.5,1.6-0.5H171.2z
		 M170.2,9.6h-1.4c-0.6,0-1,0.1-1.1,0.3c-0.2,0.2-0.3,0.4-0.3,0.6c0,0.3,0.1,0.6,0.4,0.8s0.7,0.2,1.3,0.2h1.1V9.6z"/>
</g>
<g class="st0">
	<path class="st1" d="M2.9,40L16.8,3.8H22L36.8,40h-5.5l-4.2-11H12L8,40H2.9z M13.4,25.1h12.3l-3.8-10c-1.2-3-2-5.5-2.6-7.5
		c-0.5,2.3-1.1,4.6-2,6.9L13.4,25.1z"/>
	<path class="st1" d="M40.1,3.8h28.5V40h-4.8V8H44.9V40h-4.8V3.8z"/>
	<path class="st1" d="M76.4,3.8h28.5V40h-4.8V8H81.2V40h-4.8V3.8z"/>
</g>
<g>
	<path class="st2" d="M2.9,41l13-38.4h5.5l13,38.4h-5.2l-3.6-11.7h-14L7.9,41H2.9z M14.6,19.5l-1.8,5.9h11.5l-1.8-5.9
		c-0.7-2.1-1.4-4.3-2-6.4c-0.6-2.1-1.3-4.3-1.9-6.5h-0.2c-0.6,2.2-1.2,4.4-1.8,6.5C16,15.2,15.3,17.3,14.6,19.5z"/>
	<path class="st2" d="M39.9,41V2.5h27.2V41h-4.9V6.6H44.7V41H39.9z"/>
	<path class="st2" d="M77.7,41V2.5h27.2V41H100V6.6H82.5V41H77.7z"/>
</g>
<g>
	<path class="st2" d="M112.6,14.6l2.7-7.8h1.1l2.7,7.8H118l-0.7-2.4h-2.9l-0.8,2.4H112.6z M115,10.2l-0.4,1.2h2.4l-0.4-1.2
		c-0.1-0.4-0.3-0.9-0.4-1.3c-0.1-0.4-0.3-0.9-0.4-1.3h0c-0.1,0.5-0.2,0.9-0.4,1.3C115.3,9.3,115.2,9.7,115,10.2z"/>
	<path class="st2" d="M122.4,14.7c-0.5,0-1-0.1-1.4-0.4c-0.4-0.2-0.7-0.6-1-1c-0.2-0.5-0.4-1-0.4-1.6c0-0.7,0.1-1.2,0.4-1.7
		c0.3-0.5,0.6-0.8,1-1c0.4-0.2,0.9-0.4,1.4-0.4c0.4,0,0.7,0.1,1,0.2c0.3,0.1,0.5,0.3,0.7,0.5l-0.5,0.6c-0.2-0.2-0.3-0.3-0.5-0.4
		c-0.2-0.1-0.4-0.1-0.6-0.1c-0.4,0-0.7,0.1-0.9,0.3c-0.3,0.2-0.5,0.5-0.6,0.8c-0.2,0.3-0.2,0.7-0.2,1.2c0,0.7,0.2,1.2,0.5,1.6
		c0.3,0.4,0.8,0.6,1.3,0.6c0.3,0,0.5-0.1,0.8-0.2c0.2-0.1,0.4-0.3,0.6-0.4l0.4,0.7c-0.3,0.2-0.6,0.4-0.9,0.5
		C123,14.6,122.7,14.7,122.4,14.7z"/>
	<path class="st2" d="M127.6,14.7c-0.5,0-1-0.1-1.4-0.4c-0.4-0.2-0.7-0.6-1-1c-0.2-0.5-0.4-1-0.4-1.6c0-0.7,0.1-1.2,0.4-1.7
		c0.3-0.5,0.6-0.8,1-1c0.4-0.2,0.9-0.4,1.4-0.4c0.4,0,0.7,0.1,1,0.2c0.3,0.1,0.5,0.3,0.7,0.5l-0.5,0.6c-0.2-0.2-0.3-0.3-0.5-0.4
		c-0.2-0.1-0.4-0.1-0.6-0.1c-0.4,0-0.7,0.1-0.9,0.3c-0.3,0.2-0.5,0.5-0.6,0.8c-0.2,0.3-0.2,0.7-0.2,1.2c0,0.7,0.2,1.2,0.5,1.6
		c0.3,0.4,0.8,0.6,1.3,0.6c0.3,0,0.5-0.1,0.8-0.2c0.2-0.1,0.4-0.3,0.6-0.4l0.4,0.7c-0.3,0.2-0.6,0.4-0.9,0.5
		C128.2,14.6,127.9,14.7,127.6,14.7z"/>
	<path class="st2" d="M132.7,14.7c-0.5,0-0.9-0.1-1.3-0.4c-0.4-0.2-0.7-0.6-1-1c-0.3-0.5-0.4-1-0.4-1.6c0-0.7,0.1-1.2,0.4-1.7
		c0.3-0.5,0.6-0.8,1-1c0.4-0.2,0.9-0.4,1.3-0.4c0.5,0,0.9,0.1,1.3,0.4c0.4,0.2,0.7,0.6,1,1c0.3,0.5,0.4,1,0.4,1.7
		c0,0.6-0.1,1.2-0.4,1.6c-0.3,0.5-0.6,0.8-1,1C133.6,14.6,133.2,14.7,132.7,14.7z M132.7,13.9c0.5,0,0.9-0.2,1.2-0.6
		c0.3-0.4,0.5-0.9,0.5-1.6c0-0.7-0.2-1.2-0.5-1.6c-0.3-0.4-0.7-0.6-1.2-0.6c-0.5,0-0.9,0.2-1.2,0.6c-0.3,0.4-0.5,1-0.5,1.6
		c0,0.7,0.2,1.2,0.5,1.6C131.8,13.7,132.2,13.9,132.7,13.9z"/>
	<path class="st2" d="M141.4,16.6v-2.1h-4.5V8.8h1v5h2.6v-5h1v5h0.8v0.6l-0.1,2.2H141.4z"/>
	<path class="st2" d="M143.6,14.6V8.8h1v2.4c0,0.3,0,0.7,0,1c0,0.4,0,0.7-0.1,1.1h0c0.1-0.2,0.2-0.4,0.4-0.6
		c0.1-0.2,0.3-0.4,0.4-0.6l2.2-3.3h0.9v5.8h-1v-2.4c0-0.3,0-0.7,0-1c0-0.4,0-0.7,0.1-1.1h0c-0.1,0.2-0.2,0.4-0.4,0.6
		c-0.2,0.2-0.3,0.4-0.4,0.6l-2.2,3.3H143.6z"/>
	<path class="st2" d="M151.6,14.7c-0.5,0-0.9-0.1-1.2-0.4c-0.3-0.3-0.5-0.7-0.5-1.2c0-0.6,0.3-1.1,0.9-1.5c0.6-0.3,1.5-0.6,2.7-0.7
		c0-0.2,0-0.5-0.1-0.7c-0.1-0.2-0.2-0.4-0.4-0.5c-0.2-0.1-0.4-0.2-0.7-0.2c-0.3,0-0.6,0.1-0.9,0.2c-0.3,0.1-0.6,0.3-0.8,0.4
		l-0.4-0.7c0.3-0.2,0.6-0.3,1-0.5c0.4-0.2,0.8-0.2,1.3-0.2c0.7,0,1.2,0.2,1.5,0.7c0.3,0.4,0.5,1,0.5,1.7v3.6h-0.8l-0.1-0.7h0
		c-0.3,0.2-0.6,0.4-0.9,0.6C152.4,14.6,152,14.7,151.6,14.7z M151.9,13.9c0.3,0,0.5-0.1,0.8-0.2c0.2-0.1,0.5-0.3,0.8-0.6v-1.6
		c-1,0.1-1.6,0.3-2,0.5c-0.4,0.2-0.6,0.5-0.6,0.9c0,0.3,0.1,0.6,0.3,0.7C151.4,13.8,151.6,13.9,151.9,13.9z"/>
	<path class="st2" d="M160.8,16.6v-2.1h-4.5V8.8h1v5h2.6v-5h1v5h0.8v0.6l-0.1,2.2H160.8z"/>
	<path class="st2" d="M162.9,14.6V8.8h1v2.4c0,0.3,0,0.7,0,1c0,0.4,0,0.7-0.1,1.1h0c0.1-0.2,0.2-0.4,0.4-0.6
		c0.1-0.2,0.3-0.4,0.4-0.6l2.2-3.3h0.9v5.8h-1v-2.4c0-0.3,0-0.7,0-1c0-0.4,0-0.7,0.1-1.1h0c-0.1,0.2-0.2,0.4-0.4,0.6
		c-0.2,0.2-0.3,0.4-0.4,0.6l-2.2,3.3H162.9z"/>
	<path class="st2" d="M112.6,25.6v-5.8h4.6v5.8h-1v-5h-2.7v5H112.6z"/>
	<path class="st2" d="M119.2,28.1v-8.3h0.8l0.1,0.7h0c0.3-0.2,0.6-0.4,0.9-0.6c0.3-0.2,0.6-0.2,1-0.2c0.7,0,1.3,0.3,1.7,0.8
		c0.4,0.5,0.6,1.3,0.6,2.2c0,0.7-0.1,1.2-0.4,1.7c-0.2,0.5-0.5,0.8-0.9,1.1c-0.4,0.2-0.8,0.4-1.2,0.4c-0.3,0-0.5-0.1-0.8-0.2
		c-0.3-0.1-0.5-0.3-0.8-0.5l0,1v2H119.2z M121.6,24.9c0.5,0,0.9-0.2,1.2-0.6c0.3-0.4,0.5-1,0.5-1.7c0-0.6-0.1-1.2-0.4-1.5
		c-0.2-0.4-0.6-0.6-1.2-0.6c-0.2,0-0.5,0.1-0.7,0.2c-0.3,0.1-0.5,0.3-0.8,0.6v3c0.3,0.2,0.5,0.4,0.8,0.5
		C121.2,24.9,121.4,24.9,121.6,24.9z"/>
	<path class="st2" d="M128.1,25.8c-0.5,0-0.9-0.1-1.3-0.4c-0.4-0.2-0.7-0.6-1-1c-0.3-0.5-0.4-1-0.4-1.6c0-0.7,0.1-1.2,0.4-1.7
		c0.3-0.5,0.6-0.8,1-1c0.4-0.2,0.9-0.4,1.3-0.4c0.5,0,0.9,0.1,1.3,0.4c0.4,0.2,0.7,0.6,1,1c0.3,0.5,0.4,1,0.4,1.7
		c0,0.6-0.1,1.2-0.4,1.6c-0.3,0.5-0.6,0.8-1,1C129,25.7,128.6,25.8,128.1,25.8z M128.1,25c0.5,0,0.9-0.2,1.2-0.6
		c0.3-0.4,0.5-0.9,0.5-1.6c0-0.7-0.2-1.2-0.5-1.6c-0.3-0.4-0.7-0.6-1.2-0.6c-0.5,0-0.9,0.2-1.2,0.6c-0.3,0.4-0.5,1-0.5,1.6
		c0,0.7,0.2,1.2,0.5,1.6C127.2,24.8,127.6,25,128.1,25z"/>
	<path class="st2" d="M135.3,28.1v-1.9l0-0.9c-0.2,0.1-0.3,0.2-0.5,0.3c-0.2,0.1-0.4,0.1-0.6,0.1c-0.7,0-1.2-0.3-1.6-0.8
		c-0.4-0.5-0.6-1.3-0.6-2.2c0-0.6,0.1-1.2,0.3-1.6c0.2-0.5,0.5-0.8,0.8-1.1c0.3-0.2,0.7-0.4,1.1-0.4c0.2,0,0.4,0,0.6,0.1
		c0.2,0.1,0.4,0.2,0.5,0.3l0-0.9v-2.1h1v2.1l0,0.9c0.2-0.1,0.4-0.2,0.6-0.3c0.2-0.1,0.4-0.1,0.7-0.1c0.7,0,1.2,0.3,1.6,0.8
		c0.4,0.5,0.5,1.3,0.5,2.2c0,0.7-0.1,1.2-0.3,1.7c-0.2,0.5-0.5,0.8-0.8,1.1c-0.3,0.2-0.7,0.4-1.1,0.4c-0.2,0-0.4,0-0.6-0.1
		c-0.2-0.1-0.4-0.2-0.6-0.3l0,0.9v1.9H135.3z M134.3,24.9c0.2,0,0.3,0,0.5-0.1c0.2-0.1,0.3-0.2,0.5-0.3v-3.6
		c-0.2-0.1-0.3-0.2-0.5-0.3c-0.2-0.1-0.3-0.1-0.5-0.1c-0.4,0-0.7,0.2-1,0.6c-0.3,0.4-0.4,0.9-0.4,1.6c0,0.7,0.1,1.2,0.4,1.6
		C133.6,24.8,133.9,24.9,134.3,24.9z M137.2,24.9c0.4,0,0.7-0.2,1-0.6c0.3-0.4,0.4-1,0.4-1.7c0-0.6-0.1-1.2-0.3-1.5
		c-0.2-0.4-0.6-0.6-1-0.6c-0.2,0-0.3,0-0.5,0.1c-0.2,0.1-0.3,0.2-0.5,0.3v3.6c0.2,0.2,0.4,0.3,0.5,0.3
		C136.9,24.9,137,24.9,137.2,24.9z"/>
	<path class="st2" d="M143.5,25.8c-0.5,0-1-0.1-1.4-0.4c-0.4-0.2-0.8-0.6-1-1c-0.2-0.5-0.4-1-0.4-1.6c0-0.6,0.1-1.2,0.4-1.6
		c0.3-0.5,0.6-0.8,1-1.1c0.4-0.2,0.8-0.4,1.3-0.4c0.7,0,1.3,0.2,1.7,0.7c0.4,0.5,0.6,1.2,0.6,2c0,0.1,0,0.2,0,0.3c0,0.1,0,0.2,0,0.3
		h-3.9c0,0.6,0.2,1.1,0.6,1.5c0.3,0.4,0.8,0.5,1.4,0.5c0.3,0,0.5,0,0.8-0.1c0.2-0.1,0.5-0.2,0.7-0.3l0.3,0.6
		c-0.2,0.2-0.5,0.3-0.8,0.4C144.2,25.7,143.9,25.8,143.5,25.8z M141.6,22.3h3.1c0-0.6-0.1-1-0.4-1.3c-0.3-0.3-0.6-0.5-1.1-0.5
		c-0.4,0-0.8,0.2-1.1,0.5C141.9,21.2,141.7,21.7,141.6,22.3z"/>
	<path class="st2" d="M149.3,25.8c-0.5,0-1-0.1-1.4-0.4c-0.4-0.2-0.7-0.6-1-1c-0.2-0.5-0.4-1-0.4-1.6c0-0.7,0.1-1.2,0.4-1.7
		c0.3-0.5,0.6-0.8,1-1c0.4-0.2,0.9-0.4,1.4-0.4c0.4,0,0.7,0.1,1,0.2c0.3,0.1,0.5,0.3,0.7,0.5l-0.5,0.6c-0.2-0.2-0.3-0.3-0.5-0.4
		c-0.2-0.1-0.4-0.1-0.6-0.1c-0.4,0-0.7,0.1-0.9,0.3c-0.3,0.2-0.5,0.5-0.6,0.8c-0.2,0.3-0.2,0.7-0.2,1.2c0,0.7,0.2,1.2,0.5,1.6
		c0.3,0.4,0.8,0.6,1.3,0.6c0.3,0,0.5-0.1,0.8-0.2c0.2-0.1,0.4-0.3,0.6-0.4l0.4,0.7c-0.3,0.2-0.6,0.4-0.9,0.5
		C150,25.7,149.7,25.8,149.3,25.8z"/>
	<path class="st2" d="M154.5,25.8c-0.5,0-1-0.1-1.4-0.4c-0.4-0.2-0.7-0.6-1-1c-0.2-0.5-0.4-1-0.4-1.6c0-0.7,0.1-1.2,0.4-1.7
		c0.3-0.5,0.6-0.8,1-1c0.4-0.2,0.9-0.4,1.4-0.4c0.4,0,0.7,0.1,1,0.2c0.3,0.1,0.5,0.3,0.7,0.5l-0.5,0.6c-0.2-0.2-0.3-0.3-0.5-0.4
		c-0.2-0.1-0.4-0.1-0.6-0.1c-0.4,0-0.7,0.1-0.9,0.3c-0.3,0.2-0.5,0.5-0.6,0.8c-0.2,0.3-0.2,0.7-0.2,1.2c0,0.7,0.2,1.2,0.5,1.6
		c0.3,0.4,0.8,0.6,1.3,0.6c0.3,0,0.5-0.1,0.8-0.2c0.2-0.1,0.4-0.3,0.6-0.4l0.4,0.7c-0.3,0.2-0.6,0.4-0.9,0.5
		C155.2,25.7,154.9,25.8,154.5,25.8z"/>
	<path class="st2" d="M157.7,25.6v-5.8h1v2.4c0,0.3,0,0.7,0,1c0,0.4,0,0.7-0.1,1.1h0c0.1-0.2,0.2-0.4,0.4-0.6
		c0.1-0.2,0.3-0.4,0.4-0.6l2.2-3.3h0.9v5.8h-1v-2.4c0-0.3,0-0.7,0-1c0-0.4,0-0.7,0.1-1.1h0c-0.1,0.2-0.2,0.4-0.4,0.6
		c-0.2,0.2-0.3,0.4-0.4,0.6l-2.2,3.3H157.7z"/>
	<path class="st2" d="M166.7,25.8c-0.5,0-0.9-0.1-1.3-0.4c-0.4-0.2-0.7-0.6-1-1s-0.4-1-0.4-1.6c0-0.7,0.1-1.2,0.4-1.7s0.6-0.8,1-1
		c0.4-0.2,0.9-0.4,1.3-0.4c0.5,0,0.9,0.1,1.3,0.4c0.4,0.2,0.7,0.6,1,1c0.3,0.5,0.4,1,0.4,1.7c0,0.6-0.1,1.2-0.4,1.6
		c-0.3,0.5-0.6,0.8-1,1C167.6,25.7,167.2,25.8,166.7,25.8z M166.7,25c0.5,0,0.9-0.2,1.2-0.6c0.3-0.4,0.5-0.9,0.5-1.6
		c0-0.7-0.2-1.2-0.5-1.6c-0.3-0.4-0.7-0.6-1.2-0.6c-0.5,0-0.9,0.2-1.2,0.6c-0.3,0.4-0.5,1-0.5,1.6c0,0.7,0.2,1.2,0.5,1.6
		C165.8,24.8,166.2,25,166.7,25z"/>
	<path class="st2" d="M170.9,25.6v-5.8h1v2.4h2.8v-2.4h1v5.8h-1V23h-2.8v2.6H170.9z"/>
	<path class="st2" d="M179,25.8c-0.5,0-0.9-0.1-1.2-0.4c-0.3-0.3-0.5-0.7-0.5-1.2c0-0.6,0.3-1.1,0.9-1.5c0.6-0.3,1.5-0.6,2.7-0.7
		c0-0.2,0-0.5-0.1-0.7c-0.1-0.2-0.2-0.4-0.4-0.5c-0.2-0.1-0.4-0.2-0.7-0.2c-0.3,0-0.6,0.1-0.9,0.2c-0.3,0.1-0.6,0.3-0.8,0.4
		l-0.4-0.7c0.3-0.2,0.6-0.3,1-0.5c0.4-0.2,0.8-0.2,1.3-0.2c0.7,0,1.2,0.2,1.5,0.7c0.3,0.4,0.5,1,0.5,1.7v3.6H181l-0.1-0.7h0
		c-0.3,0.2-0.6,0.4-0.9,0.6C179.7,25.7,179.3,25.8,179,25.8z M179.2,25c0.3,0,0.5-0.1,0.8-0.2c0.2-0.1,0.5-0.3,0.8-0.6v-1.6
		c-1,0.1-1.6,0.3-2,0.5c-0.4,0.2-0.6,0.5-0.6,0.9c0,0.3,0.1,0.6,0.3,0.7C178.7,24.9,179,25,179.2,25z"/>
	<path class="st2" d="M183.3,25.8c-0.1,0-0.2,0-0.3,0c-0.1,0-0.2,0-0.3-0.1l0.2-0.9c0,0,0.1,0,0.1,0c0,0,0.1,0,0.1,0
		c0.2,0,0.4-0.1,0.5-0.3c0.1-0.2,0.2-0.5,0.3-0.9c0.1-0.6,0.2-1.3,0.2-1.9c0.1-0.6,0.1-1.3,0.2-1.9h3.6v5.8h-1v-5h-1.8
		c-0.1,0.5-0.1,1.1-0.2,1.6c-0.1,0.5-0.1,1.1-0.2,1.6C184.7,25.1,184.2,25.8,183.3,25.8z"/>
	<path class="st2" d="M190,25.6v-5.8h1V22h1.1c0.7,0,1.2,0.1,1.7,0.4c0.4,0.3,0.6,0.7,0.6,1.4c0,0.6-0.2,1.1-0.6,1.4
		c-0.4,0.3-1,0.4-1.7,0.4H190z M191,24.8h1c1,0,1.4-0.4,1.4-1.1c0-0.4-0.1-0.6-0.4-0.8c-0.2-0.2-0.6-0.3-1.1-0.3h-1V24.8z"/>
	<path class="st2" d="M195.9,25.6v-5.8h1v2.4h2.8v-2.4h1v5.8h-1V23h-2.8v2.6H195.9z"/>
	<path class="st2" d="M202.6,25.6v-5.8h1V22h0.8c0.7,0,1.2,0.1,1.7,0.4c0.4,0.3,0.6,0.7,0.6,1.4c0,0.6-0.2,1.1-0.6,1.4
		c-0.4,0.3-1,0.4-1.7,0.4H202.6z M203.5,24.8h0.7c1,0,1.4-0.4,1.4-1.1c0-0.4-0.1-0.6-0.4-0.8c-0.2-0.2-0.6-0.3-1.1-0.3h-0.7V24.8z
		 M207.7,25.6v-5.8h1v5.8H207.7z"/>
	<path class="st2" d="M209.8,25.6l1.9-3l-1.8-2.8h1.1l0.8,1.3c0.1,0.2,0.2,0.3,0.3,0.5s0.2,0.3,0.3,0.5h0c0.1-0.2,0.2-0.3,0.3-0.5
		c0.1-0.2,0.2-0.3,0.3-0.5l0.7-1.3h1l-1.8,2.9l1.9,2.9h-1.1l-0.8-1.4c-0.1-0.2-0.2-0.4-0.3-0.5c-0.1-0.2-0.2-0.3-0.3-0.5h0
		c-0.1,0.2-0.2,0.3-0.3,0.5c-0.1,0.2-0.2,0.3-0.3,0.5l-0.8,1.4H209.8z"/>
	<path class="st2" d="M112.6,36.7v-5.8h4.6v5.8h-1v-5h-2.7v5H112.6z"/>
	<path class="st2" d="M121.6,36.8c-0.5,0-1-0.1-1.4-0.4c-0.4-0.2-0.8-0.6-1-1c-0.2-0.5-0.4-1-0.4-1.6c0-0.6,0.1-1.2,0.4-1.6
		c0.3-0.5,0.6-0.8,1-1.1c0.4-0.2,0.8-0.4,1.3-0.4c0.7,0,1.3,0.2,1.7,0.7c0.4,0.5,0.6,1.2,0.6,2c0,0.1,0,0.2,0,0.3c0,0.1,0,0.2,0,0.3
		h-3.9c0,0.6,0.2,1.1,0.6,1.5c0.3,0.4,0.8,0.5,1.4,0.5c0.3,0,0.5,0,0.8-0.1c0.2-0.1,0.5-0.2,0.7-0.3l0.3,0.6
		c-0.2,0.2-0.5,0.3-0.8,0.4C122.3,36.8,122,36.8,121.6,36.8z M119.8,33.3h3.1c0-0.6-0.1-1-0.4-1.3c-0.3-0.3-0.6-0.5-1.1-0.5
		c-0.4,0-0.8,0.2-1.1,0.5C120,32.3,119.8,32.8,119.8,33.3z"/>
	<path class="st2" d="M125.2,39.1v-8.3h0.8l0.1,0.7h0c0.3-0.2,0.6-0.4,0.9-0.6c0.3-0.2,0.6-0.2,1-0.2c0.7,0,1.3,0.3,1.7,0.8
		c0.4,0.5,0.6,1.3,0.6,2.2c0,0.7-0.1,1.2-0.4,1.7c-0.2,0.5-0.5,0.8-0.9,1.1c-0.4,0.2-0.8,0.4-1.2,0.4c-0.3,0-0.5-0.1-0.8-0.2
		c-0.3-0.1-0.5-0.3-0.8-0.5l0,1v2H125.2z M127.6,36c0.5,0,0.9-0.2,1.2-0.6c0.3-0.4,0.5-1,0.5-1.7c0-0.6-0.1-1.2-0.4-1.5
		c-0.2-0.4-0.6-0.6-1.2-0.6c-0.2,0-0.5,0.1-0.7,0.2c-0.3,0.1-0.5,0.3-0.8,0.6v3c0.3,0.2,0.5,0.4,0.8,0.5C127.1,36,127.4,36,127.6,36
		z"/>
	<path class="st2" d="M134.1,36.8c-0.5,0-1-0.1-1.4-0.4c-0.4-0.2-0.8-0.6-1-1c-0.2-0.5-0.4-1-0.4-1.6c0-0.6,0.1-1.2,0.4-1.6
		c0.3-0.5,0.6-0.8,1-1.1c0.4-0.2,0.8-0.4,1.3-0.4c0.7,0,1.3,0.2,1.7,0.7c0.4,0.5,0.6,1.2,0.6,2c0,0.1,0,0.2,0,0.3c0,0.1,0,0.2,0,0.3
		h-3.9c0,0.6,0.2,1.1,0.6,1.5c0.3,0.4,0.8,0.5,1.4,0.5c0.3,0,0.5,0,0.8-0.1c0.2-0.1,0.5-0.2,0.7-0.3l0.3,0.6
		c-0.2,0.2-0.5,0.3-0.8,0.4C134.9,36.8,134.5,36.8,134.1,36.8z M132.3,33.3h3.1c0-0.6-0.1-1-0.4-1.3c-0.3-0.3-0.6-0.5-1.1-0.5
		c-0.4,0-0.8,0.2-1.1,0.5C132.6,32.3,132.4,32.8,132.3,33.3z"/>
	<path class="st2" d="M137.7,36.7v-5.8h2.2c0.6,0,1.2,0.1,1.5,0.3c0.4,0.2,0.6,0.6,0.6,1.1c0,0.3-0.1,0.6-0.3,0.8
		c-0.2,0.2-0.4,0.4-0.7,0.4v0c0.3,0.1,0.6,0.2,0.9,0.4c0.2,0.2,0.4,0.5,0.4,1c0,0.6-0.2,1-0.6,1.3c-0.4,0.3-1,0.4-1.6,0.4H137.7z
		 M138.7,33.3h1.1c0.5,0,0.8-0.1,1-0.2c0.2-0.2,0.3-0.4,0.3-0.6c0-0.3-0.1-0.5-0.3-0.6c-0.2-0.2-0.5-0.2-1-0.2h-1.2V33.3z M138.7,36
		h1.3c0.5,0,0.8-0.1,1.1-0.3c0.2-0.2,0.4-0.4,0.4-0.7c0-0.3-0.1-0.5-0.4-0.7c-0.2-0.2-0.6-0.3-1.1-0.3h-1.2V36z"/>
	<path class="st2" d="M146,36.8c-0.5,0-0.9-0.1-1.3-0.4c-0.4-0.2-0.7-0.6-1-1c-0.3-0.5-0.4-1-0.4-1.6c0-0.7,0.1-1.2,0.4-1.7
		c0.3-0.5,0.6-0.8,1-1c0.4-0.2,0.9-0.4,1.3-0.4c0.5,0,0.9,0.1,1.3,0.4c0.4,0.2,0.7,0.6,1,1c0.3,0.5,0.4,1,0.4,1.7
		c0,0.6-0.1,1.2-0.4,1.6c-0.3,0.5-0.6,0.8-1,1C147,36.7,146.5,36.8,146,36.8z M146,36c0.5,0,0.9-0.2,1.2-0.6
		c0.3-0.4,0.5-0.9,0.5-1.6c0-0.7-0.2-1.2-0.5-1.6c-0.3-0.4-0.7-0.6-1.2-0.6c-0.5,0-0.9,0.2-1.2,0.6c-0.3,0.4-0.5,1-0.5,1.6
		c0,0.7,0.2,1.2,0.5,1.6C145.1,35.8,145.5,36,146,36z"/>
	<path class="st2" d="M150.5,36.7v2.1h-0.8l-0.1-2.2v-0.6h0.3c0.1-0.1,0.2-0.2,0.3-0.3c0.1-0.1,0.2-0.4,0.3-0.7
		c0.1-0.3,0.2-0.8,0.2-1.4l0.3-2.6h3.6v5h0.8v0.6l-0.1,2.2h-0.8v-2.1H150.5z M151.5,33.7c-0.1,0.6-0.1,1-0.3,1.4
		c-0.1,0.4-0.2,0.6-0.4,0.8h2.7v-4.2h-1.9L151.5,33.7z"/>
	<path class="st2" d="M159.7,36.7v-2.3c-0.2,0-0.4,0.1-0.5,0.1c-0.2,0-0.4,0-0.6,0c-0.7,0-1.3-0.2-1.7-0.5s-0.6-0.8-0.6-1.6v-1.6h1
		v1.6c0,0.4,0.1,0.7,0.4,0.9c0.2,0.2,0.6,0.3,1.2,0.3c0.2,0,0.3,0,0.5,0c0.1,0,0.3,0,0.5-0.1v-2.7h1v5.8H159.7z"/>
	<path class="st2" d="M162.7,36.7v-5.8h1v2.4c0,0.3,0,0.7,0,1c0,0.4,0,0.7-0.1,1.1h0c0.1-0.2,0.2-0.4,0.4-0.6
		c0.1-0.2,0.3-0.4,0.4-0.6l2.2-3.3h0.9v5.8h-1v-2.4c0-0.3,0-0.7,0-1c0-0.4,0-0.7,0.1-1.1h0c-0.1,0.2-0.2,0.4-0.4,0.6
		c-0.2,0.2-0.3,0.4-0.4,0.6l-2.2,3.3H162.7z"/>
	<path class="st2" d="M169.4,36.7v-5.8h1v2.4h1.1l0.6-1.3c0.2-0.4,0.3-0.6,0.5-0.8c0.2-0.2,0.3-0.3,0.5-0.4c0.2-0.1,0.4-0.1,0.6-0.1
		c0.1,0,0.2,0,0.3,0.1l-0.2,0.9c0,0-0.1,0-0.2,0c-0.2,0-0.3,0-0.4,0.1c-0.1,0.1-0.3,0.3-0.4,0.7l-0.5,1.1l2,3.1h-1.1l-1.6-2.6h-1.1
		v2.6H169.4z"/>
	<path class="st2" d="M177.4,36.8c-0.5,0-0.9-0.1-1.3-0.4c-0.4-0.2-0.7-0.6-1-1s-0.4-1-0.4-1.6c0-0.7,0.1-1.2,0.4-1.7
		c0.3-0.5,0.6-0.8,1-1c0.4-0.2,0.9-0.4,1.3-0.4c0.5,0,0.9,0.1,1.3,0.4c0.4,0.2,0.7,0.6,1,1c0.3,0.5,0.4,1,0.4,1.7
		c0,0.6-0.1,1.2-0.4,1.6s-0.6,0.8-1,1C178.4,36.7,177.9,36.8,177.4,36.8z M177.4,36c0.5,0,0.9-0.2,1.2-0.6c0.3-0.4,0.5-0.9,0.5-1.6
		c0-0.7-0.2-1.2-0.5-1.6c-0.3-0.4-0.7-0.6-1.2-0.6c-0.5,0-0.9,0.2-1.2,0.6c-0.3,0.4-0.5,1-0.5,1.6c0,0.7,0.2,1.2,0.5,1.6
		C176.5,35.8,176.9,36,177.4,36z"/>
	<path class="st2" d="M181.7,36.7v-5.8h2.2c0.6,0,1.2,0.1,1.5,0.3c0.4,0.2,0.6,0.6,0.6,1.1c0,0.3-0.1,0.6-0.3,0.8
		c-0.2,0.2-0.4,0.4-0.7,0.4v0c0.3,0.1,0.6,0.2,0.9,0.4c0.2,0.2,0.4,0.5,0.4,1c0,0.6-0.2,1-0.6,1.3c-0.4,0.3-1,0.4-1.6,0.4H181.7z
		 M182.6,33.3h1.1c0.5,0,0.8-0.1,1-0.2c0.2-0.2,0.3-0.4,0.3-0.6c0-0.3-0.1-0.5-0.3-0.6c-0.2-0.2-0.5-0.2-1-0.2h-1.2V33.3z M182.6,36
		h1.3c0.5,0,0.8-0.1,1.1-0.3c0.2-0.2,0.4-0.4,0.4-0.7c0-0.3-0.1-0.5-0.4-0.7c-0.2-0.2-0.6-0.3-1.1-0.3h-1.2V36z"/>
	<path class="st2" d="M173.1,14.6v-2.3H172h0l-1.6,2.3h-1.1l1.8-2.4c-0.4-0.1-0.7-0.3-0.9-0.6c-0.3-0.3-0.4-0.6-0.4-1.1
		c0-0.4,0.1-0.8,0.3-1c0.2-0.3,0.5-0.4,0.8-0.5c0.3-0.1,0.7-0.2,1.2-0.2h2.1v5.8H173.1z M172.1,11.5h0.9v-2h-0.9
		c-0.5,0-0.8,0.1-1.1,0.2c-0.3,0.2-0.4,0.4-0.4,0.7c0,0.3,0.1,0.6,0.4,0.8C171.3,11.5,171.7,11.5,172.1,11.5z"/>
</g>
</svg>
