<svg width="40" height="40" viewBox="0 0 40 40" fill="none" xmlns="http://www.w3.org/2000/svg">
<path d="M33.3332 16.9684C33.3332 27.5745 19.9998 36.6654 19.9998 36.6654C19.9998 36.6654 6.6665 27.5745 6.6665 16.9684C6.6665 13.3518 8.07126 9.88334 10.5717 7.32603C13.0722 4.76872 16.4636 3.33203 19.9998 3.33203C23.5361 3.33203 26.9274 4.76872 29.4279 7.32603C31.9284 9.88334 33.3332 13.3518 33.3332 16.9684Z" stroke="#161314" stroke-width="2" stroke-linecap="round" stroke-linejoin="round"/>
<path d="M20 21.668C22.7614 21.668 25 19.4294 25 16.668C25 13.9065 22.7614 11.668 20 11.668C17.2386 11.668 15 13.9065 15 16.668C15 19.4294 17.2386 21.668 20 21.668Z" stroke="#161314" stroke-width="2" stroke-linecap="round" stroke-linejoin="round"/>
</svg>
