<svg width="123" height="60" viewBox="0 0 123 60" fill="none" xmlns="http://www.w3.org/2000/svg">
<g filter="url(#filter0_b_78_1973)">
<path fill-rule="evenodd" clip-rule="evenodd" d="M0 4.72728V4.72727H4.72688V0H4.72723V4.72727H9.4545V0H113.909V4.72725H118.682H122.727V4.72731H118.682V9.50005L122.727 9.50005V60L122.727 54.5455V49.0909H117.273L117.273 54.5455H111.818L111.818 60L8.81817 60L8.81817 55.2273H4.04545V60L4.04544 55.2273L0 55.2273H4.04544V50.4545H0V9.45455H4.72688V4.72728H0Z" fill="#408CFF"/>
</g>
<path d="M47.408 24.8H54.576V26.816H49.52V29.376H54.48V31.392H49.52V36H47.408V24.8ZM62.5969 33.6H58.7889L58.2449 36H56.0369L58.7089 24.8H62.6769L65.3489 36H63.1409L62.5969 33.6ZM59.2369 31.584H62.1329L60.8369 25.856H60.5489L59.2369 31.584ZM69.4818 36.128C68.4898 35.9467 67.7218 35.4773 67.1778 34.72C66.6338 33.9627 66.3618 32.9387 66.3618 31.648V29.152C66.3618 27.7013 66.7244 26.576 67.4498 25.776C68.1858 24.976 69.1991 24.576 70.4898 24.576C71.7804 24.576 72.7884 24.976 73.5138 25.776C74.2498 26.576 74.6178 27.7013 74.6178 29.152V31.648C74.6178 32.9387 74.3404 33.9627 73.7858 34.72C73.2418 35.4773 72.4791 35.9467 71.4978 36.128V36.416C71.4978 36.7147 71.6311 36.864 71.8978 36.864H72.8898V38.784H71.0018C70.5644 38.784 70.2018 38.6347 69.9138 38.336C69.6258 38.048 69.4818 37.6853 69.4818 37.248V36.128ZM70.4898 34.304C70.8738 34.304 71.1938 34.24 71.4498 34.112C71.7058 33.984 71.9138 33.808 72.0738 33.584C72.2338 33.36 72.3458 33.0933 72.4098 32.784C72.4738 32.464 72.5058 32.1173 72.5058 31.744V29.056C72.5058 28.704 72.4684 28.3733 72.3938 28.064C72.3191 27.7547 72.2018 27.4827 72.0418 27.248C71.8818 27.0133 71.6738 26.832 71.4178 26.704C71.1618 26.5653 70.8524 26.496 70.4898 26.496C70.1271 26.496 69.8178 26.5653 69.5618 26.704C69.3058 26.832 69.0978 27.0133 68.9378 27.248C68.7778 27.4827 68.6604 27.7547 68.5858 28.064C68.5111 28.3733 68.4738 28.704 68.4738 29.056V31.744C68.4738 32.1173 68.5058 32.464 68.5698 32.784C68.6338 33.0933 68.7458 33.36 68.9058 33.584C69.0658 33.808 69.2738 33.984 69.5298 34.112C69.7858 34.24 70.1058 34.304 70.4898 34.304Z" fill="white"/>
<defs>
<filter id="filter0_b_78_1973" x="-45" y="-45" width="212.727" height="150" filterUnits="userSpaceOnUse" color-interpolation-filters="sRGB">
<feFlood flood-opacity="0" result="BackgroundImageFix"/>
<feGaussianBlur in="BackgroundImageFix" stdDeviation="22.5"/>
<feComposite in2="SourceAlpha" operator="in" result="effect1_backgroundBlur_78_1973"/>
<feBlend mode="normal" in="SourceGraphic" in2="effect1_backgroundBlur_78_1973" result="shape"/>
</filter>
</defs>
</svg>
