<svg width="500" height="52" viewBox="0 0 500 52" fill="none" xmlns="http://www.w3.org/2000/svg">
<g filter="url(#filter0_b_89_745)">
<mask id="path-1-inside-1_89_745" fill="white">
<path fill-rule="evenodd" clip-rule="evenodd" d="M0 0H496L493.194 5.4121e-05H493.194H490.001V3.33337H493.194V6.66669H496V7V10H500V42H496V45V45.3333H493.194V48.6666V52H493.193V48.6667H490V52L9.58053 52V48.6667H6.38715V52H6.38695V48.6667V45.3334H3.19357V48.6667V52H3.19335V48.6667V45.3334V42.0001H0V0ZM9.58093 3.33344V0.000121826H6.38755V3.33344H9.58093ZM6.38736 0.000122166V3.33344H3.19398V0.000122166H6.38736ZM3.19379 3.33344V0.000122029H0.000409842V3.33344H3.19379ZM3.19379 3.3335V6.66682H3.19339V10.0001H9.77516e-06V6.66675H0.000410318V3.3335H3.19379ZM6.38736 3.3335V6.66682H3.19398V3.3335H6.38736Z"/>
</mask>
<path fill-rule="evenodd" clip-rule="evenodd" d="M0 0H496L493.194 5.4121e-05H493.194H490.001V3.33337H493.194V6.66669H496V7V10H500V42H496V45V45.3333H493.194V48.6666V52H493.193V48.6667H490V52L9.58053 52V48.6667H6.38715V52H6.38695V48.6667V45.3334H3.19357V48.6667V52H3.19335V48.6667V45.3334V42.0001H0V0ZM9.58093 3.33344V0.000121826H6.38755V3.33344H9.58093ZM6.38736 0.000122166V3.33344H3.19398V0.000122166H6.38736ZM3.19379 3.33344V0.000122029H0.000409842V3.33344H3.19379ZM3.19379 3.3335V6.66682H3.19339V10.0001H9.77516e-06V6.66675H0.000410318V3.3335H3.19379ZM6.38736 3.3335V6.66682H3.19398V3.3335H6.38736Z" fill="white" fill-opacity="0.05"/>
<path d="M496 0L496 1L496 -1V0ZM-6.10352e-05 0V-1H-1.00006V0H-6.10352e-05ZM493.194 5.4121e-05V1.00005H493.194L493.194 5.4121e-05ZM490.001 5.4121e-05V-0.999946H489.001V5.4121e-05H490.001ZM490.001 3.33337H489.001V4.33337H490.001V3.33337ZM493.194 3.33337H494.194V2.33337H493.194V3.33337ZM493.194 6.66669H492.194V7.66669H493.194V6.66669ZM496 6.66669H497V5.66669H496V6.66669ZM496 10H495V11H496V10ZM500 10H501V9H500V10ZM500 42V43H501V42H500ZM496 42V41H495V42H496ZM496 45.3333V46.3333H497V45.3333H496ZM493.194 45.3333V44.3333H492.194V45.3333H493.194ZM493.194 52V53H494.194V52H493.194ZM493.193 52H492.193V53H493.193V52ZM493.193 48.6667H494.193V47.6667H493.193V48.6667ZM490 48.6667V47.6667H489V48.6667H490ZM490 52V53H491V52H490ZM9.58047 52H8.58047V53H9.58047V52ZM9.58047 48.6667H10.5805V47.6667H9.58047V48.6667ZM6.38709 48.6667V47.6667H5.38709V48.6667H6.38709ZM6.38709 52V53H7.38709V52H6.38709ZM6.38689 52H5.38689V53H6.38689V52ZM6.38689 45.3334H7.38689V44.3334H6.38689V45.3334ZM3.19351 45.3334V44.3334H2.19351V45.3334H3.19351ZM3.19351 52V53H4.19351V52H3.19351ZM3.19329 52H2.19329V53H3.19329V52ZM3.19329 42.0001H4.19329V41.0001H3.19329V42.0001ZM-6.10352e-05 42.0001H-1.00006V43.0001H-6.10352e-05V42.0001ZM9.58087 0.000121826H10.5809V-0.999878H9.58087V0.000121826ZM9.58087 3.33344V4.33344H10.5809V3.33344H9.58087ZM6.38749 0.000121826V-0.999878H5.38749V0.000121826H6.38749ZM6.38749 3.33344H5.38749V4.33344H6.38749V3.33344ZM6.3873 3.33344V4.33344H7.3873V3.33344H6.3873ZM6.3873 0.000122166H7.3873V-0.999878H6.3873V0.000122166ZM3.19392 3.33344H2.19392V4.33344H3.19392V3.33344ZM3.19392 0.000122166V-0.999878H2.19392V0.000122166H3.19392ZM3.19373 0.000122029H4.19373V-0.999878H3.19373V0.000122029ZM3.19373 3.33344V4.33344H4.19373V3.33344H3.19373ZM0.000348806 0.000122029V-0.999878H-0.999651V0.000122029H0.000348806ZM0.000348806 3.33344H-0.999651V4.33344H0.000348806V3.33344ZM3.19373 6.66682V7.66682H4.19373V6.66682H3.19373ZM3.19373 3.3335H4.19373V2.3335H3.19373V3.3335ZM3.19333 6.66682V5.66682H2.19333V6.66682H3.19333ZM3.19333 10.0001V11.0001H4.19333V10.0001H3.19333ZM-5.126e-05 10.0001H-1.00005V11.0001H-5.126e-05V10.0001ZM-5.126e-05 6.66675V5.66675H-1.00005V6.66675H-5.126e-05ZM0.000349283 6.66675V7.66675H1.00035V6.66675H0.000349283ZM0.000349283 3.3335V2.3335H-0.999651V3.3335H0.000349283ZM6.3873 6.66682V7.66682H7.3873V6.66682H6.3873ZM6.3873 3.3335H7.3873V2.3335H6.3873V3.3335ZM3.19392 6.66682H2.19392V7.66682H3.19392V6.66682ZM3.19392 3.3335V2.3335H2.19392V3.3335H3.19392ZM496 -1H-6.10352e-05V1H496V-1ZM493.194 1.00005L496 1L496 -1L493.194 -0.999946L493.194 1.00005ZM493.194 1.00005H493.194V-0.999946H493.194V1.00005ZM490.001 1.00005H493.194V-0.999946H490.001V1.00005ZM491.001 3.33337V5.4121e-05H489.001V3.33337H491.001ZM493.194 2.33337H490.001V4.33337H493.194V2.33337ZM492.194 3.33337V6.66669H494.194V3.33337H492.194ZM493.194 7.66669H496V5.66669H493.194V7.66669ZM497 7V6.66669H495V7H497ZM497 10V7H495V10H497ZM500 9H496V11H500V9ZM501 42V10H499V42H501ZM496 43H500V41H496V43ZM497 45V42H495V45H497ZM497 45.3333V45H495V45.3333H497ZM493.194 46.3333H496V44.3333H493.194V46.3333ZM494.194 48.6666V45.3333H492.194V48.6666H494.194ZM494.194 52V48.6666H492.194V52H494.194ZM493.193 53H493.194V51H493.193V53ZM492.193 48.6667V52H494.193V48.6667H492.193ZM490 49.6667H493.193V47.6667H490V49.6667ZM491 52V48.6667H489V52H491ZM9.58047 53L490 53V51L9.58047 51V53ZM8.58047 48.6667V52H10.5805V48.6667H8.58047ZM6.38709 49.6667H9.58047V47.6667H6.38709V49.6667ZM7.38709 52V48.6667H5.38709V52H7.38709ZM6.38689 53H6.38709V51H6.38689V53ZM5.38689 48.6667V52H7.38689V48.6667H5.38689ZM5.38689 45.3334V48.6667H7.38689V45.3334H5.38689ZM3.19351 46.3334H6.38689V44.3334H3.19351V46.3334ZM4.19351 48.6667V45.3334H2.19351V48.6667H4.19351ZM4.19351 52V48.6667H2.19351V52H4.19351ZM3.19329 53H3.19351V51H3.19329V53ZM2.19329 48.6667V52H4.19329V48.6667H2.19329ZM2.19329 45.3334V48.6667H4.19329V45.3334H2.19329ZM2.19329 42.0001V45.3334H4.19329V42.0001H2.19329ZM-6.10352e-05 43.0001H3.19329V41.0001H-6.10352e-05V43.0001ZM-1.00006 0V42.0001H0.999939V0H-1.00006ZM8.58087 0.000121826V3.33344H10.5809V0.000121826H8.58087ZM6.38749 1.00012H9.58087V-0.999878H6.38749V1.00012ZM7.38749 3.33344V0.000121826H5.38749V3.33344H7.38749ZM9.58087 2.33344H6.38749V4.33344H9.58087V2.33344ZM7.3873 3.33344V0.000122166H5.3873V3.33344H7.3873ZM3.19392 4.33344H6.3873V2.33344H3.19392V4.33344ZM2.19392 0.000122166V3.33344H4.19392V0.000122166H2.19392ZM6.3873 -0.999878H3.19392V1.00012H6.3873V-0.999878ZM2.19373 0.000122029V3.33344H4.19373V0.000122029H2.19373ZM0.000348806 1.00012H3.19373V-0.999878H0.000348806V1.00012ZM1.00035 3.33344V0.000122029H-0.999651V3.33344H1.00035ZM3.19373 2.33344H0.000348806V4.33344H3.19373V2.33344ZM4.19373 6.66682V3.3335H2.19373V6.66682H4.19373ZM3.19333 7.66682H3.19373V5.66682H3.19333V7.66682ZM4.19333 10.0001V6.66682H2.19333V10.0001H4.19333ZM-5.126e-05 11.0001H3.19333V9.00007H-5.126e-05V11.0001ZM-1.00005 6.66675V10.0001H0.999949V6.66675H-1.00005ZM0.000349283 5.66675H-5.126e-05V7.66675H0.000349283V5.66675ZM-0.999651 3.3335V6.66675H1.00035V3.3335H-0.999651ZM3.19373 2.3335H0.000349283V4.3335H3.19373V2.3335ZM7.3873 6.66682V3.3335H5.3873V6.66682H7.3873ZM3.19392 7.66682H6.3873V5.66682H3.19392V7.66682ZM2.19392 3.3335V6.66682H4.19392V3.3335H2.19392ZM6.3873 2.3335H3.19392V4.3335H6.3873V2.3335Z" fill="white" fill-opacity="0.15" mask="url(#path-1-inside-1_89_745)"/>
</g>
<path fill-rule="evenodd" clip-rule="evenodd" d="M44.5183 5H44.5184V7.48182H47V7.48196H44.5184V9.96371V9.96378V12.4455V12.4455V14.9273H47V47L14.9272 47V44.5182H12.4454L12.4454 47V44.5182H9.96366H9.96359H7.48184L7.48184 47H7.48177L7.48178 44.5182H5.00006V44.518H7.48177L7.48177 42.0363V42.0362L7.48178 39.5545V39.5545L7.48178 37.0727H5.00006V14.9273H7.48187V12.4455H5.00006V12.4454H7.48186V9.96368V9.96362V7.48186H5.00006V7.48183H7.48186V5.00001L5.00006 5.00001V5H37.0729V7.48182H39.5547V5H39.5548V7.48182H42.0365H42.0366H44.5183V5ZM12.4455 5.00001L14.9273 5.00001V7.48183L12.4455 7.48183H9.96379H9.96373H7.48197L7.48197 5.00001L9.96373 5.00001L9.96379 5.00001L12.4455 5.00001ZM12.4455 7.48186H9.96379H9.96373H7.48197V9.96362V9.96368V12.4454H9.96379V9.96368H12.4455V7.48186ZM44.5183 9.96378V12.4455H42.0365V9.96378H39.5548V7.48196H42.0365H42.0366H44.5183V9.96371V9.96378ZM39.5545 44.5181H37.0727V46.9999H39.5545H39.5546H42.0362H42.0363H44.518V44.5181V42.0364V42.0363V39.5546H42.0362V42.0363H39.5545V44.5181ZM44.5182 42.0364V44.5181V46.9999H47V44.5181V42.0364V42.0363V39.5546H44.5182V42.0363V42.0364ZM47 37.0727V39.5546H44.5182V37.0727H47ZM7.48184 42.0362L7.48184 39.5545H9.96366V42.0362H12.4454V44.518H9.96366H9.96359H7.48184L7.48184 42.0363V42.0362Z" fill="#447EF7"/>
<path d="M31 21V18.5H30.1667V17.6667H26.8333V18.5H26H25.1667V17.6667H21.8333V18.5H21V21H17.6667V26H18.5V34.3334H33.5V26H34.3333V21H31ZM32.6667 24.3334H26.8333V22.6667H32.6667V24.3334ZM31.8333 32.6667H26.8333V26H31.8333V32.6667ZM20.1667 26H25.1667V32.6667H20.1667V26ZM19.3333 22.6667H25.1667V24.3334H19.3333V22.6667ZM22.6667 19.3334H24.3333V20.1667H25.1667V21H22.6667V19.3334ZM27.6667 19.3334H29.3333V21H26.8333V20.1667H27.6667V19.3334Z" fill="white"/>
<path opacity="0.35" d="M57.028 27.544V31H56.02V22.6H59.02C59.452 22.6 59.828 22.664 60.148 22.792C60.468 22.912 60.732 23.076 60.94 23.284C61.156 23.492 61.316 23.736 61.42 24.016C61.532 24.288 61.588 24.576 61.588 24.88V25.24C61.588 25.544 61.532 25.836 61.42 26.116C61.316 26.396 61.156 26.644 60.94 26.86C60.724 27.068 60.456 27.236 60.136 27.364C59.816 27.484 59.444 27.544 59.02 27.544H57.028ZM57.028 26.608H58.9C60.02 26.608 60.58 26.128 60.58 25.168V24.952C60.58 24.528 60.44 24.188 60.16 23.932C59.888 23.668 59.468 23.536 58.9 23.536H57.028V26.608ZM63.0557 25.048H65.2157V25.84H65.3597C65.5117 25.512 65.7277 25.272 66.0077 25.12C66.2877 24.96 66.6077 24.88 66.9677 24.88C67.5677 24.88 68.0517 25.076 68.4197 25.468C68.7877 25.86 68.9837 26.432 69.0077 27.184L68.0237 27.328C68.0237 26.776 67.8917 26.38 67.6277 26.14C67.3637 25.892 67.0397 25.768 66.6557 25.768C66.4077 25.768 66.1917 25.816 66.0077 25.912C65.8317 26.008 65.6837 26.14 65.5637 26.308C65.4437 26.476 65.3557 26.672 65.2997 26.896C65.2437 27.12 65.2157 27.36 65.2157 27.616V30.136H66.7277V31H62.9117V30.136H64.2797V25.912H63.0557V25.048ZM76.3553 28.096C76.3553 28.592 76.2713 29.032 76.1033 29.416C75.9433 29.792 75.7273 30.112 75.4553 30.376C75.1833 30.632 74.8633 30.828 74.4953 30.964C74.1353 31.1 73.7593 31.168 73.3673 31.168C72.9673 31.168 72.5873 31.1 72.2273 30.964C71.8673 30.828 71.5513 30.632 71.2793 30.376C71.0073 30.112 70.7873 29.792 70.6193 29.416C70.4593 29.032 70.3793 28.592 70.3793 28.096V27.952C70.3793 27.464 70.4593 27.032 70.6193 26.656C70.7873 26.272 71.0073 25.948 71.2793 25.684C71.5593 25.42 71.8793 25.22 72.2393 25.084C72.5993 24.948 72.9753 24.88 73.3673 24.88C73.7593 24.88 74.1353 24.948 74.4953 25.084C74.8553 25.22 75.1713 25.42 75.4433 25.684C75.7233 25.948 75.9433 26.272 76.1033 26.656C76.2713 27.032 76.3553 27.464 76.3553 27.952V28.096ZM73.3673 30.28C73.6553 30.28 73.9193 30.232 74.1593 30.136C74.4073 30.032 74.6233 29.884 74.8073 29.692C74.9913 29.5 75.1353 29.272 75.2393 29.008C75.3433 28.736 75.3953 28.432 75.3953 28.096V27.952C75.3953 27.632 75.3433 27.34 75.2393 27.076C75.1353 26.804 74.9913 26.572 74.8073 26.38C74.6233 26.188 74.4073 26.04 74.1593 25.936C73.9113 25.824 73.6473 25.768 73.3673 25.768C73.0873 25.768 72.8233 25.824 72.5753 25.936C72.3273 26.04 72.1113 26.188 71.9273 26.38C71.7433 26.572 71.5993 26.804 71.4953 27.076C71.3913 27.34 71.3393 27.632 71.3393 27.952V28.096C71.3393 28.432 71.3913 28.736 71.4953 29.008C71.5993 29.272 71.7433 29.5 71.9273 29.692C72.1113 29.884 72.3233 30.032 72.5633 30.136C72.8113 30.232 73.0793 30.28 73.3673 30.28ZM83.811 31H82.875V26.728C82.875 26.448 82.811 26.22 82.683 26.044C82.555 25.86 82.351 25.768 82.071 25.768C81.807 25.768 81.591 25.868 81.423 26.068C81.263 26.26 81.183 26.56 81.183 26.968V31H80.247V26.68C80.247 26.416 80.175 26.2 80.031 26.032C79.887 25.856 79.695 25.768 79.455 25.768C79.167 25.768 78.943 25.872 78.783 26.08C78.631 26.288 78.555 26.56 78.555 26.896V31H77.619V25.048H78.555V25.696H78.699C78.803 25.416 78.955 25.212 79.155 25.084C79.355 24.948 79.591 24.88 79.863 24.88C80.151 24.88 80.387 24.956 80.571 25.108C80.763 25.26 80.895 25.456 80.967 25.696H81.111C81.383 25.152 81.815 24.88 82.407 24.88C82.855 24.88 83.199 25.024 83.439 25.312C83.687 25.592 83.811 25.96 83.811 26.416V31ZM91.0506 28.096C91.0506 28.592 90.9666 29.032 90.7986 29.416C90.6386 29.792 90.4226 30.112 90.1506 30.376C89.8786 30.632 89.5586 30.828 89.1906 30.964C88.8306 31.1 88.4546 31.168 88.0626 31.168C87.6626 31.168 87.2826 31.1 86.9226 30.964C86.5626 30.828 86.2466 30.632 85.9746 30.376C85.7026 30.112 85.4826 29.792 85.3146 29.416C85.1546 29.032 85.0746 28.592 85.0746 28.096V27.952C85.0746 27.464 85.1546 27.032 85.3146 26.656C85.4826 26.272 85.7026 25.948 85.9746 25.684C86.2546 25.42 86.5746 25.22 86.9346 25.084C87.2946 24.948 87.6706 24.88 88.0626 24.88C88.4546 24.88 88.8306 24.948 89.1906 25.084C89.5506 25.22 89.8666 25.42 90.1386 25.684C90.4186 25.948 90.6386 26.272 90.7986 26.656C90.9666 27.032 91.0506 27.464 91.0506 27.952V28.096ZM88.0626 30.28C88.3506 30.28 88.6146 30.232 88.8546 30.136C89.1026 30.032 89.3186 29.884 89.5026 29.692C89.6866 29.5 89.8306 29.272 89.9346 29.008C90.0386 28.736 90.0906 28.432 90.0906 28.096V27.952C90.0906 27.632 90.0386 27.34 89.9346 27.076C89.8306 26.804 89.6866 26.572 89.5026 26.38C89.3186 26.188 89.1026 26.04 88.8546 25.936C88.6066 25.824 88.3426 25.768 88.0626 25.768C87.7826 25.768 87.5186 25.824 87.2706 25.936C87.0226 26.04 86.8066 26.188 86.6226 26.38C86.4386 26.572 86.2946 26.804 86.1906 27.076C86.0866 27.34 86.0346 27.632 86.0346 27.952V28.096C86.0346 28.432 86.0866 28.736 86.1906 29.008C86.2946 29.272 86.4386 29.5 86.6226 29.692C86.8066 29.884 87.0186 30.032 87.2586 30.136C87.5066 30.232 87.7746 30.28 88.0626 30.28ZM93.6103 27.448H97.2103V28.312H93.6103V27.448ZM105.698 28.888C105.634 29.216 105.522 29.52 105.362 29.8C105.21 30.08 105.014 30.324 104.774 30.532C104.534 30.732 104.254 30.888 103.934 31C103.614 31.112 103.258 31.168 102.866 31.168C102.45 31.168 102.054 31.1 101.678 30.964C101.31 30.828 100.986 30.632 100.706 30.376C100.426 30.112 100.202 29.792 100.034 29.416C99.8739 29.04 99.7939 28.608 99.7939 28.12V27.976C99.7939 27.496 99.8739 27.064 100.034 26.68C100.202 26.296 100.426 25.972 100.706 25.708C100.986 25.444 101.31 25.24 101.678 25.096C102.054 24.952 102.45 24.88 102.866 24.88C103.242 24.88 103.59 24.936 103.91 25.048C104.23 25.16 104.51 25.32 104.75 25.528C104.998 25.728 105.198 25.968 105.35 26.248C105.51 26.528 105.618 26.832 105.674 27.16L104.738 27.376C104.714 27.168 104.654 26.968 104.558 26.776C104.47 26.576 104.346 26.404 104.186 26.26C104.034 26.108 103.846 25.988 103.622 25.9C103.398 25.812 103.138 25.768 102.842 25.768C102.554 25.768 102.282 25.824 102.026 25.936C101.778 26.04 101.558 26.192 101.366 26.392C101.174 26.584 101.022 26.816 100.91 27.088C100.806 27.36 100.754 27.656 100.754 27.976V28.12C100.754 28.456 100.806 28.76 100.91 29.032C101.022 29.296 101.174 29.52 101.366 29.704C101.558 29.888 101.782 30.032 102.038 30.136C102.294 30.232 102.57 30.28 102.866 30.28C103.162 30.28 103.418 30.236 103.634 30.148C103.858 30.052 104.046 29.932 104.198 29.788C104.358 29.636 104.482 29.464 104.57 29.272C104.666 29.08 104.73 28.88 104.762 28.672L105.698 28.888ZM113.094 28.096C113.094 28.592 113.01 29.032 112.842 29.416C112.682 29.792 112.466 30.112 112.194 30.376C111.922 30.632 111.602 30.828 111.234 30.964C110.874 31.1 110.498 31.168 110.106 31.168C109.706 31.168 109.326 31.1 108.966 30.964C108.606 30.828 108.29 30.632 108.018 30.376C107.746 30.112 107.526 29.792 107.358 29.416C107.198 29.032 107.118 28.592 107.118 28.096V27.952C107.118 27.464 107.198 27.032 107.358 26.656C107.526 26.272 107.746 25.948 108.018 25.684C108.298 25.42 108.618 25.22 108.978 25.084C109.338 24.948 109.714 24.88 110.106 24.88C110.498 24.88 110.874 24.948 111.234 25.084C111.594 25.22 111.91 25.42 112.182 25.684C112.462 25.948 112.682 26.272 112.842 26.656C113.01 27.032 113.094 27.464 113.094 27.952V28.096ZM110.106 30.28C110.394 30.28 110.658 30.232 110.898 30.136C111.146 30.032 111.362 29.884 111.546 29.692C111.73 29.5 111.874 29.272 111.978 29.008C112.082 28.736 112.134 28.432 112.134 28.096V27.952C112.134 27.632 112.082 27.34 111.978 27.076C111.874 26.804 111.73 26.572 111.546 26.38C111.362 26.188 111.146 26.04 110.898 25.936C110.65 25.824 110.386 25.768 110.106 25.768C109.826 25.768 109.562 25.824 109.314 25.936C109.066 26.04 108.85 26.188 108.666 26.38C108.482 26.572 108.338 26.804 108.234 27.076C108.13 27.34 108.078 27.632 108.078 27.952V28.096C108.078 28.432 108.13 28.736 108.234 29.008C108.338 29.272 108.482 29.5 108.666 29.692C108.85 29.884 109.062 30.032 109.302 30.136C109.55 30.232 109.818 30.28 110.106 30.28ZM119.433 30.088H119.289C119.193 30.272 119.069 30.432 118.917 30.568C118.773 30.704 118.613 30.816 118.437 30.904C118.269 30.992 118.089 31.056 117.897 31.096C117.705 31.144 117.521 31.168 117.345 31.168C116.945 31.168 116.573 31.1 116.229 30.964C115.885 30.828 115.581 30.632 115.317 30.376C115.061 30.12 114.857 29.804 114.705 29.428C114.561 29.044 114.489 28.608 114.489 28.12V27.928C114.489 27.448 114.565 27.02 114.717 26.644C114.869 26.26 115.073 25.94 115.329 25.684C115.585 25.42 115.885 25.22 116.229 25.084C116.573 24.948 116.937 24.88 117.321 24.88C117.729 24.88 118.109 24.972 118.461 25.156C118.821 25.332 119.097 25.608 119.289 25.984H119.433V22.6H120.369V31H119.433V30.088ZM117.441 30.28C117.721 30.28 117.981 30.228 118.221 30.124C118.461 30.02 118.669 29.872 118.845 29.68C119.029 29.488 119.173 29.26 119.277 28.996C119.381 28.724 119.433 28.424 119.433 28.096V27.952C119.433 27.632 119.381 27.34 119.277 27.076C119.173 26.804 119.029 26.572 118.845 26.38C118.669 26.188 118.457 26.04 118.209 25.936C117.969 25.824 117.713 25.768 117.441 25.768C117.161 25.768 116.897 25.82 116.649 25.924C116.409 26.028 116.197 26.176 116.013 26.368C115.837 26.56 115.697 26.788 115.593 27.052C115.497 27.316 115.449 27.608 115.449 27.928V28.12C115.449 28.456 115.497 28.756 115.593 29.02C115.697 29.284 115.837 29.512 116.013 29.704C116.197 29.888 116.409 30.032 116.649 30.136C116.889 30.232 117.153 30.28 117.441 30.28ZM122.857 28.312C122.881 28.904 123.065 29.38 123.409 29.74C123.753 30.1 124.233 30.28 124.849 30.28C125.129 30.28 125.373 30.248 125.581 30.184C125.789 30.12 125.965 30.032 126.109 29.92C126.261 29.808 126.381 29.68 126.469 29.536C126.565 29.384 126.641 29.224 126.697 29.056L127.585 29.296C127.417 29.848 127.105 30.3 126.649 30.652C126.201 30.996 125.593 31.168 124.825 31.168C124.401 31.168 124.009 31.096 123.649 30.952C123.297 30.8 122.993 30.588 122.737 30.316C122.481 30.044 122.281 29.72 122.137 29.344C121.993 28.968 121.921 28.552 121.921 28.096V27.808C121.921 27.392 121.993 27.004 122.137 26.644C122.289 26.284 122.497 25.976 122.761 25.72C123.025 25.456 123.333 25.252 123.685 25.108C124.045 24.956 124.433 24.88 124.849 24.88C125.337 24.88 125.757 24.972 126.109 25.156C126.469 25.332 126.761 25.552 126.985 25.816C127.217 26.08 127.385 26.368 127.489 26.68C127.601 26.992 127.657 27.28 127.657 27.544V28.312H122.857ZM124.849 25.768C124.585 25.768 124.337 25.812 124.105 25.9C123.881 25.98 123.681 26.096 123.505 26.248C123.337 26.4 123.197 26.58 123.085 26.788C122.981 26.988 122.913 27.208 122.881 27.448H126.721C126.705 27.192 126.641 26.96 126.529 26.752C126.425 26.544 126.285 26.368 126.109 26.224C125.941 26.08 125.745 25.968 125.521 25.888C125.305 25.808 125.081 25.768 124.849 25.768Z" fill="white"/>
<defs>
<filter id="filter0_b_89_745" x="-55.0001" y="-55" width="610" height="162" filterUnits="userSpaceOnUse" color-interpolation-filters="sRGB">
<feFlood flood-opacity="0" result="BackgroundImageFix"/>
<feGaussianBlur in="BackgroundImageFix" stdDeviation="27.5"/>
<feComposite in2="SourceAlpha" operator="in" result="effect1_backgroundBlur_89_745"/>
<feBlend mode="normal" in="SourceGraphic" in2="effect1_backgroundBlur_89_745" result="shape"/>
</filter>
</defs>
</svg>
