<svg width="44" height="44" viewBox="0 0 44 44" fill="none" xmlns="http://www.w3.org/2000/svg">
<g filter="url(#filter0_b_61_2929)">
<mask id="path-1-inside-1_61_2929" fill="white">
<path fill-rule="evenodd" clip-rule="evenodd" d="M0 3.46668V3.46667H3.46642V0H37V3.46668L40.5 3.46668L40.5 6.9667L44 6.9667V36H40.4667L40.4667 40L36.4667 40V44L0 44L2.96668 44V40.5L0 40.5H2.96668V37L0 37V6.93334H3.46642V3.46668H0ZM6.93335 9.91431e-06L3.46668 9.91431e-06V3.46668H6.93335V9.91431e-06ZM6.46668 40.5H2.96669V44H6.46668L6.46668 40.5Z"/>
</mask>
<path fill-rule="evenodd" clip-rule="evenodd" d="M0 3.46668V3.46667H3.46642V0H37V3.46668L40.5 3.46668L40.5 6.9667L44 6.9667V36H40.4667L40.4667 40L36.4667 40V44L0 44L2.96668 44V40.5L0 40.5H2.96668V37L0 37V6.93334H3.46642V3.46668H0ZM6.93335 9.91431e-06L3.46668 9.91431e-06V3.46668H6.93335V9.91431e-06ZM6.46668 40.5H2.96669V44H6.46668L6.46668 40.5Z" fill="white" fill-opacity="0.01"/>
<path d="M0 3.46667V2.46667H-1V3.46667H0ZM0 3.46668H-1V4.46668H0V3.46668ZM3.46642 3.46667V4.46667H4.46642V3.46667H3.46642ZM3.46642 0V-1H2.46642V0H3.46642ZM37 0H38V-1H37V0ZM37 3.46668H36V4.46668H37V3.46668ZM40.5 3.46668L41.5 3.46668L41.5 2.46668H40.5V3.46668ZM40.5 6.9667L39.5 6.9667L39.5 7.9667H40.5V6.9667ZM44 6.9667H45V5.9667H44V6.9667ZM44 36V37H45V36H44ZM40.4667 36V35H39.4667L39.4667 36L40.4667 36ZM40.4667 40V41H41.4667L41.4667 40L40.4667 40ZM36.4667 40V39H35.4667V40H36.4667ZM36.4667 44V45H37.4667V44H36.4667ZM2.96668 44L2.96669 45L3.96668 45V44H2.96668ZM2.96668 40.5H3.96668V39.5L2.96669 39.5L2.96668 40.5ZM2.96668 40.5V41.5H3.96668V40.5H2.96668ZM2.96668 37H3.96668V36H2.96668L2.96668 37ZM0 37H-1V38H1.28585e-06L0 37ZM0 6.93334V5.93334H-1V6.93334H0ZM3.46642 6.93334V7.93334H4.46642V6.93334H3.46642ZM3.46642 3.46668H4.46642V2.46668H3.46642V3.46668ZM3.46668 9.91431e-06V-0.99999H2.46668V9.91431e-06H3.46668ZM6.93335 9.91431e-06H7.93335V-0.99999H6.93335V9.91431e-06ZM3.46668 3.46668H2.46668V4.46668H3.46668V3.46668ZM6.93335 3.46668V4.46668H7.93335V3.46668H6.93335ZM2.96669 40.5V39.5H1.96669V40.5H2.96669ZM6.46668 40.5H7.46668V39.5H6.46668V40.5ZM2.96669 44H1.96669V45H2.96669V44ZM6.46668 44V45H7.46668V44H6.46668ZM-1 3.46667V3.46668H1V3.46667H-1ZM3.46642 2.46667H0V4.46667H3.46642V2.46667ZM2.46642 0V3.46667H4.46642V0H2.46642ZM37 -1H3.46642V1H37V-1ZM38 3.46668V0H36V3.46668H38ZM40.5 2.46668L37 2.46668V4.46668H40.5V2.46668ZM41.5 6.9667L41.5 3.46668L39.5 3.46668L39.5 6.9667L41.5 6.9667ZM44 5.9667L40.5 5.9667V7.9667L44 7.9667V5.9667ZM45 36V6.9667H43V36H45ZM40.4667 37H44V35H40.4667V37ZM41.4667 40L41.4667 36L39.4667 36L39.4667 40L41.4667 40ZM36.4667 41L40.4667 41V39L36.4667 39V41ZM37.4667 44V40H35.4667V44H37.4667ZM-6.27646e-07 45L36.4667 45V43L6.27646e-07 43L-6.27646e-07 45ZM2.96668 43L-3.85754e-06 43L3.85754e-06 45L2.96669 45L2.96668 43ZM1.96668 40.5V44H3.96668V40.5H1.96668ZM-2.57169e-06 41.5L2.96668 41.5L2.96669 39.5L2.57169e-06 39.5L-2.57169e-06 41.5ZM2.96668 39.5H0V41.5H2.96668V39.5ZM1.96668 37V40.5H3.96668V37H1.96668ZM1.28585e-06 38L2.96668 38L2.96668 36L-1.28585e-06 36L1.28585e-06 38ZM-1 6.93334V37H1V6.93334H-1ZM3.46642 5.93334H0V7.93334H3.46642V5.93334ZM2.46642 3.46668V6.93334H4.46642V3.46668H2.46642ZM0 4.46668H3.46642V2.46668H0V4.46668ZM3.46668 1.00001H6.93335V-0.99999H3.46668V1.00001ZM4.46668 3.46668V9.91431e-06H2.46668V3.46668H4.46668ZM6.93335 2.46668H3.46668V4.46668H6.93335V2.46668ZM5.93335 9.91431e-06V3.46668H7.93335V9.91431e-06H5.93335ZM2.96669 41.5H6.46668V39.5H2.96669V41.5ZM3.96669 44V40.5H1.96669V44H3.96669ZM6.46668 43H2.96669V45H6.46668V43ZM5.46668 40.5L5.46668 44H7.46668L7.46668 40.5H5.46668Z" fill="white" fill-opacity="0.15" mask="url(#path-1-inside-1_61_2929)"/>
</g>
<path d="M28.6667 17V16.1667H27.8333V15.3333H27V14.5H18.6667V15.3333H17.8333V16.1667H17V17H16.1667V16.1667V15.3333H14.5V20.3333H19.5V18.6667H17.8333V17.8333H18.6667V17H19.5V16.1667H25.3333V17H26.1667V17.8333H27V18.6667H27.8333V25.3333H27V26.1667H26.1667V27H25.3333V27.8333H19.5V27H18.6667V26.1667H17.8333V25.3333H17V24.5H15.3333V27H16.1667V27.8333H17V28.6667H17.8333V29.5H27V28.6667H27.8333V27.8333H28.6667V27H29.5V17H28.6667Z" fill="white"/>
<rect x="18.6667" y="22.8334" width="1.66667" height="5" transform="rotate(90 18.6667 22.8334)" fill="white"/>
<rect x="13.6667" y="22.8334" width="1.66667" height="5" fill="white"/>
<defs>
<filter id="filter0_b_61_2929" x="-45" y="-45" width="134" height="134" filterUnits="userSpaceOnUse" color-interpolation-filters="sRGB">
<feFlood flood-opacity="0" result="BackgroundImageFix"/>
<feGaussianBlur in="BackgroundImageFix" stdDeviation="22.5"/>
<feComposite in2="SourceAlpha" operator="in" result="effect1_backgroundBlur_61_2929"/>
<feBlend mode="normal" in="SourceGraphic" in2="effect1_backgroundBlur_61_2929" result="shape"/>
</filter>
</defs>
</svg>
