<svg width="44" height="44" viewBox="0 0 44 44" fill="none" xmlns="http://www.w3.org/2000/svg">
<g filter="url(#filter0_b_61_2949)">
<mask id="path-1-inside-1_61_2949" fill="white">
<path fill-rule="evenodd" clip-rule="evenodd" d="M0 3.46668V3.46667H3.46642V0H37V3.46668L40.5 3.46668L40.5 6.9667L44 6.9667V36H40.4667L40.4667 40L36.4667 40V44L0 44L2.96668 44V40.5L0 40.5H2.96668V37L0 37V6.93334H3.46642V3.46668H0ZM6.93335 9.91431e-06L3.46668 9.91431e-06V3.46668H6.93335V9.91431e-06ZM6.46668 40.5H2.96669V44H6.46668L6.46668 40.5Z"/>
</mask>
<path fill-rule="evenodd" clip-rule="evenodd" d="M0 3.46668V3.46667H3.46642V0H37V3.46668L40.5 3.46668L40.5 6.9667L44 6.9667V36H40.4667L40.4667 40L36.4667 40V44L0 44L2.96668 44V40.5L0 40.5H2.96668V37L0 37V6.93334H3.46642V3.46668H0ZM6.93335 9.91431e-06L3.46668 9.91431e-06V3.46668H6.93335V9.91431e-06ZM6.46668 40.5H2.96669V44H6.46668L6.46668 40.5Z" fill="white" fill-opacity="0.01"/>
<path d="M0 3.46667V2.46667H-1V3.46667H0ZM0 3.46668H-1V4.46668H0V3.46668ZM3.46642 3.46667V4.46667H4.46642V3.46667H3.46642ZM3.46642 0V-1H2.46642V0H3.46642ZM37 0H38V-1H37V0ZM37 3.46668H36V4.46668H37V3.46668ZM40.5 3.46668L41.5 3.46668L41.5 2.46668H40.5V3.46668ZM40.5 6.9667L39.5 6.9667L39.5 7.9667H40.5V6.9667ZM44 6.9667H45V5.9667H44V6.9667ZM44 36V37H45V36H44ZM40.4667 36V35H39.4667L39.4667 36L40.4667 36ZM40.4667 40V41H41.4667L41.4667 40L40.4667 40ZM36.4667 40V39H35.4667V40H36.4667ZM36.4667 44V45H37.4667V44H36.4667ZM2.96668 44L2.96669 45L3.96668 45V44H2.96668ZM2.96668 40.5H3.96668V39.5L2.96669 39.5L2.96668 40.5ZM2.96668 40.5V41.5H3.96668V40.5H2.96668ZM2.96668 37H3.96668V36H2.96668L2.96668 37ZM0 37H-1V38H1.28585e-06L0 37ZM0 6.93334V5.93334H-1V6.93334H0ZM3.46642 6.93334V7.93334H4.46642V6.93334H3.46642ZM3.46642 3.46668H4.46642V2.46668H3.46642V3.46668ZM3.46668 9.91431e-06V-0.99999H2.46668V9.91431e-06H3.46668ZM6.93335 9.91431e-06H7.93335V-0.99999H6.93335V9.91431e-06ZM3.46668 3.46668H2.46668V4.46668H3.46668V3.46668ZM6.93335 3.46668V4.46668H7.93335V3.46668H6.93335ZM2.96669 40.5V39.5H1.96669V40.5H2.96669ZM6.46668 40.5H7.46668V39.5H6.46668V40.5ZM2.96669 44H1.96669V45H2.96669V44ZM6.46668 44V45H7.46668V44H6.46668ZM-1 3.46667V3.46668H1V3.46667H-1ZM3.46642 2.46667H0V4.46667H3.46642V2.46667ZM2.46642 0V3.46667H4.46642V0H2.46642ZM37 -1H3.46642V1H37V-1ZM38 3.46668V0H36V3.46668H38ZM40.5 2.46668L37 2.46668V4.46668H40.5V2.46668ZM41.5 6.9667L41.5 3.46668L39.5 3.46668L39.5 6.9667L41.5 6.9667ZM44 5.9667L40.5 5.9667V7.9667L44 7.9667V5.9667ZM45 36V6.9667H43V36H45ZM40.4667 37H44V35H40.4667V37ZM41.4667 40L41.4667 36L39.4667 36L39.4667 40L41.4667 40ZM36.4667 41L40.4667 41V39L36.4667 39V41ZM37.4667 44V40H35.4667V44H37.4667ZM-6.27646e-07 45L36.4667 45V43L6.27646e-07 43L-6.27646e-07 45ZM2.96668 43L-3.85754e-06 43L3.85754e-06 45L2.96669 45L2.96668 43ZM1.96668 40.5V44H3.96668V40.5H1.96668ZM-2.57169e-06 41.5L2.96668 41.5L2.96669 39.5L2.57169e-06 39.5L-2.57169e-06 41.5ZM2.96668 39.5H0V41.5H2.96668V39.5ZM1.96668 37V40.5H3.96668V37H1.96668ZM1.28585e-06 38L2.96668 38L2.96668 36L-1.28585e-06 36L1.28585e-06 38ZM-1 6.93334V37H1V6.93334H-1ZM3.46642 5.93334H0V7.93334H3.46642V5.93334ZM2.46642 3.46668V6.93334H4.46642V3.46668H2.46642ZM0 4.46668H3.46642V2.46668H0V4.46668ZM3.46668 1.00001H6.93335V-0.99999H3.46668V1.00001ZM4.46668 3.46668V9.91431e-06H2.46668V3.46668H4.46668ZM6.93335 2.46668H3.46668V4.46668H6.93335V2.46668ZM5.93335 9.91431e-06V3.46668H7.93335V9.91431e-06H5.93335ZM2.96669 41.5H6.46668V39.5H2.96669V41.5ZM3.96669 44V40.5H1.96669V44H3.96669ZM6.46668 43H2.96669V45H6.46668V43ZM5.46668 40.5L5.46668 44H7.46668L7.46668 40.5H5.46668Z" fill="white" fill-opacity="0.15" mask="url(#path-1-inside-1_61_2949)"/>
</g>
<path d="M22 22H23V23H29V22H30V21H31V15H30V14H29V13H23V14H22V15H21V21H22V22ZM23 17H24V16H25V15H27V16H28V17H29V19H28V20H27V21H25V20H24V19H23V17Z" fill="white"/>
<path d="M33 26V25H32V24H20V25H19V26H18V31H20V28H21V27H22V26H30V27H31V28H32V31H34V26H33Z" fill="white"/>
<path d="M17.3333 21.3V20.6H16.6667V19.9H15.3333V18.5H14V17.1H12.6667V15.7H11.3333V15H10V17.1H11.3333V18.5H12.6667V19.9H14V21.3H15.3333V22.7H14V24.1H12.6667V25.5H11.3333V26.9H10V29H11.3333V28.3H12.6667V26.9H14V26.2V25.5H15.3333V24.8V24.1H16.6667V23.4H17.3333V22.7H18V22V21.3H17.3333Z" fill="white"/>
<defs>
<filter id="filter0_b_61_2949" x="-45" y="-45" width="134" height="134" filterUnits="userSpaceOnUse" color-interpolation-filters="sRGB">
<feFlood flood-opacity="0" result="BackgroundImageFix"/>
<feGaussianBlur in="BackgroundImageFix" stdDeviation="22.5"/>
<feComposite in2="SourceAlpha" operator="in" result="effect1_backgroundBlur_61_2949"/>
<feBlend mode="normal" in="SourceGraphic" in2="effect1_backgroundBlur_61_2949" result="shape"/>
</filter>
</defs>
</svg>
