<svg width="110" height="44" viewBox="0 0 110 44" fill="none" xmlns="http://www.w3.org/2000/svg">
<path fill-rule="evenodd" clip-rule="evenodd" d="M0 3.46668V3.46667H3.46642V0H103V3.46668L106.5 3.46668V6.9667L110 6.9667L110 36H106.467L106.467 40L102.467 40V44L0 44L2.96668 44V40.5L0 40.5H2.96668V37L0 37V6.93334H3.46642V3.46668H0ZM6.93335 9.91431e-06L3.46668 9.91431e-06V3.46668H6.93335V9.91431e-06ZM6.46668 40.5H2.96669V44H6.46668L6.46668 40.5Z" fill="#408CFF"/>
<path d="M37.8352 17.6H40.8832C41.9232 17.6 42.6952 17.844 43.1992 18.332C43.7032 18.812 43.9552 19.56 43.9552 20.576V23.024C43.9552 24.04 43.7032 24.792 43.1992 25.28C42.6952 25.76 41.9232 26 40.8832 26H37.8352V24.476H38.6272V19.112H37.8352V17.6ZM40.8832 24.488C41.4352 24.488 41.8192 24.36 42.0352 24.104C42.2592 23.84 42.3712 23.432 42.3712 22.88V20.576C42.3712 20.096 42.2592 19.732 42.0352 19.484C41.8192 19.236 41.4352 19.112 40.8832 19.112H40.2112V24.488H40.8832ZM45.6149 17.6H50.9189V19.112H47.1989V21.032H50.7749V22.544H47.1989V24.488H51.0629V26H45.6149V17.6ZM54.4265 22.832V26H52.8425V17.6H56.1305C56.5625 17.6 56.9385 17.672 57.2585 17.816C57.5785 17.952 57.8425 18.136 58.0505 18.368C58.2665 18.592 58.4265 18.852 58.5305 19.148C58.6425 19.436 58.6985 19.732 58.6985 20.036V20.324C58.6985 20.636 58.6425 20.944 58.5305 21.248C58.4265 21.544 58.2665 21.812 58.0505 22.052C57.8425 22.284 57.5785 22.472 57.2585 22.616C56.9385 22.76 56.5625 22.832 56.1305 22.832H54.4265ZM54.4265 21.32H55.9745C56.3265 21.32 56.6025 21.224 56.8025 21.032C57.0105 20.84 57.1145 20.592 57.1145 20.288V20.144C57.1145 19.84 57.0105 19.592 56.8025 19.4C56.6025 19.208 56.3265 19.112 55.9745 19.112H54.4265V21.32ZM59.9022 20.864C59.9022 19.776 60.1742 18.932 60.7182 18.332C61.2702 17.732 62.0302 17.432 62.9982 17.432C63.9662 17.432 64.7222 17.732 65.2662 18.332C65.8182 18.932 66.0942 19.776 66.0942 20.864V22.736C66.0942 23.856 65.8182 24.708 65.2662 25.292C64.7222 25.876 63.9662 26.168 62.9982 26.168C62.0302 26.168 61.2702 25.876 60.7182 25.292C60.1742 24.708 59.9022 23.856 59.9022 22.736V20.864ZM62.9982 24.728C63.2862 24.728 63.5262 24.684 63.7182 24.596C63.9102 24.5 64.0662 24.368 64.1862 24.2C64.3062 24.032 64.3902 23.832 64.4382 23.6C64.4862 23.368 64.5102 23.112 64.5102 22.832V20.768C64.5102 20.504 64.4822 20.256 64.4262 20.024C64.3702 19.792 64.2822 19.592 64.1622 19.424C64.0422 19.256 63.8862 19.124 63.6942 19.028C63.5022 18.924 63.2702 18.872 62.9982 18.872C62.7262 18.872 62.4942 18.924 62.3022 19.028C62.1102 19.124 61.9542 19.256 61.8342 19.424C61.7142 19.592 61.6262 19.792 61.5702 20.024C61.5142 20.256 61.4862 20.504 61.4862 20.768V22.832C61.4862 23.112 61.5102 23.368 61.5582 23.6C61.6062 23.832 61.6902 24.032 61.8102 24.2C61.9302 24.368 62.0862 24.5 62.2782 24.596C62.4702 24.684 62.7102 24.728 62.9982 24.728ZM71.7858 20.168C71.7858 19.832 71.6538 19.54 71.3898 19.292C71.1338 19.044 70.7698 18.92 70.2978 18.92C69.8978 18.92 69.5818 19.004 69.3498 19.172C69.1178 19.332 69.0018 19.552 69.0018 19.832C69.0018 19.976 69.0298 20.108 69.0858 20.228C69.1418 20.34 69.2378 20.444 69.3738 20.54C69.5178 20.628 69.7018 20.708 69.9258 20.78C70.1578 20.852 70.4498 20.92 70.8018 20.984C71.6818 21.144 72.3538 21.412 72.8178 21.788C73.2818 22.164 73.5138 22.72 73.5138 23.456V23.6C73.5138 23.992 73.4418 24.348 73.2978 24.668C73.1618 24.98 72.9618 25.248 72.6978 25.472C72.4338 25.696 72.1138 25.868 71.7378 25.988C71.3618 26.108 70.9378 26.168 70.4658 26.168C69.9138 26.168 69.4258 26.092 69.0018 25.94C68.5858 25.78 68.2378 25.564 67.9578 25.292C67.6778 25.012 67.4658 24.688 67.3218 24.32C67.1778 23.944 67.1058 23.536 67.1058 23.096V22.736H68.6898V23.024C68.6898 23.528 68.8338 23.932 69.1218 24.236C69.4178 24.532 69.8738 24.68 70.4898 24.68C70.9698 24.68 71.3258 24.576 71.5578 24.368C71.7898 24.16 71.9058 23.912 71.9058 23.624C71.9058 23.488 71.8818 23.36 71.8338 23.24C71.7858 23.112 71.7018 23 71.5818 22.904C71.4618 22.8 71.2978 22.708 71.0898 22.628C70.8818 22.548 70.6178 22.48 70.2978 22.424C69.8738 22.352 69.4858 22.26 69.1338 22.148C68.7818 22.028 68.4738 21.872 68.2098 21.68C67.9538 21.488 67.7538 21.248 67.6098 20.96C67.4658 20.672 67.3938 20.32 67.3938 19.904V19.832C67.3938 19.488 67.4618 19.172 67.5978 18.884C67.7418 18.588 67.9378 18.332 68.1858 18.116C68.4418 17.9 68.7458 17.732 69.0978 17.612C69.4578 17.492 69.8578 17.432 70.2978 17.432C70.7938 17.432 71.2338 17.504 71.6178 17.648C72.0018 17.784 72.3218 17.972 72.5778 18.212C72.8418 18.452 73.0378 18.728 73.1658 19.04C73.3018 19.352 73.3698 19.68 73.3698 20.024V20.456H71.7858V20.168ZM74.8855 17.6H80.5015V19.112H78.4855V24.488H80.5015V26H74.8855V24.488H76.9015V19.112H74.8855V17.6ZM82.0171 17.6H88.0651V19.112H85.8331V26H84.2491V19.112H82.0171V17.6Z" fill="white"/>
<path d="M22.8333 21.1667V15.3334H21.1667V21.1667H15.3333V22.8334H21.1667V28.6667H22.8333V22.8334H28.6667V21.1667H22.8333Z" fill="white"/>
</svg>
