<svg width="160" height="44" viewBox="0 0 160 44" fill="none" xmlns="http://www.w3.org/2000/svg">
<g filter="url(#filter0_b_63_5656)">
<mask id="path-1-inside-1_63_5656" fill="white">
<path fill-rule="evenodd" clip-rule="evenodd" d="M156.5 3.46668L153 3.46668V0H0V2.7987e-05L3.5427 2.7987e-05V3.46669H0V3.4667H3.5427V6.93337H0V37H3.49986L3.49986 40.5H0L3.49986 40.5L3.49987 44V40.5H7.99986V44H152V40L156 40H160V44L160 44V0L160 3.46668L156.5 3.46668ZM160 36V40H156V36H160ZM160 3.46669V6.9667L156.5 6.9667V3.46669L160 3.46669ZM7.99986 2.76839e-05L3.54271 2.76839e-05V3.46669H7.99986V2.76839e-05Z"/>
</mask>
<path fill-rule="evenodd" clip-rule="evenodd" d="M156.5 3.46668L153 3.46668V0H0V2.7987e-05L3.5427 2.7987e-05V3.46669H0V3.4667H3.5427V6.93337H0V37H3.49986L3.49986 40.5H0L3.49986 40.5L3.49987 44V40.5H7.99986V44H152V40L156 40H160V44L160 44V0L160 3.46668L156.5 3.46668ZM160 36V40H156V36H160ZM160 3.46669V6.9667L156.5 6.9667V3.46669L160 3.46669ZM7.99986 2.76839e-05L3.54271 2.76839e-05V3.46669H7.99986V2.76839e-05Z" fill="white" fill-opacity="0.01"/>
<path d="M153 3.46668H152V4.46668L153 4.46668V3.46668ZM156.5 3.46668V2.46668V3.46668ZM153 0H154V-1H153V0ZM0 0V-1H-1V0H0ZM0 2.7987e-05H-1V1.00003H0L0 2.7987e-05ZM3.5427 2.7987e-05H4.5427V-0.999972H3.5427V2.7987e-05ZM3.5427 3.46669V4.46669H4.5427V3.46669H3.5427ZM0 3.46669V2.46669H-1V3.46669H0ZM0 3.4667H-1V4.4667H0V3.4667ZM3.5427 3.4667H4.5427V2.4667H3.5427V3.4667ZM3.5427 6.93337V7.93337H4.5427V6.93337H3.5427ZM0 6.93337V5.93337H-1V6.93337H0ZM0 37H-1V38H0V37ZM3.49986 37H4.49986V36H3.49986V37ZM3.49986 40.5V41.5H4.49986V40.5H3.49986ZM3.49986 40.5L4.49986 40.5L4.49986 39.5L3.49986 39.5L3.49986 40.5ZM3.49987 40.5V39.5H2.49987V40.5H3.49987ZM7.99986 40.5H8.99986V39.5H7.99986V40.5ZM7.99986 44H6.99986V45H7.99986V44ZM152 44V45H153V44H152ZM152 40V39H151V40H152ZM156 40V41V40ZM160 40H161V39H160V40ZM160 44H159V45.2132L160.191 44.9816L160 44ZM160 44L160.191 44.9816L161 44.8243V44H160ZM160 0H161L159 -3.08109e-05L160 0ZM160 3.46668V4.46668L161 4.46668L161 3.46671L160 3.46668ZM160 40V41H161V40H160ZM160 36H161V35H160V36ZM156 40H155V41H156V40ZM156 36V35H155V36H156ZM160 6.9667V7.9667H161V6.9667H160ZM160 3.46669H161V2.46669H160V3.46669ZM156.5 6.9667H155.5V7.9667H156.5V6.9667ZM156.5 3.46669V2.46669H155.5V3.46669H156.5ZM3.54271 2.76839e-05V-0.999972H2.54271V2.76839e-05H3.54271ZM7.99986 2.76839e-05H8.99986V-0.999972H7.99986V2.76839e-05ZM3.54271 3.46669H2.54271V4.46669H3.54271V3.46669ZM7.99986 3.46669V4.46669H8.99986V3.46669H7.99986ZM153 4.46668H156.5V2.46668L153 2.46668V4.46668ZM152 0V3.46668H154V0H152ZM0 1H153V-1H0V1ZM1 2.7987e-05V0H-1V2.7987e-05H1ZM3.5427 -0.999972H0L0 1.00003H3.5427V-0.999972ZM4.5427 3.46669V2.7987e-05H2.5427V3.46669H4.5427ZM0 4.46669H3.5427V2.46669H0V4.46669ZM1 3.4667V3.46669H-1V3.4667H1ZM3.5427 2.4667H0V4.4667H3.5427V2.4667ZM4.5427 6.93337V3.4667H2.5427V6.93337H4.5427ZM0 7.93337H3.5427V5.93337H0V7.93337ZM1 37V6.93337H-1V37H1ZM3.49986 36H0V38H3.49986V36ZM4.49986 40.5L4.49986 37H2.49986L2.49986 40.5H4.49986ZM0 41.5H3.49986V39.5H0V41.5ZM-2.17991e-06 41.5L3.49986 41.5L3.49986 39.5L2.17991e-06 39.5L-2.17991e-06 41.5ZM2.49986 40.5L2.49987 44L4.49987 44L4.49986 40.5L2.49986 40.5ZM2.49987 40.5V44H4.49987V40.5H2.49987ZM7.99986 39.5H3.49987V41.5H7.99986V39.5ZM8.99986 44V40.5H6.99986V44H8.99986ZM152 43H7.99986V45H152V43ZM151 40V44H153V40H151ZM156 39L152 39V41L156 41V39ZM160 39H156V41H160V39ZM161 44V40H159V44H161ZM159.809 43.0184L159.809 43.0184L160.191 44.9816L160.191 44.9816L159.809 43.0184ZM159 0V44H161V0H159ZM161 3.46671L161 3.08109e-05L159 -3.08109e-05L159 3.46665L161 3.46671ZM156.5 4.46668H160V2.46668L156.5 2.46668V4.46668ZM161 40V36H159V40H161ZM156 41H160V39H156V41ZM155 36V40H157V36H155ZM160 35H156V37H160V35ZM161 6.9667V3.46669H159V6.9667H161ZM156.5 7.9667L160 7.9667V5.9667L156.5 5.9667V7.9667ZM155.5 3.46669V6.9667H157.5V3.46669H155.5ZM160 2.46669L156.5 2.46669V4.46669H160V2.46669ZM3.54271 1.00003H7.99986V-0.999972H3.54271V1.00003ZM4.54271 3.46669V2.76839e-05H2.54271V3.46669H4.54271ZM7.99986 2.46669H3.54271V4.46669H7.99986V2.46669ZM6.99986 2.76839e-05V3.46669H8.99986V2.76839e-05H6.99986Z" fill="white" fill-opacity="0.15" mask="url(#path-1-inside-1_63_5656)"/>
</g>
<path d="M77.552 25.488H78.344V20.112H77.552V18.6H81.236C81.636 18.6 81.988 18.656 82.292 18.768C82.604 18.88 82.864 19.032 83.072 19.224C83.288 19.416 83.448 19.648 83.552 19.92C83.664 20.184 83.72 20.472 83.72 20.784V20.928C83.72 21.408 83.584 21.792 83.312 22.08C83.048 22.368 82.712 22.568 82.304 22.68V22.896C82.712 23.008 83.048 23.212 83.312 23.508C83.584 23.796 83.72 24.18 83.72 24.66V24.804C83.72 25.116 83.664 25.408 83.552 25.68C83.448 25.944 83.288 26.176 83.072 26.376C82.864 26.568 82.604 26.72 82.292 26.832C81.988 26.944 81.636 27 81.236 27H77.552V25.488ZM79.928 25.488H81.08C81.416 25.488 81.688 25.416 81.896 25.272C82.104 25.128 82.208 24.888 82.208 24.552V24.48C82.208 24.144 82.104 23.904 81.896 23.76C81.688 23.616 81.416 23.544 81.08 23.544H79.928V25.488ZM79.928 22.032H81.08C81.416 22.032 81.688 21.964 81.896 21.828C82.104 21.684 82.208 21.444 82.208 21.108V21.036C82.208 20.7 82.104 20.464 81.896 20.328C81.688 20.184 81.416 20.112 81.08 20.112H79.928V22.032ZM85.3917 25.56H87.4077V22.488H85.5357V21.048H88.9197V25.56H90.6477V27H85.3917V25.56ZM89.2917 19.284C89.2917 19.444 89.2597 19.596 89.1957 19.74C89.1397 19.876 89.0597 19.996 88.9557 20.1C88.8517 20.196 88.7277 20.276 88.5837 20.34C88.4477 20.396 88.3037 20.424 88.1517 20.424C87.9917 20.424 87.8437 20.396 87.7077 20.34C87.5717 20.276 87.4517 20.196 87.3477 20.1C87.2437 19.996 87.1597 19.876 87.0957 19.74C87.0397 19.596 87.0117 19.444 87.0117 19.284C87.0117 19.124 87.0397 18.976 87.0957 18.84C87.1597 18.696 87.2437 18.576 87.3477 18.48C87.4517 18.376 87.5717 18.296 87.7077 18.24C87.8437 18.176 87.9917 18.144 88.1517 18.144C88.3037 18.144 88.4477 18.176 88.5837 18.24C88.7277 18.296 88.8517 18.376 88.9557 18.48C89.0597 18.576 89.1397 18.696 89.1957 18.84C89.2597 18.976 89.2917 19.124 89.2917 19.284ZM92.5953 25.56H94.6833V20.04H92.6673V18.6H96.1953V25.56H98.1393V27H92.5953V25.56ZM99.943 25.56H102.031V20.04H100.015V18.6H103.543V25.56H105.487V27H99.943V25.56Z" fill="white"/>
<path d="M64 16L63 16L63 17L64 17V16Z" fill="white"/>
<path d="M56 27L57 27V28L56 28V27Z" fill="white"/>
<path d="M63 16V15L54 15V16L63 16Z" fill="white"/>
<path d="M54 16L53 16L53 19L54 19L54 16Z" fill="white"/>
<path d="M56 17L55 17V19L54 19L54 20H55L55 27H56L56 17Z" fill="white"/>
<path d="M62 20V19H58V20L62 20Z" fill="white"/>
<path d="M60 23V22H58V23L60 23Z" fill="white"/>
<path d="M58 25L58 26H66V25H65L65 17L64 17L64 25L58 25Z" fill="white"/>
<path d="M67 26H66V28L67 28V26Z" fill="white"/>
<path d="M57 28V29L66 29V28H57Z" fill="white"/>
<path d="M54 16L53 16L53 19L54 19M54 16V15L63 15V16M54 16L54 19M54 16L63 16M66 26H67V28L66 28M66 26V25H65L65 17L64 17M66 26V28M66 26H58L58 25L64 25L64 17M54 19L55 19L55 17L56 17L56 27M54 19L54 20H55L55 27H56M66 28V29L57 29V28M66 28H57M63 16L64 16V17M63 16L63 17L64 17M57 28V27L56 27M57 28L56 28V27M62 19V20L58 20V19H62ZM60 22V23L58 23V22H60Z" stroke="white" stroke-width="0.6"/>
<defs>
<filter id="filter0_b_63_5656" x="-65" y="-65" width="290" height="174" filterUnits="userSpaceOnUse" color-interpolation-filters="sRGB">
<feFlood flood-opacity="0" result="BackgroundImageFix"/>
<feGaussianBlur in="BackgroundImageFix" stdDeviation="32.5"/>
<feComposite in2="SourceAlpha" operator="in" result="effect1_backgroundBlur_63_5656"/>
<feBlend mode="normal" in="SourceGraphic" in2="effect1_backgroundBlur_63_5656" result="shape"/>
</filter>
</defs>
</svg>
