<svg width="160" height="44" viewBox="0 0 160 44" fill="none" xmlns="http://www.w3.org/2000/svg">
<g filter="url(#filter0_b_64_6074)">
<mask id="path-1-inside-1_64_6074" fill="white">
<path fill-rule="evenodd" clip-rule="evenodd" d="M156.5 3.46668L153 3.46668V0H0V2.7987e-05L3.5427 2.7987e-05V3.46669H0V3.4667H3.5427V6.93337H0V37H3.49986L3.49986 40.5H0L3.49986 40.5L3.49987 44V40.5H7.99986V44H152V40L156 40H160V44L160 44V0L160 3.46668L156.5 3.46668ZM160 36V40H156V36H160ZM160 3.46669V6.9667L156.5 6.9667V3.46669L160 3.46669ZM7.99986 2.76839e-05L3.54271 2.76839e-05V3.46669H7.99986V2.76839e-05Z"/>
</mask>
<path fill-rule="evenodd" clip-rule="evenodd" d="M156.5 3.46668L153 3.46668V0H0V2.7987e-05L3.5427 2.7987e-05V3.46669H0V3.4667H3.5427V6.93337H0V37H3.49986L3.49986 40.5H0L3.49986 40.5L3.49987 44V40.5H7.99986V44H152V40L156 40H160V44L160 44V0L160 3.46668L156.5 3.46668ZM160 36V40H156V36H160ZM160 3.46669V6.9667L156.5 6.9667V3.46669L160 3.46669ZM7.99986 2.76839e-05L3.54271 2.76839e-05V3.46669H7.99986V2.76839e-05Z" fill="white" fill-opacity="0.01"/>
<path d="M153 3.46668H152V4.46668L153 4.46668V3.46668ZM156.5 3.46668V2.46668V3.46668ZM153 0H154V-1H153V0ZM0 0V-1H-1V0H0ZM0 2.7987e-05H-1V1.00003H0L0 2.7987e-05ZM3.5427 2.7987e-05H4.5427V-0.999972H3.5427V2.7987e-05ZM3.5427 3.46669V4.46669H4.5427V3.46669H3.5427ZM0 3.46669V2.46669H-1V3.46669H0ZM0 3.4667H-1V4.4667H0V3.4667ZM3.5427 3.4667H4.5427V2.4667H3.5427V3.4667ZM3.5427 6.93337V7.93337H4.5427V6.93337H3.5427ZM0 6.93337V5.93337H-1V6.93337H0ZM0 37H-1V38H0V37ZM3.49986 37H4.49986V36H3.49986V37ZM3.49986 40.5V41.5H4.49986V40.5H3.49986ZM3.49986 40.5L4.49986 40.5L4.49986 39.5L3.49986 39.5L3.49986 40.5ZM3.49987 40.5V39.5H2.49987V40.5H3.49987ZM7.99986 40.5H8.99986V39.5H7.99986V40.5ZM7.99986 44H6.99986V45H7.99986V44ZM152 44V45H153V44H152ZM152 40V39H151V40H152ZM156 40V41V40ZM160 40H161V39H160V40ZM160 44H159V45.2132L160.191 44.9816L160 44ZM160 44L160.191 44.9816L161 44.8243V44H160ZM160 0H161L159 -3.08109e-05L160 0ZM160 3.46668V4.46668L161 4.46668L161 3.46671L160 3.46668ZM160 40V41H161V40H160ZM160 36H161V35H160V36ZM156 40H155V41H156V40ZM156 36V35H155V36H156ZM160 6.9667V7.9667H161V6.9667H160ZM160 3.46669H161V2.46669H160V3.46669ZM156.5 6.9667H155.5V7.9667H156.5V6.9667ZM156.5 3.46669V2.46669H155.5V3.46669H156.5ZM3.54271 2.76839e-05V-0.999972H2.54271V2.76839e-05H3.54271ZM7.99986 2.76839e-05H8.99986V-0.999972H7.99986V2.76839e-05ZM3.54271 3.46669H2.54271V4.46669H3.54271V3.46669ZM7.99986 3.46669V4.46669H8.99986V3.46669H7.99986ZM153 4.46668H156.5V2.46668L153 2.46668V4.46668ZM152 0V3.46668H154V0H152ZM0 1H153V-1H0V1ZM1 2.7987e-05V0H-1V2.7987e-05H1ZM3.5427 -0.999972H0L0 1.00003H3.5427V-0.999972ZM4.5427 3.46669V2.7987e-05H2.5427V3.46669H4.5427ZM0 4.46669H3.5427V2.46669H0V4.46669ZM1 3.4667V3.46669H-1V3.4667H1ZM3.5427 2.4667H0V4.4667H3.5427V2.4667ZM4.5427 6.93337V3.4667H2.5427V6.93337H4.5427ZM0 7.93337H3.5427V5.93337H0V7.93337ZM1 37V6.93337H-1V37H1ZM3.49986 36H0V38H3.49986V36ZM4.49986 40.5L4.49986 37H2.49986L2.49986 40.5H4.49986ZM0 41.5H3.49986V39.5H0V41.5ZM-2.17991e-06 41.5L3.49986 41.5L3.49986 39.5L2.17991e-06 39.5L-2.17991e-06 41.5ZM2.49986 40.5L2.49987 44L4.49987 44L4.49986 40.5L2.49986 40.5ZM2.49987 40.5V44H4.49987V40.5H2.49987ZM7.99986 39.5H3.49987V41.5H7.99986V39.5ZM8.99986 44V40.5H6.99986V44H8.99986ZM152 43H7.99986V45H152V43ZM151 40V44H153V40H151ZM156 39L152 39V41L156 41V39ZM160 39H156V41H160V39ZM161 44V40H159V44H161ZM159.809 43.0184L159.809 43.0184L160.191 44.9816L160.191 44.9816L159.809 43.0184ZM159 0V44H161V0H159ZM161 3.46671L161 3.08109e-05L159 -3.08109e-05L159 3.46665L161 3.46671ZM156.5 4.46668H160V2.46668L156.5 2.46668V4.46668ZM161 40V36H159V40H161ZM156 41H160V39H156V41ZM155 36V40H157V36H155ZM160 35H156V37H160V35ZM161 6.9667V3.46669H159V6.9667H161ZM156.5 7.9667L160 7.9667V5.9667L156.5 5.9667V7.9667ZM155.5 3.46669V6.9667H157.5V3.46669H155.5ZM160 2.46669L156.5 2.46669V4.46669H160V2.46669ZM3.54271 1.00003H7.99986V-0.999972H3.54271V1.00003ZM4.54271 3.46669V2.76839e-05H2.54271V3.46669H4.54271ZM7.99986 2.46669H3.54271V4.46669H7.99986V2.46669ZM6.99986 2.76839e-05V3.46669H8.99986V2.76839e-05H6.99986Z" fill="white" fill-opacity="0.15" mask="url(#path-1-inside-1_64_6074)"/>
</g>
<path d="M63.552 25.488H64.344V20.112H63.552V18.6H67.236C67.636 18.6 67.988 18.656 68.292 18.768C68.604 18.88 68.864 19.032 69.072 19.224C69.288 19.416 69.448 19.648 69.552 19.92C69.664 20.184 69.72 20.472 69.72 20.784V20.928C69.72 21.408 69.584 21.792 69.312 22.08C69.048 22.368 68.712 22.568 68.304 22.68V22.896C68.712 23.008 69.048 23.212 69.312 23.508C69.584 23.796 69.72 24.18 69.72 24.66V24.804C69.72 25.116 69.664 25.408 69.552 25.68C69.448 25.944 69.288 26.176 69.072 26.376C68.864 26.568 68.604 26.72 68.292 26.832C67.988 26.944 67.636 27 67.236 27H63.552V25.488ZM65.928 25.488H67.08C67.416 25.488 67.688 25.416 67.896 25.272C68.104 25.128 68.208 24.888 68.208 24.552V24.48C68.208 24.144 68.104 23.904 67.896 23.76C67.688 23.616 67.416 23.544 67.08 23.544H65.928V25.488ZM65.928 22.032H67.08C67.416 22.032 67.688 21.964 67.896 21.828C68.104 21.684 68.208 21.444 68.208 21.108V21.036C68.208 20.7 68.104 20.464 67.896 20.328C67.688 20.184 67.416 20.112 67.08 20.112H65.928V22.032ZM75.3157 21.048H76.8277V27H75.3157V26.136H75.0997C74.8357 26.824 74.2677 27.168 73.3957 27.168C73.0997 27.168 72.8237 27.12 72.5677 27.024C72.3117 26.928 72.0877 26.78 71.8957 26.58C71.7037 26.38 71.5517 26.132 71.4397 25.836C71.3357 25.532 71.2837 25.176 71.2837 24.768V21.048H72.7957V24.456C72.7957 24.88 72.8957 25.212 73.0957 25.452C73.2957 25.684 73.5957 25.8 73.9957 25.8C74.4517 25.8 74.7837 25.656 74.9917 25.368C75.2077 25.072 75.3157 24.672 75.3157 24.168V21.048ZM82.6633 21.048H84.1753V28.464C84.1753 28.736 84.0873 28.96 83.9113 29.136C83.7433 29.312 83.5233 29.4 83.2513 29.4H79.7113V27.96H82.3393C82.5553 27.96 82.6633 27.84 82.6633 27.6V26.136H82.4473C82.1833 26.824 81.6153 27.168 80.7433 27.168C80.4473 27.168 80.1713 27.12 79.9153 27.024C79.6593 26.928 79.4353 26.78 79.2433 26.58C79.0513 26.38 78.8993 26.132 78.7873 25.836C78.6833 25.532 78.6313 25.176 78.6313 24.768V21.048H80.1433V24.456C80.1433 24.88 80.2433 25.212 80.4433 25.452C80.6433 25.684 80.9433 25.8 81.3433 25.8C81.7993 25.8 82.1313 25.656 82.3393 25.368C82.5553 25.072 82.6633 24.672 82.6633 24.168V21.048ZM89.519 23.472H88.187C87.851 23.472 87.579 23.556 87.371 23.724C87.163 23.892 87.059 24.144 87.059 24.48V24.552C87.059 24.888 87.163 25.14 87.371 25.308C87.579 25.476 87.851 25.56 88.187 25.56H89.519V23.472ZM91.031 21.048V22.032H92.135V23.544H91.031V27H88.031C87.631 27 87.275 26.944 86.963 26.832C86.651 26.72 86.391 26.568 86.183 26.376C85.975 26.176 85.815 25.944 85.703 25.68C85.599 25.408 85.547 25.116 85.547 24.804V24.66C85.547 24.18 85.679 23.796 85.943 23.508C86.215 23.212 86.555 23.008 86.963 22.896V22.68C86.555 22.568 86.215 22.368 85.943 22.08C85.679 21.792 85.547 21.408 85.547 20.928V20.784C85.547 20.472 85.599 20.184 85.703 19.92C85.815 19.648 85.975 19.416 86.183 19.224C86.391 19.032 86.651 18.88 86.963 18.768C87.275 18.656 87.631 18.6 88.031 18.6H89.339V20.04H88.187C87.851 20.04 87.579 20.12 87.371 20.28C87.163 20.432 87.059 20.672 87.059 21V21.072C87.059 21.408 87.163 21.652 87.371 21.804C87.579 21.956 87.851 22.032 88.187 22.032H89.519V21.048H91.031ZM97.5026 21.168C97.5026 20.832 97.3706 20.54 97.1066 20.292C96.8506 20.044 96.4866 19.92 96.0146 19.92C95.6146 19.92 95.2986 20.004 95.0666 20.172C94.8346 20.332 94.7186 20.552 94.7186 20.832C94.7186 20.976 94.7466 21.108 94.8026 21.228C94.8586 21.34 94.9546 21.444 95.0906 21.54C95.2346 21.628 95.4186 21.708 95.6426 21.78C95.8746 21.852 96.1666 21.92 96.5186 21.984C97.3986 22.144 98.0706 22.412 98.5346 22.788C98.9986 23.164 99.2306 23.72 99.2306 24.456V24.6C99.2306 24.992 99.1586 25.348 99.0146 25.668C98.8786 25.98 98.6786 26.248 98.4146 26.472C98.1506 26.696 97.8306 26.868 97.4546 26.988C97.0786 27.108 96.6546 27.168 96.1826 27.168C95.6306 27.168 95.1426 27.092 94.7186 26.94C94.3026 26.78 93.9546 26.564 93.6746 26.292C93.3946 26.012 93.1826 25.688 93.0386 25.32C92.8946 24.944 92.8226 24.536 92.8226 24.096V23.736H94.4066V24.024C94.4066 24.528 94.5506 24.932 94.8386 25.236C95.1346 25.532 95.5906 25.68 96.2066 25.68C96.6866 25.68 97.0426 25.576 97.2746 25.368C97.5066 25.16 97.6226 24.912 97.6226 24.624C97.6226 24.488 97.5986 24.36 97.5506 24.24C97.5026 24.112 97.4186 24 97.2986 23.904C97.1786 23.8 97.0146 23.708 96.8066 23.628C96.5986 23.548 96.3346 23.48 96.0146 23.424C95.5906 23.352 95.2026 23.26 94.8506 23.148C94.4986 23.028 94.1906 22.872 93.9266 22.68C93.6706 22.488 93.4706 22.248 93.3266 21.96C93.1826 21.672 93.1106 21.32 93.1106 20.904V20.832C93.1106 20.488 93.1786 20.172 93.3146 19.884C93.4586 19.588 93.6546 19.332 93.9026 19.116C94.1586 18.9 94.4626 18.732 94.8146 18.612C95.1746 18.492 95.5746 18.432 96.0146 18.432C96.5106 18.432 96.9506 18.504 97.3346 18.648C97.7186 18.784 98.0386 18.972 98.2946 19.212C98.5586 19.452 98.7546 19.728 98.8826 20.04C99.0186 20.352 99.0866 20.68 99.0866 21.024V21.456H97.5026V21.168ZM106.506 27H103.89L103.554 22.488V21.768H103.266V22.488L102.93 27H100.314L99.9183 21.048H101.31L101.574 25.56V26.28H101.862V25.56L102.162 21.048H104.658L104.958 25.56V26.28H105.246V25.56L105.51 21.048H106.902L106.506 27ZM111.874 26.136C111.714 26.512 111.49 26.78 111.202 26.94C110.914 27.092 110.578 27.168 110.194 27.168C109.834 27.168 109.494 27.1 109.174 26.964C108.862 26.828 108.586 26.628 108.346 26.364C108.106 26.1 107.914 25.78 107.77 25.404C107.634 25.028 107.566 24.6 107.566 24.12V23.928C107.566 23.456 107.634 23.032 107.77 22.656C107.906 22.28 108.09 21.96 108.322 21.696C108.554 21.432 108.822 21.232 109.126 21.096C109.438 20.952 109.77 20.88 110.122 20.88C110.546 20.88 110.886 20.952 111.142 21.096C111.406 21.24 111.614 21.464 111.766 21.768H111.982V21.048H113.494V25.2C113.494 25.44 113.602 25.56 113.818 25.56H114.046V27H113.014C112.742 27 112.518 26.92 112.342 26.76C112.174 26.6 112.09 26.392 112.09 26.136H111.874ZM110.53 25.728C110.97 25.728 111.322 25.584 111.586 25.296C111.85 25 111.982 24.6 111.982 24.096V23.952C111.982 23.448 111.85 23.052 111.586 22.764C111.322 22.468 110.97 22.32 110.53 22.32C110.09 22.32 109.738 22.468 109.474 22.764C109.21 23.052 109.078 23.448 109.078 23.952V24.096C109.078 24.6 109.21 25 109.474 25.296C109.738 25.584 110.09 25.728 110.53 25.728ZM116.57 29.4H115.058V21.048H116.57V21.912H116.786C116.946 21.584 117.178 21.332 117.482 21.156C117.786 20.972 118.174 20.88 118.646 20.88C118.998 20.88 119.33 20.948 119.642 21.084C119.962 21.22 120.238 21.42 120.47 21.684C120.71 21.94 120.898 22.256 121.034 22.632C121.178 23.008 121.25 23.436 121.25 23.916V24.132C121.25 24.62 121.182 25.052 121.046 25.428C120.91 25.804 120.726 26.124 120.494 26.388C120.262 26.644 119.986 26.84 119.666 26.976C119.354 27.104 119.014 27.168 118.646 27.168C118.374 27.168 118.138 27.14 117.938 27.084C117.738 27.028 117.562 26.952 117.41 26.856C117.266 26.76 117.142 26.652 117.038 26.532C116.942 26.404 116.858 26.272 116.786 26.136H116.57V29.4ZM118.154 25.728C118.626 25.728 119.006 25.584 119.294 25.296C119.59 25 119.738 24.6 119.738 24.096V23.952C119.738 23.448 119.59 23.052 119.294 22.764C119.006 22.468 118.626 22.32 118.154 22.32C117.682 22.32 117.298 22.472 117.002 22.776C116.714 23.072 116.57 23.464 116.57 23.952V24.096C116.57 24.584 116.714 24.98 117.002 25.284C117.298 25.58 117.682 25.728 118.154 25.728Z" fill="white"/>
<path d="M49 14V15H43V14H49Z" fill="white"/>
<path d="M41 16V15H43V16H41Z" fill="white"/>
<path d="M40 17V16H41V17H40Z" fill="white"/>
<path d="M39 19V17H40V19H39Z" fill="white"/>
<path d="M39 25H38V19H39V25Z" fill="white"/>
<path d="M40 27H39V25H40V27Z" fill="white"/>
<path d="M41 28H40V27H41V28Z" fill="white"/>
<path d="M43 29H41V28H43V29Z" fill="white"/>
<path d="M49 29V30H43V29H49Z" fill="white"/>
<path d="M51 28V29H49V28H51Z" fill="white"/>
<path d="M52 27V28H51V27H52Z" fill="white"/>
<path d="M53 25V27H52V25H53Z" fill="white"/>
<path d="M53 19H54V25H53V19Z" fill="white"/>
<path d="M52 17H53V19H52V17Z" fill="white"/>
<path d="M51 16H52V17H51V16Z" fill="white"/>
<path d="M51 16V15H49V16H51Z" fill="white"/>
<path d="M43 25H44V26H45V27H46V26H48V25H49V23H48V22H46V21H44V19H48V20H49V19H48V18H47V17H46V18H44V19H43V21H44V22H46V23H48V25H44V24H43V25Z" fill="white"/>
<path d="M49 15V14H43V15M49 15H43M49 15H51V16M49 15V16H51M43 15H41V16M43 15V16H41M41 16H40V17M41 16V17H40M40 17H39V19M40 17V19H39M39 19H38V25H39M39 19V25M39 25V27H40M39 25H40V27M40 27V28H41M40 27H41V28M41 28V29H43M41 28H43V29M43 29V30H49V29M43 29H49M49 29H51V28M49 29V28H51M51 28H52V27M51 28V27H52M52 27H53V25M52 27V25H53M53 25H54V19H53M53 25V19M53 19V17H52M53 19H52V17M52 17V16H51M52 17H51V16M44 25H43V24H44V25ZM44 25V26H45V27H46V26H48V25M44 25H48M48 25H49V23H48M48 25V23M48 23V22H46M48 23H46V22M46 22V21H44M46 22H44V21M44 21V19M44 21H43V19H44M44 19H48M44 19V18H46V17H47V18H48V19M48 19V20H49V19H48Z" stroke="white" stroke-width="0.5"/>
<defs>
<filter id="filter0_b_64_6074" x="-65" y="-65" width="290" height="174" filterUnits="userSpaceOnUse" color-interpolation-filters="sRGB">
<feFlood flood-opacity="0" result="BackgroundImageFix"/>
<feGaussianBlur in="BackgroundImageFix" stdDeviation="32.5"/>
<feComposite in2="SourceAlpha" operator="in" result="effect1_backgroundBlur_64_6074"/>
<feBlend mode="normal" in="SourceGraphic" in2="effect1_backgroundBlur_64_6074" result="shape"/>
</filter>
</defs>
</svg>
