<svg width="160" height="44" viewBox="0 0 160 44" fill="none" xmlns="http://www.w3.org/2000/svg">
<g filter="url(#filter0_b_64_6052)">
<mask id="path-1-inside-1_64_6052" fill="white">
<path fill-rule="evenodd" clip-rule="evenodd" d="M156.5 3.46668L153 3.46668V0H0V2.7987e-05L3.5427 2.7987e-05V3.46669H0V3.4667H3.5427V6.93337H0V37H3.49986L3.49986 40.5H0L3.49986 40.5L3.49987 44V40.5H7.99986V44H152V40L156 40H160V44L160 44V0L160 3.46668L156.5 3.46668ZM160 36V40H156V36H160ZM160 3.46669V6.9667L156.5 6.9667V3.46669L160 3.46669ZM7.99986 2.76839e-05L3.54271 2.76839e-05V3.46669H7.99986V2.76839e-05Z"/>
</mask>
<path fill-rule="evenodd" clip-rule="evenodd" d="M156.5 3.46668L153 3.46668V0H0V2.7987e-05L3.5427 2.7987e-05V3.46669H0V3.4667H3.5427V6.93337H0V37H3.49986L3.49986 40.5H0L3.49986 40.5L3.49987 44V40.5H7.99986V44H152V40L156 40H160V44L160 44V0L160 3.46668L156.5 3.46668ZM160 36V40H156V36H160ZM160 3.46669V6.9667L156.5 6.9667V3.46669L160 3.46669ZM7.99986 2.76839e-05L3.54271 2.76839e-05V3.46669H7.99986V2.76839e-05Z" fill="white" fill-opacity="0.01"/>
<path d="M153 3.46668H152V4.46668L153 4.46668V3.46668ZM156.5 3.46668V2.46668V3.46668ZM153 0H154V-1H153V0ZM0 0V-1H-1V0H0ZM0 2.7987e-05H-1V1.00003H0L0 2.7987e-05ZM3.5427 2.7987e-05H4.5427V-0.999972H3.5427V2.7987e-05ZM3.5427 3.46669V4.46669H4.5427V3.46669H3.5427ZM0 3.46669V2.46669H-1V3.46669H0ZM0 3.4667H-1V4.4667H0V3.4667ZM3.5427 3.4667H4.5427V2.4667H3.5427V3.4667ZM3.5427 6.93337V7.93337H4.5427V6.93337H3.5427ZM0 6.93337V5.93337H-1V6.93337H0ZM0 37H-1V38H0V37ZM3.49986 37H4.49986V36H3.49986V37ZM3.49986 40.5V41.5H4.49986V40.5H3.49986ZM3.49986 40.5L4.49986 40.5L4.49986 39.5L3.49986 39.5L3.49986 40.5ZM3.49987 40.5V39.5H2.49987V40.5H3.49987ZM7.99986 40.5H8.99986V39.5H7.99986V40.5ZM7.99986 44H6.99986V45H7.99986V44ZM152 44V45H153V44H152ZM152 40V39H151V40H152ZM156 40V41V40ZM160 40H161V39H160V40ZM160 44H159V45.2132L160.191 44.9816L160 44ZM160 44L160.191 44.9816L161 44.8243V44H160ZM160 0H161L159 -3.08109e-05L160 0ZM160 3.46668V4.46668L161 4.46668L161 3.46671L160 3.46668ZM160 40V41H161V40H160ZM160 36H161V35H160V36ZM156 40H155V41H156V40ZM156 36V35H155V36H156ZM160 6.9667V7.9667H161V6.9667H160ZM160 3.46669H161V2.46669H160V3.46669ZM156.5 6.9667H155.5V7.9667H156.5V6.9667ZM156.5 3.46669V2.46669H155.5V3.46669H156.5ZM3.54271 2.76839e-05V-0.999972H2.54271V2.76839e-05H3.54271ZM7.99986 2.76839e-05H8.99986V-0.999972H7.99986V2.76839e-05ZM3.54271 3.46669H2.54271V4.46669H3.54271V3.46669ZM7.99986 3.46669V4.46669H8.99986V3.46669H7.99986ZM153 4.46668H156.5V2.46668L153 2.46668V4.46668ZM152 0V3.46668H154V0H152ZM0 1H153V-1H0V1ZM1 2.7987e-05V0H-1V2.7987e-05H1ZM3.5427 -0.999972H0L0 1.00003H3.5427V-0.999972ZM4.5427 3.46669V2.7987e-05H2.5427V3.46669H4.5427ZM0 4.46669H3.5427V2.46669H0V4.46669ZM1 3.4667V3.46669H-1V3.4667H1ZM3.5427 2.4667H0V4.4667H3.5427V2.4667ZM4.5427 6.93337V3.4667H2.5427V6.93337H4.5427ZM0 7.93337H3.5427V5.93337H0V7.93337ZM1 37V6.93337H-1V37H1ZM3.49986 36H0V38H3.49986V36ZM4.49986 40.5L4.49986 37H2.49986L2.49986 40.5H4.49986ZM0 41.5H3.49986V39.5H0V41.5ZM-2.17991e-06 41.5L3.49986 41.5L3.49986 39.5L2.17991e-06 39.5L-2.17991e-06 41.5ZM2.49986 40.5L2.49987 44L4.49987 44L4.49986 40.5L2.49986 40.5ZM2.49987 40.5V44H4.49987V40.5H2.49987ZM7.99986 39.5H3.49987V41.5H7.99986V39.5ZM8.99986 44V40.5H6.99986V44H8.99986ZM152 43H7.99986V45H152V43ZM151 40V44H153V40H151ZM156 39L152 39V41L156 41V39ZM160 39H156V41H160V39ZM161 44V40H159V44H161ZM159.809 43.0184L159.809 43.0184L160.191 44.9816L160.191 44.9816L159.809 43.0184ZM159 0V44H161V0H159ZM161 3.46671L161 3.08109e-05L159 -3.08109e-05L159 3.46665L161 3.46671ZM156.5 4.46668H160V2.46668L156.5 2.46668V4.46668ZM161 40V36H159V40H161ZM156 41H160V39H156V41ZM155 36V40H157V36H155ZM160 35H156V37H160V35ZM161 6.9667V3.46669H159V6.9667H161ZM156.5 7.9667L160 7.9667V5.9667L156.5 5.9667V7.9667ZM155.5 3.46669V6.9667H157.5V3.46669H155.5ZM160 2.46669L156.5 2.46669V4.46669H160V2.46669ZM3.54271 1.00003H7.99986V-0.999972H3.54271V1.00003ZM4.54271 3.46669V2.76839e-05H2.54271V3.46669H4.54271ZM7.99986 2.46669H3.54271V4.46669H7.99986V2.46669ZM6.99986 2.76839e-05V3.46669H8.99986V2.76839e-05H6.99986Z" fill="white" fill-opacity="0.15" mask="url(#path-1-inside-1_64_6052)"/>
</g>
<path d="M40 28H39L39 27H40L40 28Z" fill="white"/>
<path d="M52 28H51V27H52V28Z" fill="white"/>
<path d="M46 24H45V23H46V24Z" fill="white"/>
<path d="M45 23H44V22H45V23Z" fill="white"/>
<path d="M44 22H43V21H44L44 22Z" fill="white"/>
<path d="M47 23H46V22H47V23Z" fill="white"/>
<path d="M48 22H47L47 21H48V22Z" fill="white"/>
<path d="M38 27H39L39 18H38V27Z" fill="white"/>
<path d="M46 14H45L45 17H39V18H45L45 22H46L46 18H52V17H46L46 14Z" fill="white"/>
<path d="M53 18H52V27H53L53 18Z" fill="white"/>
<path d="M40 28V29H51L51 28H40Z" fill="white"/>
<path d="M39 27H38V18H39M39 27L39 28H40M39 27H40L40 28M39 27L39 18M39 18V17H45L45 14H46L46 17H52V18M39 18H45L45 22M52 18H53L53 27H52M52 18H46L46 22M52 18V27M40 28V29H51L51 28M40 28H51M51 28H52V27M51 28V27H52M45 23V24H46V23M45 23H46M45 23H44V22M45 23V22M46 23V22M46 23H47V22M46 22H45M46 22H47M45 22H44M44 22H43V21H44L44 22ZM47 22H48V21H47L47 22Z" stroke="white" stroke-width="0.7"/>
<path d="M69.96 27H67.2L66.816 20.616V19.464H66.528V20.616L66.144 27H63.384L63.096 18.6H64.536L64.728 24.984V26.064H65.016V24.984L65.4 18.6H67.944L68.328 24.984V26.064H68.616V24.984L68.808 18.6H70.248L69.96 27ZM71.3917 25.56H73.4077V22.488H71.5357V21.048H74.9197V25.56H76.6477V27H71.3917V25.56ZM75.2917 19.284C75.2917 19.444 75.2597 19.596 75.1957 19.74C75.1397 19.876 75.0597 19.996 74.9557 20.1C74.8517 20.196 74.7277 20.276 74.5837 20.34C74.4477 20.396 74.3037 20.424 74.1517 20.424C73.9917 20.424 73.8437 20.396 73.7077 20.34C73.5717 20.276 73.4517 20.196 73.3477 20.1C73.2437 19.996 73.1597 19.876 73.0957 19.74C73.0397 19.596 73.0117 19.444 73.0117 19.284C73.0117 19.124 73.0397 18.976 73.0957 18.84C73.1597 18.696 73.2437 18.576 73.3477 18.48C73.4517 18.376 73.5717 18.296 73.7077 18.24C73.8437 18.176 73.9917 18.144 74.1517 18.144C74.3037 18.144 74.4477 18.176 74.5837 18.24C74.7277 18.296 74.8517 18.376 74.9557 18.48C75.0597 18.576 75.1397 18.696 75.1957 18.84C75.2597 18.976 75.2917 19.124 75.2917 19.284ZM78.4633 21.048H80.2273V18.6H81.7393V21.048H83.8873V22.488H81.7393V25.2C81.7393 25.44 81.8473 25.56 82.0633 25.56H83.6713V27H81.1513C80.8793 27 80.6553 26.912 80.4793 26.736C80.3113 26.56 80.2273 26.336 80.2273 26.064V22.488H78.4633V21.048ZM87.515 27H86.003V18.6H87.515V22.008H87.731C87.883 21.648 88.107 21.372 88.403 21.18C88.699 20.98 89.063 20.88 89.495 20.88C89.791 20.88 90.063 20.928 90.311 21.024C90.559 21.12 90.775 21.264 90.959 21.456C91.143 21.648 91.287 21.896 91.391 22.2C91.495 22.496 91.547 22.848 91.547 23.256V27H90.035V23.616C90.035 23.192 89.931 22.86 89.723 22.62C89.523 22.372 89.231 22.248 88.847 22.248C88.399 22.248 88.063 22.4 87.839 22.704C87.623 23 87.515 23.4 87.515 23.904V27ZM97.5986 26.136H97.3826C97.3186 26.272 97.2386 26.404 97.1426 26.532C97.0546 26.652 96.9346 26.76 96.7826 26.856C96.6386 26.952 96.4626 27.028 96.2546 27.084C96.0546 27.14 95.8106 27.168 95.5226 27.168C95.1546 27.168 94.8106 27.104 94.4906 26.976C94.1786 26.84 93.9026 26.644 93.6626 26.388C93.4306 26.124 93.2466 25.804 93.1106 25.428C92.9826 25.052 92.9186 24.62 92.9186 24.132V23.916C92.9186 23.436 92.9866 23.008 93.1226 22.632C93.2666 22.256 93.4586 21.94 93.6986 21.684C93.9466 21.42 94.2306 21.22 94.5506 21.084C94.8786 20.948 95.2226 20.88 95.5826 20.88C96.0626 20.88 96.4426 20.972 96.7226 21.156C97.0026 21.332 97.2226 21.584 97.3826 21.912H97.5986V18.6H99.1106V27H97.5986V26.136ZM96.0146 25.728C96.4866 25.728 96.8666 25.58 97.1546 25.284C97.4506 24.98 97.5986 24.584 97.5986 24.096V23.952C97.5986 23.464 97.4506 23.072 97.1546 22.776C96.8666 22.472 96.4866 22.32 96.0146 22.32C95.5426 22.32 95.1586 22.468 94.8626 22.764C94.5746 23.052 94.4306 23.448 94.4306 23.952V24.096C94.4306 24.6 94.5746 25 94.8626 25.296C95.1586 25.584 95.5426 25.728 96.0146 25.728ZM100.386 21.048H102.906V21.912H103.122C103.234 21.584 103.422 21.332 103.686 21.156C103.958 20.972 104.282 20.88 104.658 20.88C105.25 20.88 105.726 21.068 106.086 21.444C106.446 21.812 106.626 22.376 106.626 23.136V23.4L105.066 23.544V23.376C105.066 23.048 104.982 22.788 104.814 22.596C104.646 22.396 104.394 22.296 104.058 22.296C103.722 22.296 103.458 22.412 103.266 22.644C103.074 22.876 102.978 23.208 102.978 23.64V25.56H104.346V27H100.242V25.56H101.466V22.488H100.386V21.048ZM111.874 26.136C111.714 26.512 111.49 26.78 111.202 26.94C110.914 27.092 110.578 27.168 110.194 27.168C109.834 27.168 109.494 27.1 109.174 26.964C108.862 26.828 108.586 26.628 108.346 26.364C108.106 26.1 107.914 25.78 107.77 25.404C107.634 25.028 107.566 24.6 107.566 24.12V23.928C107.566 23.456 107.634 23.032 107.77 22.656C107.906 22.28 108.09 21.96 108.322 21.696C108.554 21.432 108.822 21.232 109.126 21.096C109.438 20.952 109.77 20.88 110.122 20.88C110.546 20.88 110.886 20.952 111.142 21.096C111.406 21.24 111.614 21.464 111.766 21.768H111.982V21.048H113.494V25.2C113.494 25.44 113.602 25.56 113.818 25.56H114.046V27H113.014C112.742 27 112.518 26.92 112.342 26.76C112.174 26.6 112.09 26.392 112.09 26.136H111.874ZM110.53 25.728C110.97 25.728 111.322 25.584 111.586 25.296C111.85 25 111.982 24.6 111.982 24.096V23.952C111.982 23.448 111.85 23.052 111.586 22.764C111.322 22.468 110.97 22.32 110.53 22.32C110.09 22.32 109.738 22.468 109.474 22.764C109.21 23.052 109.078 23.448 109.078 23.952V24.096C109.078 24.6 109.21 25 109.474 25.296C109.738 25.584 110.09 25.728 110.53 25.728ZM121.202 27H118.586L118.25 22.488V21.768H117.962V22.488L117.626 27H115.01L114.614 21.048H116.006L116.27 25.56V26.28H116.558V25.56L116.858 21.048H119.354L119.654 25.56V26.28H119.942V25.56L120.206 21.048H121.598L121.202 27Z" fill="white"/>
<defs>
<filter id="filter0_b_64_6052" x="-65" y="-65" width="290" height="174" filterUnits="userSpaceOnUse" color-interpolation-filters="sRGB">
<feFlood flood-opacity="0" result="BackgroundImageFix"/>
<feGaussianBlur in="BackgroundImageFix" stdDeviation="32.5"/>
<feComposite in2="SourceAlpha" operator="in" result="effect1_backgroundBlur_64_6052"/>
<feBlend mode="normal" in="SourceGraphic" in2="effect1_backgroundBlur_64_6052" result="shape"/>
</filter>
</defs>
</svg>
