<svg width="24" height="24" viewBox="0 0 24 24" fill="none" xmlns="http://www.w3.org/2000/svg">
<path d="M15 4.00061V5.00061H9V4.00061H15Z" fill="white"/>
<path d="M7 6.00061V5.00061H9V6.00061H7Z" fill="white"/>
<path d="M6 7.00061V6.00061H7V7.00061H6Z" fill="white"/>
<path d="M5 9.00061V7.00061H6V9.00061H5Z" fill="white"/>
<path d="M5 15.0006H4V9.00061H5V15.0006Z" fill="white"/>
<path d="M6 17.0006H5V15.0006H6V17.0006Z" fill="white"/>
<path d="M7 18.0006H6V17.0006H7V18.0006Z" fill="white"/>
<path d="M9 19.0006H7V18.0006H9V19.0006Z" fill="white"/>
<path d="M15 19.0006V20.0006H9V19.0006H15Z" fill="white"/>
<path d="M17 18.0006V19.0006H15V18.0006H17Z" fill="white"/>
<path d="M18 17.0006V18.0006H17V17.0006H18Z" fill="white"/>
<path d="M19 15.0006V17.0006H18V15.0006H19Z" fill="white"/>
<path d="M19 9.00061H20V15.0006H19V9.00061Z" fill="white"/>
<path d="M18 7.00061H19V9.00061H18V7.00061Z" fill="white"/>
<path d="M17 6.00061H18V7.00061H17V6.00061Z" fill="white"/>
<path d="M17 6.00061V5.00061H15V6.00061H17Z" fill="white"/>
<path d="M9 15.0006H10V16.0006H11V17.0006H12V16.0006H14V15.0006H15V13.0006H14V12.0006H12V11.0006H10V9.00061H14V10.0006H15V9.00061H14V8.00061H13V7.00061H12V8.00061H10V9.00061H9V11.0006H10V12.0006H12V13.0006H14V15.0006H10V14.0006H9V15.0006Z" fill="white"/>
<path d="M15 5.00061V4.00061H9V5.00061M15 5.00061H9M15 5.00061H17V6.00061M15 5.00061V6.00061H17M9 5.00061H7V6.00061M9 5.00061V6.00061H7M7 6.00061H6V7.00061M7 6.00061V7.00061H6M6 7.00061H5V9.00061M6 7.00061V9.00061H5M5 9.00061H4V15.0006H5M5 9.00061V15.0006M5 15.0006V17.0006H6M5 15.0006H6V17.0006M6 17.0006V18.0006H7M6 17.0006H7V18.0006M7 18.0006V19.0006H9M7 18.0006H9V19.0006M9 19.0006V20.0006H15V19.0006M9 19.0006H15M15 19.0006H17V18.0006M15 19.0006V18.0006H17M17 18.0006H18V17.0006M17 18.0006V17.0006H18M18 17.0006H19V15.0006M18 17.0006V15.0006H19M19 15.0006H20V9.00061H19M19 15.0006V9.00061M19 9.00061V7.00061H18M19 9.00061H18V7.00061M18 7.00061V6.00061H17M18 7.00061H17V6.00061M10 15.0006H9V14.0006H10V15.0006ZM10 15.0006V16.0006H11V17.0006H12V16.0006H14V15.0006M10 15.0006H14M14 15.0006H15V13.0006H14M14 15.0006V13.0006M14 13.0006V12.0006H12M14 13.0006H12V12.0006M12 12.0006V11.0006H10M12 12.0006H10V11.0006M10 11.0006V9.00061M10 11.0006H9V9.00061H10M10 9.00061H14M10 9.00061V8.00061H12V7.00061H13V8.00061H14V9.00061M14 9.00061V10.0006H15V9.00061H14Z" stroke="white" stroke-width="0.5"/>
</svg>
