<svg width="20" height="20" viewBox="0 0 20 20" fill="none" xmlns="http://www.w3.org/2000/svg">
<path d="M16.6667 5V4.16667H15.8333V3.33333H15V2.5H6.66667V3.33333H5.83333V4.16667H5V5H4.16667V4.16667V3.33333H2.5V8.33333H7.5V6.66667H5.83333V5.83333H6.66667V5H7.5V4.16667H13.3333V5H14.1667V5.83333H15V6.66667H15.8333V13.3333H15V14.1667H14.1667V15H13.3333V15.8333H7.5V15H6.66667V14.1667H5.83333V13.3333H5V12.5H3.33333V15H4.16667V15.8333H5V16.6667H5.83333V17.5H15V16.6667H15.8333V15.8333H16.6667V15H17.5V5H16.6667Z" fill="white"/>
<rect x="6.66663" y="10.8334" width="1.66667" height="5" transform="rotate(90 6.66663 10.8334)" fill="white"/>
<rect x="1.66663" y="10.8334" width="1.66667" height="5" fill="white"/>
</svg>
