<svg width="24" height="24" viewBox="0 0 24 24" fill="none" xmlns="http://www.w3.org/2000/svg">
<path d="M12 12H13V13H19V12H20V11H21V5H20V4H19V3H13V4H12V5H11V11H12V12ZM13 7H14V6H15V5H17V6H18V7H19V9H18V10H17V11H15V10H14V9H13V7Z" fill="white"/>
<path d="M23 16V15H22V14H10V15H9V16H8V21H10V18H11V17H12V16H20V17H21V18H22V21H24V16H23Z" fill="white"/>
<path d="M7.33333 11.3V10.6H6.66667V9.9H5.33333V8.5H4V7.1H2.66667V5.7H1.33333V5H0V7.1H1.33333V8.5H2.66667V9.9H4V11.3H5.33333V12.7H4V14.1H2.66667V15.5H1.33333V16.9H0V19H1.33333V18.3H2.66667V16.9H4V16.2V15.5H5.33333V14.8V14.1H6.66667V13.4H7.33333V12.7H8V12V11.3H7.33333Z" fill="white"/>
</svg>
