<svg width="18" height="18" viewBox="0 0 18 18" fill="none" xmlns="http://www.w3.org/2000/svg">
<path d="M12 1.00061V2.00061H6V1.00061H12Z" fill="white"/>
<path d="M4 3.00061V2.00061H6V3.00061H4Z" fill="white"/>
<path d="M3 4.00061V3.00061H4V4.00061H3Z" fill="white"/>
<path d="M2 6.00061V4.00061H3V6.00061H2Z" fill="white"/>
<path d="M2 12.0006H1V6.00061H2V12.0006Z" fill="white"/>
<path d="M3 14.0006H2V12.0006H3V14.0006Z" fill="white"/>
<path d="M4 15.0006H3V14.0006H4V15.0006Z" fill="white"/>
<path d="M6 16.0006H4V15.0006H6V16.0006Z" fill="white"/>
<path d="M12 16.0006V17.0006H6V16.0006H12Z" fill="white"/>
<path d="M14 15.0006V16.0006H12V15.0006H14Z" fill="white"/>
<path d="M15 14.0006V15.0006H14V14.0006H15Z" fill="white"/>
<path d="M16 12.0006V14.0006H15V12.0006H16Z" fill="white"/>
<path d="M16 6.00061H17V12.0006H16V6.00061Z" fill="white"/>
<path d="M15 4.00061H16V6.00061H15V4.00061Z" fill="white"/>
<path d="M14 3.00061H15V4.00061H14V3.00061Z" fill="white"/>
<path d="M14 3.00061V2.00061H12V3.00061H14Z" fill="white"/>
<path d="M6 12.0006H7V13.0006H8V14.0006H9V13.0006H11V12.0006H12V10.0006H11V9.00061H9V8.00061H7V6.00061H11V7.00061H12V6.00061H11V5.00061H10V4.00061H9V5.00061H7V6.00061H6V8.00061H7V9.00061H9V10.0006H11V12.0006H7V11.0006H6V12.0006Z" fill="white"/>
<path d="M12 2.00061V1.00061H6V2.00061M12 2.00061H6M12 2.00061H14V3.00061M12 2.00061V3.00061H14M6 2.00061H4V3.00061M6 2.00061V3.00061H4M4 3.00061H3V4.00061M4 3.00061V4.00061H3M3 4.00061H2V6.00061M3 4.00061V6.00061H2M2 6.00061H1V12.0006H2M2 6.00061V12.0006M2 12.0006V14.0006H3M2 12.0006H3V14.0006M3 14.0006V15.0006H4M3 14.0006H4V15.0006M4 15.0006V16.0006H6M4 15.0006H6V16.0006M6 16.0006V17.0006H12V16.0006M6 16.0006H12M12 16.0006H14V15.0006M12 16.0006V15.0006H14M14 15.0006H15V14.0006M14 15.0006V14.0006H15M15 14.0006H16V12.0006M15 14.0006V12.0006H16M16 12.0006H17V6.00061H16M16 12.0006V6.00061M16 6.00061V4.00061H15M16 6.00061H15V4.00061M15 4.00061V3.00061H14M15 4.00061H14V3.00061M7 12.0006H6V11.0006H7V12.0006ZM7 12.0006V13.0006H8V14.0006H9V13.0006H11V12.0006M7 12.0006H11M11 12.0006H12V10.0006H11M11 12.0006V10.0006M11 10.0006V9.00061H9M11 10.0006H9V9.00061M9 9.00061V8.00061H7M9 9.00061H7V8.00061M7 8.00061V6.00061M7 8.00061H6V6.00061H7M7 6.00061H11M7 6.00061V5.00061H9V4.00061H10V5.00061H11V6.00061M11 6.00061V7.00061H12V6.00061H11Z" stroke="white" stroke-width="0.5"/>
</svg>
