<svg width="45" height="44" viewBox="0 0 45 44" fill="none" xmlns="http://www.w3.org/2000/svg">
<mask id="path-1-inside-1_45_4665" fill="white">
<path fill-rule="evenodd" clip-rule="evenodd" d="M0 0H8.76458e-06L8.19698e-06 4.39978L8.19697e-06 8.79977H4.41633L4.41633 4.39994L4.41633 4.39978L4.41633 0H4.41637V4.39994H8.83269V0H35.3309V4.39994L39.7472 4.39994V0H39.7472L39.7472 4.39978L39.7472 4.39994L39.7472 8.79977H44.1633V35.1999H39.7472V39.5997V39.5999V43.9997H44.1633V44H0V0ZM35.3309 43.9997H39.7472V39.5997H35.3309V43.9997ZM8.83269 39.5997H4.41637V43.9997H8.83269V39.5997ZM8.01548e-06 35.1999H4.41633L4.41633 39.5997L4.41633 39.5999L4.41633 43.9997H8.78763e-06L8.20852e-06 39.5999L8.01548e-06 35.1999Z"/>
</mask>
<path fill-rule="evenodd" clip-rule="evenodd" d="M0 0H8.76458e-06L8.19698e-06 4.39978L8.19697e-06 8.79977H4.41633L4.41633 4.39994L4.41633 4.39978L4.41633 0H4.41637V4.39994H8.83269V0H35.3309V4.39994L39.7472 4.39994V0H39.7472L39.7472 4.39978L39.7472 4.39994L39.7472 8.79977H44.1633V35.1999H39.7472V39.5997V39.5999V43.9997H44.1633V44H0V0ZM35.3309 43.9997H39.7472V39.5997H35.3309V43.9997ZM8.83269 39.5997H4.41637V43.9997H8.83269V39.5997ZM8.01548e-06 35.1999H4.41633L4.41633 39.5997L4.41633 39.5999L4.41633 43.9997H8.78763e-06L8.20852e-06 39.5999L8.01548e-06 35.1999Z" fill="white" fill-opacity="0.01"/>
<path d="M8.76458e-06 0L1.00001 1.29007e-07L1.00001 -1H8.76458e-06V0ZM0 0V-1H-1V0H0ZM8.19698e-06 4.39978H-0.999992H8.19698e-06ZM8.19697e-06 8.79977H-0.999992V9.79977H8.19697e-06V8.79977ZM4.41633 8.79977V9.79977H5.41633V8.79977H4.41633ZM4.41633 4.39994H5.41633L5.41632 4.39692L4.41633 4.39994ZM4.41633 4.39978H3.41632L3.41633 4.4028L4.41633 4.39978ZM4.41633 0V-1H3.41633V-1.08378e-07L4.41633 0ZM4.41637 0H5.41637V-1H4.41637V0ZM4.41637 4.39994H3.41637V5.39994H4.41637V4.39994ZM8.83269 4.39994V5.39994H9.83269V4.39994H8.83269ZM8.83269 0V-1H7.83269V0H8.83269ZM35.3309 0H36.3309V-1H35.3309V0ZM35.3309 4.39994H34.3309V5.39994H35.3309V4.39994ZM39.7472 4.39994V5.39994H40.7472V4.39994H39.7472ZM39.7472 0V-1H38.7472V0H39.7472ZM39.7472 0L40.7472 8.6702e-07V-1H39.7472V0ZM39.7472 4.39978L38.7472 4.39978V4.41186L38.7475 4.42394L39.7472 4.39978ZM39.7472 4.39994L40.7472 4.39994V4.38785L40.7469 4.37577L39.7472 4.39994ZM39.7472 8.79977L38.7472 8.79977V9.79977H39.7472V8.79977ZM44.1633 8.79977H45.1633V7.79977H44.1633V8.79977ZM44.1633 35.1999V36.1999H45.1633V35.1999H44.1633ZM39.7472 35.1999V34.1999H38.7472V35.1999H39.7472ZM39.7472 43.9997H38.7472V44.9997H39.7472V43.9997ZM44.1633 43.9997H45.1633V42.9997H44.1633V43.9997ZM44.1633 44V45H45.1633V44H44.1633ZM0 44H-1V45H0V44ZM39.7472 43.9997V44.9997H40.7472V43.9997H39.7472ZM35.3309 43.9997H34.3309V44.9997H35.3309V43.9997ZM39.7472 39.5997H40.7472V38.5997H39.7472V39.5997ZM35.3309 39.5997V38.5997H34.3309V39.5997H35.3309ZM4.41637 39.5997V38.5997H3.41637V39.5997H4.41637ZM8.83269 39.5997H9.83269V38.5997H8.83269V39.5997ZM4.41637 43.9997H3.41637V44.9997H4.41637V43.9997ZM8.83269 43.9997V44.9997H9.83269V43.9997H8.83269ZM4.41633 35.1999H5.41633V34.1999H4.41633V35.1999ZM8.01548e-06 35.1999V34.1999H-0.999992V35.1999H8.01548e-06ZM4.41633 39.5997L5.41633 39.6028V39.5997H4.41633ZM4.41633 39.5999L3.41633 39.5968V39.5999H4.41633ZM4.41633 43.9997V44.9997H5.41633V43.9997H4.41633ZM8.78763e-06 43.9997H-0.999991L-0.999991 44.9997H8.78763e-06V43.9997ZM8.20852e-06 39.5999H-0.999992H8.20852e-06ZM8.76458e-06 -1H0V1H8.76458e-06V-1ZM1.00001 4.39978L1.00001 1.29007e-07L-0.999991 -1.29007e-07L-0.999992 4.39978H1.00001ZM1.00001 8.79977V4.39978H-0.999992V8.79977H1.00001ZM4.41633 7.79977H8.19697e-06V9.79977H4.41633V7.79977ZM3.41633 4.39994L3.41633 8.79977H5.41633L5.41633 4.39994H3.41633ZM3.41633 4.4028L3.41633 4.40296L5.41632 4.39692L5.41632 4.39676L3.41633 4.4028ZM3.41633 -1.08378e-07L3.41633 4.39978H5.41633L5.41633 1.08378e-07L3.41633 -1.08378e-07ZM4.41637 -1H4.41633V1H4.41637V-1ZM5.41637 4.39994V0H3.41637V4.39994H5.41637ZM8.83269 3.39994H4.41637V5.39994H8.83269V3.39994ZM7.83269 0V4.39994H9.83269V0H7.83269ZM35.3309 -1H8.83269V1H35.3309V-1ZM36.3309 4.39994V0H34.3309V4.39994H36.3309ZM39.7472 3.39994L35.3309 3.39994V5.39994L39.7472 5.39994V3.39994ZM38.7472 0V4.39994H40.7472V0H38.7472ZM39.7472 -1H39.7472V1H39.7472V-1ZM40.7472 4.39978L40.7472 8.6702e-07L38.7472 -8.6702e-07L38.7472 4.39978L40.7472 4.39978ZM40.7469 4.37577L40.7469 4.37562L38.7475 4.42394L38.7475 4.4241L40.7469 4.37577ZM40.7472 8.79977L40.7472 4.39994L38.7472 4.39994L38.7472 8.79977L40.7472 8.79977ZM44.1633 7.79977H39.7472V9.79977H44.1633V7.79977ZM45.1633 35.1999V8.79977H43.1633V35.1999H45.1633ZM39.7472 36.1999H44.1633V34.1999H39.7472V36.1999ZM40.7472 39.5997V35.1999H38.7472V39.5997H40.7472ZM40.7472 39.5999V39.5997H38.7472V39.5999H40.7472ZM40.7472 43.9997V39.5999H38.7472V43.9997H40.7472ZM44.1633 42.9997H39.7472V44.9997H44.1633V42.9997ZM45.1633 44V43.9997H43.1633V44H45.1633ZM0 45H44.1633V43H0V45ZM-1 0V44H1V0H-1ZM39.7472 42.9997H35.3309V44.9997H39.7472V42.9997ZM38.7472 39.5997V43.9997H40.7472V39.5997H38.7472ZM35.3309 40.5997H39.7472V38.5997H35.3309V40.5997ZM36.3309 43.9997V39.5997H34.3309V43.9997H36.3309ZM4.41637 40.5997H8.83269V38.5997H4.41637V40.5997ZM5.41637 43.9997V39.5997H3.41637V43.9997H5.41637ZM8.83269 42.9997H4.41637V44.9997H8.83269V42.9997ZM7.83269 39.5997V43.9997H9.83269V39.5997H7.83269ZM4.41633 34.1999H8.01548e-06V36.1999H4.41633V34.1999ZM5.41633 39.5997L5.41633 35.1999H3.41633L3.41633 39.5997H5.41633ZM3.41633 39.5967L3.41633 39.5968L5.41632 39.6029L5.41632 39.6028L3.41633 39.5967ZM3.41633 39.5999L3.41633 43.9997H5.41633L5.41633 39.5999H3.41633ZM4.41633 42.9997H8.78763e-06V44.9997H4.41633V42.9997ZM1.00001 43.9997L1.00001 39.5999H-0.999992L-0.999991 43.9997H1.00001ZM-0.999992 35.1999L-0.999992 39.5999H1.00001L1.00001 35.1999H-0.999992Z" fill="white" fill-opacity="0.15" mask="url(#path-1-inside-1_45_4665)"/>
<path d="M23.7277 22.3137L26.5561 19.4853L25.1419 18.071L22.3135 20.8995L19.485 18.071L18.0708 19.4853L20.8993 22.3137L18.0708 25.1421L19.485 26.5563L22.3135 23.7279L25.1419 26.5563L26.5561 25.1421L23.7277 22.3137Z" fill="white"/>
<rect x="27.2632" y="25.8492" width="2" height="2" transform="rotate(45 27.2632 25.8492)" fill="white"/>
<rect x="17.3638" y="15.9498" width="2" height="2" transform="rotate(45 17.3638 15.9498)" fill="white"/>
<rect x="18.7778" y="27.2634" width="2" height="2" transform="rotate(135 18.7778 27.2634)" fill="white"/>
<rect x="28.6772" y="17.364" width="2" height="2" transform="rotate(135 28.6772 17.364)" fill="white"/>
</svg>
