<svg width="16" height="16" viewBox="0 0 16 16" fill="none" xmlns="http://www.w3.org/2000/svg">
<path d="M9.1179 8.21388L11.0392 6.28541L10.0786 5.32117L8.15723 7.24965L6.23588 5.32117L5.27521 6.28541L7.19655 8.21388L5.27521 10.1424L6.23588 11.1066L8.15723 9.17812L10.0786 11.1066L11.0392 10.1424L9.1179 8.21388Z" fill="white"/>
<rect width="1.36112" height="1.36112" transform="matrix(0.705796 0.708415 -0.705796 0.708415 11.5195 10.6245)" fill="white"/>
<rect width="1.36112" height="1.36112" transform="matrix(0.705796 0.708415 -0.705796 0.708415 4.79492 3.87476)" fill="white"/>
<rect width="1.36112" height="1.36112" transform="matrix(-0.705796 0.708415 -0.705796 -0.708415 5.75586 11.5887)" fill="white"/>
<rect width="1.36112" height="1.36112" transform="matrix(-0.705796 0.708415 -0.705796 -0.708415 12.4805 4.83911)" fill="white"/>
</svg>
