<svg width="110" height="44" viewBox="0 0 110 44" fill="none" xmlns="http://www.w3.org/2000/svg">
<path fill-rule="evenodd" clip-rule="evenodd" d="M0 3.46668V3.46667H3.46642V0H103V3.46668L106.5 3.46668V6.9667L110 6.9667L110 36H106.467L106.467 40L102.467 40V44L0 44L2.96668 44V40.5L0 40.5H2.96668V37L0 37V6.93334H3.46642V3.46668H0ZM6.93335 9.91431e-06L3.46668 9.91431e-06V3.46668H6.93335V9.91431e-06ZM6.46668 40.5H2.96669V44H6.46668L6.46668 40.5Z" fill="#66BE47"/>
<path d="M46.153 24.728C46.457 24.728 46.705 24.684 46.897 24.596C47.097 24.5 47.249 24.376 47.353 24.224C47.465 24.064 47.541 23.884 47.581 23.684C47.621 23.476 47.641 23.264 47.641 23.048V22.832H49.225V23.048C49.225 24.048 48.961 24.82 48.433 25.364C47.913 25.9 47.153 26.168 46.153 26.168C45.193 26.168 44.433 25.876 43.873 25.292C43.313 24.708 43.033 23.856 43.033 22.736V20.864C43.033 20.328 43.105 19.848 43.249 19.424C43.393 18.992 43.601 18.632 43.873 18.344C44.145 18.048 44.473 17.824 44.857 17.672C45.241 17.512 45.673 17.432 46.153 17.432C46.649 17.432 47.089 17.504 47.473 17.648C47.857 17.792 48.177 18 48.433 18.272C48.697 18.544 48.893 18.872 49.021 19.256C49.157 19.64 49.225 20.072 49.225 20.552V20.768H47.641V20.552C47.641 20.352 47.617 20.152 47.569 19.952C47.521 19.752 47.441 19.572 47.329 19.412C47.217 19.252 47.065 19.124 46.873 19.028C46.681 18.924 46.441 18.872 46.153 18.872C45.889 18.872 45.661 18.924 45.469 19.028C45.277 19.124 45.117 19.26 44.989 19.436C44.861 19.604 44.765 19.804 44.701 20.036C44.645 20.26 44.617 20.496 44.617 20.744V22.856C44.617 23.128 44.645 23.38 44.701 23.612C44.757 23.836 44.845 24.032 44.965 24.2C45.085 24.368 45.241 24.5 45.433 24.596C45.633 24.684 45.873 24.728 46.153 24.728ZM56.3207 26H54.7367V23.48C54.7367 23.288 54.6847 23.132 54.5807 23.012C54.4847 22.892 54.3207 22.832 54.0887 22.832H52.2647V26H50.6807V17.6H53.8967C54.3287 17.6 54.7087 17.66 55.0367 17.78C55.3647 17.9 55.6367 18.068 55.8527 18.284C56.0767 18.492 56.2447 18.736 56.3567 19.016C56.4767 19.296 56.5367 19.596 56.5367 19.916V20.204C56.5367 20.548 56.4447 20.872 56.2607 21.176C56.0767 21.472 55.7927 21.7 55.4087 21.86V22.076C55.6887 22.108 55.9087 22.216 56.0687 22.4C56.2367 22.584 56.3207 22.816 56.3207 23.096V26ZM52.2647 21.32H53.7767C54.1607 21.32 54.4527 21.232 54.6527 21.056C54.8527 20.872 54.9527 20.616 54.9527 20.288V20.144C54.9527 19.864 54.8527 19.624 54.6527 19.424C54.4527 19.216 54.1607 19.112 53.7767 19.112H52.2647V21.32ZM60.0323 23.048H59.6723L57.2603 17.6H58.9883L60.7163 21.608H60.9323L62.6603 17.6H64.3883L61.9763 23.048H61.6163V26H60.0323V23.048ZM66.948 22.832V26H65.364V17.6H68.652C69.084 17.6 69.46 17.672 69.78 17.816C70.1 17.952 70.364 18.136 70.572 18.368C70.788 18.592 70.948 18.852 71.052 19.148C71.164 19.436 71.22 19.732 71.22 20.036V20.324C71.22 20.636 71.164 20.944 71.052 21.248C70.948 21.544 70.788 21.812 70.572 22.052C70.364 22.284 70.1 22.472 69.78 22.616C69.46 22.76 69.084 22.832 68.652 22.832H66.948ZM66.948 21.32H68.496C68.848 21.32 69.124 21.224 69.324 21.032C69.532 20.84 69.636 20.592 69.636 20.288V20.144C69.636 19.84 69.532 19.592 69.324 19.4C69.124 19.208 68.848 19.112 68.496 19.112H66.948V21.32ZM72.4957 17.6H78.5437V19.112H76.3117V26H74.7277V19.112H72.4957V17.6ZM79.7713 20.864C79.7713 19.776 80.0433 18.932 80.5873 18.332C81.1393 17.732 81.8993 17.432 82.8673 17.432C83.8353 17.432 84.5913 17.732 85.1353 18.332C85.6873 18.932 85.9633 19.776 85.9633 20.864V22.736C85.9633 23.856 85.6873 24.708 85.1353 25.292C84.5913 25.876 83.8353 26.168 82.8673 26.168C81.8993 26.168 81.1393 25.876 80.5873 25.292C80.0433 24.708 79.7713 23.856 79.7713 22.736V20.864ZM82.8673 24.728C83.1553 24.728 83.3953 24.684 83.5873 24.596C83.7793 24.5 83.9353 24.368 84.0553 24.2C84.1753 24.032 84.2593 23.832 84.3073 23.6C84.3553 23.368 84.3793 23.112 84.3793 22.832V20.768C84.3793 20.504 84.3513 20.256 84.2953 20.024C84.2393 19.792 84.1513 19.592 84.0313 19.424C83.9113 19.256 83.7553 19.124 83.5633 19.028C83.3713 18.924 83.1393 18.872 82.8673 18.872C82.5953 18.872 82.3633 18.924 82.1713 19.028C81.9793 19.124 81.8233 19.256 81.7033 19.424C81.5833 19.592 81.4953 19.792 81.4393 20.024C81.3833 20.256 81.3553 20.504 81.3553 20.768V22.832C81.3553 23.112 81.3793 23.368 81.4273 23.6C81.4753 23.832 81.5593 24.032 81.6793 24.2C81.7993 24.368 81.9553 24.5 82.1473 24.596C82.3393 24.684 82.5793 24.728 82.8673 24.728Z" fill="white"/>
<path d="M31.75 24.625V22H32.625V24.625H31.75Z" fill="white"/>
<path d="M31.75 21.125V22H29.125V24.625H31.75V25.5H30V26.375H29.125V25.5H27.375V24.625H28.25V19.375H27.375V18.5H30V17.625H30.875V18.5H31.75V19.375H29.125V21.125H31.75Z" fill="white"/>
<path d="M31.75 21.125V19.375H32.625V21.125H31.75Z" fill="white"/>
<path fill-rule="evenodd" clip-rule="evenodd" d="M27.375 15V15.875H25.625V16.75H24.75L24.75 17.625H23.875L23.875 19.375H23V24.625H23.875V26.375H24.75V27.25H25.625V28.125H27.375V29H32.625V28.125H34.375V27.25H35.25V26.375H36.125V24.625H37V19.375H36.125V17.625H35.25V16.75H34.375V15.875H32.625V15H27.375ZM32.625 15.875L32.625 16.75H34.375V17.625H35.25V19.375H36.125V24.625H35.25V26.375H34.375V27.25H32.625L32.625 28.125H27.375V27.25H25.625V26.375H24.75V24.625H23.875V19.375H24.75L24.75 17.625H25.625V16.75H27.375V15.875H32.625Z" fill="white"/>
<path d="M27.375 15.875V15H32.625V15.875M27.375 15.875H25.625V16.75M27.375 15.875V16.75H25.625M27.375 15.875H32.625M25.625 16.75H24.75L24.75 17.625M25.625 16.75V17.625H24.75M24.75 17.625H23.875L23.875 19.375M24.75 17.625L24.75 19.375H23.875M23.875 19.375H23V24.625H23.875M23.875 19.375V24.625M23.875 24.625V26.375H24.75M23.875 24.625H24.75V26.375M24.75 26.375V27.25H25.625M24.75 26.375H25.625V27.25M25.625 27.25V28.125H27.375M25.625 27.25H27.375V28.125M27.375 28.125V29H32.625V28.125M27.375 28.125H32.625M32.625 28.125H34.375V27.25M32.625 28.125L32.625 27.25H34.375M34.375 27.25H35.25V26.375M34.375 27.25V26.375H35.25M35.25 26.375H36.125V24.625M35.25 26.375V24.625H36.125M36.125 24.625H37V19.375H36.125M36.125 24.625V19.375M36.125 19.375V17.625H35.25M36.125 19.375H35.25V17.625M35.25 17.625V16.75H34.375M35.25 17.625H34.375V16.75M34.375 16.75V15.875H32.625M34.375 16.75H32.625L32.625 15.875M31.75 22V24.625M31.75 22H32.625V24.625H31.75M31.75 22V21.125M31.75 22H29.125V24.625H31.75M31.75 24.625V25.5H30V26.375H29.125V25.5H27.375V24.625H28.25V19.375H27.375V18.5H30V17.625H30.875V18.5H31.75V19.375M31.75 21.125H29.125V19.375H31.75M31.75 21.125V19.375M31.75 21.125H32.625V19.375H31.75" stroke="white" stroke-width="0.4"/>
</svg>
