<svg width="91" height="44" viewBox="0 0 91 44" fill="none" xmlns="http://www.w3.org/2000/svg">
<g filter="url(#filter0_b_61_3386)">
<mask id="path-1-inside-1_61_3386" fill="white">
<path fill-rule="evenodd" clip-rule="evenodd" d="M0.63855 3.46667V3.46667H4.11889V0H4.11915V3.46667H7.59974V0H84.5073V3.46662L88.0214 3.46667V6.96669H91L91 36H86.9839V40L82.9679 40V44H7.1312V40.5H3.61715L3.61715 44L3.61714 40.5L3.61714 37H0.63855V6.93334H4.11889V3.46667H0.63855Z"/>
</mask>
<path fill-rule="evenodd" clip-rule="evenodd" d="M0.63855 3.46667V3.46667H4.11889V0H4.11915V3.46667H7.59974V0H84.5073V3.46662L88.0214 3.46667V6.96669H91L91 36H86.9839V40L82.9679 40V44H7.1312V40.5H3.61715L3.61715 44L3.61714 40.5L3.61714 37H0.63855V6.93334H4.11889V3.46667H0.63855Z" fill="white" fill-opacity="0.01"/>
<path d="M0.63855 3.46667V2.46667H-0.36145V3.46667H0.63855ZM0.63855 3.46667H-0.36145V4.46667H0.63855V3.46667ZM4.11889 3.46667V4.46667H5.11889V3.46667H4.11889ZM4.11889 0V-1H3.11889V0H4.11889ZM4.11915 0H5.11915V-1H4.11915V0ZM4.11915 3.46667H3.11915V4.46667H4.11915V3.46667ZM7.59974 3.46667V4.46667H8.59974V3.46667H7.59974ZM7.59974 0V-1H6.59974V0H7.59974ZM84.5073 0H85.5073V-1H84.5073V0ZM84.5073 3.46662H83.5073V4.46661L84.5073 4.46662L84.5073 3.46662ZM88.0214 3.46667H89.0214V2.46669L88.0214 2.46667L88.0214 3.46667ZM88.0214 6.96669H87.0214V7.96669H88.0214V6.96669ZM91 6.96669L92 6.96668V5.96669H91V6.96669ZM91 36V37H92V36H91ZM86.9839 36V35H85.9839V36H86.9839ZM86.9839 40V41H87.9839V40H86.9839ZM82.9679 40V39H81.9679V40H82.9679ZM82.9679 44V45H83.9679V44H82.9679ZM7.1312 44H6.1312V45H7.1312V44ZM7.1312 40.5H8.1312V39.5H7.1312V40.5ZM3.61715 40.5V39.5H2.61715L2.61715 40.5H3.61715ZM3.61714 40.5H2.61714H3.61714ZM3.61714 37H4.61714V36H3.61714V37ZM0.63855 37H-0.36145V38H0.63855V37ZM0.63855 6.93334V5.93334H-0.36145V6.93334H0.63855ZM4.11889 6.93334V7.93334H5.11889V6.93334H4.11889ZM4.11889 3.46667H5.11889V2.46667H4.11889V3.46667ZM-0.36145 3.46667V3.46667H1.63855V3.46667H-0.36145ZM4.11889 2.46667H0.63855V4.46667H4.11889V2.46667ZM3.11889 0V3.46667H5.11889V0H3.11889ZM4.11915 -1H4.11889V1H4.11915V-1ZM5.11915 3.46667V0H3.11915V3.46667H5.11915ZM7.59974 2.46667H4.11915V4.46667H7.59974V2.46667ZM6.59974 0V3.46667H8.59974V0H6.59974ZM84.5073 -1H7.59974V1H84.5073V-1ZM85.5073 3.46662V0H83.5073V3.46662H85.5073ZM88.0214 2.46667L84.5074 2.46662L84.5073 4.46662L88.0214 4.46667L88.0214 2.46667ZM89.0214 6.96669V3.46667H87.0214V6.96669H89.0214ZM91 5.96669H88.0214V7.96669H91V5.96669ZM92 36L92 6.96668L90 6.96669L90 36H92ZM86.9839 37H91V35H86.9839V37ZM87.9839 40V36H85.9839V40H87.9839ZM82.9679 41L86.9839 41V39L82.9679 39V41ZM83.9679 44V40H81.9679V44H83.9679ZM7.1312 45H82.9679V43H7.1312V45ZM6.1312 40.5V44H8.1312V40.5H6.1312ZM3.61715 41.5H7.1312V39.5H3.61715V41.5ZM4.61715 44L4.61715 40.5H2.61715L2.61715 44H4.61715ZM2.61714 40.5L2.61715 44H4.61715L4.61714 40.5H2.61714ZM2.61714 37L2.61714 40.5H4.61714L4.61714 37H2.61714ZM0.63855 38H3.61714V36H0.63855V38ZM-0.36145 6.93334V37H1.63855V6.93334H-0.36145ZM4.11889 5.93334H0.63855V7.93334H4.11889V5.93334ZM3.11889 3.46667V6.93334H5.11889V3.46667H3.11889ZM0.63855 4.46667H4.11889V2.46667H0.63855V4.46667Z" fill="white" fill-opacity="0.15" mask="url(#path-1-inside-1_61_3386)"/>
</g>
<path fill-rule="evenodd" clip-rule="evenodd" d="M13 12H33V12.0001L31 12.0001L29 12.0001V14.0001H31L31 16.0001H33V28.0001H31V30.0001L29 30.0001V32H17L17 30H15L15 32L15 30L15 28H13L13 30L13 32H13V16.0001H15V14.0001H13V14.0001H15V12.0001H13V12ZM17 12.0001L15 12.0001V14.0001H17V12.0001Z"/>
<path d="M46.3713 24.488H47.1633V19.112H46.3713V17.6H50.0553C50.4553 17.6 50.8073 17.656 51.1113 17.768C51.4233 17.88 51.6833 18.032 51.8913 18.224C52.1073 18.416 52.2673 18.648 52.3713 18.92C52.4833 19.184 52.5393 19.472 52.5393 19.784V19.928C52.5393 20.408 52.4033 20.792 52.1313 21.08C51.8673 21.368 51.5313 21.568 51.1233 21.68V21.896C51.5313 22.008 51.8673 22.212 52.1313 22.508C52.4033 22.796 52.5393 23.18 52.5393 23.66V23.804C52.5393 24.116 52.4833 24.408 52.3713 24.68C52.2673 24.944 52.1073 25.176 51.8913 25.376C51.6833 25.568 51.4233 25.72 51.1113 25.832C50.8073 25.944 50.4553 26 50.0553 26H46.3713V24.488ZM48.7473 24.488H49.8993C50.2353 24.488 50.5073 24.416 50.7153 24.272C50.9233 24.128 51.0273 23.888 51.0273 23.552V23.48C51.0273 23.144 50.9233 22.904 50.7153 22.76C50.5073 22.616 50.2353 22.544 49.8993 22.544H48.7473V24.488ZM48.7473 21.032H49.8993C50.2353 21.032 50.5073 20.964 50.7153 20.828C50.9233 20.684 51.0273 20.444 51.0273 20.108V20.036C51.0273 19.7 50.9233 19.464 50.7153 19.328C50.5073 19.184 50.2353 19.112 49.8993 19.112H48.7473V21.032ZM57.9789 25.208H58.1949V17.6H59.7789V26H56.6829L55.6989 18.392H55.4829V26H53.8989V17.6H56.9949L57.9789 25.208ZM61.0666 24.488H61.8586V19.112H61.0666V17.6H64.7506C65.1506 17.6 65.5026 17.656 65.8066 17.768C66.1186 17.88 66.3786 18.032 66.5866 18.224C66.8026 18.416 66.9626 18.648 67.0666 18.92C67.1786 19.184 67.2346 19.472 67.2346 19.784V19.928C67.2346 20.408 67.0986 20.792 66.8266 21.08C66.5626 21.368 66.2266 21.568 65.8186 21.68V21.896C66.2266 22.008 66.5626 22.212 66.8266 22.508C67.0986 22.796 67.2346 23.18 67.2346 23.66V23.804C67.2346 24.116 67.1786 24.408 67.0666 24.68C66.9626 24.944 66.8026 25.176 66.5866 25.376C66.3786 25.568 66.1186 25.72 65.8066 25.832C65.5026 25.944 65.1506 26 64.7506 26H61.0666V24.488ZM63.4426 24.488H64.5946C64.9306 24.488 65.2026 24.416 65.4106 24.272C65.6186 24.128 65.7226 23.888 65.7226 23.552V23.48C65.7226 23.144 65.6186 22.904 65.4106 22.76C65.2026 22.616 64.9306 22.544 64.5946 22.544H63.4426V24.488ZM63.4426 21.032H64.5946C64.9306 21.032 65.2026 20.964 65.4106 20.828C65.6186 20.684 65.7226 20.444 65.7226 20.108V20.036C65.7226 19.7 65.6186 19.464 65.4106 19.328C65.2026 19.184 64.9306 19.112 64.5946 19.112H63.4426V21.032Z" fill="white"/>
<defs>
<filter id="filter0_b_61_3386" x="-44.3615" y="-45" width="180.361" height="134" filterUnits="userSpaceOnUse" color-interpolation-filters="sRGB">
<feFlood flood-opacity="0" result="BackgroundImageFix"/>
<feGaussianBlur in="BackgroundImageFix" stdDeviation="22.5"/>
<feComposite in2="SourceAlpha" operator="in" result="effect1_backgroundBlur_61_3386"/>
<feBlend mode="normal" in="SourceGraphic" in2="effect1_backgroundBlur_61_3386" result="shape"/>
</filter>
</defs>
</svg>
