<svg width="90" height="44" viewBox="0 0 90 44" fill="none" xmlns="http://www.w3.org/2000/svg">
<g filter="url(#filter0_b_61_3061)">
<mask id="path-1-inside-1_61_3061" fill="white">
<path fill-rule="evenodd" clip-rule="evenodd" d="M0 3.46668V3.46667H3.46642V0H83.5333V3.46668L87.0333 3.46669V6.9667L90 6.9667V36H86L86 40L82 40V44L0 44L2.96668 44V40.5L0 40.5H2.96668V37L0 37V6.93334H3.46642V3.46668H0ZM6.93335 9.91431e-06L3.46668 9.91431e-06V3.46668H6.93335V9.91431e-06ZM6.46668 40.5H2.96669V44H6.46668L6.46668 40.5Z"/>
</mask>
<path fill-rule="evenodd" clip-rule="evenodd" d="M0 3.46668V3.46667H3.46642V0H83.5333V3.46668L87.0333 3.46669V6.9667L90 6.9667V36H86L86 40L82 40V44L0 44L2.96668 44V40.5L0 40.5H2.96668V37L0 37V6.93334H3.46642V3.46668H0ZM6.93335 9.91431e-06L3.46668 9.91431e-06V3.46668H6.93335V9.91431e-06ZM6.46668 40.5H2.96669V44H6.46668L6.46668 40.5Z" fill="white" fill-opacity="0.01"/>
<path d="M0 3.46667V2.46667H-1V3.46667H0ZM0 3.46668H-1V4.46668H0V3.46668ZM3.46642 3.46667V4.46667H4.46642V3.46667H3.46642ZM3.46642 0V-1H2.46642V0H3.46642ZM83.5333 0H84.5333V-1H83.5333V0ZM83.5333 3.46668H82.5333V4.46668L83.5333 4.46668V3.46668ZM87.0333 3.46669H88.0333V2.46669L87.0333 2.46669V3.46669ZM87.0333 6.9667H86.0333V7.9667H87.0333V6.9667ZM90 6.9667H91V5.9667H90V6.9667ZM90 36V37H91V36H90ZM86 36V35H85V36L86 36ZM86 40V41H87V40L86 40ZM82 40V39H81V40H82ZM82 44V45H83V44H82ZM2.96668 44L2.96669 45L3.96668 45V44H2.96668ZM2.96668 40.5H3.96668V39.5L2.96669 39.5L2.96668 40.5ZM2.96668 40.5V41.5H3.96668V40.5H2.96668ZM2.96668 37H3.96668V36H2.96668L2.96668 37ZM0 37H-1V38H1.28585e-06L0 37ZM0 6.93334V5.93334H-1V6.93334H0ZM3.46642 6.93334V7.93334H4.46642V6.93334H3.46642ZM3.46642 3.46668H4.46642V2.46668H3.46642V3.46668ZM3.46668 9.91431e-06V-0.99999H2.46668V9.91431e-06H3.46668ZM6.93335 9.91431e-06H7.93335V-0.99999H6.93335V9.91431e-06ZM3.46668 3.46668H2.46668V4.46668H3.46668V3.46668ZM6.93335 3.46668V4.46668H7.93335V3.46668H6.93335ZM2.96669 40.5V39.5H1.96669V40.5H2.96669ZM6.46668 40.5H7.46668V39.5H6.46668V40.5ZM2.96669 44H1.96669V45H2.96669V44ZM6.46668 44V45H7.46668V44H6.46668ZM-1 3.46667V3.46668H1V3.46667H-1ZM3.46642 2.46667H0V4.46667H3.46642V2.46667ZM2.46642 0V3.46667H4.46642V0H2.46642ZM83.5333 -1H3.46642V1H83.5333V-1ZM84.5333 3.46668V0H82.5333V3.46668H84.5333ZM87.0333 2.46669L83.5333 2.46668V4.46668L87.0333 4.46669V2.46669ZM88.0333 6.9667V3.46669H86.0333V6.9667H88.0333ZM90 5.9667L87.0333 5.9667V7.9667L90 7.9667V5.9667ZM91 36V6.9667H89V36H91ZM86 37H90V35H86V37ZM87 40L87 36L85 36L85 40L87 40ZM82 41L86 41V39L82 39V41ZM83 44V40H81V44H83ZM-2.79124e-07 45L82 45V43L2.79124e-07 43L-2.79124e-07 45ZM2.96668 43L-3.85754e-06 43L3.85754e-06 45L2.96669 45L2.96668 43ZM1.96668 40.5V44H3.96668V40.5H1.96668ZM-2.57169e-06 41.5L2.96668 41.5L2.96669 39.5L2.57169e-06 39.5L-2.57169e-06 41.5ZM2.96668 39.5H0V41.5H2.96668V39.5ZM1.96668 37V40.5H3.96668V37H1.96668ZM1.28585e-06 38L2.96668 38L2.96668 36L-1.28585e-06 36L1.28585e-06 38ZM-1 6.93334V37H1V6.93334H-1ZM3.46642 5.93334H0V7.93334H3.46642V5.93334ZM2.46642 3.46668V6.93334H4.46642V3.46668H2.46642ZM0 4.46668H3.46642V2.46668H0V4.46668ZM3.46668 1.00001H6.93335V-0.99999H3.46668V1.00001ZM4.46668 3.46668V9.91431e-06H2.46668V3.46668H4.46668ZM6.93335 2.46668H3.46668V4.46668H6.93335V2.46668ZM5.93335 9.91431e-06V3.46668H7.93335V9.91431e-06H5.93335ZM2.96669 41.5H6.46668V39.5H2.96669V41.5ZM3.96669 44V40.5H1.96669V44H3.96669ZM6.46668 43H2.96669V45H6.46668V43ZM5.46668 40.5L5.46668 44H7.46668L7.46668 40.5H5.46668Z" fill="white" fill-opacity="0.15" mask="url(#path-1-inside-1_61_3061)"/>
</g>
<path d="M32.2 14.8V15.6H30.6V14.8H28.2V14H23.4V14.8H21V30H22.6V26H25V25.2H26.6V26H29V26.8H33.8V26H35.4V14.8H32.2ZM33.8 24.4H32.2V25.2H30.6V24.4H28.2V23.6H23.4V24.4H22.6V16.4H25V15.6H26.6V16.4H29V17.2H33.8V24.4Z" fill="white"/>
<path d="M49.812 25.208H50.028V17.6H51.612V26H48.516L47.532 18.392H47.316V26H45.732V17.6H48.828L49.812 25.208ZM53.4037 17.6H58.7797V19.112H54.9877V21.032H58.7077V22.544H54.9877V26H53.4037V17.6ZM60.3433 17.6H66.3913V19.112H64.1593V26H62.5753V19.112H60.3433V17.6Z" fill="white"/>
<defs>
<filter id="filter0_b_61_3061" x="-45" y="-45" width="180" height="134" filterUnits="userSpaceOnUse" color-interpolation-filters="sRGB">
<feFlood flood-opacity="0" result="BackgroundImageFix"/>
<feGaussianBlur in="BackgroundImageFix" stdDeviation="22.5"/>
<feComposite in2="SourceAlpha" operator="in" result="effect1_backgroundBlur_61_3061"/>
<feBlend mode="normal" in="SourceGraphic" in2="effect1_backgroundBlur_61_3061" result="shape"/>
</filter>
</defs>
</svg>
