<svg width="91" height="44" viewBox="0 0 91 44" fill="none" xmlns="http://www.w3.org/2000/svg">
<g filter="url(#filter0_b_61_3320)">
<mask id="path-1-inside-1_61_3320" fill="white">
<path fill-rule="evenodd" clip-rule="evenodd" d="M0.409637 3.46667V3.46667H3.88998V0H3.89024V3.46667H7.37083V0H84.2784V3.46662L87.7925 3.46667V6.96669H90.7711V36H86.755V40L82.739 40V44H6.90228V40.5H3.38822L3.38822 44L3.38822 40.5L3.38822 37H0.409637V6.93334H3.88998V3.46667H0.409637Z"/>
</mask>
<path fill-rule="evenodd" clip-rule="evenodd" d="M0.409637 3.46667V3.46667H3.88998V0H3.89024V3.46667H7.37083V0H84.2784V3.46662L87.7925 3.46667V6.96669H90.7711V36H86.755V40L82.739 40V44H6.90228V40.5H3.38822L3.38822 44L3.38822 40.5L3.38822 37H0.409637V6.93334H3.88998V3.46667H0.409637Z" fill="white" fill-opacity="0.01"/>
<path d="M0.409637 3.46667V2.46667H-0.590363V3.46667H0.409637ZM0.409637 3.46667H-0.590363V4.46667H0.409637V3.46667ZM3.88998 3.46667V4.46667H4.88998V3.46667H3.88998ZM3.88998 0V-1H2.88998V0H3.88998ZM3.89024 0H4.89024V-1H3.89024V0ZM3.89024 3.46667H2.89024V4.46667H3.89024V3.46667ZM7.37083 3.46667V4.46667H8.37083V3.46667H7.37083ZM7.37083 0V-1H6.37083V0H7.37083ZM84.2784 0H85.2784V-1H84.2784V0ZM84.2784 3.46662H83.2784V4.46661L84.2784 4.46662L84.2784 3.46662ZM87.7925 3.46667H88.7925V2.46669L87.7925 2.46667L87.7925 3.46667ZM87.7925 6.96669H86.7925V7.96669H87.7925V6.96669ZM90.7711 6.96669H91.7711V5.96669H90.7711V6.96669ZM90.7711 36V37H91.7711V36H90.7711ZM86.755 36V35H85.755V36H86.755ZM86.755 40V41H87.755V40H86.755ZM82.739 40V39H81.739V40H82.739ZM82.739 44V45H83.739V44H82.739ZM6.90228 44H5.90228V45H6.90228V44ZM6.90228 40.5H7.90228V39.5H6.90228V40.5ZM3.38822 40.5V39.5H2.38822L2.38822 40.5H3.38822ZM3.38822 40.5H2.38822H3.38822ZM3.38822 37H4.38822V36H3.38822V37ZM0.409637 37H-0.590363V38H0.409637V37ZM0.409637 6.93334V5.93334H-0.590363V6.93334H0.409637ZM3.88998 6.93334V7.93334H4.88998V6.93334H3.88998ZM3.88998 3.46667H4.88998V2.46667H3.88998V3.46667ZM-0.590363 3.46667V3.46667H1.40964V3.46667H-0.590363ZM3.88998 2.46667H0.409637V4.46667H3.88998V2.46667ZM2.88998 0V3.46667H4.88998V0H2.88998ZM3.89024 -1H3.88998V1H3.89024V-1ZM4.89024 3.46667V0H2.89024V3.46667H4.89024ZM7.37083 2.46667H3.89024V4.46667H7.37083V2.46667ZM6.37083 0V3.46667H8.37083V0H6.37083ZM84.2784 -1H7.37083V1H84.2784V-1ZM85.2784 3.46662V0H83.2784V3.46662H85.2784ZM87.7925 2.46667L84.2785 2.46662L84.2784 4.46662L87.7925 4.46667L87.7925 2.46667ZM88.7925 6.96669V3.46667H86.7925V6.96669H88.7925ZM90.7711 5.96669H87.7925V7.96669H90.7711V5.96669ZM91.7711 36V6.96669H89.7711V36H91.7711ZM86.755 37H90.7711V35H86.755V37ZM87.755 40V36H85.755V40H87.755ZM82.739 41L86.755 41V39L82.739 39V41ZM83.739 44V40H81.739V44H83.739ZM6.90228 45H82.739V43H6.90228V45ZM5.90228 40.5V44H7.90228V40.5H5.90228ZM3.38822 41.5H6.90228V39.5H3.38822V41.5ZM4.38822 44L4.38822 40.5H2.38822L2.38822 44H4.38822ZM2.38822 40.5L2.38822 44H4.38822L4.38822 40.5H2.38822ZM2.38822 37L2.38822 40.5H4.38822L4.38822 37H2.38822ZM0.409637 38H3.38822V36H0.409637V38ZM-0.590363 6.93334V37H1.40964V6.93334H-0.590363ZM3.88998 5.93334H0.409637V7.93334H3.88998V5.93334ZM2.88998 3.46667V6.93334H4.88998V3.46667H2.88998ZM0.409637 4.46667H3.88998V2.46667H0.409637V4.46667Z" fill="white" fill-opacity="0.15" mask="url(#path-1-inside-1_61_3320)"/>
</g>
<path fill-rule="evenodd" clip-rule="evenodd" d="M12 12H32V12.0001L30 12.0001L28 12.0001V14.0001H30L30 16.0001H32V28.0001H30V30.0001L28 30.0001V32H16L16 30H14L14 32L14 30L14 28H12L12 30L12 32H12V16.0001H14V14.0001H12V14.0001H14V12.0001H12V12ZM16 12.0001L14 12.0001V14.0001H16V12.0001Z" fill="#627EEA"/>
<path fill-rule="evenodd" clip-rule="evenodd" d="M12 12H32V12.0001L30 12.0001L28 12.0001V14.0001H30L30 16.0001H32V28.0001H30V30.0001L28 30.0001V32H16L16 30H14L14 32L14 30L14 28H12L12 30L12 32H12V16.0001H14V14.0001H12V14.0001H14V12.0001H12V12ZM16 12.0001L14 12.0001V14.0001H16V12.0001Z"/>
<path d="M44.984 17.6H50.288V19.112H46.568V21.032H50.144V22.544H46.568V24.488H50.432V26H44.984V17.6ZM51.9957 17.6H58.0437V19.112H55.8117V26H54.2277V19.112H51.9957V17.6ZM59.4273 17.6H61.0113V21.032H63.7233V17.6H65.3073V26H63.7233V22.544H61.0113V26H59.4273V17.6Z" fill="white"/>
<defs>
<filter id="filter0_b_61_3320" x="-44.5904" y="-45" width="180.361" height="134" filterUnits="userSpaceOnUse" color-interpolation-filters="sRGB">
<feFlood flood-opacity="0" result="BackgroundImageFix"/>
<feGaussianBlur in="BackgroundImageFix" stdDeviation="22.5"/>
<feComposite in2="SourceAlpha" operator="in" result="effect1_backgroundBlur_61_3320"/>
<feBlend mode="normal" in="SourceGraphic" in2="effect1_backgroundBlur_61_3320" result="shape"/>
</filter>
</defs>
</svg>
