<svg width="27" height="26" viewBox="0 0 27 26" fill="none" xmlns="http://www.w3.org/2000/svg">
<mask id="path-1-inside-1_45_4384" fill="white">
<path fill-rule="evenodd" clip-rule="evenodd" d="M0.510742 0.00354474H0.510746L0.510746 2.60318L3.12268 2.60318L3.12277 2.60318L5.7347 2.60318V0.00354004L21.407 0.00354006V2.60318H24.0189L24.019 2.60318L26.6309 2.60318V0.00354006L26.631 0.00354474V26H0.510742V0.00354474ZM26.6309 23.4002H24.0189V20.8006H26.6309V23.4002ZM21.407 26H24.0189H24.019H26.6309V23.4004H24.019L24.0189 23.4004H21.407V26ZM26.6309 2.60331V5.20295H24.0189V2.60331H26.6309ZM0.510746 2.6033H3.12277V5.20295H0.510746L0.510746 2.6033ZM5.7347 23.4004H3.12277H3.12268H0.510745L0.510745 26H3.12268H3.12277H5.7347V23.4004ZM0.510745 20.8006H3.12277V23.4002H0.510745L0.510745 20.8006Z"/>
</mask>
<path fill-rule="evenodd" clip-rule="evenodd" d="M0.510742 0.00354474H0.510746L0.510746 2.60318L3.12268 2.60318L3.12277 2.60318L5.7347 2.60318V0.00354004L21.407 0.00354006V2.60318H24.0189L24.019 2.60318L26.6309 2.60318V0.00354006L26.631 0.00354474V26H0.510742V0.00354474ZM26.6309 23.4002H24.0189V20.8006H26.6309V23.4002ZM21.407 26H24.0189H24.019H26.6309V23.4004H24.019L24.0189 23.4004H21.407V26ZM26.6309 2.60331V5.20295H24.0189V2.60331H26.6309ZM0.510746 2.6033H3.12277V5.20295H0.510746L0.510746 2.6033ZM5.7347 23.4004H3.12277H3.12268H0.510745L0.510745 26H3.12268H3.12277H5.7347V23.4004ZM0.510745 20.8006H3.12277V23.4002H0.510745L0.510745 20.8006Z" fill="white" fill-opacity="0.01"/>
<path d="M0.510746 0.00354474L1.51075 0.00354474V-0.996455H0.510746V0.00354474ZM0.510742 0.00354474V-0.996455H-0.489258V0.00354474H0.510742ZM0.510746 2.60318H-0.489254V3.60318L0.510745 3.60318L0.510746 2.60318ZM3.12268 2.60318V3.60319L3.12523 3.60318L3.12268 2.60318ZM3.12277 2.60318V1.60318L3.12022 1.60319L3.12277 2.60318ZM5.7347 2.60318V3.60318H6.7347V2.60318H5.7347ZM5.7347 0.00354004V-0.99646H4.7347V0.00354004H5.7347ZM21.407 0.00354006H22.407V-0.99646H21.407V0.00354006ZM21.407 2.60318H20.407V3.60318H21.407V2.60318ZM24.0189 2.60318L24.0215 1.60318H24.0189V2.60318ZM24.019 2.60318L24.0165 3.60318H24.019V2.60318ZM26.6309 2.60318V3.60318L27.6309 3.60318V2.60318H26.6309ZM26.6309 0.00354006L26.6809 -0.995211L25.6309 -1.04774V0.00354006H26.6309ZM26.631 0.00354474H27.631V-0.947677L26.681 -0.995206L26.631 0.00354474ZM26.631 26V27H27.631V26H26.631ZM0.510742 26H-0.489258V27H0.510742V26ZM24.0189 23.4002H23.0189V24.4002H24.0189V23.4002ZM26.6309 23.4002V24.4002H27.6309V23.4002H26.6309ZM24.0189 20.8006V19.8006H23.0189V20.8006H24.0189ZM26.6309 20.8006H27.6309V19.8006H26.6309V20.8006ZM21.407 26H20.407V27H21.407V26ZM26.6309 26V27H27.6309V26H26.6309ZM26.6309 23.4004H27.6309V22.4004H26.6309V23.4004ZM24.019 23.4004L23.9986 24.4001L24.0088 24.4004H24.019V23.4004ZM24.0189 23.4004L24.0393 22.4006L24.0291 22.4004H24.0189V23.4004ZM21.407 23.4004V22.4004H20.407V23.4004H21.407ZM26.6309 5.20295V6.20295H27.6309V5.20295H26.6309ZM26.6309 2.60331H27.6309V1.6033H26.6309V2.60331ZM24.0189 5.20295H23.0189V6.20295H24.0189V5.20295ZM24.0189 2.60331V1.6033H23.0189V2.60331H24.0189ZM3.12277 2.6033H4.12277V1.6033H3.12277V2.6033ZM0.510746 2.6033V1.6033H-0.489254V2.6033H0.510746ZM3.12277 5.20295V6.20295H4.12277V5.20295H3.12277ZM0.510746 5.20295H-0.489254V6.20295H0.510746V5.20295ZM5.7347 23.4004H6.7347V22.4004H5.7347V23.4004ZM0.510745 23.4004V22.4004H-0.489255L-0.489255 23.4004H0.510745ZM0.510745 26H-0.489255L-0.489255 27H0.510745V26ZM5.7347 26V27H6.7347V26H5.7347ZM3.12277 20.8006H4.12277V19.8006H3.12277V20.8006ZM0.510745 20.8006V19.8006H-0.489255L-0.489255 20.8006H0.510745ZM3.12277 23.4002V24.4002H4.12277V23.4002H3.12277ZM0.510745 23.4002H-0.489255V24.4002H0.510745V23.4002ZM0.510746 -0.996455H0.510742V1.00354H0.510746V-0.996455ZM1.51075 2.60318V0.00354474L-0.489254 0.00354474V2.60318H1.51075ZM3.12268 1.60318L0.510746 1.60318L0.510745 3.60318L3.12268 3.60318V1.60318ZM3.12022 1.60319L3.12013 1.60319L3.12523 3.60318L3.12532 3.60318L3.12022 1.60319ZM5.7347 1.60318L3.12277 1.60318V3.60318L5.7347 3.60318V1.60318ZM4.7347 0.00354004V2.60318H6.7347V0.00354004H4.7347ZM21.407 -0.99646H5.7347V1.00354H21.407V-0.99646ZM22.407 2.60318V0.00354006H20.407V2.60318H22.407ZM24.0189 1.60318H21.407V3.60318H24.0189V1.60318ZM24.0216 1.60319L24.0215 1.60319L24.0164 3.60318L24.0165 3.60318L24.0216 1.60319ZM26.6309 1.60318L24.019 1.60318V3.60318L26.6309 3.60318V1.60318ZM25.6309 0.00354006V2.60318H27.6309V0.00354006H25.6309ZM26.681 -0.995206L26.6809 -0.995211L26.581 1.00229L26.5811 1.0023L26.681 -0.995206ZM27.631 26V0.00354474H25.631V26H27.631ZM0.510742 27H26.631V25H0.510742V27ZM-0.489258 0.00354474V26H1.51074V0.00354474H-0.489258ZM24.0189 24.4002H26.6309V22.4002H24.0189V24.4002ZM23.0189 20.8006V23.4002H25.0189V20.8006H23.0189ZM26.6309 19.8006H24.0189V21.8006H26.6309V19.8006ZM27.6309 23.4002V20.8006H25.6309V23.4002H27.6309ZM24.0189 25H21.407V27H24.0189V25ZM24.019 25H24.0189V27H24.019V25ZM26.6309 25H24.019V27H26.6309V25ZM25.6309 23.4004V26H27.6309V23.4004H25.6309ZM24.019 24.4004H26.6309V22.4004H24.019V24.4004ZM23.9985 24.4001L23.9986 24.4001L24.0394 22.4006L24.0393 22.4006L23.9985 24.4001ZM21.407 24.4004H24.0189V22.4004H21.407V24.4004ZM22.407 26V23.4004H20.407V26H22.407ZM27.6309 5.20295V2.60331H25.6309V5.20295H27.6309ZM24.0189 6.20295H26.6309V4.20295H24.0189V6.20295ZM23.0189 2.60331V5.20295H25.0189V2.60331H23.0189ZM26.6309 1.6033H24.0189V3.60331H26.6309V1.6033ZM3.12277 1.6033H0.510746V3.6033H3.12277V1.6033ZM4.12277 5.20295V2.6033H2.12277V5.20295H4.12277ZM0.510746 6.20295H3.12277V4.20295H0.510746V6.20295ZM-0.489254 2.6033V5.20295H1.51075V2.6033H-0.489254ZM3.12277 24.4004H5.7347V22.4004H3.12277V24.4004ZM3.12268 24.4004H3.12277V22.4004H3.12268V24.4004ZM0.510745 24.4004H3.12268V22.4004H0.510745V24.4004ZM1.51075 26L1.51075 23.4004H-0.489255L-0.489255 26H1.51075ZM3.12268 25H0.510745V27H3.12268V25ZM3.12277 25H3.12268V27H3.12277V25ZM5.7347 25H3.12277V27H5.7347V25ZM4.7347 23.4004V26H6.7347V23.4004H4.7347ZM3.12277 19.8006H0.510745V21.8006H3.12277V19.8006ZM4.12277 23.4002V20.8006H2.12277V23.4002H4.12277ZM0.510745 24.4002H3.12277V22.4002H0.510745V24.4002ZM-0.489255 20.8006L-0.489255 23.4002H1.51075L1.51075 20.8006H-0.489255Z" fill="white" fill-opacity="0.15" mask="url(#path-1-inside-1_45_4384)"/>
<rect x="15.1875" y="16.75" width="0.75" height="0.75" fill="white"/>
<rect x="15.1875" y="17.5" width="0.75" height="0.75" fill="white"/>
<rect x="14.4375" y="18.25" width="0.75" height="0.75" fill="white"/>
<rect x="13.6875" y="18.25" width="0.75" height="0.75" fill="white"/>
<rect x="12.9375" y="17.5" width="0.75" height="0.75" fill="white"/>
<rect x="12.9375" y="16.75" width="0.75" height="0.75" fill="white"/>
<rect x="13.6875" y="16" width="0.75" height="0.75" fill="white"/>
<rect x="14.4375" y="16" width="0.75" height="0.75" fill="white"/>
<rect x="13.6875" y="14.5" width="0.75" height="0.75" fill="white"/>
<rect x="13.6875" y="14.5" width="0.75" height="0.75" fill="white"/>
<rect x="14.4375" y="14.5" width="0.75" height="0.75" fill="white"/>
<rect x="15.9375" y="13" width="0.75" height="0.75" fill="white"/>
<rect x="16.6875" y="12.25" width="0.75" height="0.75" fill="white"/>
<rect x="17.4375" y="11.5" width="0.75" height="0.75" fill="white"/>
<rect x="17.4375" y="10.75" width="0.75" height="0.75" fill="white"/>
<rect x="17.4375" y="10" width="0.75" height="0.75" fill="white"/>
<rect x="16.6875" y="8.5" width="0.75" height="0.75" fill="white"/>
<rect x="15.9375" y="7.75" width="0.75" height="0.75" fill="white"/>
<rect x="15.1875" y="7" width="0.75" height="0.75" fill="white"/>
<rect x="13.6875" y="7" width="0.75" height="0.75" fill="white"/>
<rect x="14.4375" y="7" width="0.75" height="0.75" fill="white"/>
<rect x="13.6875" y="7" width="0.75" height="0.75" fill="white"/>
<rect x="12.9375" y="7" width="0.75" height="0.75" fill="white"/>
<rect x="10.6875" y="9.25" width="0.75" height="0.75" fill="white"/>
<rect x="10.6875" y="10" width="0.75" height="0.75" fill="white"/>
<rect width="0.75" height="0.75" transform="matrix(-1 0 0 1 13.6875 13.75)" fill="white"/>
<rect width="0.75" height="0.75" transform="matrix(-1 0 0 1 13.6875 13)" fill="white"/>
<rect width="0.75" height="0.75" transform="matrix(-1 0 0 1 14.4375 12.25)" fill="white"/>
<rect width="0.75" height="0.75" transform="matrix(-1 0 0 1 14.4375 12.25)" fill="white"/>
<rect width="0.75" height="0.75" transform="matrix(-1 0 0 1 15.1875 11.5)" fill="white"/>
<rect width="0.75" height="0.75" transform="matrix(-1 0 0 1 15.9375 13.75)" fill="white"/>
<rect width="0.75" height="0.75" transform="matrix(-1 0 0 1 15.9375 10.75)" fill="white"/>
<rect width="0.75" height="0.75" transform="matrix(-1 0 0 1 15.9375 10.75)" fill="white"/>
<rect width="0.75" height="0.75" transform="matrix(-1 0 0 1 15.9375 10)" fill="white"/>
<rect width="0.75" height="0.75" transform="matrix(-1 0 0 1 14.4375 9.25)" fill="white"/>
<rect width="0.75" height="0.75" transform="matrix(-1 0 0 1 15.1875 9.25)" fill="white"/>
<rect width="0.75" height="0.75" transform="matrix(-1 0 0 1 14.4375 9.25)" fill="white"/>
<rect width="0.75" height="0.75" transform="matrix(-1 0 0 1 13.6875 10)" fill="white"/>
<rect width="0.75" height="0.75" transform="matrix(-1 0 0 1 12.9375 10.75)" fill="white"/>
<rect width="0.75" height="0.75" transform="matrix(-1 0 0 1 12.1875 10.75)" fill="white"/>
<rect width="0.75" height="0.75" transform="matrix(-1 0 0 1 12.1875 8.5)" fill="white"/>
<rect width="0.75" height="0.75" transform="matrix(-1 0 0 1 12.9375 7.75)" fill="white"/>
<rect width="0.75" height="0.75" transform="matrix(-1 0 0 1 18.1875 9.25)" fill="white"/>
</svg>
