<svg width="180" height="44" viewBox="0 0 180 44" fill="none" xmlns="http://www.w3.org/2000/svg">
<path fill-rule="evenodd" clip-rule="evenodd" d="M0 3.46668V3.46667H3.46642V0H173V3.46668L176.5 3.46668L180 3.46668L180 0V44L180 44V40H176L172 40V44L0 44L2.96668 44V40.5L0 40.5H2.96668V37L0 37V6.93334H3.46642V3.46668H0ZM180 36V40H176V36H180ZM180 3.46669V6.9667L176.5 6.9667V3.46669L180 3.46669ZM6.93335 9.91431e-06L3.46668 9.91431e-06V3.46668H6.93335V9.91431e-06ZM6.46668 40.5H2.96669V44H6.46668L6.46668 40.5Z" fill="#1E2234"/>
<path fill-rule="evenodd" clip-rule="evenodd" d="M152 18H150V20H152V22H154V24H156V26H158V24H160V22H162V20H164V18H162V20H160V22H158V24H156V22H154V20H152V18Z" fill="white"/>
<path d="M16.7291 17.2H23.0011V18.964H18.5771V21.204H22.9171V22.968H18.5771V27H16.7291V17.2ZM24.8253 20.056H27.7653V21.064H28.0173C28.148 20.6813 28.3673 20.3873 28.6753 20.182C28.9927 19.9673 29.3707 19.86 29.8093 19.86C30.5 19.86 31.0553 20.0793 31.4753 20.518C31.8953 20.9473 32.1053 21.6053 32.1053 22.492V22.8L30.2853 22.968V22.772C30.2853 22.3893 30.1873 22.086 29.9913 21.862C29.7953 21.6287 29.5013 21.512 29.1093 21.512C28.7173 21.512 28.4093 21.6473 28.1853 21.918C27.9613 22.1887 27.8493 22.576 27.8493 23.08V25.32H29.4453V27H24.6573V25.32H26.0853V21.736H24.8253V20.056ZM33.8596 25.32H36.2116V21.736H34.0276V20.056H37.9756V25.32H39.9916V27H33.8596V25.32ZM38.4096 17.998C38.4096 18.1847 38.3723 18.362 38.2976 18.53C38.2323 18.6887 38.1389 18.8287 38.0176 18.95C37.8963 19.062 37.7516 19.1553 37.5836 19.23C37.4249 19.2953 37.2569 19.328 37.0796 19.328C36.8929 19.328 36.7203 19.2953 36.5616 19.23C36.4029 19.1553 36.2629 19.062 36.1416 18.95C36.0203 18.8287 35.9223 18.6887 35.8476 18.53C35.7823 18.362 35.7496 18.1847 35.7496 17.998C35.7496 17.8113 35.7823 17.6387 35.8476 17.48C35.9223 17.312 36.0203 17.172 36.1416 17.06C36.2629 16.9387 36.4029 16.8453 36.5616 16.78C36.7203 16.7053 36.8929 16.668 37.0796 16.668C37.2569 16.668 37.4249 16.7053 37.5836 16.78C37.7516 16.8453 37.8963 16.9387 38.0176 17.06C38.1389 17.172 38.2323 17.312 38.2976 17.48C38.3723 17.6387 38.4096 17.8113 38.4096 17.998ZM43.8599 24.102C43.8692 24.3073 43.9159 24.4987 43.9999 24.676C44.0932 24.844 44.2145 24.9933 44.3639 25.124C44.5225 25.2453 44.6999 25.3433 44.8959 25.418C45.1012 25.4833 45.3159 25.516 45.5399 25.516C45.9785 25.516 46.3145 25.4413 46.5479 25.292C46.7812 25.1333 46.9492 24.9467 47.0519 24.732L48.5639 25.572C48.4799 25.7493 48.3632 25.936 48.2139 26.132C48.0645 26.3187 47.8685 26.4913 47.6259 26.65C47.3925 26.8087 47.1032 26.9393 46.7579 27.042C46.4219 27.1447 46.0252 27.196 45.5679 27.196C45.0452 27.196 44.5692 27.112 44.1399 26.944C43.7105 26.776 43.3372 26.5333 43.0199 26.216C42.7119 25.8987 42.4692 25.5113 42.2919 25.054C42.1239 24.5967 42.0399 24.0787 42.0399 23.5V23.416C42.0399 22.884 42.1285 22.3987 42.3059 21.96C42.4925 21.5213 42.7445 21.148 43.0619 20.84C43.3792 20.532 43.7479 20.294 44.1679 20.126C44.5972 19.9487 45.0545 19.86 45.5399 19.86C46.1372 19.86 46.6505 19.9673 47.0799 20.182C47.5092 20.3873 47.8639 20.6533 48.1439 20.98C48.4239 21.2973 48.6292 21.652 48.7599 22.044C48.8905 22.4267 48.9559 22.8 48.9559 23.164V24.102H43.8599ZM45.5259 21.456C45.0779 21.456 44.7139 21.5727 44.4339 21.806C44.1539 22.03 43.9719 22.2913 43.8879 22.59H47.1639C47.1079 22.2633 46.9305 21.9927 46.6319 21.778C46.3425 21.5633 45.9739 21.456 45.5259 21.456ZM52.6421 27H50.8781V20.056H52.6421V21.092H52.8941C53.0528 20.7 53.3095 20.3967 53.6641 20.182C54.0188 19.9673 54.4341 19.86 54.9101 19.86C55.2461 19.86 55.5588 19.916 55.8481 20.028C56.1468 20.1307 56.4081 20.294 56.6321 20.518C56.8561 20.742 57.0288 21.0267 57.1501 21.372C57.2808 21.7173 57.3461 22.128 57.3461 22.604V27H55.5821V23.052C55.5821 22.5573 55.4608 22.17 55.2181 21.89C54.9848 21.6007 54.6441 21.456 54.1961 21.456C53.6735 21.456 53.2815 21.6333 53.0201 21.988C52.7681 22.3333 52.6421 22.8 52.6421 23.388V27ZM64.4344 25.992H64.1824C64.1077 26.1507 64.0144 26.3047 63.9024 26.454C63.7997 26.594 63.6597 26.72 63.4824 26.832C63.3144 26.944 63.1091 27.0327 62.8664 27.098C62.6331 27.1633 62.3484 27.196 62.0124 27.196C61.5831 27.196 61.1817 27.1213 60.8084 26.972C60.4444 26.8133 60.1224 26.5847 59.8424 26.286C59.5717 25.978 59.3571 25.6047 59.1984 25.166C59.0491 24.7273 58.9744 24.2233 58.9744 23.654V23.402C58.9744 22.842 59.0537 22.3427 59.2124 21.904C59.3804 21.4653 59.6044 21.0967 59.8844 20.798C60.1737 20.49 60.5051 20.2567 60.8784 20.098C61.2611 19.9393 61.6624 19.86 62.0824 19.86C62.6424 19.86 63.0857 19.9673 63.4124 20.182C63.7391 20.3873 63.9957 20.6813 64.1824 21.064H64.4344V17.2H66.1984V27H64.4344V25.992ZM62.5864 25.516C63.1371 25.516 63.5804 25.3433 63.9164 24.998C64.2617 24.6433 64.4344 24.1813 64.4344 23.612V23.444C64.4344 22.8747 64.2617 22.4173 63.9164 22.072C63.5804 21.7173 63.1371 21.54 62.5864 21.54C62.0357 21.54 61.5877 21.7127 61.2424 22.058C60.9064 22.394 60.7384 22.856 60.7384 23.444V23.612C60.7384 24.2 60.9064 24.6667 61.2424 25.012C61.5877 25.348 62.0357 25.516 62.5864 25.516ZM70.2347 22.016C70.2347 22.24 70.3513 22.4033 70.5847 22.506C70.818 22.5993 71.2427 22.6787 71.8587 22.744C72.568 22.8187 73.1467 23.0333 73.5947 23.388C74.0427 23.7333 74.2667 24.2187 74.2667 24.844V24.928C74.2667 25.6187 74.0147 26.1693 73.5107 26.58C73.0067 26.9907 72.2973 27.196 71.3827 27.196C70.8413 27.196 70.3793 27.126 69.9967 26.986C69.614 26.846 69.2967 26.6733 69.0447 26.468C68.7927 26.2533 68.5967 26.02 68.4567 25.768C68.326 25.5067 68.2373 25.2547 68.1907 25.012L69.8147 24.48C69.8893 24.7787 70.0433 25.04 70.2767 25.264C70.5193 25.488 70.888 25.6 71.3827 25.6C71.8213 25.6 72.12 25.5347 72.2787 25.404C72.4467 25.264 72.5307 25.1147 72.5307 24.956C72.5307 24.8627 72.5073 24.7787 72.4607 24.704C72.4233 24.62 72.3487 24.5453 72.2367 24.48C72.1247 24.4053 71.9707 24.3447 71.7747 24.298C71.588 24.2513 71.35 24.214 71.0607 24.186C70.2767 24.1207 69.6513 23.92 69.1847 23.584C68.7273 23.2387 68.4987 22.7347 68.4987 22.072V21.988C68.4987 21.6427 68.5733 21.3393 68.7227 21.078C68.872 20.8167 69.068 20.5973 69.3107 20.42C69.5533 20.2333 69.8333 20.0933 70.1507 20C70.468 19.9067 70.7947 19.86 71.1307 19.86C71.5693 19.86 71.9473 19.916 72.2647 20.028C72.5913 20.1307 72.8667 20.2707 73.0907 20.448C73.3147 20.616 73.4967 20.8073 73.6367 21.022C73.7767 21.2273 73.884 21.428 73.9587 21.624L72.3627 22.268C72.2787 22.016 72.134 21.82 71.9287 21.68C71.7233 21.5307 71.4573 21.456 71.1307 21.456C70.832 21.456 70.608 21.512 70.4587 21.624C70.3093 21.7267 70.2347 21.8573 70.2347 22.016Z" fill="white"/>
</svg>
