<svg width="109" height="18" viewBox="0 0 109 18" fill="none" xmlns="http://www.w3.org/2000/svg">
<path d="M21.4761 5.6H27.5241V7.112H25.2921V14H23.7081V7.112H21.4761V5.6ZM34.6918 14H33.1078V11.48C33.1078 11.288 33.0558 11.132 32.9518 11.012C32.8558 10.892 32.6918 10.832 32.4598 10.832H30.6358V14H29.0518V5.6H32.2678C32.6998 5.6 33.0798 5.66 33.4078 5.78C33.7358 5.9 34.0078 6.068 34.2238 6.284C34.4478 6.492 34.6158 6.736 34.7278 7.016C34.8478 7.296 34.9078 7.596 34.9078 7.916V8.204C34.9078 8.548 34.8158 8.872 34.6318 9.176C34.4478 9.472 34.1638 9.7 33.7798 9.86V10.076C34.0598 10.108 34.2798 10.216 34.4398 10.4C34.6078 10.584 34.6918 10.816 34.6918 11.096V14ZM30.6358 9.32H32.1478C32.5318 9.32 32.8238 9.232 33.0238 9.056C33.2238 8.872 33.3238 8.616 33.3238 8.288V8.144C33.3238 7.864 33.2238 7.624 33.0238 7.424C32.8238 7.216 32.5318 7.112 32.1478 7.112H30.6358V9.32ZM40.6234 12.2H37.7674L37.3594 14H35.7034L37.7074 5.6H40.6834L42.6874 14H41.0314L40.6234 12.2ZM38.1034 10.688H40.2754L39.3034 6.392H39.0874L38.1034 10.688ZM47.6831 13.208H47.8991V5.6H49.4831V14H46.3871L45.4031 6.392H45.1871V14H43.6031V5.6H46.6991L47.6831 13.208ZM55.3308 8.168C55.3308 7.832 55.1988 7.54 54.9348 7.292C54.6788 7.044 54.3148 6.92 53.8428 6.92C53.4428 6.92 53.1268 7.004 52.8948 7.172C52.6628 7.332 52.5468 7.552 52.5468 7.832C52.5468 7.976 52.5748 8.108 52.6308 8.228C52.6868 8.34 52.7828 8.444 52.9188 8.54C53.0628 8.628 53.2468 8.708 53.4708 8.78C53.7028 8.852 53.9948 8.92 54.3468 8.984C55.2268 9.144 55.8988 9.412 56.3628 9.788C56.8268 10.164 57.0588 10.72 57.0588 11.456V11.6C57.0588 11.992 56.9868 12.348 56.8428 12.668C56.7068 12.98 56.5068 13.248 56.2428 13.472C55.9788 13.696 55.6588 13.868 55.2828 13.988C54.9068 14.108 54.4828 14.168 54.0108 14.168C53.4588 14.168 52.9708 14.092 52.5468 13.94C52.1308 13.78 51.7828 13.564 51.5028 13.292C51.2228 13.012 51.0108 12.688 50.8668 12.32C50.7228 11.944 50.6508 11.536 50.6508 11.096V10.736H52.2348V11.024C52.2348 11.528 52.3788 11.932 52.6668 12.236C52.9628 12.532 53.4188 12.68 54.0348 12.68C54.5148 12.68 54.8708 12.576 55.1028 12.368C55.3348 12.16 55.4508 11.912 55.4508 11.624C55.4508 11.488 55.4268 11.36 55.3788 11.24C55.3308 11.112 55.2468 11 55.1268 10.904C55.0068 10.8 54.8428 10.708 54.6348 10.628C54.4268 10.548 54.1628 10.48 53.8428 10.424C53.4188 10.352 53.0308 10.26 52.6788 10.148C52.3268 10.028 52.0188 9.872 51.7548 9.68C51.4988 9.488 51.2988 9.248 51.1548 8.96C51.0108 8.672 50.9388 8.32 50.9388 7.904V7.832C50.9388 7.488 51.0068 7.172 51.1428 6.884C51.2868 6.588 51.4828 6.332 51.7308 6.116C51.9868 5.9 52.2908 5.732 52.6428 5.612C53.0028 5.492 53.4028 5.432 53.8428 5.432C54.3388 5.432 54.7788 5.504 55.1628 5.648C55.5468 5.784 55.8668 5.972 56.1228 6.212C56.3868 6.452 56.5828 6.728 56.7108 7.04C56.8468 7.352 56.9148 7.68 56.9148 8.024V8.456H55.3308V8.168ZM62.6664 12.2H59.8104L59.4024 14H57.7464L59.7504 5.6H62.7264L64.7304 14H63.0744L62.6664 12.2ZM60.1464 10.688H62.3184L61.3464 6.392H61.1304L60.1464 10.688ZM68.6101 12.728C68.9141 12.728 69.1621 12.684 69.3541 12.596C69.5541 12.5 69.7061 12.376 69.8101 12.224C69.9221 12.064 69.9981 11.884 70.0381 11.684C70.0781 11.476 70.0981 11.264 70.0981 11.048V10.832H71.6821V11.048C71.6821 12.048 71.4181 12.82 70.8901 13.364C70.3701 13.9 69.6101 14.168 68.6101 14.168C67.6501 14.168 66.8901 13.876 66.3301 13.292C65.7701 12.708 65.4901 11.856 65.4901 10.736V8.864C65.4901 8.328 65.5621 7.848 65.7061 7.424C65.8501 6.992 66.0581 6.632 66.3301 6.344C66.6021 6.048 66.9301 5.824 67.3141 5.672C67.6981 5.512 68.1301 5.432 68.6101 5.432C69.1061 5.432 69.5461 5.504 69.9301 5.648C70.3141 5.792 70.6341 6 70.8901 6.272C71.1541 6.544 71.3501 6.872 71.4781 7.256C71.6141 7.64 71.6821 8.072 71.6821 8.552V8.768H70.0981V8.552C70.0981 8.352 70.0741 8.152 70.0261 7.952C69.9781 7.752 69.8981 7.572 69.7861 7.412C69.6741 7.252 69.5221 7.124 69.3301 7.028C69.1381 6.924 68.8981 6.872 68.6101 6.872C68.3461 6.872 68.1181 6.924 67.9261 7.028C67.7341 7.124 67.5741 7.26 67.4461 7.436C67.3181 7.604 67.2221 7.804 67.1581 8.036C67.1021 8.26 67.0741 8.496 67.0741 8.744V10.856C67.0741 11.128 67.1021 11.38 67.1581 11.612C67.2141 11.836 67.3021 12.032 67.4221 12.2C67.5421 12.368 67.6981 12.5 67.8901 12.596C68.0901 12.684 68.3301 12.728 68.6101 12.728ZM72.9097 5.6H78.9577V7.112H76.7257V14H75.1417V7.112H72.9097V5.6ZM80.4734 5.6H86.0894V7.112H84.0734V12.488H86.0894V14H80.4734V12.488H82.4894V7.112H80.4734V5.6ZM87.533 8.864C87.533 7.776 87.805 6.932 88.349 6.332C88.901 5.732 89.661 5.432 90.629 5.432C91.597 5.432 92.353 5.732 92.897 6.332C93.449 6.932 93.725 7.776 93.725 8.864V10.736C93.725 11.856 93.449 12.708 92.897 13.292C92.353 13.876 91.597 14.168 90.629 14.168C89.661 14.168 88.901 13.876 88.349 13.292C87.805 12.708 87.533 11.856 87.533 10.736V8.864ZM90.629 12.728C90.917 12.728 91.157 12.684 91.349 12.596C91.541 12.5 91.697 12.368 91.817 12.2C91.937 12.032 92.021 11.832 92.069 11.6C92.117 11.368 92.141 11.112 92.141 10.832V8.768C92.141 8.504 92.113 8.256 92.057 8.024C92.001 7.792 91.913 7.592 91.793 7.424C91.673 7.256 91.517 7.124 91.325 7.028C91.133 6.924 90.901 6.872 90.629 6.872C90.357 6.872 90.125 6.924 89.933 7.028C89.741 7.124 89.585 7.256 89.465 7.424C89.345 7.592 89.257 7.792 89.201 8.024C89.145 8.256 89.117 8.504 89.117 8.768V10.832C89.117 11.112 89.141 11.368 89.189 11.6C89.237 11.832 89.321 12.032 89.441 12.2C89.561 12.368 89.717 12.5 89.909 12.596C90.101 12.684 90.341 12.728 90.629 12.728ZM99.1167 13.208H99.3327V5.6H100.917V14H97.8207L96.8367 6.392H96.6207V14H95.0367V5.6H98.1327L99.1167 13.208ZM106.764 8.168C106.764 7.832 106.632 7.54 106.368 7.292C106.112 7.044 105.748 6.92 105.276 6.92C104.876 6.92 104.56 7.004 104.328 7.172C104.096 7.332 103.98 7.552 103.98 7.832C103.98 7.976 104.008 8.108 104.064 8.228C104.12 8.34 104.216 8.444 104.352 8.54C104.496 8.628 104.68 8.708 104.904 8.78C105.136 8.852 105.428 8.92 105.78 8.984C106.66 9.144 107.332 9.412 107.796 9.788C108.26 10.164 108.492 10.72 108.492 11.456V11.6C108.492 11.992 108.42 12.348 108.276 12.668C108.14 12.98 107.94 13.248 107.676 13.472C107.412 13.696 107.092 13.868 106.716 13.988C106.34 14.108 105.916 14.168 105.444 14.168C104.892 14.168 104.404 14.092 103.98 13.94C103.564 13.78 103.216 13.564 102.936 13.292C102.656 13.012 102.444 12.688 102.3 12.32C102.156 11.944 102.084 11.536 102.084 11.096V10.736H103.668V11.024C103.668 11.528 103.812 11.932 104.1 12.236C104.396 12.532 104.852 12.68 105.468 12.68C105.948 12.68 106.304 12.576 106.536 12.368C106.768 12.16 106.884 11.912 106.884 11.624C106.884 11.488 106.86 11.36 106.812 11.24C106.764 11.112 106.68 11 106.56 10.904C106.44 10.8 106.276 10.708 106.068 10.628C105.86 10.548 105.596 10.48 105.276 10.424C104.852 10.352 104.464 10.26 104.112 10.148C103.76 10.028 103.452 9.872 103.188 9.68C102.932 9.488 102.732 9.248 102.588 8.96C102.444 8.672 102.372 8.32 102.372 7.904V7.832C102.372 7.488 102.44 7.172 102.576 6.884C102.72 6.588 102.916 6.332 103.164 6.116C103.42 5.9 103.724 5.732 104.076 5.612C104.436 5.492 104.836 5.432 105.276 5.432C105.772 5.432 106.212 5.504 106.596 5.648C106.98 5.784 107.3 5.972 107.556 6.212C107.82 6.452 108.016 6.728 108.144 7.04C108.28 7.352 108.348 7.68 108.348 8.024V8.456H106.764V8.168Z" fill="#99A3C9"/>
<path d="M9.75 11.625V9H10.625V11.625H9.75Z" fill="#99A3C9"/>
<path d="M9.75 8.125V9H7.125V11.625H9.75V12.5H8V13.375H7.125V12.5H5.375V11.625H6.25V6.375H5.375V5.5H8V4.625H8.875V5.5H9.75V6.375H7.125V8.125H9.75Z" fill="#99A3C9"/>
<path d="M9.75 8.125V6.375H10.625V8.125H9.75Z" fill="#99A3C9"/>
<path fill-rule="evenodd" clip-rule="evenodd" d="M5.375 2V2.875H3.625V3.75H2.75L2.74999 4.625H1.87499L1.875 6.375H1V11.625H1.875V13.375H2.75V14.25H3.625V15.125H5.375V16H10.625V15.125H12.375V14.25H13.25V13.375H14.125V11.625H15V6.375H14.125V4.625H13.25V3.75H12.375V2.875H10.625V2H5.375ZM10.625 2.875L10.625 3.75H12.375V4.625H13.25V6.375H14.125V11.625H13.25V13.375H12.375V14.25H10.625L10.625 15.125H5.375V14.25H3.625V13.375H2.75V11.625H1.875V6.375H2.75L2.74999 4.625H3.625V3.75H5.375V2.875H10.625Z" fill="#99A3C9"/>
<path d="M5.375 2.875V2H10.625V2.875M5.375 2.875H3.625V3.75M5.375 2.875V3.75H3.625M5.375 2.875H10.625M3.625 3.75H2.75L2.74999 4.625M3.625 3.75V4.625H2.74999M2.74999 4.625H1.87499L1.875 6.375M2.74999 4.625L2.75 6.375H1.875M1.875 6.375H1V11.625H1.875M1.875 6.375V11.625M1.875 11.625V13.375H2.75M1.875 11.625H2.75V13.375M2.75 13.375V14.25H3.625M2.75 13.375H3.625V14.25M3.625 14.25V15.125H5.375M3.625 14.25H5.375V15.125M5.375 15.125V16H10.625V15.125M5.375 15.125H10.625M10.625 15.125H12.375V14.25M10.625 15.125L10.625 14.25H12.375M12.375 14.25H13.25V13.375M12.375 14.25V13.375H13.25M13.25 13.375H14.125V11.625M13.25 13.375V11.625H14.125M14.125 11.625H15V6.375H14.125M14.125 11.625V6.375M14.125 6.375V4.625H13.25M14.125 6.375H13.25V4.625M13.25 4.625V3.75H12.375M13.25 4.625H12.375V3.75M12.375 3.75V2.875H10.625M12.375 3.75H10.625L10.625 2.875M9.75 9V11.625M9.75 9H10.625V11.625H9.75M9.75 9V8.125M9.75 9H7.125V11.625H9.75M9.75 11.625V12.5H8V13.375H7.125V12.5H5.375V11.625H6.25V6.375H5.375V5.5H8V4.625H8.875V5.5H9.75V6.375M9.75 8.125H7.125V6.375H9.75M9.75 8.125V6.375M9.75 8.125H10.625V6.375H9.75" stroke="#99A3C9" stroke-width="0.4"/>
</svg>
