<svg width="46" height="30" viewBox="0 0 46 30" fill="none" xmlns="http://www.w3.org/2000/svg">
<g filter="url(#filter0_b_63_4042)">
<mask id="path-1-inside-1_63_4042" fill="white">
<path fill-rule="evenodd" clip-rule="evenodd" d="M0 0H0.00149156V2.67878H2.68028V0H2.68038V2.67878H5.35916V-3.1521e-06L40.6853 0V2.67881H43.3642V5.40915H46V23.8182H43.3631L43.3631 26.9091H40.2722V30L0 30L2.29418 30L2.29418 27.2954L0 27.2954H2.29418V24.5909H0V0ZM43.3899 6.10594e-05L46 6.11398e-05V0H43.3899V6.10594e-05ZM0.00149084 2.67879H2.68028V5.35757H0.00149084V2.67879ZM4.99872 27.2954H2.29418L2.29418 30H4.99872V27.2954Z"/>
</mask>
<path fill-rule="evenodd" clip-rule="evenodd" d="M0 0H0.00149156V2.67878H2.68028V0H2.68038V2.67878H5.35916V-3.1521e-06L40.6853 0V2.67881H43.3642V5.40915H46V23.8182H43.3631L43.3631 26.9091H40.2722V30L0 30L2.29418 30L2.29418 27.2954L0 27.2954H2.29418V24.5909H0V0ZM43.3899 6.10594e-05L46 6.11398e-05V0H43.3899V6.10594e-05ZM0.00149084 2.67879H2.68028V5.35757H0.00149084V2.67879ZM4.99872 27.2954H2.29418L2.29418 30H4.99872V27.2954Z" fill="white" fill-opacity="0.1"/>
<path d="M0.00149156 0H1.00149V-1H0.00149156V0ZM0 0V-1H-1V0H0ZM0.00149156 2.67878H-0.998508V3.67878H0.00149156V2.67878ZM2.68028 2.67878V3.67878H3.68028V2.67878H2.68028ZM2.68028 0V-1H1.68028V0H2.68028ZM2.68038 0H3.68038V-1H2.68038V0ZM2.68038 2.67878H1.68038V3.67878H2.68038V2.67878ZM5.35916 2.67878V3.67878H6.35916V2.67878H5.35916ZM5.35916 -3.1521e-06V-1L4.35916 -1V-3.1521e-06H5.35916ZM40.6853 0H41.6853V-1L40.6853 -1V0ZM40.6853 2.67881H39.6853V3.67881H40.6853V2.67881ZM43.3642 2.67881H44.3642V1.67881H43.3642V2.67881ZM43.3642 5.40915H42.3642V6.40915H43.3642V5.40915ZM46 5.40915H47V4.40915H46V5.40915ZM46 23.8182V24.8182H47V23.8182H46ZM43.3631 23.8182V22.8182H42.3631V23.8182L43.3631 23.8182ZM43.3631 26.9091V27.9091H44.3631V26.9091L43.3631 26.9091ZM40.2722 26.9091V25.9091H39.2722V26.9091H40.2722ZM40.2722 30V31H41.2722V30H40.2722ZM2.29418 30L2.29418 31L3.29418 31V30H2.29418ZM2.29418 27.2954H3.29418V26.2954L2.29418 26.2954L2.29418 27.2954ZM2.29418 27.2954V28.2954H3.29418V27.2954H2.29418ZM2.29418 24.5909H3.29418V23.5909H2.29418V24.5909ZM0 24.5909H-1V25.5909H0V24.5909ZM46 6.11398e-05V1.00006H47V6.11398e-05H46ZM43.3899 6.10594e-05H42.3899V1.00006H43.3899V6.10594e-05ZM46 0H47V-1H46V0ZM43.3899 0V-1H42.3899V0H43.3899ZM2.68028 2.67879H3.68028V1.67879H2.68028V2.67879ZM0.00149084 2.67879V1.67879H-0.998509V2.67879H0.00149084ZM2.68028 5.35757V6.35757H3.68028V5.35757H2.68028ZM0.00149084 5.35757H-0.998509V6.35757H0.00149084V5.35757ZM2.29418 27.2954V26.2954H1.29418L1.29418 27.2954H2.29418ZM4.99872 27.2954H5.99872V26.2954H4.99872V27.2954ZM2.29418 30H1.29418L1.29418 31H2.29418V30ZM4.99872 30V31H5.99872V30H4.99872ZM0.00149156 -1H0V1H0.00149156V-1ZM1.00149 2.67878V0H-0.998508V2.67878H1.00149ZM2.68028 1.67878H0.00149156V3.67878H2.68028V1.67878ZM1.68028 0V2.67878H3.68028V0H1.68028ZM2.68038 -1H2.68028V1H2.68038V-1ZM3.68038 2.67878V0H1.68038V2.67878H3.68038ZM5.35916 1.67878H2.68038V3.67878H5.35916V1.67878ZM4.35916 -3.1521e-06V2.67878H6.35916V-3.1521e-06H4.35916ZM40.6853 -1L5.35916 -1V0.999997L40.6853 1V-1ZM41.6853 2.67881V0H39.6853V2.67881H41.6853ZM43.3642 1.67881H40.6853V3.67881H43.3642V1.67881ZM44.3642 5.40915V2.67881H42.3642V5.40915H44.3642ZM46 4.40915H43.3642V6.40915H46V4.40915ZM47 23.8182V5.40915H45V23.8182H47ZM43.3631 24.8182H46V22.8182H43.3631V24.8182ZM44.3631 26.9091L44.3631 23.8182L42.3631 23.8182L42.3631 26.9091L44.3631 26.9091ZM40.2722 27.9091H43.3631V25.9091H40.2722V27.9091ZM41.2722 30V26.9091H39.2722V30H41.2722ZM-1.89446e-07 31L40.2722 31V29L1.89446e-07 29L-1.89446e-07 31ZM2.29417 29L-5.8197e-06 29L5.8197e-06 31L2.29418 31L2.29417 29ZM1.29418 27.2954L1.29418 30H3.29418L3.29418 27.2954H1.29418ZM-1.66277e-06 28.2954L2.29418 28.2954L2.29418 26.2954L1.66277e-06 26.2954L-1.66277e-06 28.2954ZM2.29418 26.2954H0V28.2954H2.29418V26.2954ZM1.29418 24.5909V27.2954H3.29418V24.5909H1.29418ZM0 25.5909H2.29418V23.5909H0V25.5909ZM-1 0V24.5909H1V0H-1ZM46 -0.999939L43.3899 -0.999939V1.00006L46 1.00006V-0.999939ZM45 0V6.11398e-05H47V0H45ZM43.3899 1H46V-1H43.3899V1ZM44.3899 6.10594e-05V0H42.3899V6.10594e-05H44.3899ZM2.68028 1.67879H0.00149084V3.67879H2.68028V1.67879ZM3.68028 5.35757V2.67879H1.68028V5.35757H3.68028ZM0.00149084 6.35757H2.68028V4.35757H0.00149084V6.35757ZM-0.998509 2.67879V5.35757H1.00149V2.67879H-0.998509ZM2.29418 28.2954H4.99872V26.2954H2.29418V28.2954ZM3.29418 30L3.29418 27.2954H1.29418L1.29418 30H3.29418ZM4.99872 29H2.29418V31H4.99872V29ZM3.99872 27.2954V30H5.99872V27.2954H3.99872Z" fill="white" fill-opacity="0.15" mask="url(#path-1-inside-1_63_4042)"/>
</g>
<path d="M11.7425 10.6H14.5265L15.0065 16.912V18.136H15.2945V16.912L15.7745 10.6H18.5585V19H17.1185V13.384L17.2625 11.464H16.9745L16.3505 19H13.9745L13.3265 11.464H13.0385L13.1825 13.384V19H11.7425V10.6ZM23.9262 17.2H21.0702L20.6622 19H19.0062L21.0102 10.6H23.9862L25.9902 19H24.3342L23.9262 17.2ZM21.4062 15.688H23.5782L22.6062 11.392H22.3902L21.4062 15.688ZM28.2858 10.6L29.7018 14.032H29.9898L31.4058 10.6H33.1218L31.3938 14.68V14.896L33.1218 19H31.4058L29.9898 15.544H29.7018L28.2858 19H26.5698L28.2978 14.896V14.68L26.5698 10.6H28.2858Z" fill="white"/>
<defs>
<filter id="filter0_b_63_4042" x="-45" y="-45" width="136" height="120" filterUnits="userSpaceOnUse" color-interpolation-filters="sRGB">
<feFlood flood-opacity="0" result="BackgroundImageFix"/>
<feGaussianBlur in="BackgroundImageFix" stdDeviation="22.5"/>
<feComposite in2="SourceAlpha" operator="in" result="effect1_backgroundBlur_63_4042"/>
<feBlend mode="normal" in="SourceGraphic" in2="effect1_backgroundBlur_63_4042" result="shape"/>
</filter>
</defs>
</svg>
