<svg width="52" height="52" viewBox="0 0 52 52" fill="none" xmlns="http://www.w3.org/2000/svg">
<mask id="path-1-inside-1_45_4898" fill="white">
<path fill-rule="evenodd" clip-rule="evenodd" d="M2.99726e-06 3.0727V3.07277H3.07271V6.14541V6.1455V9.21814H2.99726e-06L3.66417e-08 9.21815L3.07273 9.21815L3.07273 12.2909H0L2.06954e-06 39.7091H3.07262L3.07262 42.7818L3.07262 45.8544V45.8545L3.07262 48.9271L2.76532e-06 48.9271L2.76533e-06 48.9273H3.07262L3.07262 52H3.07269L3.07269 48.9273H6.14535H6.14542H9.21808V52L9.21809 48.9273H12.2908V52L52 52V12.2909H48.9275V9.21824V9.21816V6.1456V6.14551V3.07287H52V3.07273H48.9275V0H48.9274V3.07273H45.8548H45.8547H42.782V0H42.782V3.07273H39.7092V0H12.2909L12.2909 3.0727L9.21822 3.0727H9.21815H6.14557H6.14549H3.07285V0H3.07271V3.0727H2.99726e-06ZM9.21822 3.07277H6.14558H6.14549H3.07285V6.14541V6.1455V9.21814H6.14558V6.1455H9.21822V3.07277ZM48.9274 6.1456V9.21824H45.8547V6.1456H42.782V3.07287H45.8547H45.8548H48.9274V6.14551V6.1456ZM42.7817 48.9272H39.7091V52H42.7817H42.7818H45.8543H45.8544H48.927L48.927 48.9272L48.927 45.8546L48.927 45.8545V42.7819H45.8543V45.8545H42.7817V48.9272ZM48.9272 45.8546V48.9272V52H51.9999V48.9272V45.8546V45.8545V42.7819H48.9272V45.8545V45.8546ZM51.9999 39.7091V42.7819H48.9272V39.7091H51.9999ZM3.07269 45.8544L3.07269 42.7818H6.14542L6.14542 45.8544H9.21808V48.9271H6.14542L6.14535 48.9271H3.07269L3.07269 45.8545V45.8544Z"/>
</mask>
<path fill-rule="evenodd" clip-rule="evenodd" d="M2.99726e-06 3.0727V3.07277H3.07271V6.14541V6.1455V9.21814H2.99726e-06L3.66417e-08 9.21815L3.07273 9.21815L3.07273 12.2909H0L2.06954e-06 39.7091H3.07262L3.07262 42.7818L3.07262 45.8544V45.8545L3.07262 48.9271L2.76532e-06 48.9271L2.76533e-06 48.9273H3.07262L3.07262 52H3.07269L3.07269 48.9273H6.14535H6.14542H9.21808V52L9.21809 48.9273H12.2908V52L52 52V12.2909H48.9275V9.21824V9.21816V6.1456V6.14551V3.07287H52V3.07273H48.9275V0H48.9274V3.07273H45.8548H45.8547H42.782V0H42.782V3.07273H39.7092V0H12.2909L12.2909 3.0727L9.21822 3.0727H9.21815H6.14557H6.14549H3.07285V0H3.07271V3.0727H2.99726e-06ZM9.21822 3.07277H6.14558H6.14549H3.07285V6.14541V6.1455V9.21814H6.14558V6.1455H9.21822V3.07277ZM48.9274 6.1456V9.21824H45.8547V6.1456H42.782V3.07287H45.8547H45.8548H48.9274V6.14551V6.1456ZM42.7817 48.9272H39.7091V52H42.7817H42.7818H45.8543H45.8544H48.927L48.927 48.9272L48.927 45.8546L48.927 45.8545V42.7819H45.8543V45.8545H42.7817V48.9272ZM48.9272 45.8546V48.9272V52H51.9999V48.9272V45.8546V45.8545V42.7819H48.9272V45.8545V45.8546ZM51.9999 39.7091V42.7819H48.9272V39.7091H51.9999ZM3.07269 45.8544L3.07269 42.7818H6.14542L6.14542 45.8544H9.21808V48.9271H6.14542L6.14535 48.9271H3.07269L3.07269 45.8545V45.8544Z" fill="#1E2234" fill-opacity="0.65"/>
<path d="M2.99726e-06 3.07277H-0.999997V4.07277H2.99726e-06V3.07277ZM2.99726e-06 3.0727V2.0727H-0.999997V3.0727H2.99726e-06ZM3.07271 3.07277H4.0727V2.07277H3.07271V3.07277ZM3.07271 9.21814V10.2181H4.0727V9.21814H3.07271ZM2.99726e-06 9.21814V8.21814H-0.736633L-0.955034 8.92165L2.99726e-06 9.21814ZM3.66417e-08 9.21815L-0.955037 8.92166L-1.35752 10.2181H-2.73726e-07L3.66417e-08 9.21815ZM3.07273 9.21815H4.07273V8.21815H3.07273L3.07273 9.21815ZM3.07273 12.2909V13.2909H4.07273V12.2909H3.07273ZM0 12.2909V11.2909H-1L-1 12.2909H0ZM2.06954e-06 39.7091H-0.999998L-0.999998 40.7091H2.06954e-06V39.7091ZM3.07262 39.7091H4.07262L4.07262 38.7091H3.07262V39.7091ZM3.07262 42.7818H4.07262H3.07262ZM3.07262 45.8544H2.07262H3.07262ZM3.07262 45.8545H4.07262H3.07262ZM3.07262 48.9271L3.07262 49.9271H4.07262V48.9271H3.07262ZM2.76532e-06 48.9271L4.00683e-06 47.9271H-0.999997L-0.999997 48.9271H2.76532e-06ZM2.76533e-06 48.9273H-0.999997L-0.999997 49.9273H2.76533e-06V48.9273ZM3.07262 48.9273H4.07262V47.9273H3.07262V48.9273ZM3.07262 52H2.07262L2.07262 53H3.07262V52ZM3.07269 52V53H4.07269V52H3.07269ZM3.07269 48.9273V47.9273H2.07269V48.9273H3.07269ZM9.21808 48.9273H10.2181V47.9273H9.21808V48.9273ZM9.21809 48.9273V47.9273H8.2181L8.21809 48.9273L9.21809 48.9273ZM12.2908 48.9273H13.2908V47.9273H12.2908V48.9273ZM12.2908 52H11.2908V53H12.2908L12.2908 52ZM52 52V53H53V52H52ZM52 12.2909H53V11.2909H52V12.2909ZM48.9275 12.2909H47.9275V13.2909H48.9275V12.2909ZM48.9275 3.07287V2.07287H47.9275V3.07287H48.9275ZM52 3.07287V4.07287H53V3.07287H52ZM52 3.07273H53V2.07273H52V3.07273ZM48.9275 3.07273H47.9275V4.07273H48.9275V3.07273ZM48.9275 0H49.9275V-1H48.9275V0ZM48.9274 0V-1H47.9274V0H48.9274ZM48.9274 3.07273V4.07273H49.9274V3.07273H48.9274ZM42.782 3.07273H41.782V4.07273H42.782V3.07273ZM42.782 0H43.782V-1H42.782V0ZM42.782 0V-1H41.782V0H42.782ZM42.782 3.07273V4.07273H43.782V3.07273H42.782ZM39.7092 3.07273H38.7092V4.07273H39.7092V3.07273ZM39.7092 0H40.7092V-1H39.7092V0ZM12.2909 0V-1H11.2909V-3.1037e-07L12.2909 0ZM12.2909 3.0727V4.0727L13.2909 4.0727V3.0727L12.2909 3.0727ZM9.21822 3.0727V2.0727V3.0727ZM3.07285 3.0727H2.07285V4.0727H3.07285V3.0727ZM3.07285 0H4.07285V-1H3.07285V0ZM3.07271 0V-1H2.07271V0H3.07271ZM3.07271 3.0727V4.0727H4.0727V3.0727H3.07271ZM9.21822 3.07277H10.2182V2.07277H9.21822V3.07277ZM3.07285 3.07277V2.07277H2.07285V3.07277H3.07285ZM3.07285 9.21814H2.07285V10.2181H3.07285V9.21814ZM6.14558 9.21814V10.2181H7.14558V9.21814H6.14558ZM6.14558 6.1455V5.1455H5.14558V6.1455H6.14558ZM9.21822 6.1455V7.1455H10.2182V6.1455H9.21822ZM48.9274 9.21824V10.2182H49.9274V9.21824H48.9274ZM45.8547 9.21824H44.8547V10.2182H45.8547V9.21824ZM45.8547 6.1456H46.8547V5.1456H45.8547V6.1456ZM42.782 6.1456H41.782V7.1456H42.782V6.1456ZM42.782 3.07287V2.07287H41.782V3.07287H42.782ZM48.9274 3.07287H49.9274V2.07287H48.9274V3.07287ZM39.7091 48.9272V47.9272H38.7091V48.9272H39.7091ZM42.7817 48.9272V49.9272H43.7817V48.9272H42.7817ZM39.7091 52H38.7091V53H39.7091V52ZM48.927 52V53H49.927L49.927 52H48.927ZM48.927 48.9272H49.927H48.927ZM48.927 45.8546L47.928 45.8092L47.927 45.8319V45.8546H48.927ZM48.927 45.8545L49.926 45.8999L49.927 45.8772V45.8545H48.927ZM48.927 42.7819H49.927V41.7819H48.927V42.7819ZM45.8543 42.7819V41.7819H44.8543V42.7819H45.8543ZM45.8543 45.8545V46.8545H46.8543V45.8545H45.8543ZM42.7817 45.8545V44.8545H41.7817V45.8545H42.7817ZM48.9272 52H47.9272V53H48.9272V52ZM51.9999 52V53H52.9999V52H51.9999ZM51.9999 42.7819H52.9999V41.7819H51.9999V42.7819ZM48.9272 42.7819V41.7819H47.9272V42.7819H48.9272ZM51.9999 42.7819V43.7819H52.9999V42.7819H51.9999ZM51.9999 39.7091H52.9999V38.7091H51.9999V39.7091ZM48.9272 42.7819H47.9272V43.7819H48.9272V42.7819ZM48.9272 39.7091V38.7091H47.9272V39.7091H48.9272ZM3.07269 42.7818V41.7818H2.07269V42.7818H3.07269ZM3.07269 45.8544H2.07269H3.07269ZM6.14542 42.7818H7.14542L7.14542 41.7818H6.14542V42.7818ZM6.14542 45.8544H5.14542V46.8544H6.14542V45.8544ZM9.21808 45.8544H10.2181V44.8544H9.21808V45.8544ZM9.21808 48.9271V49.9271H10.2181V48.9271H9.21808ZM6.14542 48.9271L6.08626 49.9254L6.11581 49.9271H6.14542V48.9271ZM6.14535 48.9271L6.20451 47.9289L6.17496 47.9271H6.14535V48.9271ZM3.07269 48.9271H2.07269L2.07269 49.9271H3.07269V48.9271ZM3.07269 45.8545H4.07269H3.07269ZM1 3.07277V3.0727H-0.999997V3.07277H1ZM3.07271 2.07277H2.99726e-06V4.07277H3.07271V2.07277ZM4.0727 6.14541V3.07277H2.07271V6.14541H4.0727ZM4.0727 6.1455V6.14541H2.07271V6.1455H4.0727ZM4.0727 9.21814V6.1455H2.07271V9.21814H4.0727ZM2.99726e-06 10.2181H3.07271V8.21814H2.99726e-06V10.2181ZM0.955037 9.51463L0.95504 9.51462L-0.955034 8.92165L-0.955037 8.92166L0.955037 9.51463ZM3.07273 8.21815L3.47009e-07 8.21815L-2.73726e-07 10.2181L3.07273 10.2182L3.07273 8.21815ZM4.07273 12.2909V9.21815H2.07273L2.07273 12.2909H4.07273ZM0 13.2909H3.07273V11.2909H0V13.2909ZM1 39.7091L1 12.2909H-1L-0.999998 39.7091H1ZM3.07262 38.7091H2.06954e-06V40.7091H3.07262V38.7091ZM4.07262 42.7818L4.07262 39.7091H2.07262L2.07262 42.7818H4.07262ZM4.07262 45.8544L4.07262 42.7818H2.07262L2.07262 45.8544H4.07262ZM4.07262 45.8545V45.8544H2.07262V45.8545H4.07262ZM4.07262 48.9271V45.8545H2.07262L2.07262 48.9271H4.07262ZM1.52381e-06 49.9271L3.07262 49.9271L3.07262 47.9271L4.00683e-06 47.9271L1.52381e-06 49.9271ZM1 48.9273V48.9271H-0.999997V48.9273H1ZM3.07262 47.9273H2.76533e-06V49.9273H3.07262V47.9273ZM4.07262 52L4.07262 48.9273H2.07262L2.07262 52H4.07262ZM3.07269 51H3.07262V53H3.07269V51ZM2.07269 48.9273L2.07269 52H4.07269L4.07269 48.9273H2.07269ZM6.14535 47.9273H3.07269V49.9273H6.14535V47.9273ZM6.14542 47.9273H6.14535V49.9273H6.14542V47.9273ZM9.21808 47.9273H6.14542V49.9273H9.21808V47.9273ZM10.2181 52V48.9273H8.21808V52H10.2181ZM10.2181 52L10.2181 48.9273L8.21809 48.9273L8.21808 52L10.2181 52ZM9.21809 49.9273H12.2908V47.9273H9.21809V49.9273ZM11.2908 48.9273V52H13.2908V48.9273H11.2908ZM52 51L12.2908 51L12.2908 53L52 53V51ZM51 12.2909V52H53V12.2909H51ZM48.9275 13.2909H52V11.2909H48.9275V13.2909ZM47.9275 9.21824V12.2909H49.9275V9.21824H47.9275ZM47.9275 9.21816V9.21824H49.9275V9.21816H47.9275ZM47.9275 6.1456V9.21816H49.9275V6.1456H47.9275ZM47.9275 6.14551V6.1456H49.9275V6.14551H47.9275ZM47.9275 3.07287V6.14551H49.9275V3.07287H47.9275ZM52 2.07287H48.9275V4.07287H52V2.07287ZM51 3.07273V3.07287H53V3.07273H51ZM48.9275 4.07273H52V2.07273H48.9275V4.07273ZM47.9275 0V3.07273H49.9275V0H47.9275ZM48.9274 1H48.9275V-1H48.9274V1ZM49.9274 3.07273V0H47.9274V3.07273H49.9274ZM45.8548 4.07273H48.9274V2.07273H45.8548V4.07273ZM45.8547 4.07273H45.8548V2.07273H45.8547V4.07273ZM42.782 4.07273H45.8547V2.07273H42.782V4.07273ZM41.782 0V3.07273H43.782V0H41.782ZM42.782 1H42.782V-1H42.782V1ZM43.782 3.07273V0H41.782V3.07273H43.782ZM39.7092 4.07273H42.782V2.07273H39.7092V4.07273ZM38.7092 0V3.07273H40.7092V0H38.7092ZM12.2909 1H39.7092V-1H12.2909V1ZM13.2909 3.0727L13.2909 3.1037e-07L11.2909 -3.1037e-07L11.2909 3.0727L13.2909 3.0727ZM9.21822 4.0727H12.2909V2.0727L9.21822 2.0727V4.0727ZM9.21815 4.0727H9.21822V2.0727H9.21815V4.0727ZM6.14557 4.0727H9.21815V2.0727H6.14557V4.0727ZM6.14549 4.0727H6.14557V2.0727H6.14549V4.0727ZM3.07285 4.0727H6.14549V2.0727H3.07285V4.0727ZM2.07285 0V3.0727H4.07285V0H2.07285ZM3.07271 1H3.07285V-1H3.07271V1ZM4.0727 3.0727V0H2.07271V3.0727H4.0727ZM2.99726e-06 4.0727H3.07271V2.0727H2.99726e-06V4.0727ZM6.14558 4.07277H9.21822V2.07277H6.14558V4.07277ZM6.14549 4.07277H6.14558V2.07277H6.14549V4.07277ZM3.07285 4.07277H6.14549V2.07277H3.07285V4.07277ZM4.07285 6.14541V3.07277H2.07285V6.14541H4.07285ZM4.07285 6.1455V6.14541H2.07285V6.1455H4.07285ZM4.07285 9.21814V6.1455H2.07285V9.21814H4.07285ZM6.14558 8.21814H3.07285V10.2181H6.14558V8.21814ZM5.14558 6.1455V9.21814H7.14558V6.1455H5.14558ZM9.21822 5.1455H6.14558V7.1455H9.21822V5.1455ZM8.21822 3.07277V6.1455H10.2182V3.07277H8.21822ZM49.9274 9.21824V6.1456H47.9274V9.21824H49.9274ZM45.8547 10.2182H48.9274V8.21824H45.8547V10.2182ZM44.8547 6.1456V9.21824H46.8547V6.1456H44.8547ZM42.782 7.1456H45.8547V5.1456H42.782V7.1456ZM41.782 3.07287V6.1456H43.782V3.07287H41.782ZM45.8547 2.07287H42.782V4.07287H45.8547V2.07287ZM45.8548 2.07287H45.8547V4.07287H45.8548V2.07287ZM48.9274 2.07287H45.8548V4.07287H48.9274V2.07287ZM49.9274 6.14551V3.07287H47.9274V6.14551H49.9274ZM49.9274 6.1456V6.14551H47.9274V6.1456H49.9274ZM39.7091 49.9272H42.7817V47.9272H39.7091V49.9272ZM40.7091 52V48.9272H38.7091V52H40.7091ZM42.7817 51H39.7091V53H42.7817V51ZM42.7818 51H42.7817V53H42.7818V51ZM45.8543 51H42.7818V53H45.8543V51ZM45.8544 51H45.8543V53H45.8544V51ZM48.927 51H45.8544V53H48.927V51ZM47.927 48.9272L47.927 52H49.927L49.927 48.9272H47.927ZM47.927 45.8546L47.927 48.9272H49.927L49.927 45.8546H47.927ZM47.928 45.8091L47.928 45.8092L49.926 45.9L49.926 45.8999L47.928 45.8091ZM47.927 42.7819V45.8545H49.927V42.7819H47.927ZM45.8543 43.7819H48.927V41.7819H45.8543V43.7819ZM46.8543 45.8545V42.7819H44.8543V45.8545H46.8543ZM42.7817 46.8545H45.8543V44.8545H42.7817V46.8545ZM43.7817 48.9272V45.8545H41.7817V48.9272H43.7817ZM49.9272 48.9272V45.8546H47.9272V48.9272H49.9272ZM49.9272 52V48.9272H47.9272V52H49.9272ZM51.9999 51H48.9272V53H51.9999V51ZM50.9999 48.9272V52H52.9999V48.9272H50.9999ZM50.9999 45.8546V48.9272H52.9999V45.8546H50.9999ZM50.9999 45.8545V45.8546H52.9999V45.8545H50.9999ZM50.9999 42.7819V45.8545H52.9999V42.7819H50.9999ZM48.9272 43.7819H51.9999V41.7819H48.9272V43.7819ZM49.9272 45.8545V42.7819H47.9272V45.8545H49.9272ZM49.9272 45.8546V45.8545H47.9272V45.8546H49.9272ZM52.9999 42.7819V39.7091H50.9999V42.7819H52.9999ZM48.9272 43.7819H51.9999V41.7819H48.9272V43.7819ZM47.9272 39.7091V42.7819H49.9272V39.7091H47.9272ZM51.9999 38.7091H48.9272V40.7091H51.9999V38.7091ZM2.07269 42.7818L2.07269 45.8544H4.07269L4.07269 42.7818H2.07269ZM6.14542 41.7818H3.07269V43.7818H6.14542V41.7818ZM7.14542 45.8544L7.14542 42.7818H5.14542L5.14542 45.8544H7.14542ZM9.21808 44.8544H6.14542V46.8544H9.21808V44.8544ZM10.2181 48.9271V45.8544H8.21808V48.9271H10.2181ZM6.14542 49.9271H9.21808V47.9271H6.14542V49.9271ZM6.0862 49.9254L6.08626 49.9254L6.20457 47.9289L6.20451 47.9289L6.0862 49.9254ZM3.07269 49.9271H6.14535V47.9271H3.07269V49.9271ZM2.07269 45.8545L2.07269 48.9271H4.07269V45.8545H2.07269ZM2.07269 45.8544V45.8545H4.07269V45.8544H2.07269Z" fill="white" fill-opacity="0.15" mask="url(#path-1-inside-1_45_4898)"/>
<path d="M26.5839 21.1003H27.8088V22.3252H26.5839V21.1003Z" fill="white"/>
<path d="M27.8088 19.8754H29.0338V21.1003H27.8088V19.8754Z" fill="white"/>
<path d="M35.1583 21.1003H36.3832V22.3252H35.1583V21.1003Z" fill="white"/>
<path d="M31.4836 28.4498H32.7085V29.6747H31.4836V28.4498Z" fill="white"/>
<path d="M30.2587 29.6747H31.4836V30.8996H30.2587V29.6747Z" fill="white"/>
<path d="M20.4594 30.8996H21.6843V32.1245H20.4594V30.8996Z" fill="white"/>
<path d="M21.6843 29.6747H22.9092V30.8996H21.6843V29.6747Z" fill="white"/>
<path d="M22.9092 28.4498H24.1341V29.6747H22.9092V28.4498Z" fill="white"/>
<path d="M21.6843 27.2249H22.9092V28.4498H21.6843V27.2249Z" fill="white"/>
<path d="M19.2345 23.5501H20.4594V24.7751H19.2345V23.5501Z" fill="white"/>
<path d="M18.0096 22.3252H19.2345V23.5501H18.0096V22.3252Z" fill="white"/>
<path d="M16.7847 21.1003H18.0096V22.3252H16.7847V21.1003Z" fill="white"/>
<path d="M27.8088 33.3494V32.1245H21.6843V33.3494H27.8088Z" fill="white"/>
<path d="M30.2587 32.1245V30.8996H27.8088V32.1245H30.2587Z" fill="white"/>
<path d="M33.9334 24.7751H32.7085V28.4498H33.9334V24.7751Z" fill="white"/>
<path d="M35.1583 22.3252H33.9334V24.7751H35.1583V22.3252Z" fill="white"/>
<path d="M32.7085 19.8754V21.1003H35.1583V19.8754H32.7085Z" fill="white"/>
<path d="M29.0338 18.6505V19.8754H32.7085V18.6505H29.0338Z" fill="white"/>
<path d="M24.1341 22.3252V23.5501H26.5839V22.3252H24.1341Z" fill="white"/>
<path d="M20.4594 21.1003V22.3252H24.1341V21.1003H20.4594Z" fill="white"/>
<path d="M18.0096 19.8754V21.1003H20.4594V19.8754H18.0096Z" fill="white"/>
<path d="M20.4594 27.2249H21.6843V24.7751H20.4594V27.2249Z" fill="white"/>
<path d="M18.0096 21.1003V19.8754H20.4594V21.1003M18.0096 21.1003H16.7847V22.3252H18.0096M18.0096 21.1003V22.3252M18.0096 21.1003H20.4594M20.4594 21.1003V22.3252H24.1341M20.4594 21.1003H24.1341V22.3252M24.1341 22.3252V23.5501H26.5839V22.3252M24.1341 22.3252H26.5839M26.5839 22.3252H27.8088V21.1003M26.5839 22.3252V21.1003H27.8088M27.8088 21.1003H29.0338V19.8754M27.8088 21.1003V19.8754H29.0338M29.0338 19.8754V18.6505H32.7085V19.8754M29.0338 19.8754H32.7085M32.7085 19.8754V21.1003H35.1583M32.7085 19.8754H35.1583V21.1003M35.1583 21.1003H36.3832V22.3252H35.1583M35.1583 21.1003V22.3252M35.1583 22.3252H33.9334V24.7751M35.1583 22.3252V24.7751H33.9334M33.9334 24.7751H32.7085V28.4498M33.9334 24.7751V28.4498H32.7085M32.7085 28.4498H31.4836V29.6747M32.7085 28.4498V29.6747H31.4836M31.4836 29.6747H30.2587V30.8996M31.4836 29.6747V30.8996H30.2587M30.2587 30.8996V32.1245H27.8088M30.2587 30.8996H27.8088V32.1245M27.8088 32.1245V33.3494H21.6843V32.1245M27.8088 32.1245H21.6843M21.6843 32.1245V30.8996M21.6843 32.1245H20.4594V30.8996H21.6843M21.6843 30.8996H22.9092V29.6747M21.6843 30.8996V29.6747H22.9092M22.9092 29.6747H24.1341V28.4498H22.9092M22.9092 29.6747V28.4498M22.9092 28.4498V27.2249H21.6843M22.9092 28.4498H21.6843V27.2249M21.6843 27.2249H20.4594V24.7751M21.6843 27.2249V24.7751H20.4594M20.4594 24.7751V23.5501H19.2345M20.4594 24.7751H19.2345V23.5501M19.2345 23.5501V22.3252H18.0096M19.2345 23.5501H18.0096V22.3252" stroke="white" stroke-width="0.5"/>
</svg>
