<svg width="110" height="44" viewBox="0 0 110 44" fill="none" xmlns="http://www.w3.org/2000/svg">
<path fill-rule="evenodd" clip-rule="evenodd" d="M0 3.46668V3.46667H3.46642V0H103V3.46668L106.5 3.46668V6.9667L110 6.9667L110 36H106.467L106.467 40L102.467 40V44L0 44L2.96668 44V40.5L0 40.5H2.96668V37L0 37V6.93334H3.46642V3.46668H0ZM6.93335 9.91431e-06L3.46668 9.91431e-06V3.46668H6.93335V9.91431e-06ZM6.46668 40.5H2.96669V44H6.46668L6.46668 40.5Z" fill="#1E2234"/>
<path fill-rule="evenodd" clip-rule="evenodd" d="M83 18H81V20H83V22H85V24H87V26H89V24H91V22H93V20H95V18H93V20H91V22H89V24H87V22H85V20H83V18Z" fill="white"/>
<path d="M47.9536 17.2V23.612C47.9536 24.732 47.6549 25.6093 47.0576 26.244C46.4696 26.8787 45.5923 27.196 44.4256 27.196C43.2589 27.196 42.3769 26.8787 41.7796 26.244C41.1916 25.6093 40.8976 24.732 40.8976 23.612V17.2H42.7456V23.612C42.7456 24.1907 42.8809 24.6433 43.1516 24.97C43.4223 25.2967 43.8469 25.46 44.4256 25.46C45.0043 25.46 45.4289 25.2967 45.6996 24.97C45.9703 24.6433 46.1056 24.1907 46.1056 23.612V17.2H47.9536ZM54.6779 20.196C54.6779 19.804 54.5239 19.4633 54.2159 19.174C53.9172 18.8847 53.4925 18.74 52.9419 18.74C52.4752 18.74 52.1065 18.838 51.8359 19.034C51.5652 19.2207 51.4299 19.4773 51.4299 19.804C51.4299 19.972 51.4625 20.126 51.5279 20.266C51.5932 20.3967 51.7052 20.518 51.8639 20.63C52.0319 20.7327 52.2465 20.826 52.5079 20.91C52.7785 20.994 53.1192 21.0733 53.5299 21.148C54.5565 21.3347 55.3405 21.6473 55.8819 22.086C56.4232 22.5247 56.6939 23.1733 56.6939 24.032V24.2C56.6939 24.6573 56.6099 25.0727 56.4419 25.446C56.2832 25.81 56.0499 26.1227 55.7419 26.384C55.4339 26.6453 55.0605 26.846 54.6219 26.986C54.1832 27.126 53.6885 27.196 53.1379 27.196C52.4939 27.196 51.9245 27.1073 51.4299 26.93C50.9445 26.7433 50.5385 26.4913 50.2119 26.174C49.8852 25.8473 49.6379 25.4693 49.4699 25.04C49.3019 24.6013 49.2179 24.1253 49.2179 23.612V23.192H51.0659V23.528C51.0659 24.116 51.2339 24.5873 51.5699 24.942C51.9152 25.2873 52.4472 25.46 53.1659 25.46C53.7259 25.46 54.1412 25.3387 54.4119 25.096C54.6825 24.8533 54.8179 24.564 54.8179 24.228C54.8179 24.0693 54.7899 23.92 54.7339 23.78C54.6779 23.6307 54.5799 23.5 54.4399 23.388C54.2999 23.2667 54.1085 23.1593 53.8659 23.066C53.6232 22.9727 53.3152 22.8933 52.9419 22.828C52.4472 22.744 51.9945 22.6367 51.5839 22.506C51.1732 22.366 50.8139 22.184 50.5059 21.96C50.2072 21.736 49.9739 21.456 49.8059 21.12C49.6379 20.784 49.5539 20.3733 49.5539 19.888V19.804C49.5539 19.4027 49.6332 19.034 49.7919 18.698C49.9599 18.3527 50.1885 18.054 50.4779 17.802C50.7765 17.55 51.1312 17.354 51.5419 17.214C51.9619 17.074 52.4285 17.004 52.9419 17.004C53.5205 17.004 54.0339 17.088 54.4819 17.256C54.9299 17.4147 55.3032 17.634 55.6019 17.914C55.9099 18.194 56.1385 18.516 56.2879 18.88C56.4465 19.244 56.5259 19.6267 56.5259 20.028V20.532H54.6779V20.196ZM57.9301 17.2H61.4861C62.6995 17.2 63.6001 17.4847 64.1881 18.054C64.7761 18.614 65.0701 19.4867 65.0701 20.672V23.528C65.0701 24.7133 64.7761 25.5907 64.1881 26.16C63.6001 26.72 62.6995 27 61.4861 27H57.9301V25.222H58.8541V18.964H57.9301V17.2ZM61.4861 25.236C62.1301 25.236 62.5781 25.0867 62.8301 24.788C63.0915 24.48 63.2221 24.004 63.2221 23.36V20.672C63.2221 20.112 63.0915 19.6873 62.8301 19.398C62.5781 19.1087 62.1301 18.964 61.4861 18.964H60.7021V25.236H61.4861Z" fill="white"/>
<path d="M25.375 13V14.125H18.625V13H25.375Z" fill="white"/>
<path d="M16.375 15.25V14.125H18.625V15.25H16.375Z" fill="white"/>
<path d="M15.25 16.375V15.25H16.375V16.375H15.25Z" fill="white"/>
<path d="M14.125 18.625V16.375H15.25V18.625H14.125Z" fill="white"/>
<path d="M14.125 25.375H13V18.625H14.125V25.375Z" fill="white"/>
<path d="M15.25 27.625H14.125V25.375H15.25V27.625Z" fill="white"/>
<path d="M16.375 28.75H15.25V27.625H16.375V28.75Z" fill="white"/>
<path d="M18.625 29.875H16.375V28.75H18.625V29.875Z" fill="white"/>
<path d="M25.375 29.875V31H18.625V29.875H25.375Z" fill="white"/>
<path d="M27.625 28.75V29.875H25.375V28.75H27.625Z" fill="white"/>
<path d="M28.75 27.625V28.75H27.625V27.625H28.75Z" fill="white"/>
<path d="M29.875 25.375V27.625H28.75V25.375H29.875Z" fill="white"/>
<path d="M29.875 18.625H31V25.375H29.875V18.625Z" fill="white"/>
<path d="M28.75 16.375H29.875V18.625H28.75V16.375Z" fill="white"/>
<path d="M27.625 15.25H28.75V16.375H27.625V15.25Z" fill="white"/>
<path d="M27.625 15.25V14.125H25.375V15.25H27.625Z" fill="white"/>
<path d="M18.625 25.375H19.75V26.5H20.875V27.625H22V26.5H24.25V25.375H25.375V23.125H24.25V22H22V20.875H19.75V18.625H24.25V19.75H25.375V18.625H24.25V17.5H23.125V16.375H22V17.5H19.75V18.625H18.625V20.875H19.75V22H22V23.125H24.25V25.375H19.75V24.25H18.625V25.375Z" fill="white"/>
<path d="M25.375 14.125V13H18.625V14.125M25.375 14.125H18.625M25.375 14.125H27.625V15.25M25.375 14.125V15.25H27.625M18.625 14.125H16.375V15.25M18.625 14.125V15.25H16.375M16.375 15.25H15.25V16.375M16.375 15.25V16.375H15.25M15.25 16.375H14.125V18.625M15.25 16.375V18.625H14.125M14.125 18.625H13V25.375H14.125M14.125 18.625V25.375M14.125 25.375V27.625H15.25M14.125 25.375H15.25V27.625M15.25 27.625V28.75H16.375M15.25 27.625H16.375V28.75M16.375 28.75V29.875H18.625M16.375 28.75H18.625V29.875M18.625 29.875V31H25.375V29.875M18.625 29.875H25.375M25.375 29.875H27.625V28.75M25.375 29.875V28.75H27.625M27.625 28.75H28.75V27.625M27.625 28.75V27.625H28.75M28.75 27.625H29.875V25.375M28.75 27.625V25.375H29.875M29.875 25.375H31V18.625H29.875M29.875 25.375V18.625M29.875 18.625V16.375H28.75M29.875 18.625H28.75V16.375M28.75 16.375V15.25H27.625M28.75 16.375H27.625V15.25M19.75 25.375H18.625V24.25H19.75V25.375ZM19.75 25.375V26.5H20.875V27.625H22V26.5H24.25V25.375M19.75 25.375H24.25M24.25 25.375H25.375V23.125H24.25M24.25 25.375V23.125M24.25 23.125V22H22M24.25 23.125H22V22M22 22V20.875H19.75M22 22H19.75V20.875M19.75 20.875V18.625M19.75 20.875H18.625V18.625H19.75M19.75 18.625H24.25M19.75 18.625V17.5H22V16.375H23.125V17.5H24.25V18.625M24.25 18.625V19.75H25.375V18.625H24.25Z" stroke="white" stroke-width="0.5"/>
</svg>
