<svg width="52" height="52" viewBox="0 0 52 52" fill="none" xmlns="http://www.w3.org/2000/svg">
<mask id="path-1-inside-1_45_4796" fill="white">
<path fill-rule="evenodd" clip-rule="evenodd" d="M6.10352e-05 3.0727V3.07277H3.07276V6.14541V6.1455V9.21814H6.10352e-05L5.80745e-05 9.21815L3.07278 9.21815L3.07278 12.2909H5.80379e-05L6.01074e-05 39.7091H3.07268L3.07268 42.7818L3.07268 45.8544V45.8545L3.07268 48.9271L6.08032e-05 48.9271L6.08032e-05 48.9273H3.07268L3.07268 52H3.07275L3.07275 48.9273H6.14541H6.14548H9.21814V52L9.21815 48.9273H12.2909V52L52 52V12.2909H48.9275V9.21824V9.21816V6.1456V6.14551V3.07287H52V3.07273H48.9275V0H48.9275V3.07273H45.8548H45.8547H42.7821V0H42.782V3.07273H39.7093V0H12.2909L12.2909 3.0727L9.21828 3.0727H9.21821H6.14563H6.14555H3.07291V0H3.07276V3.0727H6.10352e-05ZM9.21828 3.07277H6.14563H6.14555H3.07291V6.14541V6.1455V9.21814H6.14563V6.1455H9.21828V3.07277ZM48.9275 6.1456V9.21824H45.8547V6.1456H42.7821V3.07287H45.8547H45.8548H48.9275V6.14551V6.1456ZM42.7818 48.9272H39.7091V52H42.7818H42.7818H45.8543H45.8545H48.9271L48.9271 48.9272L48.9271 45.8546L48.9271 45.8545V42.7819H45.8543V45.8545H42.7818V48.9272ZM48.9273 45.8546V48.9272V52H52V48.9272V45.8546V45.8545V42.7819H48.9273V45.8545V45.8546ZM52 39.7091V42.7819H48.9273V39.7091H52ZM3.07275 45.8544L3.07275 42.7818H6.14548L6.14548 45.8544H9.21814V48.9271H6.14548L6.14541 48.9271H3.07275L3.07275 45.8545V45.8544Z"/>
</mask>
<path fill-rule="evenodd" clip-rule="evenodd" d="M6.10352e-05 3.0727V3.07277H3.07276V6.14541V6.1455V9.21814H6.10352e-05L5.80745e-05 9.21815L3.07278 9.21815L3.07278 12.2909H5.80379e-05L6.01074e-05 39.7091H3.07268L3.07268 42.7818L3.07268 45.8544V45.8545L3.07268 48.9271L6.08032e-05 48.9271L6.08032e-05 48.9273H3.07268L3.07268 52H3.07275L3.07275 48.9273H6.14541H6.14548H9.21814V52L9.21815 48.9273H12.2909V52L52 52V12.2909H48.9275V9.21824V9.21816V6.1456V6.14551V3.07287H52V3.07273H48.9275V0H48.9275V3.07273H45.8548H45.8547H42.7821V0H42.782V3.07273H39.7093V0H12.2909L12.2909 3.0727L9.21828 3.0727H9.21821H6.14563H6.14555H3.07291V0H3.07276V3.0727H6.10352e-05ZM9.21828 3.07277H6.14563H6.14555H3.07291V6.14541V6.1455V9.21814H6.14563V6.1455H9.21828V3.07277ZM48.9275 6.1456V9.21824H45.8547V6.1456H42.7821V3.07287H45.8547H45.8548H48.9275V6.14551V6.1456ZM42.7818 48.9272H39.7091V52H42.7818H42.7818H45.8543H45.8545H48.9271L48.9271 48.9272L48.9271 45.8546L48.9271 45.8545V42.7819H45.8543V45.8545H42.7818V48.9272ZM48.9273 45.8546V48.9272V52H52V48.9272V45.8546V45.8545V42.7819H48.9273V45.8545V45.8546ZM52 39.7091V42.7819H48.9273V39.7091H52ZM3.07275 45.8544L3.07275 42.7818H6.14548L6.14548 45.8544H9.21814V48.9271H6.14548L6.14541 48.9271H3.07275L3.07275 45.8545V45.8544Z" fill="#1E2234" fill-opacity="0.65"/>
<path d="M6.10352e-05 3.07277H-0.999939V4.07277H6.10352e-05V3.07277ZM6.10352e-05 3.0727V2.0727H-0.999939V3.0727H6.10352e-05ZM3.07276 3.07277H4.07276V2.07277H3.07276V3.07277ZM3.07276 9.21814V10.2181H4.07276V9.21814H3.07276ZM6.10352e-05 9.21814V8.21814H-0.736575L-0.954976 8.92165L6.10352e-05 9.21814ZM5.80745e-05 9.21815L-0.954979 8.92166L-1.35746 10.2181L5.77642e-05 10.2181L5.80745e-05 9.21815ZM3.07278 9.21815L4.07278 9.21815L4.07278 8.21815L3.07279 8.21815L3.07278 9.21815ZM3.07278 12.2909V13.2909H4.07278L4.07278 12.2909L3.07278 12.2909ZM5.80379e-05 12.2909V11.2909H-0.999942L-0.999942 12.2909L5.80379e-05 12.2909ZM6.01074e-05 39.7091L-0.99994 39.7091L-0.99994 40.7091H6.01074e-05V39.7091ZM3.07268 39.7091L4.07268 39.7091L4.07268 38.7091H3.07268V39.7091ZM3.07268 42.7818L4.07268 42.7818L4.07268 42.7818L3.07268 42.7818ZM3.07268 45.8544L2.07268 45.8544V45.8544H3.07268ZM3.07268 45.8545L4.07268 45.8545V45.8545H3.07268ZM3.07268 48.9271L3.07268 49.9271L4.07268 49.9271L4.07268 48.9271L3.07268 48.9271ZM6.08032e-05 48.9271L6.20447e-05 47.9271L-0.999939 47.9271L-0.999939 48.9271L6.08032e-05 48.9271ZM6.08032e-05 48.9273L-0.999939 48.9273L-0.999939 49.9273H6.08032e-05V48.9273ZM3.07268 48.9273L4.07268 48.9273L4.07268 47.9273H3.07268V48.9273ZM3.07268 52L2.07268 52L2.07268 53H3.07268V52ZM3.07275 52V53H4.07275L4.07275 52L3.07275 52ZM3.07275 48.9273V47.9273H2.07275L2.07275 48.9273L3.07275 48.9273ZM9.21814 48.9273H10.2181V47.9273H9.21814V48.9273ZM9.21815 48.9273V47.9273H8.21816L8.21815 48.9273L9.21815 48.9273ZM12.2909 48.9273H13.2909V47.9273H12.2909V48.9273ZM12.2909 52H11.2909V53L12.2909 53L12.2909 52ZM52 52L52 53L53 53V52H52ZM52 12.2909H53V11.2909H52V12.2909ZM48.9275 12.2909H47.9275V13.2909H48.9275V12.2909ZM48.9275 3.07287V2.07287H47.9275V3.07287H48.9275ZM52 3.07287V4.07287H53V3.07287H52ZM52 3.07273H53V2.07273H52V3.07273ZM48.9275 3.07273H47.9275V4.07273H48.9275V3.07273ZM48.9275 0H49.9275V-1H48.9275V0ZM48.9275 0V-1H47.9275V0H48.9275ZM48.9275 3.07273V4.07273H49.9275V3.07273H48.9275ZM42.7821 3.07273H41.7821V4.07273H42.7821V3.07273ZM42.7821 0H43.7821V-1H42.7821V0ZM42.782 0V-1H41.782V0H42.782ZM42.782 3.07273V4.07273H43.782V3.07273H42.782ZM39.7093 3.07273H38.7093V4.07273H39.7093V3.07273ZM39.7093 0H40.7093V-1H39.7093V0ZM12.2909 0V-1H11.2909L11.2909 -3.1037e-07L12.2909 0ZM12.2909 3.0727L12.2909 4.0727L13.2909 4.0727L13.2909 3.0727L12.2909 3.0727ZM9.21828 3.0727L9.21828 2.0727H9.21828V3.0727ZM3.07291 3.0727H2.07291V4.0727H3.07291V3.0727ZM3.07291 0H4.07291V-1H3.07291V0ZM3.07276 0V-1H2.07276V0H3.07276ZM3.07276 3.0727V4.0727H4.07276V3.0727H3.07276ZM9.21828 3.07277H10.2183V2.07277H9.21828V3.07277ZM3.07291 3.07277V2.07277H2.07291V3.07277H3.07291ZM3.07291 9.21814H2.07291V10.2181H3.07291V9.21814ZM6.14563 9.21814V10.2181H7.14563V9.21814H6.14563ZM6.14563 6.1455V5.1455H5.14563V6.1455H6.14563ZM9.21828 6.1455V7.1455H10.2183V6.1455H9.21828ZM48.9275 9.21824V10.2182H49.9275V9.21824H48.9275ZM45.8547 9.21824H44.8547V10.2182H45.8547V9.21824ZM45.8547 6.1456H46.8547V5.1456H45.8547V6.1456ZM42.7821 6.1456H41.7821V7.1456H42.7821V6.1456ZM42.7821 3.07287V2.07287H41.7821V3.07287H42.7821ZM48.9275 3.07287H49.9275V2.07287H48.9275V3.07287ZM39.7091 48.9272V47.9272H38.7091V48.9272H39.7091ZM42.7818 48.9272V49.9272H43.7818V48.9272H42.7818ZM39.7091 52H38.7091V53H39.7091V52ZM48.9271 52V53H49.9271L49.9271 52L48.9271 52ZM48.9271 48.9272L49.9271 48.9272L49.9271 48.9272L48.9271 48.9272ZM48.9271 45.8546L47.9281 45.8092L47.9271 45.8319L47.9271 45.8546L48.9271 45.8546ZM48.9271 45.8545L49.926 45.8999L49.9271 45.8772V45.8545H48.9271ZM48.9271 42.7819H49.9271V41.7819H48.9271V42.7819ZM45.8543 42.7819V41.7819H44.8543V42.7819H45.8543ZM45.8543 45.8545V46.8545H46.8543V45.8545H45.8543ZM42.7818 45.8545V44.8545H41.7818V45.8545H42.7818ZM48.9273 52H47.9273V53H48.9273V52ZM52 52V53H53V52H52ZM52 42.7819H53V41.7819H52V42.7819ZM48.9273 42.7819V41.7819H47.9273V42.7819H48.9273ZM52 42.7819V43.7819H53V42.7819H52ZM52 39.7091H53V38.7091H52V39.7091ZM48.9273 42.7819H47.9273V43.7819H48.9273V42.7819ZM48.9273 39.7091V38.7091H47.9273V39.7091H48.9273ZM3.07275 42.7818V41.7818H2.07275L2.07275 42.7818L3.07275 42.7818ZM3.07275 45.8544L2.07275 45.8544V45.8544H3.07275ZM6.14548 42.7818L7.14548 42.7818L7.14548 41.7818H6.14548V42.7818ZM6.14548 45.8544L5.14548 45.8544L5.14548 46.8544H6.14548V45.8544ZM9.21814 45.8544H10.2181V44.8544H9.21814V45.8544ZM9.21814 48.9271V49.9271H10.2181V48.9271H9.21814ZM6.14548 48.9271L6.08632 49.9254L6.11587 49.9271H6.14548V48.9271ZM6.14541 48.9271L6.20457 47.9289L6.17502 47.9271H6.14541V48.9271ZM3.07275 48.9271L2.07275 48.9271L2.07275 49.9271H3.07275V48.9271ZM3.07275 45.8545L4.07275 45.8545V45.8545H3.07275ZM1.00006 3.07277V3.0727H-0.999939V3.07277H1.00006ZM3.07276 2.07277H6.10352e-05V4.07277H3.07276V2.07277ZM4.07276 6.14541V3.07277H2.07276V6.14541H4.07276ZM4.07276 6.1455V6.14541H2.07276V6.1455H4.07276ZM4.07276 9.21814V6.1455H2.07276V9.21814H4.07276ZM6.10352e-05 10.2181H3.07276V8.21814H6.10352e-05V10.2181ZM0.955096 9.51463L0.955098 9.51462L-0.954976 8.92165L-0.954979 8.92166L0.955096 9.51463ZM3.07279 8.21815L5.83849e-05 8.21815L5.77642e-05 10.2181L3.07278 10.2182L3.07279 8.21815ZM4.07278 12.2909L4.07278 9.21815L2.07278 9.21815L2.07278 12.2909L4.07278 12.2909ZM5.80379e-05 13.2909H3.07278V11.2909H5.80379e-05V13.2909ZM1.00006 39.7091L1.00006 12.2909L-0.999942 12.2909L-0.99994 39.7091L1.00006 39.7091ZM3.07268 38.7091H6.01074e-05V40.7091H3.07268V38.7091ZM4.07268 42.7818L4.07268 39.7091L2.07268 39.7091L2.07268 42.7818L4.07268 42.7818ZM4.07268 45.8544L4.07268 42.7818L2.07268 42.7818L2.07268 45.8544L4.07268 45.8544ZM4.07268 45.8545V45.8544H2.07268V45.8545H4.07268ZM4.07268 48.9271L4.07268 45.8545L2.07268 45.8545L2.07268 48.9271L4.07268 48.9271ZM5.95617e-05 49.9271L3.07268 49.9271L3.07268 47.9271L6.20447e-05 47.9271L5.95617e-05 49.9271ZM1.00006 48.9273L1.00006 48.9271L-0.999939 48.9271L-0.999939 48.9273L1.00006 48.9273ZM3.07268 47.9273H6.08032e-05V49.9273H3.07268V47.9273ZM4.07268 52L4.07268 48.9273L2.07268 48.9273L2.07268 52L4.07268 52ZM3.07275 51H3.07268V53H3.07275V51ZM2.07275 48.9273L2.07275 52L4.07275 52L4.07275 48.9273L2.07275 48.9273ZM6.14541 47.9273H3.07275V49.9273H6.14541V47.9273ZM6.14548 47.9273H6.14541V49.9273H6.14548V47.9273ZM9.21814 47.9273H6.14548V49.9273H9.21814V47.9273ZM10.2181 52V48.9273H8.21814V52H10.2181ZM10.2181 52L10.2182 48.9273L8.21815 48.9273L8.21814 52L10.2181 52ZM9.21815 49.9273H12.2909V47.9273H9.21815V49.9273ZM11.2909 48.9273V52H13.2909V48.9273H11.2909ZM52 51L12.2909 51L12.2909 53L52 53L52 51ZM51 12.2909V52H53V12.2909H51ZM48.9275 13.2909H52V11.2909H48.9275V13.2909ZM47.9275 9.21824V12.2909H49.9275V9.21824H47.9275ZM47.9275 9.21816V9.21824H49.9275V9.21816H47.9275ZM47.9275 6.1456V9.21816H49.9275V6.1456H47.9275ZM47.9275 6.14551V6.1456H49.9275V6.14551H47.9275ZM47.9275 3.07287V6.14551H49.9275V3.07287H47.9275ZM52 2.07287H48.9275V4.07287H52V2.07287ZM51 3.07273V3.07287H53V3.07273H51ZM48.9275 4.07273H52V2.07273H48.9275V4.07273ZM47.9275 0V3.07273H49.9275V0H47.9275ZM48.9275 1H48.9275V-1H48.9275V1ZM49.9275 3.07273V0H47.9275V3.07273H49.9275ZM45.8548 4.07273H48.9275V2.07273H45.8548V4.07273ZM45.8547 4.07273H45.8548V2.07273H45.8547V4.07273ZM42.7821 4.07273H45.8547V2.07273H42.7821V4.07273ZM41.7821 0V3.07273H43.7821V0H41.7821ZM42.782 1H42.7821V-1H42.782V1ZM43.782 3.07273V0H41.782V3.07273H43.782ZM39.7093 4.07273H42.782V2.07273H39.7093V4.07273ZM38.7093 0V3.07273H40.7093V0H38.7093ZM12.2909 1H39.7093V-1H12.2909V1ZM13.2909 3.0727L13.2909 3.1037e-07L11.2909 -3.1037e-07L11.2909 3.0727L13.2909 3.0727ZM9.21828 4.0727L12.2909 4.0727L12.2909 2.0727L9.21828 2.0727L9.21828 4.0727ZM9.21821 4.0727H9.21828V2.0727H9.21821V4.0727ZM6.14563 4.0727H9.21821V2.0727H6.14563V4.0727ZM6.14555 4.0727H6.14563V2.0727H6.14555V4.0727ZM3.07291 4.0727H6.14555V2.0727H3.07291V4.0727ZM2.07291 0V3.0727H4.07291V0H2.07291ZM3.07276 1H3.07291V-1H3.07276V1ZM4.07276 3.0727V0H2.07276V3.0727H4.07276ZM6.10352e-05 4.0727H3.07276V2.0727H6.10352e-05V4.0727ZM6.14563 4.07277H9.21828V2.07277H6.14563V4.07277ZM6.14555 4.07277H6.14563V2.07277H6.14555V4.07277ZM3.07291 4.07277H6.14555V2.07277H3.07291V4.07277ZM4.07291 6.14541V3.07277H2.07291V6.14541H4.07291ZM4.07291 6.1455V6.14541H2.07291V6.1455H4.07291ZM4.07291 9.21814V6.1455H2.07291V9.21814H4.07291ZM6.14563 8.21814H3.07291V10.2181H6.14563V8.21814ZM5.14563 6.1455V9.21814H7.14563V6.1455H5.14563ZM9.21828 5.1455H6.14563V7.1455H9.21828V5.1455ZM8.21828 3.07277V6.1455H10.2183V3.07277H8.21828ZM49.9275 9.21824V6.1456H47.9275V9.21824H49.9275ZM45.8547 10.2182H48.9275V8.21824H45.8547V10.2182ZM44.8547 6.1456V9.21824H46.8547V6.1456H44.8547ZM42.7821 7.1456H45.8547V5.1456H42.7821V7.1456ZM41.7821 3.07287V6.1456H43.7821V3.07287H41.7821ZM45.8547 2.07287H42.7821V4.07287H45.8547V2.07287ZM45.8548 2.07287H45.8547V4.07287H45.8548V2.07287ZM48.9275 2.07287H45.8548V4.07287H48.9275V2.07287ZM49.9275 6.14551V3.07287H47.9275V6.14551H49.9275ZM49.9275 6.1456V6.14551H47.9275V6.1456H49.9275ZM39.7091 49.9272H42.7818V47.9272H39.7091V49.9272ZM40.7091 52V48.9272H38.7091V52H40.7091ZM42.7818 51H39.7091V53H42.7818V51ZM42.7818 51H42.7818V53H42.7818V51ZM45.8543 51H42.7818V53H45.8543V51ZM45.8545 51H45.8543V53H45.8545V51ZM48.9271 51H45.8545V53H48.9271V51ZM47.9271 48.9272L47.9271 51.9999L49.9271 52L49.9271 48.9272L47.9271 48.9272ZM47.9271 45.8546L47.9271 48.9272L49.9271 48.9272L49.9271 45.8546L47.9271 45.8546ZM47.9281 45.8091L47.9281 45.8092L49.926 45.9L49.926 45.8999L47.9281 45.8091ZM47.9271 42.7819V45.8545H49.9271V42.7819H47.9271ZM45.8543 43.7819H48.9271V41.7819H45.8543V43.7819ZM46.8543 45.8545V42.7819H44.8543V45.8545H46.8543ZM42.7818 46.8545H45.8543V44.8545H42.7818V46.8545ZM43.7818 48.9272V45.8545H41.7818V48.9272H43.7818ZM49.9273 48.9272V45.8546H47.9273V48.9272H49.9273ZM49.9273 52V48.9272H47.9273V52H49.9273ZM52 51H48.9273V53H52V51ZM51 48.9272V52H53V48.9272H51ZM51 45.8546V48.9272H53V45.8546H51ZM51 45.8545V45.8546H53V45.8545H51ZM51 42.7819V45.8545H53V42.7819H51ZM48.9273 43.7819H52V41.7819H48.9273V43.7819ZM49.9273 45.8545V42.7819H47.9273V45.8545H49.9273ZM49.9273 45.8546V45.8545H47.9273V45.8546H49.9273ZM53 42.7819V39.7091H51V42.7819H53ZM48.9273 43.7819H52V41.7819H48.9273V43.7819ZM47.9273 39.7091V42.7819H49.9273V39.7091H47.9273ZM52 38.7091H48.9273V40.7091H52V38.7091ZM2.07275 42.7818L2.07275 45.8544L4.07275 45.8544L4.07275 42.7818L2.07275 42.7818ZM6.14548 41.7818H3.07275V43.7818H6.14548V41.7818ZM7.14548 45.8544L7.14548 42.7818L5.14548 42.7818L5.14548 45.8544L7.14548 45.8544ZM9.21814 44.8544H6.14548V46.8544H9.21814V44.8544ZM10.2181 48.9271V45.8544H8.21814V48.9271H10.2181ZM6.14548 49.9271H9.21814V47.9271H6.14548V49.9271ZM6.08626 49.9254L6.08632 49.9254L6.20463 47.9289L6.20457 47.9289L6.08626 49.9254ZM3.07275 49.9271H6.14541V47.9271H3.07275V49.9271ZM2.07275 45.8545L2.07275 48.9271L4.07275 48.9271L4.07275 45.8545L2.07275 45.8545ZM2.07275 45.8544V45.8545H4.07275V45.8544H2.07275Z" fill="white" fill-opacity="0.15" mask="url(#path-1-inside-1_45_4796)"/>
<path d="M33.7679 19.8754H34.9928V21.1003H33.7679V19.8754Z" fill="white"/>
<path d="M17.844 30.8996H19.069V32.1245H17.844V30.8996Z" fill="white"/>
<path d="M17.844 19.8754H19.069V21.1003H17.844V19.8754Z" fill="white"/>
<path d="M33.7679 30.8996H34.9928V32.1245H33.7679V30.8996Z" fill="white"/>
<path d="M26.4184 29.6747V28.4498H23.9686V23.5501H26.4184V22.3252H22.7437V29.6747H26.4184Z" fill="white"/>
<path d="M26.4184 23.5501V24.7751H28.8682V23.5501H26.4184Z" fill="white"/>
<path d="M30.0931 24.7751H28.8682V27.2249H30.0931V24.7751Z" fill="white"/>
<path d="M26.4184 27.2249V28.4498H28.8682V27.2249H26.4184Z" fill="white"/>
<path d="M19.069 18.6505V19.8754H33.7679V18.6505H19.069Z" fill="white"/>
<path d="M34.9928 30.8996H36.2177V21.1003H34.9928V30.8996Z" fill="white"/>
<path d="M16.6191 30.8996H17.844V21.1003H16.6191V30.8996Z" fill="white"/>
<path d="M19.069 32.1245V33.3494H33.7679V32.1245H19.069Z" fill="white"/>
<path d="M26.4184 28.4498V27.2249H28.8682M26.4184 28.4498V29.6747H22.7437V22.3252H26.4184V23.5501M26.4184 28.4498H28.8682V27.2249M26.4184 28.4498H23.9686V23.5501H26.4184M28.8682 27.2249H30.0931V24.7751H28.8682M28.8682 27.2249V24.7751M33.7679 19.8754H34.9928V21.1003M33.7679 19.8754V21.1003H34.9928M33.7679 19.8754V18.6505H19.069V19.8754M33.7679 19.8754H19.069M34.9928 21.1003H36.2177V30.8996H34.9928M34.9928 21.1003V30.8996M28.8682 24.7751V23.5501H26.4184M28.8682 24.7751H26.4184V23.5501M19.069 19.8754H17.844V21.1003M19.069 19.8754V21.1003H17.844M19.069 32.1245V33.3494H33.7679V32.1245M19.069 32.1245V30.8996H17.844M19.069 32.1245H17.844V30.8996M19.069 32.1245H33.7679M17.844 30.8996H16.6191V21.1003H17.844M17.844 30.8996V21.1003M33.7679 32.1245H34.9928V30.8996M33.7679 32.1245V30.8996H34.9928" stroke="white" stroke-width="0.5"/>
</svg>
