<svg width="16" height="16" viewBox="0 0 16 16" fill="none" xmlns="http://www.w3.org/2000/svg">
<g clip-path="url(#clip0_3105_8993)">
<path fill-rule="evenodd" clip-rule="evenodd" d="M14.4267 10.8987L12.1689 10.6409C11.6267 10.5787 11.0934 10.7653 10.7111 11.1475L9.07559 12.7831C6.56004 11.5031 4.49781 9.44977 3.21781 6.92532L4.86226 5.28088C5.24448 4.89865 5.43115 4.36532 5.36893 3.8231L5.11115 1.5831C5.00448 0.685321 4.24893 0.00976562 3.34226 0.00976562H1.80448C0.800036 0.00976562 -0.0355194 0.845321 0.0267028 1.84977C0.497814 9.44088 6.56893 15.5031 14.1511 15.9742C15.1556 16.0364 15.9911 15.2009 15.9911 14.1964V12.6587C16 11.7609 15.3245 11.0053 14.4267 10.8987Z" fill="white"/>
</g>
<defs>
<clipPath id="clip0_3105_8993">
<rect width="16" height="16" fill="white"/>
</clipPath>
</defs>
</svg>
