<svg width="289" height="75" viewBox="0 0 289 75" fill="none" xmlns="http://www.w3.org/2000/svg">
<path d="M42.41 49.7164C40.1893 45.4077 38.9689 39.7178 38.9689 33.6825C38.9689 27.6472 40.1893 21.9573 42.41 17.6486C43.2061 16.1026 44.1017 14.7904 45.0758 13.7331C45.343 13.4409 45.0497 12.984 44.6778 13.1116C36.2402 16.0283 30.1699 24.1355 30.1699 33.6825C30.1699 43.2295 36.2402 51.3368 44.6778 54.2534C45.0497 54.381 45.343 53.9241 45.0758 53.6319C44.1017 52.5746 43.2061 51.2624 42.41 49.7164Z" fill="#D3D3D3"/>
<path d="M58.5033 13.1179C58.1314 12.9904 57.8381 13.4473 58.1052 13.7395C59.0794 14.802 59.975 16.109 60.7711 17.655C62.9918 21.9636 64.2122 27.6536 64.2122 33.6888C64.2122 39.7241 62.9918 45.4141 60.7711 49.7227C59.975 51.2687 59.0794 52.581 58.1052 53.6382C57.8381 53.9304 58.1314 54.3873 58.5033 54.2598C66.9409 51.3431 73.0112 43.2358 73.0112 33.6888C73.0112 24.1418 66.9409 16.0346 58.5033 13.1179Z" fill="#D3D3D3"/>
<path d="M49.0298 58.7278H54.084C55.2991 58.7278 56.2838 59.7266 56.2838 60.9591V61.8729C56.2838 63.1055 55.2991 64.1043 54.084 64.1043H49.0298C47.8147 64.1043 46.8301 63.1055 46.8301 61.8729V60.9591C46.8249 59.7266 47.8095 58.7278 49.0298 58.7278Z" fill="#D3D3D3"/>
<path d="M28.2793 60.1257H32.0188C32.9197 60.1257 33.6477 60.8642 33.6477 61.778V62.4527C33.6477 63.3665 32.9197 64.105 32.0188 64.105H28.2793C27.3784 64.105 26.6504 63.3665 26.6504 62.4527V61.778C26.6504 60.8695 27.3784 60.1257 28.2793 60.1257Z" fill="white"/>
<path d="M51.5904 11.9595C45.4049 11.9595 40.3926 21.6871 40.3926 33.6886C40.3926 45.6901 45.4049 55.4177 51.5904 55.4177C57.7758 55.4177 62.7881 45.6901 62.7881 33.6886C62.7881 21.6871 57.7758 11.9595 51.5904 11.9595ZM54.67 44.8241H50.6685V29.1781L45.892 30.6816V27.3824L54.2405 24.3488H54.67V44.8241Z" fill="#D3D3D3"/>
<path d="M22.914 51.8263C21.1857 48.4686 20.2324 44.0378 20.2324 39.3466C20.2324 34.6555 21.1857 30.2246 22.914 26.867C23.3697 25.9798 23.8725 25.1882 24.412 24.4975C24.6529 24.1894 24.3334 23.759 23.972 23.9078C18.0013 26.4154 13.8008 32.3816 13.8008 39.3466C13.8008 46.3116 18.0013 52.2778 23.972 54.7855C24.3334 54.9342 24.6529 54.5092 24.412 54.1957C23.8725 53.5051 23.3697 52.7135 22.914 51.8263Z" fill="white"/>
<path d="M37.5416 51.9644C37.1017 52.7985 36.625 53.5422 36.117 54.1904C35.8761 54.4985 36.1956 54.9289 36.557 54.7801C37.5416 54.3657 38.4791 53.8557 39.359 53.266C38.7305 52.8675 38.1282 52.4319 37.5416 51.9644Z" fill="white"/>
<path d="M35.4361 50.0731C31.1204 45.6954 28.7426 39.8779 28.7426 33.6886C28.7426 29.8262 29.6696 26.1073 31.4085 22.7974C31.0314 22.7018 30.649 22.6487 30.2615 22.6487C25.5058 22.6487 21.6562 30.1237 21.6562 39.3466C21.6562 48.5696 25.5111 56.0446 30.2615 56.0446C32.676 56.0446 34.8548 54.1161 36.4208 51.0134C36.0856 50.7106 35.7556 50.3971 35.4361 50.0731Z" fill="white"/>
<path d="M94.9039 57.6074C93.8774 57.6074 93.0813 57.0549 92.5156 55.9392L81.9673 33.3813C81.7002 32.8075 81.674 32.2444 81.894 31.6919C82.1087 31.1393 82.533 30.709 83.1615 30.4062C83.7271 30.1033 84.298 30.0502 84.8794 30.2521C85.4607 30.454 85.9007 30.8418 86.1992 31.4103L96.051 52.9641H93.6627L103.415 31.4103C103.713 30.8365 104.169 30.454 104.782 30.2521C105.395 30.0502 106.018 30.098 106.646 30.4062C107.243 30.6771 107.642 31.0968 107.841 31.6706C108.04 32.2444 108.008 32.8128 107.741 33.3866L97.1927 55.9445C96.6952 57.0549 95.9305 57.6074 94.9039 57.6074Z" fill="white"/>
<path d="M114.606 25.5609C113.711 25.5609 112.941 25.2315 112.291 24.578C111.642 23.9192 111.322 23.1383 111.322 22.2298C111.322 21.3213 111.647 20.5403 112.291 19.8815C112.935 19.2228 113.711 18.8987 114.606 18.8987C115.502 18.8987 116.272 19.2281 116.921 19.8815C117.565 20.5403 117.89 21.3213 117.89 22.2298C117.89 23.1383 117.565 23.9192 116.921 24.578C116.272 25.2315 115.502 25.5609 114.606 25.5609ZM114.606 57.6605C113.878 57.6605 113.271 57.4161 112.789 56.9273C112.307 56.4385 112.066 55.8276 112.066 55.0838V32.6268C112.066 31.8511 112.307 31.2296 112.789 30.762C113.271 30.2892 113.873 30.0554 114.606 30.0554C115.371 30.0554 115.984 30.2892 116.445 30.762C116.911 31.2349 117.141 31.8565 117.141 32.6268V55.0891C117.141 55.8276 116.911 56.4438 116.445 56.9326C115.984 57.4161 115.371 57.6605 114.606 57.6605Z" fill="white"/>
<path d="M125.801 34.7934C124.24 34.7934 123.465 34.0018 123.465 32.4239C123.465 30.8407 124.245 30.0544 125.801 30.0544H142.765C144.326 30.0544 145.101 30.846 145.101 32.4239C145.101 34.0071 144.321 34.7934 142.765 34.7934H125.801ZM126.298 57.6595C124.738 57.6595 123.957 56.8679 123.957 55.29C123.957 53.7068 124.738 52.9205 126.298 52.9205H143.268C144.823 52.9205 145.604 53.7121 145.604 55.29C145.604 56.8732 144.823 57.6595 143.268 57.6595H126.298ZM127.791 56.6979L124.408 53.6696L141.325 31.0054L144.661 34.0337L127.791 56.6979Z" fill="white"/>
<path d="M161.027 57.8623C158.607 57.8623 156.433 57.2513 154.506 56.0188C152.584 54.7915 151.065 53.1233 149.955 51.0248C148.844 48.921 148.289 46.5408 148.289 43.8845C148.289 41.2281 148.897 38.8374 150.106 36.7176C151.316 34.5978 152.961 32.9243 155.035 31.697C157.109 30.4698 159.44 29.8535 162.027 29.8535C164.614 29.8535 166.935 30.4698 168.993 31.697C171.051 32.9243 172.68 34.5978 173.895 36.7176C175.105 38.8374 175.713 41.2281 175.713 43.8845H173.769C173.769 46.5408 173.214 48.921 172.104 51.0248C170.994 53.1286 169.475 54.7915 167.553 56.0188C165.625 57.246 163.452 57.8623 161.027 57.8623ZM162.022 53.3199C163.714 53.3199 165.222 52.9055 166.547 52.082C167.872 51.2586 168.92 50.1323 169.684 48.6978C170.449 47.2687 170.826 45.6642 170.826 43.8792C170.826 42.0622 170.444 40.4365 169.684 39.0074C168.92 37.5782 167.877 36.4519 166.547 35.6232C165.222 34.7997 163.708 34.3853 162.022 34.3853C160.362 34.3853 158.864 34.7997 157.518 35.6232C156.171 36.4466 155.114 37.5729 154.333 39.0074C153.553 40.4365 153.165 42.0622 153.165 43.8792C153.165 45.6642 153.553 47.2687 154.333 48.6978C155.114 50.1269 156.171 51.2532 157.518 52.082C158.864 52.9055 160.367 53.3199 162.022 53.3199ZM173.167 57.7082C172.439 57.7082 171.832 57.4638 171.35 56.9751C170.868 56.4863 170.627 55.8753 170.627 55.1315V47.4121L171.57 42.0622L175.702 43.8792V55.1315C175.702 55.87 175.461 56.4863 174.979 56.9751C174.503 57.4638 173.9 57.7082 173.167 57.7082Z" fill="white"/>
<path d="M184.891 58.4634C183.964 58.4634 183.157 58.1181 182.476 57.4275C181.796 56.7368 181.455 55.924 181.455 54.9783C181.455 54.0007 181.796 53.172 182.476 52.4813C183.157 51.7906 183.959 51.4453 184.891 51.4453C185.855 51.4453 186.666 51.7906 187.332 52.4813C187.997 53.172 188.327 54.0061 188.327 54.9783C188.327 55.9186 187.997 56.7368 187.332 57.4275C186.666 58.1234 185.855 58.4634 184.891 58.4634Z" fill="white"/>
<path d="M204.143 57.8623C201.457 57.8623 199.084 57.2673 197.031 56.0719C194.973 54.8765 193.354 53.2296 192.181 51.1257C191.003 49.0219 190.416 46.6099 190.416 43.8845C190.416 41.1272 191.003 38.6939 192.181 36.5901C193.359 34.4862 194.973 32.8393 197.031 31.6439C199.089 30.4485 201.462 29.8535 204.143 29.8535C206.799 29.8535 209.151 30.4485 211.209 31.6439C213.267 32.8393 214.88 34.4862 216.059 36.5901C217.237 38.6939 217.824 41.1272 217.824 43.8845C217.824 46.6099 217.242 49.0219 216.08 51.1257C214.917 53.2296 213.309 54.8765 211.256 56.0719C209.198 57.262 206.83 57.8623 204.143 57.8623ZM204.143 53.3199C205.867 53.3199 207.396 52.9161 208.721 52.1086C210.046 51.3011 211.083 50.1907 211.832 48.7775C212.581 47.3643 212.953 45.7333 212.953 43.8845C212.953 42.0356 212.581 40.394 211.832 38.9649C211.088 37.5357 210.051 36.4148 208.721 35.6072C207.396 34.7997 205.867 34.3959 204.143 34.3959C202.42 34.3959 200.891 34.7997 199.566 35.6072C198.241 36.4148 197.193 37.5357 196.429 38.9649C195.664 40.394 195.287 42.0356 195.287 43.8845C195.287 45.7333 195.669 47.3643 196.429 48.7775C197.193 50.1907 198.236 51.3011 199.566 52.1086C200.891 52.9161 202.415 53.3199 204.143 53.3199Z" fill="white"/>
<path d="M223.386 57.7091C222.658 57.7091 222.05 57.4647 221.568 56.976C221.087 56.4872 220.846 55.8762 220.846 55.1324V32.6276C220.846 31.852 221.087 31.2304 221.568 30.7629C222.05 30.29 222.653 30.0563 223.386 30.0563C224.151 30.0563 224.763 30.29 225.229 30.7629C225.696 31.2357 225.926 31.8573 225.926 32.6276V55.1377C225.926 55.8762 225.696 56.4925 225.229 56.9813C224.763 57.4647 224.151 57.7091 223.386 57.7091ZM243.838 57.7091C243.11 57.7091 242.503 57.4647 242.021 56.976C241.539 56.4872 241.298 55.8762 241.298 55.1324V42.7219C241.298 40.804 240.947 39.242 240.251 38.0307C239.554 36.8194 238.617 35.9216 237.438 35.3318C236.26 34.7421 234.908 34.4499 233.384 34.4499C231.991 34.4499 230.729 34.7368 229.603 35.3106C228.477 35.8844 227.581 36.6494 226.916 37.6057C226.251 38.5673 225.921 39.667 225.921 40.9102H222.784C222.784 38.7904 223.286 36.8991 224.302 35.2309C225.313 33.568 226.701 32.2451 228.456 31.2676C230.216 30.29 232.185 29.8013 234.374 29.8013C236.663 29.8013 238.711 30.3007 240.518 31.2888C242.325 32.2823 243.755 33.738 244.797 35.6559C245.839 37.5738 246.363 39.9274 246.363 42.7219V55.1377C246.363 55.8762 246.122 56.4925 245.64 56.9813C245.174 57.4647 244.566 57.7091 243.838 57.7091Z" fill="white"/>
<path d="M264.604 57.8623C261.849 57.8623 259.403 57.2673 257.266 56.0719C255.129 54.8765 253.453 53.2296 252.243 51.1257C251.033 49.0219 250.426 46.6099 250.426 43.8845C250.426 41.1272 250.997 38.6939 252.144 36.5901C253.285 34.4862 254.872 32.8393 256.894 31.6439C258.916 30.4485 261.241 29.8535 263.86 29.8535C266.447 29.8535 268.668 30.4326 270.527 31.5961C272.387 32.7543 273.801 34.3534 274.78 36.3882C275.76 38.423 276.247 40.7712 276.247 43.4276C276.247 44.0651 276.032 44.5964 275.597 45.0161C275.168 45.4358 274.618 45.6483 273.958 45.6483H253.903V41.6106H273.806L271.763 43.0238C271.732 41.3397 271.397 39.8362 270.768 38.508C270.14 37.1798 269.244 36.1279 268.081 35.3522C266.919 34.5765 265.51 34.194 263.849 34.194C261.959 34.194 260.34 34.6137 259 35.4585C257.659 36.2979 256.637 37.4507 255.941 38.9171C255.244 40.3834 254.899 42.041 254.899 43.8898C254.899 45.7386 255.312 47.3909 256.145 48.8359C256.973 50.281 258.12 51.4286 259.576 52.268C261.037 53.1074 262.713 53.5324 264.598 53.5324C265.625 53.5324 266.678 53.3412 267.757 52.9533C268.836 52.5655 269.705 52.1192 270.37 51.6145C270.868 51.2426 271.407 51.0514 271.989 51.0354C272.57 51.0195 273.073 51.1948 273.507 51.5667C274.073 52.0714 274.372 52.6292 274.403 53.2296C274.434 53.8352 274.173 54.3559 273.607 54.7968C272.481 55.7053 271.077 56.4438 269.401 57.0176C267.73 57.5754 266.133 57.8623 264.604 57.8623Z" fill="white"/>
</svg>
