<svg width="87" height="30" viewBox="0 0 87 30" fill="none" xmlns="http://www.w3.org/2000/svg">
<g clip-path="url(#clip0_2487_34445)">
<path fill-rule="evenodd" clip-rule="evenodd" d="M3.09037 13.784V13.4105C3.09373 13.3899 3.09373 13.3689 3.09037 13.3483C3.09375 13.33 3.09375 13.3113 3.09037 13.293H3.03505H2.97281H2.91057L2.86217 13.3276C2.859 13.3435 2.859 13.36 2.86217 13.3759C2.85893 13.3966 2.85893 13.4176 2.86217 13.4382V17.9676C2.85844 17.9859 2.85844 18.0047 2.86217 18.0229C2.87722 18.0426 2.89603 18.059 2.91749 18.0713H2.97973H3.04196C3.07457 18.0578 3.10146 18.0334 3.11803 18.0022C3.12809 17.9707 3.12809 17.9369 3.11803 17.9054V17.608H3.80954V13.8393H3.11803L3.09037 13.784Z" fill="white"/>
<path fill-rule="evenodd" clip-rule="evenodd" d="M17.1841 17.5881V17.9892C17.1832 18.03 17.1981 18.0697 17.2256 18.0999C17.2558 18.1283 17.2949 18.1454 17.3363 18.1483C17.38 18.147 17.4218 18.1298 17.4538 18.0999C17.4813 18.0697 17.4962 18.03 17.4953 17.9892V13.5497C17.5023 13.5225 17.5023 13.4939 17.4953 13.4667C17.4982 13.4461 17.4982 13.4251 17.4953 13.4045C17.4818 13.3851 17.4624 13.3705 17.44 13.363C17.4197 13.3566 17.398 13.3566 17.3778 13.363C17.3577 13.3556 17.3356 13.3556 17.3155 13.363C17.2814 13.3734 17.252 13.3954 17.2325 13.4252C17.222 13.4566 17.222 13.4906 17.2325 13.522V13.7986H16.541V17.519H17.2325V17.602L17.1841 17.5881Z" fill="white"/>
<path fill-rule="evenodd" clip-rule="evenodd" d="M3.98242 17.9886H4.86065V13.3555H3.98242V17.9886Z" fill="white"/>
<path fill-rule="evenodd" clip-rule="evenodd" d="M16.1958 13.7836H15.3867V17.4971H16.2649V13.8389C16.2641 13.8308 16.2616 13.8228 16.2577 13.8156C16.2537 13.8084 16.2484 13.802 16.2419 13.7968C16.2355 13.7917 16.2281 13.7879 16.2202 13.7856C16.2123 13.7833 16.204 13.7827 16.1958 13.7836Z" fill="white"/>
<path fill-rule="evenodd" clip-rule="evenodd" d="M14.4317 13.3554C14.3695 13.3554 14.3488 13.3554 14.328 13.2862L13.5604 11.2117H12.4609V10.5202H13.5881C13.7057 10.5202 13.7817 10.4579 13.7817 10.3611C13.7877 10.3408 13.7877 10.3192 13.7817 10.2989C13.7742 10.2765 13.7596 10.2571 13.7402 10.2436L13.6849 10.209H6.6453C6.60638 10.2134 6.56995 10.2304 6.54157 10.2574C6.5308 10.284 6.5308 10.3138 6.54157 10.3404C6.53194 10.3648 6.53194 10.392 6.54157 10.4164C6.5523 10.4486 6.57446 10.4756 6.60381 10.4925C6.61913 10.499 6.63559 10.5023 6.65221 10.5023C6.66884 10.5023 6.68531 10.499 6.70063 10.4925H7.85545V11.184H6.94265C6.91077 11.1769 6.87771 11.1769 6.84584 11.184C6.816 11.1986 6.78996 11.2199 6.76977 11.2463L6.00219 12.1936L5.07556 13.307C5.04765 13.345 5.03307 13.3912 5.03407 13.4384V17.9125C5.0277 17.9327 5.0277 17.9544 5.03407 17.9747C5.03407 17.9747 5.03407 17.9747 5.07556 18.0231L6.58998 18.9013H15.2201V13.3692L14.4317 13.3554ZM8.58845 17.8295L9.50126 15.4576H8.3326C8.3418 15.3899 8.36286 15.3243 8.39483 15.2639L9.03102 13.6389C9.12092 13.4107 9.20391 13.1756 9.2938 12.9474C9.2938 12.9474 9.2938 12.8921 9.36295 12.8921H11.4375C11.1263 13.6873 10.822 14.4895 10.5109 15.2916H11.6934L8.58845 17.8295Z" fill="white"/>
<path d="M20.0738 6.46785V6.28115H19.8525L19.2439 6.22581H19.0088C17.604 6.15382 16.212 5.92181 14.8597 5.5343C14.7743 5.5068 14.6824 5.5068 14.597 5.5343C14.511 5.56087 14.4343 5.61123 14.3757 5.67953C13.6332 6.41597 12.8149 7.07193 11.9346 7.63651L11.2431 8.07216L11.1532 8.12058C10.6668 8.44564 10.1584 8.73676 9.6319 8.99187H13.781C14.1361 8.99142 14.4778 9.12762 14.7353 9.37221C14.9756 9.62069 15.1096 9.95313 15.1087 10.2988C15.0999 10.5443 15.0259 10.783 14.8943 10.9904C14.998 11.2531 15.0949 11.509 15.1848 11.7787H15.2332C15.2954 11.9446 15.406 12.2074 15.4544 12.3319H17.3354C17.5565 12.3176 17.7746 12.3894 17.9439 12.5324C18.114 12.6757 18.2228 12.8785 18.2482 13.0995V17.9401C18.2217 18.1281 18.1582 18.3091 18.0615 18.4725L17.9716 18.6454C17.8606 18.7487 17.7284 18.8266 17.5843 18.8736C17.4422 18.9225 17.2915 18.9413 17.1417 18.9289H16.5263V20.0699H13.0687C11.7601 21.4818 10.1948 22.6317 8.45633 23.4583C8.45633 23.4583 6.38178 24.3711 6.19507 24.4265C6.19279 24.4471 6.19279 24.468 6.19507 24.4887L6.51317 24.7446C7.56511 25.5357 8.73087 26.1629 9.97074 26.6047C10.0289 26.6253 10.0924 26.6253 10.1505 26.6047C10.438 26.508 10.7197 26.3948 10.9942 26.2659C12.3986 25.6088 13.6932 24.7388 14.8321 23.6865L14.9566 23.5966C15.727 22.8686 16.4221 22.0647 17.0311 21.1971L17.1348 21.0657C17.3008 20.8237 17.446 20.5747 17.5981 20.3327C17.8511 19.9925 18.0711 19.629 18.2551 19.247C19.811 16.3012 20.0392 10.6792 20.0392 10.6792V6.53008L20.0738 6.46785Z" fill="#2E71F0"/>
<path d="M11.4028 20.0636H6.87334C6.63078 20.0607 6.3929 19.9965 6.18182 19.8769L5.40732 19.4205L4.87486 19.1162H3.43651C3.35368 19.1232 3.2704 19.1232 3.18757 19.1162C2.99564 19.1145 2.80657 19.0696 2.63435 18.9849C2.46209 18.8961 2.31111 18.7711 2.19179 18.6184L2.0604 18.5008C1.99806 18.3968 1.94927 18.2852 1.91518 18.1689C1.90857 18.1022 1.90857 18.035 1.91518 17.9683V13.1277C1.92893 12.9826 1.97123 12.8416 2.03965 12.7128L2.12263 12.5814L2.16413 12.533C2.19295 12.4891 2.22787 12.4495 2.26785 12.4155L2.33701 12.3463V12.3048C2.37785 12.2687 2.42181 12.2363 2.46839 12.208L2.6067 12.132L2.75191 12.0766L2.91095 12.0421H3.26363C3.46682 12.0556 3.66481 12.1122 3.8445 12.208H4.66741L4.97858 11.8208L5.28976 11.4474L5.71851 10.9218C5.68909 10.8781 5.66363 10.8318 5.64244 10.7835C5.5322 10.5349 5.50361 10.2577 5.56076 9.99185C5.61792 9.72596 5.75787 9.48502 5.96053 9.30367C6.15268 9.1288 6.39424 9.01769 6.65205 8.98558H6.81801C8.01131 8.61357 9.16854 8.13447 10.2756 7.55414C11.2242 7.05344 12.1227 6.46294 12.9587 5.79076C13.2284 5.56948 13.4773 5.34129 13.7055 5.14766L10.3724 3.5157C10.2938 3.4659 10.2027 3.43945 10.1096 3.43945C10.0166 3.43945 9.92545 3.4659 9.84685 3.5157C8.72178 4.141 7.54954 4.67741 6.34087 5.12002C4.61596 5.74223 2.81164 6.11705 0.981636 6.23334C0.662551 6.22496 0.343323 6.24345 0.0273438 6.28866V10.6245C0.0273438 10.6245 0.255545 16.2465 1.81145 19.1923C2.0049 19.5765 2.23658 19.9402 2.50296 20.278C3.2291 21.4723 4.11298 22.5632 5.13072 23.5212C5.20532 23.5963 5.30248 23.6449 5.40732 23.6595C7.72623 22.8822 9.86926 21.6556 11.7139 20.0498L11.4028 20.0636Z" fill="#2E71F0"/>
</g>
<path d="M27.5864 19.4821C27.4795 19.5059 27.337 19.5355 27.1589 19.5712C26.9808 19.6068 26.7789 19.6246 26.5533 19.6246C26.1377 19.6246 25.8289 19.5474 25.627 19.393C25.4252 19.2387 25.3242 18.9655 25.3242 18.5737V12.9271C25.3242 12.6184 25.3955 12.3571 25.538 12.1434C25.6805 11.9296 25.8883 11.7396 26.1614 11.5734C26.5295 11.3477 26.9808 11.1637 27.5152 11.0212C28.0614 10.8787 28.6492 10.8074 29.2786 10.8074C30.4067 10.8074 30.9708 11.1577 30.9708 11.8584C30.9708 12.0246 30.9411 12.1849 30.8817 12.3393C30.8342 12.4818 30.7808 12.6005 30.7214 12.6955C30.4483 12.6362 30.1098 12.6065 29.7061 12.6065C29.2905 12.6065 28.8986 12.654 28.5305 12.749C28.1623 12.844 27.8477 12.9627 27.5864 13.1052V19.4821Z" fill="white"/>
<path d="M35.561 18.0571C35.9054 18.0571 36.22 18.0274 36.505 17.968C36.79 17.8968 36.9979 17.8137 37.1285 17.7187V15.7415L35.4007 15.9018C34.9257 15.9493 34.5635 16.0562 34.3141 16.2224C34.0647 16.3768 33.94 16.6262 33.94 16.9705C33.94 17.3149 34.0647 17.5821 34.3141 17.7721C34.5754 17.9621 34.991 18.0571 35.561 18.0571ZM35.4897 10.8074C36.6535 10.8074 37.5797 11.0568 38.2685 11.5555C38.9691 12.0543 39.3194 12.8262 39.3194 13.8712V17.9859C39.3194 18.2709 39.2482 18.4965 39.1057 18.6627C38.9632 18.829 38.785 18.9774 38.5713 19.108C38.2388 19.3099 37.8172 19.4702 37.3066 19.589C36.796 19.7077 36.2141 19.7671 35.561 19.7671C34.3735 19.7671 33.4354 19.5415 32.7466 19.0902C32.0697 18.6271 31.7313 17.9384 31.7313 17.024C31.7313 16.2284 31.9807 15.6227 32.4794 15.2071C32.99 14.7796 33.7263 14.5184 34.6882 14.4234L37.1285 14.174V13.8534C37.1285 13.4021 36.9622 13.0696 36.6297 12.8559C36.3091 12.6421 35.8519 12.5352 35.2582 12.5352C34.795 12.5352 34.3438 12.5946 33.9044 12.7134C33.465 12.8202 33.0732 12.9568 32.7288 13.123C32.5982 13.028 32.4854 12.9034 32.3904 12.749C32.3072 12.5827 32.2657 12.4046 32.2657 12.2146C32.2657 11.9771 32.3191 11.7871 32.426 11.6446C32.5447 11.4902 32.7288 11.3537 32.9782 11.2349C33.3225 11.0924 33.7144 10.9855 34.1538 10.9143C34.5932 10.843 35.0385 10.8074 35.4897 10.8074Z" fill="white"/>
<path d="M41.572 19.4999C41.4295 19.3693 41.3167 19.2209 41.2336 19.0546C41.1504 18.8884 41.1089 18.7043 41.1089 18.5024C41.1089 18.3005 41.1504 18.1165 41.2336 17.9502C41.3286 17.7721 41.4414 17.5999 41.572 17.4337L45.3483 12.838H41.4295C41.3701 12.743 41.3167 12.6184 41.2692 12.464C41.2217 12.2977 41.1979 12.1255 41.1979 11.9474C41.1979 11.6387 41.2692 11.413 41.4117 11.2705C41.5542 11.128 41.7442 11.0568 41.9817 11.0568H47.6461C47.7886 11.1874 47.9014 11.3359 47.9845 11.5021C48.0676 11.6684 48.1092 11.8584 48.1092 12.0721C48.1092 12.2621 48.0617 12.4462 47.9667 12.6243C47.8836 12.7905 47.7767 12.9568 47.6461 13.123L43.8876 17.7365H48.0379C48.0973 17.8315 48.1508 17.9562 48.1983 18.1105C48.2458 18.2649 48.2695 18.4312 48.2695 18.6093C48.2695 18.918 48.1983 19.1437 48.0558 19.2862C47.9133 19.4287 47.7233 19.4999 47.4858 19.4999H41.572Z" fill="white"/>
<path d="M54.2475 10.8074C54.8175 10.8074 55.346 10.9024 55.8329 11.0924C56.3316 11.2705 56.765 11.5496 57.1332 11.9296C57.5013 12.2977 57.7863 12.7609 57.9882 13.319C58.2019 13.8652 58.3088 14.5124 58.3088 15.2605C58.3088 16.0087 58.2019 16.6618 57.9882 17.2199C57.7744 17.778 57.4716 18.2471 57.0797 18.6271C56.6879 19.0071 56.2129 19.2921 55.6547 19.4821C55.1085 19.6721 54.4969 19.7671 53.82 19.7671C53.1313 19.7671 52.5316 19.684 52.021 19.5177C51.5104 19.3515 51.0888 19.1555 50.7563 18.9299C50.5069 18.7637 50.3229 18.5855 50.2041 18.3955C50.0854 18.1937 50.026 17.9562 50.026 17.683V7.9218C50.121 7.88617 50.2575 7.85648 50.4357 7.83274C50.6257 7.79711 50.8335 7.7793 51.0591 7.7793C51.4747 7.7793 51.7835 7.85648 51.9854 8.01086C52.1872 8.16523 52.2882 8.43836 52.2882 8.83024V11.2705C52.5375 11.1399 52.8225 11.033 53.1432 10.9499C53.4757 10.8549 53.8438 10.8074 54.2475 10.8074ZM53.8557 12.5887C53.535 12.5887 53.2382 12.6421 52.965 12.749C52.7038 12.8559 52.4722 12.9746 52.2704 13.1052V17.5584C52.4247 17.6534 52.6325 17.7484 52.8938 17.8434C53.155 17.9265 53.4579 17.968 53.8022 17.968C54.4672 17.968 55.0016 17.7484 55.4054 17.309C55.8091 16.8577 56.011 16.1749 56.011 15.2605C56.011 14.3343 55.8091 13.6574 55.4054 13.2299C55.0135 12.8024 54.4969 12.5887 53.8557 12.5887Z" fill="white"/>
<path d="M68.4675 15.2784C68.4675 15.9671 68.3606 16.5905 68.1469 17.1487C67.945 17.6949 67.654 18.164 67.274 18.5559C66.894 18.9477 66.4369 19.2505 65.9025 19.4643C65.3681 19.6662 64.7684 19.7671 64.1034 19.7671C63.4384 19.7671 62.8387 19.6662 62.3044 19.4643C61.77 19.2505 61.3128 18.9537 60.9328 18.5737C60.5528 18.1818 60.2559 17.7127 60.0422 17.1665C59.8403 16.6084 59.7394 15.979 59.7394 15.2784C59.7394 14.5896 59.8403 13.9721 60.0422 13.4259C60.2559 12.8677 60.5528 12.3987 60.9328 12.0187C61.3247 11.6268 61.7878 11.3299 62.3222 11.128C62.8565 10.9143 63.4503 10.8074 64.1034 10.8074C64.7565 10.8074 65.3503 10.9143 65.8847 11.128C66.419 11.3299 66.8762 11.6268 67.2562 12.0187C67.6481 12.4105 67.945 12.8855 68.1469 13.4437C68.3606 13.9899 68.4675 14.6015 68.4675 15.2784ZM64.1034 12.5887C63.4622 12.5887 62.9575 12.8262 62.5894 13.3012C62.2212 13.7643 62.0372 14.4234 62.0372 15.2784C62.0372 16.1452 62.2153 16.8102 62.5715 17.2734C62.9397 17.7365 63.4503 17.968 64.1034 17.968C64.7565 17.968 65.2612 17.7365 65.6175 17.2734C65.9856 16.7984 66.1697 16.1334 66.1697 15.2784C66.1697 14.4234 65.9856 13.7643 65.6175 13.3012C65.2494 12.8262 64.7447 12.5887 64.1034 12.5887Z" fill="white"/>
<path d="M72.5699 19.4821C72.4631 19.5059 72.3206 19.5355 72.1424 19.5712C71.9643 19.6068 71.7624 19.6246 71.5368 19.6246C71.1212 19.6246 70.8124 19.5474 70.6106 19.393C70.4087 19.2387 70.3077 18.9655 70.3077 18.5737V12.9271C70.3077 12.6184 70.379 12.3571 70.5215 12.1434C70.664 11.9296 70.8718 11.7396 71.1449 11.5734C71.5131 11.3477 71.9643 11.1637 72.4987 11.0212C73.0449 10.8787 73.6327 10.8074 74.2621 10.8074C75.3902 10.8074 75.9543 11.1577 75.9543 11.8584C75.9543 12.0246 75.9246 12.1849 75.8652 12.3393C75.8177 12.4818 75.7643 12.6005 75.7049 12.6955C75.4318 12.6362 75.0934 12.6065 74.6896 12.6065C74.274 12.6065 73.8821 12.654 73.514 12.749C73.1459 12.844 72.8312 12.9627 72.5699 13.1052V19.4821Z" fill="white"/>
<path d="M85.445 15.2784C85.445 15.9671 85.3382 16.5905 85.1244 17.1487C84.9225 17.6949 84.6316 18.164 84.2516 18.5559C83.8716 18.9477 83.4144 19.2505 82.88 19.4643C82.3457 19.6662 81.746 19.7671 81.081 19.7671C80.416 19.7671 79.8163 19.6662 79.2819 19.4643C78.7475 19.2505 78.2903 18.9537 77.9103 18.5737C77.5303 18.1818 77.2335 17.7127 77.0197 17.1665C76.8178 16.6084 76.7169 15.979 76.7169 15.2784C76.7169 14.5896 76.8178 13.9721 77.0197 13.4259C77.2335 12.8677 77.5303 12.3987 77.9103 12.0187C78.3022 11.6268 78.7653 11.3299 79.2997 11.128C79.8341 10.9143 80.4278 10.8074 81.081 10.8074C81.7341 10.8074 82.3278 10.9143 82.8622 11.128C83.3966 11.3299 83.8538 11.6268 84.2338 12.0187C84.6257 12.4105 84.9225 12.8855 85.1244 13.4437C85.3382 13.9899 85.445 14.6015 85.445 15.2784ZM81.081 12.5887C80.4397 12.5887 79.935 12.8262 79.5669 13.3012C79.1988 13.7643 79.0147 14.4234 79.0147 15.2784C79.0147 16.1452 79.1928 16.8102 79.5491 17.2734C79.9172 17.7365 80.4278 17.968 81.081 17.968C81.7341 17.968 82.2388 17.7365 82.595 17.2734C82.9632 16.7984 83.1472 16.1334 83.1472 15.2784C83.1472 14.4234 82.9632 13.7643 82.595 13.3012C82.2269 12.8262 81.7222 12.5887 81.081 12.5887Z" fill="white"/>
<defs>
<clipPath id="clip0_2487_34445">
<rect width="20.0746" height="23.0896" fill="white" transform="translate(0 3.48047)"/>
</clipPath>
</defs>
</svg>
