<svg width="50" height="28" viewBox="0 0 50 28" fill="none" xmlns="http://www.w3.org/2000/svg">
<path fill-rule="evenodd" clip-rule="evenodd" d="M42.5338 1.86667H44.3997V4.76837e-07H44.4002V1.86667V3.73332L46.2661 3.73332H46.2669H48.1328V1.86667V4.76837e-07H48.1333V1.86667V3.73332L50 3.73332V3.73336H48.1333V5.60001V7.46667V9.33334L50 9.33334V18.6667H48.1333V20.5333V22.4H50V22.4L48.1333 22.4V24.2667V26.1333L48.1333 28L48.1328 28V26.1333V24.2667V22.4H46.2661V24.2667H44.4002V26.1333V28H44.3997V26.1333H42.5338H42.533H40.6672V28L9.33281 28V26.1333H7.46692H7.46614H5.60026V28H5.59974V26.1333V24.2667H3.73385H3.73307H1.86719V26.1333V28H1.86667V26.1334V24.2667H0V24.2667H1.86667V22.4V20.5333V20.5333V18.6667H0V9.33335H1.86667V7.46669V7.46669V5.60003H0V5.6H1.86667V3.73334V3.73333V1.86668V1.86667V1.85966e-05H0V3.8147e-06L40.6672 0V1.86667L42.533 1.86667H42.5338ZM1.86719 3.73333V1.86668V1.86667V1.38283e-05H3.73307H3.73385H5.59974V1.86667V1.86668V3.73334H3.73385V5.6H1.86719V3.73334V3.73333ZM3.73385 22.4H1.86719V24.2667H3.73385V22.4ZM5.60026 1.38283e-05H7.46614H7.46692H9.33281V1.86668H7.46692H7.46614H5.60026V1.38283e-05ZM46.2661 5.60002L48.1328 5.60002V3.73336L46.2661 3.73336V5.60002Z" fill="#66BE47"/>
</svg>
