<svg width="43" height="43" viewBox="0 0 43 43" fill="none" xmlns="http://www.w3.org/2000/svg">
<path d="M36.5321 15.3366L34.3104 18.6691C35.3732 20.7888 35.8935 23.139 35.8247 25.5092C35.7559 27.8794 35.1002 30.1955 33.9163 32.25H9.08375C7.54501 29.5806 6.9074 26.4864 7.26546 23.4261C7.62352 20.3659 8.95817 17.5024 11.0716 15.2603C13.185 13.0183 15.9646 11.5169 18.9984 10.9787C22.0321 10.4406 25.1586 10.8944 27.9142 12.2729L31.2467 10.0512C27.7163 7.7631 23.4933 6.7903 19.3176 7.30328C15.142 7.81625 11.28 9.78227 8.40839 12.8569C5.53679 15.9314 3.8387 19.9185 3.61167 24.1194C3.38464 28.3203 4.64314 32.4671 7.16667 35.8333H35.8333C38.031 32.8972 39.2746 29.3574 39.3964 25.692C39.5181 22.0266 38.5121 18.4121 36.5142 15.3366H36.5321Z" fill="#3D974C"/>
<path d="M18.9738 27.6096C19.3065 27.9427 19.7017 28.207 20.1368 28.3874C20.5718 28.5677 21.0381 28.6605 21.509 28.6605C21.9799 28.6605 22.4462 28.5677 22.8812 28.3874C23.3162 28.207 23.7114 27.9427 24.0442 27.6096L34.185 12.3983L18.9738 22.5391C18.6406 22.8719 18.3763 23.2671 18.196 23.7022C18.0156 24.1372 17.9228 24.6035 17.9228 25.0744C17.9228 25.5453 18.0156 26.0115 18.196 26.4466C18.3763 26.8816 18.6406 27.2768 18.9738 27.6096V27.6096Z" fill="#3D974C"/>
</svg>
