<svg width="36" height="22" viewBox="0 0 36 22" fill="none" xmlns="http://www.w3.org/2000/svg">
<path d="M35.856 1.1158C35.6734 0.676097 35.324 0.326682 34.8843 0.14408C34.668 0.0518732 34.4357 0.00296522 34.2005 0.00012207H25.2031C24.7259 0.00012207 24.2682 0.18971 23.9307 0.527177C23.5932 0.864645 23.4037 1.32235 23.4037 1.7996C23.4037 2.27685 23.5932 2.73456 23.9307 3.07202C24.2682 3.40949 24.7259 3.59908 25.2031 3.59908H29.8638L19.8047 13.6582L13.8844 7.71988C13.7171 7.55122 13.5181 7.41735 13.2988 7.32599C13.0795 7.23464 12.8443 7.1876 12.6068 7.1876C12.3692 7.1876 12.134 7.23464 11.9147 7.32599C11.6955 7.41735 11.4964 7.55122 11.3292 7.71988L0.532283 18.5168C0.36362 18.684 0.229749 18.8831 0.138392 19.1023C0.0470352 19.3216 0 19.5568 0 19.7944C0 20.0319 0.0470352 20.2671 0.138392 20.4864C0.229749 20.7057 0.36362 20.9047 0.532283 21.072C0.699568 21.2407 0.898592 21.3745 1.11788 21.4659C1.33716 21.5573 1.57236 21.6043 1.80991 21.6043C2.04746 21.6043 2.28267 21.5573 2.50195 21.4659C2.72123 21.3745 2.92026 21.2407 3.08754 21.072L12.6068 11.5348L18.5271 17.4731C18.6944 17.6417 18.8934 17.7756 19.1127 17.8669C19.3319 17.9583 19.5671 18.0053 19.8047 18.0053C20.0422 18.0053 20.2774 17.9583 20.4967 17.8669C20.716 17.7756 20.915 17.6417 21.0823 17.4731L32.401 6.13634V10.797C32.401 11.2742 32.5906 11.7319 32.9281 12.0694C33.2656 12.4069 33.7233 12.5965 34.2005 12.5965C34.6778 12.5965 35.1355 12.4069 35.4729 12.0694C35.8104 11.7319 36 11.2742 36 10.797V1.7996C35.9972 1.56445 35.9482 1.33214 35.856 1.1158Z" fill="#3D974C"/>
</svg>
