<svg width="34" height="26" viewBox="0 0 34 26" fill="none" xmlns="http://www.w3.org/2000/svg">
<path d="M31.5167 16.3333C32.4667 16.3333 33.4167 17.2833 33.4167 18.3917V23.9333C33.4167 24.8833 32.4667 25.8333 31.3583 25.8333H22.65C21.7 25.8333 20.75 24.8833 20.75 23.775V18.2333C20.75 17.2833 21.7 16.3333 22.65 16.3333V12.375C22.65 10.1583 24.8667 8.41667 27.0833 8.41667C29.3 8.41667 31.5167 10.1583 31.5167 12.375V13.1667H29.4583V12.375C29.4583 11.1083 28.35 10.3167 27.0833 10.3167C25.8167 10.3167 24.7083 11.1083 24.7083 12.375V16.3333H31.5167ZM0.166672 0.5H28.6667V5.40833L27.0833 5.25C25.785 5.25 24.5658 5.56667 23.4892 6.105C22.7767 5.535 22.3333 4.64833 22.3333 3.66667H6.50001C6.50001 5.42417 5.09084 6.83333 3.33334 6.83333V13.1667C4.17319 13.1667 4.97864 13.5003 5.57251 14.0942C6.16638 14.688 6.50001 15.4935 6.50001 16.3333H17.6467L17.5833 17.125V19.5H0.166672V0.5ZM14.4167 5.25C17.045 5.25 19.1667 7.37167 19.1667 10C19.1667 12.6283 17.045 14.75 14.4167 14.75C11.7883 14.75 9.66667 12.6283 9.66667 10C9.66667 7.37167 11.7883 5.25 14.4167 5.25Z" fill="#3D974C"/>
</svg>
