<svg width="37" height="28" viewBox="0 0 37 28" fill="none" xmlns="http://www.w3.org/2000/svg">
<path d="M33.9894 8.00235L26.1538 15.838L23.7794 13.4818L21.204 16.0754L26.1355 21.0069L36.583 10.596L33.9894 8.00235ZM4.23598 7.47267C4.21348 8.43825 4.38708 9.39836 4.74628 10.2949C5.10547 11.1915 5.6428 12.0059 6.32575 12.6888C7.0087 13.3718 7.82309 13.9091 8.71966 14.2683C9.61622 14.6275 10.5763 14.8011 11.5419 14.7786C12.5075 14.8011 13.4676 14.6275 14.3642 14.2683C15.2607 13.9091 16.0751 13.3718 16.7581 12.6888C17.441 12.0059 17.9784 11.1915 18.3375 10.2949C18.6967 9.39836 18.8703 8.43825 18.8478 7.47267C18.8703 6.50709 18.6967 5.54698 18.3375 4.65041C17.9784 3.75385 17.441 2.93946 16.7581 2.25651C16.0751 1.57355 15.2607 1.03623 14.3642 0.677035C13.4676 0.31784 12.5075 0.144238 11.5419 0.166732C10.5763 0.144238 9.61622 0.31784 8.71966 0.677035C7.82309 1.03623 7.0087 1.57355 6.32575 2.25651C5.6428 2.93946 5.10547 3.75385 4.74628 4.65041C4.38708 5.54698 4.21348 6.50709 4.23598 7.47267ZM15.1949 7.47267C15.2184 7.9586 15.14 8.44408 14.9647 8.89792C14.7894 9.35175 14.5212 9.76391 14.1772 10.1079C13.8332 10.4519 13.421 10.7202 12.9672 10.8955C12.5133 11.0707 12.0278 11.1491 11.5419 11.1256C11.056 11.1491 10.5705 11.0707 10.1167 10.8955C9.66283 10.7202 9.25067 10.4519 8.90666 10.1079C8.56265 9.76391 8.29439 9.35175 8.11913 8.89792C7.94386 8.44408 7.86545 7.9586 7.88894 7.47267C7.86545 6.98673 7.94386 6.50125 8.11913 6.04742C8.29439 5.59358 8.56265 5.18142 8.90666 4.83741C9.25067 4.4934 9.66283 4.22515 10.1167 4.04988C10.5705 3.87461 11.056 3.79621 11.5419 3.8197C12.0278 3.79621 12.5133 3.87461 12.9672 4.04988C13.421 4.22515 13.8332 4.4934 14.1772 4.83741C14.5212 5.18142 14.7894 5.59358 14.9647 6.04742C15.14 6.50125 15.2184 6.98673 15.1949 7.47267V7.47267ZM4.23598 25.7375C4.23598 24.2843 4.81327 22.8905 5.84087 21.863C6.86847 20.8354 8.26219 20.2581 9.71543 20.2581H13.3684C14.8216 20.2581 16.2154 20.8354 17.243 21.863C18.2706 22.8905 18.8478 24.2843 18.8478 25.7375V27.564H22.5008V25.7375C22.5008 24.5382 22.2646 23.3507 21.8057 22.2427C21.3467 21.1347 20.674 20.1279 19.826 19.2799C18.978 18.4319 17.9712 17.7592 16.8632 17.3003C15.7552 16.8413 14.5677 16.6051 13.3684 16.6051H9.71543C7.29336 16.6051 4.97049 17.5673 3.25783 19.2799C1.54517 20.9926 0.583008 23.3154 0.583008 25.7375V27.564H4.23598V25.7375Z" fill="#3D974C"/>
</svg>
