<svg width="32" height="32" viewBox="0 0 32 32" fill="none" xmlns="http://www.w3.org/2000/svg">
<path d="M16 0.166626C7.26949 0.166626 0.166656 7.26946 0.166656 16V22.5597C0.166656 24.181 1.58691 25.5 3.33332 25.5H4.91666C5.33658 25.5 5.73931 25.3331 6.03624 25.0362C6.33317 24.7393 6.49999 24.3366 6.49999 23.9166V15.7735C6.49999 15.3536 6.33317 14.9509 6.03624 14.654C5.73931 14.357 5.33658 14.1902 4.91666 14.1902H3.47899C4.35932 8.06271 9.63182 3.33329 16 3.33329C22.3682 3.33329 27.6407 8.06271 28.521 14.1902H27.0833C26.6634 14.1902 26.2607 14.357 25.9637 14.654C25.6668 14.9509 25.5 15.3536 25.5 15.7735V25.5C25.5 27.2464 24.0797 28.6666 22.3333 28.6666H19.1667V27.0833H12.8333V31.8333H22.3333C25.8262 31.8333 28.6667 28.9928 28.6667 25.5C30.4131 25.5 31.8333 24.181 31.8333 22.5597V16C31.8333 7.26946 24.7305 0.166626 16 0.166626Z" fill="#3D974C"/>
</svg>
