<svg width="31" height="30" viewBox="0 0 31 30" fill="none" xmlns="http://www.w3.org/2000/svg">
<mask id="path-1-inside-1_89_1746" fill="white">
<path fill-rule="evenodd" clip-rule="evenodd" d="M30.0079 3.38485H27.0918V0.48526H27.0917V3.38485L24.175 3.38485V0.48526H0.840332V0.485275L3.75708 0.485275V3.38488H0.840332V3.38492H3.75708V6.28452H0.840332L0.840324 23.6821H3.75708L3.75708 26.5817L0.840324 26.5817L3.75708 26.5817V29.4813H3.75714V26.5817H6.6739L6.6739 29.4813L24.175 29.4813V26.5817H27.0917V29.4813L27.0918 29.4813V26.5817V23.6821H30.0079V6.28449H27.0918V3.38489H30.0079V3.38485ZM6.6739 0.485275L3.75714 0.485275V3.38488H6.6739V0.485275Z"/>
</mask>
<path fill-rule="evenodd" clip-rule="evenodd" d="M30.0079 3.38485H27.0918V0.48526H27.0917V3.38485L24.175 3.38485V0.48526H0.840332V0.485275L3.75708 0.485275V3.38488H0.840332V3.38492H3.75708V6.28452H0.840332L0.840324 23.6821H3.75708L3.75708 26.5817L0.840324 26.5817L3.75708 26.5817V29.4813H3.75714V26.5817H6.6739L6.6739 29.4813L24.175 29.4813V26.5817H27.0917V29.4813L27.0918 29.4813V26.5817V23.6821H30.0079V6.28449H27.0918V3.38489H30.0079V3.38485ZM6.6739 0.485275L3.75714 0.485275V3.38488H6.6739V0.485275Z" fill="white" fill-opacity="0.01"/>
<path d="M27.0918 3.38485H26.0918V4.38485H27.0918V3.38485ZM30.0079 3.38485H31.0079V2.38485H30.0079V3.38485ZM27.0918 0.48526H28.0918V-0.51474H27.0918V0.48526ZM27.0917 0.48526V-0.51474H26.0917V0.48526H27.0917ZM27.0917 3.38485V4.38485H28.0917V3.38485H27.0917ZM24.175 3.38485H23.175V4.38485H24.175V3.38485ZM24.175 0.48526H25.175V-0.51474H24.175V0.48526ZM0.84034 0.48526V-0.51474H-0.15966V0.48526H0.84034ZM0.84034 0.485275H-0.15966V1.48527H0.84034L0.84034 0.485275ZM3.75709 0.485275H4.75709V-0.514725H3.75709V0.485275ZM3.75709 3.38488V4.38488H4.75709V3.38488H3.75709ZM0.84034 3.38488V2.38488H-0.15966V3.38488H0.84034ZM0.84034 3.38492H-0.15966V4.38492H0.84034V3.38492ZM3.75709 3.38492H4.75709V2.38492H3.75709V3.38492ZM3.75709 6.28452V7.28452H4.75709V6.28452H3.75709ZM0.84034 6.28452V5.28452H-0.15966L-0.15966 6.28452L0.84034 6.28452ZM0.840332 23.6821H-0.159668L-0.159668 24.6821H0.840332V23.6821ZM3.75709 23.6821H4.75709V22.6821H3.75709V23.6821ZM3.75709 26.5817L3.75709 27.5817H4.75709V26.5817H3.75709ZM3.75709 26.5817H4.75709V25.5817L3.75709 25.5817L3.75709 26.5817ZM3.75709 29.4813H2.75709V30.4813H3.75709V29.4813ZM3.75715 29.4813V30.4813H4.75715V29.4813H3.75715ZM3.75715 26.5817V25.5817H2.75715V26.5817H3.75715ZM6.67391 26.5817H7.67391V25.5817H6.67391V26.5817ZM6.67391 29.4813H5.67391L5.67391 30.4813H6.67391L6.67391 29.4813ZM24.175 29.4813V30.4813H25.175V29.4813H24.175ZM24.175 26.5817V25.5817H23.175V26.5817H24.175ZM27.0917 26.5817H28.0917V25.5817H27.0917V26.5817ZM27.0917 29.4813H26.0917V30.5112L27.1211 30.4809L27.0917 29.4813ZM27.0918 29.4813L27.1212 30.4809L28.0918 30.4524V29.4813H27.0918ZM27.0918 23.6821V22.6821H26.0918V23.6821H27.0918ZM30.0079 23.6821V24.6821H31.0079V23.6821H30.0079ZM30.0079 6.28449H31.0079V5.28449H30.0079V6.28449ZM27.0918 6.28449H26.0918V7.28449H27.0918V6.28449ZM27.0918 3.38489V2.38489H26.0918V3.38489H27.0918ZM30.0079 3.38489V4.38489H31.0079V3.38489H30.0079ZM3.75715 0.485275V-0.514725H2.75715V0.485275H3.75715ZM6.67391 0.485275H7.67391V-0.514725H6.67391V0.485275ZM3.75715 3.38488H2.75715V4.38488H3.75715V3.38488ZM6.67391 3.38488V4.38488H7.67391V3.38488H6.67391ZM27.0918 4.38485H30.0079V2.38485H27.0918V4.38485ZM26.0918 0.48526V3.38485H28.0918V0.48526H26.0918ZM27.0917 1.48526H27.0918V-0.51474H27.0917V1.48526ZM28.0917 3.38485V0.48526H26.0917V3.38485H28.0917ZM24.175 4.38485L27.0917 4.38485V2.38485L24.175 2.38485V4.38485ZM23.175 0.48526V3.38485H25.175V0.48526H23.175ZM0.84034 1.48526H24.175V-0.51474H0.84034V1.48526ZM1.84034 0.485275V0.48526H-0.15966V0.485275H1.84034ZM3.75709 -0.514725H0.84034L0.84034 1.48527H3.75709V-0.514725ZM4.75709 3.38488V0.485275H2.75709V3.38488H4.75709ZM0.84034 4.38488H3.75709V2.38488H0.84034V4.38488ZM1.84034 3.38492V3.38488H-0.15966V3.38492H1.84034ZM3.75709 2.38492H0.84034V4.38492H3.75709V2.38492ZM4.75709 6.28452V3.38492H2.75709V6.28452H4.75709ZM0.84034 7.28452H3.75709V5.28452H0.84034V7.28452ZM1.84033 23.6821L1.84034 6.28452L-0.15966 6.28452L-0.159668 23.6821H1.84033ZM3.75709 22.6821H0.840332V24.6821H3.75709V22.6821ZM4.75709 26.5817L4.75709 23.6821H2.75709L2.75709 26.5817H4.75709ZM0.840333 27.5817L3.75709 27.5817L3.75709 25.5817L0.840332 25.5817L0.840333 27.5817ZM0.84033 27.5817L3.75709 27.5817L3.75709 25.5817L0.840335 25.5817L0.84033 27.5817ZM2.75709 26.5817V29.4813H4.75709V26.5817H2.75709ZM3.75715 28.4813H3.75709V30.4813H3.75715V28.4813ZM2.75715 26.5817V29.4813H4.75715V26.5817H2.75715ZM6.67391 25.5817H3.75715V27.5817H6.67391V25.5817ZM7.67391 29.4813L7.67391 26.5817H5.67391L5.67391 29.4813H7.67391ZM24.175 28.4813L6.67391 28.4813L6.67391 30.4813L24.175 30.4813V28.4813ZM23.175 26.5817V29.4813H25.175V26.5817H23.175ZM27.0917 25.5817H24.175V27.5817H27.0917V25.5817ZM28.0917 29.4813V26.5817H26.0917V29.4813H28.0917ZM27.0624 28.4818L27.0623 28.4818L27.1211 30.4809L27.1212 30.4809L27.0624 28.4818ZM26.0918 26.5817V29.4813H28.0918V26.5817H26.0918ZM26.0918 23.6821V26.5817H28.0918V23.6821H26.0918ZM30.0079 22.6821H27.0918V24.6821H30.0079V22.6821ZM29.0079 6.28449V23.6821H31.0079V6.28449H29.0079ZM27.0918 7.28449H30.0079V5.28449H27.0918V7.28449ZM26.0918 3.38489V6.28449H28.0918V3.38489H26.0918ZM30.0079 2.38489H27.0918V4.38489H30.0079V2.38489ZM29.0079 3.38485V3.38489H31.0079V3.38485H29.0079ZM3.75715 1.48528H6.67391V-0.514725H3.75715V1.48528ZM4.75715 3.38488V0.485275H2.75715V3.38488H4.75715ZM6.67391 2.38488H3.75715V4.38488H6.67391V2.38488ZM5.67391 0.485275V3.38488H7.67391V0.485275H5.67391Z" fill="white" fill-opacity="0.15" mask="url(#path-1-inside-1_89_1746)"/>
<g opacity="0.25">
<rect x="13.6733" y="8.60416" width="3.0001" height="2.98245" fill="white"/>
<rect x="13.6733" y="13.5749" width="3.0001" height="8.94736" fill="white"/>
</g>
</svg>
