<svg width="11" height="11" viewBox="0 0 11 11" fill="none" xmlns="http://www.w3.org/2000/svg">
<path d="M4.95834 3.79142H6.04168V2.70809H4.95834M5.50001 9.74976C3.11126 9.74976 1.16668 7.80517 1.16668 5.41642C1.16668 3.02767 3.11126 1.08309 5.50001 1.08309C7.88876 1.08309 9.83334 3.02767 9.83334 5.41642C9.83334 7.80517 7.88876 9.74976 5.50001 9.74976ZM5.50001 -0.000244141C4.78868 -0.000244141 4.08432 0.139862 3.42714 0.412075C2.76996 0.684288 2.17283 1.08328 1.66985 1.58626C0.654026 2.60208 0.0833435 3.97983 0.0833435 5.41642C0.0833435 6.85301 0.654026 8.23076 1.66985 9.24658C2.17283 9.74957 2.76996 10.1486 3.42714 10.4208C4.08432 10.693 4.78868 10.8331 5.50001 10.8331C6.9366 10.8331 8.31435 10.2624 9.33017 9.24658C10.346 8.23076 10.9167 6.85301 10.9167 5.41642C10.9167 4.7051 10.7766 4.00073 10.5044 3.34355C10.2321 2.68637 9.83316 2.08924 9.33017 1.58626C8.82719 1.08328 8.23006 0.684288 7.57288 0.412075C6.9157 0.139862 6.21134 -0.000244141 5.50001 -0.000244141M4.95834 8.12476H6.04168V4.87476H4.95834V8.12476Z" fill="#4E5569"/>
</svg>
