<svg width="67" height="67" viewBox="0 0 67 67" fill="none" xmlns="http://www.w3.org/2000/svg">
<mask id="path-1-inside-1_54_22995" fill="white">
<path fill-rule="evenodd" clip-rule="evenodd" d="M61.3062 5.96046e-05V-4.52995e-06L6.10352e-05 0V0.000183105H4.07609H4.07617H8.15234V4.25507H4.07617H4.07609H6.10352e-05V4.25513H4.07609H4.07617H8.15234V8.51001H4.07617V12.7648H6.10352e-05V53.6119H4.07626V57.8668L8.15243 57.8668V62.1216H12.2286V66.3765H53.6465V62.1216H57.7227V66.3765H57.7246V62.1216H61.3066V62.1215H57.7246V57.8666H61.3066V57.4412V53.6118H66.3801V12.7647H61.3062V8.9353V8.50983H57.7245V4.25494H53.6483V5.96046e-05H57.7245H57.7246H61.3062ZM12.2305 4.25507V0.000183105H8.15421V4.25507H12.2305Z"/>
</mask>
<path d="M61.3062 -4.52995e-06H62.3062V-1L61.3062 -1L61.3062 -4.52995e-06ZM61.3062 5.96046e-05V1.00006H62.3062V5.96046e-05H61.3062ZM6.10352e-05 0L6.09613e-05 -1L-0.999939 -1V0H6.10352e-05ZM6.10352e-05 0.000183105H-0.999939V1.00018H6.10352e-05V0.000183105ZM8.15234 0.000183105H9.15234V-0.999817H8.15234V0.000183105ZM8.15234 4.25507V5.25507H9.15234V4.25507H8.15234ZM6.10352e-05 4.25507V3.25507H-0.999939V4.25507H6.10352e-05ZM6.10352e-05 4.25513H-0.999939V5.25513H6.10352e-05V4.25513ZM8.15234 4.25513H9.15234V3.25513H8.15234V4.25513ZM8.15234 8.51001V9.51001H9.15234V8.51001H8.15234ZM4.07617 8.51001V7.51001H3.07617V8.51001H4.07617ZM4.07617 12.7648V13.7648H5.07617V12.7648H4.07617ZM6.10352e-05 12.7648V11.7648H-0.999939V12.7648H6.10352e-05ZM6.10352e-05 53.6119H-0.999939V54.6119H6.10352e-05V53.6119ZM4.07626 53.6119H5.07626V52.6119H4.07626V53.6119ZM4.07626 57.8668H3.07626V58.8668L4.07626 58.8668L4.07626 57.8668ZM8.15243 57.8668H9.15243V56.8668L8.15243 56.8668L8.15243 57.8668ZM8.15243 62.1216H7.15243V63.1216H8.15243V62.1216ZM12.2286 62.1216H13.2286V61.1216H12.2286V62.1216ZM12.2286 66.3765H11.2286V67.3765H12.2286V66.3765ZM53.6465 66.3765V67.3765H54.6465V66.3765H53.6465ZM53.6465 62.1216V61.1216H52.6465V62.1216H53.6465ZM57.7227 62.1216H58.7227V61.1216H57.7227V62.1216ZM57.7227 66.3765H56.7227V67.3765H57.7227V66.3765ZM57.7246 66.3765V67.3765H58.7246V66.3765H57.7246ZM57.7246 62.1216V61.1216H56.7246V62.1216H57.7246ZM61.3066 62.1216V63.1216H62.3066V62.1216H61.3066ZM61.3066 62.1215H62.3066V61.1215H61.3066V62.1215ZM57.7246 62.1215H56.7246V63.1215H57.7246V62.1215ZM57.7246 57.8666V56.8666H56.7246V57.8666H57.7246ZM61.3066 57.8666V58.8666H62.3066V57.8666H61.3066ZM61.3066 53.6118V52.6118H60.3066V53.6118H61.3066ZM66.3801 53.6118V54.6118H67.3801V53.6118H66.3801ZM66.3801 12.7647H67.3801V11.7647H66.3801V12.7647ZM61.3062 12.7647H60.3062V13.7647H61.3062V12.7647ZM61.3062 8.50983H62.3062V7.50983H61.3062V8.50983ZM57.7245 8.50983H56.7245V9.50983H57.7245V8.50983ZM57.7245 4.25494H58.7245V3.25494H57.7245V4.25494ZM53.6483 4.25494H52.6483V5.25494H53.6483V4.25494ZM53.6483 5.96046e-05V-0.99994H52.6483V5.96046e-05H53.6483ZM12.2305 0.000183105H13.2305V-0.999817H12.2305V0.000183105ZM12.2305 4.25507V5.25507H13.2305V4.25507H12.2305ZM8.15421 0.000183105V-0.999817H7.15421V0.000183105H8.15421ZM8.15421 4.25507H7.15421V5.25507H8.15421V4.25507ZM60.3062 -4.52995e-06V5.96046e-05H62.3062V-4.52995e-06H60.3062ZM6.1109e-05 1L61.3062 0.999995L61.3062 -1L6.09613e-05 -1L6.1109e-05 1ZM1.00006 0.000183105V0H-0.999939V0.000183105H1.00006ZM4.07609 -0.999817H6.10352e-05V1.00018H4.07609V-0.999817ZM4.07617 -0.999817H4.07609V1.00018H4.07617V-0.999817ZM8.15234 -0.999817H4.07617V1.00018H8.15234V-0.999817ZM9.15234 4.25507V0.000183105H7.15234V4.25507H9.15234ZM4.07617 5.25507H8.15234V3.25507H4.07617V5.25507ZM4.07609 5.25507H4.07617V3.25507H4.07609V5.25507ZM6.10352e-05 5.25507H4.07609V3.25507H6.10352e-05V5.25507ZM1.00006 4.25513V4.25507H-0.999939V4.25513H1.00006ZM4.07609 3.25513H6.10352e-05V5.25513H4.07609V3.25513ZM4.07617 3.25513H4.07609V5.25513H4.07617V3.25513ZM8.15234 3.25513H4.07617V5.25513H8.15234V3.25513ZM9.15234 8.51001V4.25513H7.15234V8.51001H9.15234ZM4.07617 9.51001H8.15234V7.51001H4.07617V9.51001ZM5.07617 12.7648V8.51001H3.07617V12.7648H5.07617ZM6.10352e-05 13.7648H4.07617V11.7648H6.10352e-05V13.7648ZM1.00006 53.6119V12.7648H-0.999939V53.6119H1.00006ZM4.07626 52.6119H6.10352e-05V54.6119H4.07626V52.6119ZM5.07626 57.8668V53.6119H3.07626V57.8668H5.07626ZM8.15243 56.8668L4.07625 56.8668L4.07626 58.8668L8.15243 58.8668L8.15243 56.8668ZM9.15243 62.1216V57.8668H7.15243V62.1216H9.15243ZM12.2286 61.1216H8.15243V63.1216H12.2286V61.1216ZM13.2286 66.3765V62.1216H11.2286V66.3765H13.2286ZM53.6465 65.3765H12.2286V67.3765H53.6465V65.3765ZM52.6465 62.1216V66.3765H54.6465V62.1216H52.6465ZM57.7227 61.1216H53.6465V63.1216H57.7227V61.1216ZM58.7227 66.3765V62.1216H56.7227V66.3765H58.7227ZM57.7246 65.3765H57.7227V67.3765H57.7246V65.3765ZM56.7246 62.1216V66.3765H58.7246V62.1216H56.7246ZM61.3066 61.1216H57.7246V63.1216H61.3066V61.1216ZM60.3066 62.1215V62.1216H62.3066V62.1215H60.3066ZM57.7246 63.1215H61.3066V61.1215H57.7246V63.1215ZM56.7246 57.8666V62.1215H58.7246V57.8666H56.7246ZM61.3066 56.8666H57.7246V58.8666H61.3066V56.8666ZM60.3066 57.4412V57.8666H62.3066V57.4412H60.3066ZM60.3066 53.6118V57.4412H62.3066V53.6118H60.3066ZM66.3801 52.6118H61.3066V54.6118H66.3801V52.6118ZM65.3801 12.7647V53.6118H67.3801V12.7647H65.3801ZM61.3062 13.7647H66.3801V11.7647H61.3062V13.7647ZM60.3062 8.9353V12.7647H62.3062V8.9353H60.3062ZM60.3062 8.50983V8.9353H62.3062V8.50983H60.3062ZM57.7245 9.50983H61.3062V7.50983H57.7245V9.50983ZM56.7245 4.25494V8.50983H58.7245V4.25494H56.7245ZM53.6483 5.25494H57.7245V3.25494H53.6483V5.25494ZM52.6483 5.96046e-05V4.25494H54.6483V5.96046e-05H52.6483ZM57.7245 -0.99994H53.6483V1.00006H57.7245V-0.99994ZM57.7246 -0.99994H57.7245V1.00006H57.7246V-0.99994ZM61.3062 -0.99994H57.7246V1.00006H61.3062V-0.99994ZM11.2305 0.000183105V4.25507H13.2305V0.000183105H11.2305ZM8.15421 1.00018H12.2305V-0.999817H8.15421V1.00018ZM9.15421 4.25507V0.000183105H7.15421V4.25507H9.15421ZM12.2305 3.25507H8.15421V5.25507H12.2305V3.25507Z" fill="white" fill-opacity="0.15" mask="url(#path-1-inside-1_54_22995)"/>
</svg>
