<svg width="54" height="54" viewBox="0 0 54 54" fill="none" xmlns="http://www.w3.org/2000/svg">
<path fill-rule="evenodd" clip-rule="evenodd" d="M50.8271 0.382324H50.8271V3.55029H53.9946V3.55048H50.8271V6.71834V6.71845V9.88623V9.88631V13.0542H53.9946V53.9941L9.88659 53.9941V50.8261H6.71873H6.71863H3.55077L3.55077 53.9941H3.55068L3.55068 50.8261H0.382812V50.8259H3.55068L3.55068 47.6579L3.55068 44.4902V44.4901L3.55068 41.3222H0.382812V0.382324H41.3232V3.55029H44.4911V0.382324H44.4912V3.55029H47.6591H47.6592H50.8271V0.382324ZM13.0547 3.55031L9.88679 3.55031H9.88671H6.71893H6.71882H3.55096V0.382341L6.71882 0.382341L6.71893 0.382341L9.88671 0.382341L9.88679 0.382341L13.0547 0.382341V3.55031ZM9.88679 3.55033H6.71893H6.71882H3.55096V6.71822V6.7183L3.55096 9.88619H6.71893V6.7183H9.88679V3.55033ZM0.382837 0.382341L0.382837 3.55031H3.5508V0.382341L0.382837 0.382341ZM0.382837 6.71822V3.55033H3.5508V6.71822V6.7183V9.88619H0.382837V6.7183L0.382837 6.71822ZM0.38284 13.0542L0.38284 9.88622H3.55081V13.0542H0.38284ZM50.8271 6.71845V9.88631H47.6591V6.71845H44.4912V3.55048H47.6591H47.6592H50.8271V6.71834V6.71845ZM41.3222 50.826L44.4901 50.826V47.6581H47.6579V44.4902H50.8259V47.6581V47.6582V50.826V53.994H47.6581H47.6579H44.4902H44.4901H41.3222V50.826ZM53.9941 53.994V50.826V47.6582V47.6581V44.4902H50.8261V47.6581V47.6582V50.826V53.994H53.9941ZM53.9941 41.3222V44.4902L50.8261 44.4902V41.3222H53.9941ZM6.71863 50.8259H3.55077L3.55077 47.6581L3.55077 47.6579L3.55077 44.4901H6.71873V47.6579H9.88659V50.8259H6.71873H6.71863ZM9.88664 53.9941H13.0546V50.8261H9.88664V53.9941Z" fill="#447EF7"/>
<path d="M36 19V18H18V19H17V35H18V36H36V35H37V19H36ZM35 22H34V23H32V24H30V25H28V26H26V25H24V24H22V23H20V22H19V21H20V20H34V21H35V22ZM35 33H34V34H20V33H19V25H20V26H22V27H24V28H25V29H29V28H30V27H32V26H34V25H35V33Z" fill="white"/>
</svg>
