<svg width="14" height="25" viewBox="0 0 14 25" fill="none" xmlns="http://www.w3.org/2000/svg">
<path d="M12.25 5.35714H10.5H8.75V7.14286V8.92857V10.7143H10.5H12.25V8.92857H10.5V7.14286H12.25V5.35714Z" fill="white"/>
<path d="M14 14.2857V12.5V10.7143H12.25V12.5V14.2857H14Z" fill="white"/>
<path d="M10.5 23.2143V21.4286V19.6429V17.8571V16.0714H12.25V14.2857H10.5H8.75V16.0714V17.8571V19.6429V21.4286V23.2143H10.5Z" fill="white"/>
<path d="M3.5 14.2857H1.75V16.0714H3.5V17.8571V19.6429V21.4286V23.2143H5.25V21.4286V19.6429V17.8571V16.0714V14.2857H3.5Z" fill="white"/>
<path d="M1.75 10.7143H0V12.5V14.2857H1.75V12.5V10.7143Z" fill="white"/>
<path d="M5.25 10.7143V8.92857V7.14286V5.35714V3.57143V1.78571H3.5V3.57143V5.35714V7.14286V8.92857H1.75V10.7143H3.5H5.25Z" fill="white"/>
<path d="M7 0H5.25V1.78571H7H8.75H10.5H12.25V0H10.5H8.75H7Z" fill="white"/>
<path d="M14 1.78571H12.25V3.57143V5.35714H14V3.57143V1.78571Z" fill="white"/>
<path d="M7 23.2143H5.25V25H7H8.75V23.2143H7Z" fill="white"/>
</svg>
