<svg width="35" height="34" viewBox="0 0 35 34" fill="none" xmlns="http://www.w3.org/2000/svg">
<mask id="path-1-inside-1_54_23153" fill="white">
<path fill-rule="evenodd" clip-rule="evenodd" d="M30.7461 0L0 2.51013e-06V8.66968e-06L3.41619 8.66968e-06V1.5525e-05L6.83203 1.5525e-05V3.40001H3.41584V3.4H0V3.40016H3.41619V6.80015H0V27.1998H3.41619L3.41619 30.5998H0V30.6L3.41584 30.6H6.83203V34L3.41619 34L0 34H34.1619L30.7458 34V30.6H34.1619V30.5998H30.7458V27.1998H34.1619V6.80014L30.7461 6.80014V3.40015L34.1619 3.40015V3.4L30.7465 3.4L27.3303 3.4V6.34749e-06L30.7461 0ZM27.3292 30.6V34H30.7454V30.6H27.3292Z"/>
</mask>
<path fill-rule="evenodd" clip-rule="evenodd" d="M30.7461 0L0 2.51013e-06V8.66968e-06L3.41619 8.66968e-06V1.5525e-05L6.83203 1.5525e-05V3.40001H3.41584V3.4H0V3.40016H3.41619V6.80015H0V27.1998H3.41619L3.41619 30.5998H0V30.6L3.41584 30.6H6.83203V34L3.41619 34L0 34H34.1619L30.7458 34V30.6H34.1619V30.5998H30.7458V27.1998H34.1619V6.80014L30.7461 6.80014V3.40015L34.1619 3.40015V3.4L30.7465 3.4L27.3303 3.4V6.34749e-06L30.7461 0ZM27.3292 30.6V34H30.7454V30.6H27.3292Z" fill="white" fill-opacity="0.01"/>
<path d="M0 2.51013e-06L-8.16404e-08 -0.999997L-1 -0.999997V2.51013e-06H0ZM0 8.66968e-06H-1V1.00001H0L0 8.66968e-06ZM3.41619 8.66968e-06H4.41619V-0.999991H3.41619V8.66968e-06ZM3.41619 1.5525e-05H2.41619V1.00002H3.41619V1.5525e-05ZM6.83203 1.5525e-05H7.83203V-0.999985H6.83203V1.5525e-05ZM6.83203 3.40001V4.40001H7.83203V3.40001H6.83203ZM3.41584 3.40001H2.41584V4.40001H3.41584V3.40001ZM3.41584 3.4H4.41584V2.4H3.41584V3.4ZM0 3.4V2.4H-1V3.4H0ZM0 3.40016H-1V4.40016H0V3.40016ZM3.41619 3.40016H4.41619V2.40016H3.41619V3.40016ZM3.41619 6.80015V7.80015H4.41619V6.80015H3.41619ZM0 6.80015V5.80015H-1V6.80015H0ZM0 27.1998H-1V28.1998H0V27.1998ZM3.41619 27.1998H4.41619V26.1998H3.41619V27.1998ZM3.41619 30.5998V31.5998H4.41619V30.5998H3.41619ZM0 30.5998V29.5998H-1V30.5998H0ZM0 30.6H-1V31.6L1.11677e-06 31.6L0 30.6ZM3.41584 30.6V29.6H3.41584L3.41584 30.6ZM6.83203 30.6H7.83203V29.6H6.83203V30.6ZM6.83203 34L6.83203 35L7.83203 35V34H6.83203ZM3.41619 34L3.41619 33H3.41618L3.41619 34ZM0 34L-6.69992e-06 33L0 35V34ZM30.7458 34H29.7458V35L30.7458 35L30.7458 34ZM30.7458 30.6V29.6H29.7458V30.6H30.7458ZM34.1619 30.6V31.6H35.1619V30.6H34.1619ZM34.1619 30.5998H35.1619V29.5998H34.1619V30.5998ZM30.7458 30.5998H29.7458V31.5998H30.7458V30.5998ZM30.7458 27.1998V26.1998H29.7458V27.1998H30.7458ZM34.1619 27.1998V28.1998H35.1619V27.1998H34.1619ZM34.1619 6.80014H35.1619V5.80014L34.1619 5.80014V6.80014ZM30.7461 6.80014H29.7461V7.80014H30.7461V6.80014ZM30.7461 3.40015V2.40015L29.7461 2.40015V3.40015H30.7461ZM34.1619 3.40015V4.40015H35.1619V3.40015H34.1619ZM34.1619 3.4H35.1619V2.39999L34.1619 2.4V3.4ZM30.7465 3.4V4.4H30.7465L30.7465 3.4ZM27.3303 3.4H26.3303V4.4H27.3303V3.4ZM27.3303 6.34749e-06L27.3303 -0.999994L26.3303 -0.999992V6.34749e-06H27.3303ZM27.3292 34H26.3292V35H27.3292V34ZM27.3292 30.6V29.6H26.3292V30.6H27.3292ZM30.7454 34V35H31.7454V34H30.7454ZM30.7454 30.6H31.7454V29.6H30.7454V30.6ZM8.16404e-08 1L30.7461 1V-1L-8.16404e-08 -0.999997L8.16404e-08 1ZM1 8.66968e-06V2.51013e-06H-1V8.66968e-06H1ZM3.41619 -0.999991H0L0 1.00001H3.41619V-0.999991ZM4.41619 1.5525e-05V8.66968e-06H2.41619V1.5525e-05H4.41619ZM6.83203 -0.999985H3.41619V1.00002H6.83203V-0.999985ZM7.83203 3.40001V1.5525e-05H5.83203V3.40001H7.83203ZM3.41584 4.40001H6.83203V2.40001H3.41584V4.40001ZM2.41584 3.4V3.40001H4.41584V3.4H2.41584ZM0 4.4H3.41584V2.4H0V4.4ZM1 3.40016V3.4H-1V3.40016H1ZM3.41619 2.40016H0V4.40016H3.41619V2.40016ZM4.41619 6.80015V3.40016H2.41619V6.80015H4.41619ZM0 7.80015H3.41619V5.80015H0V7.80015ZM1 27.1998V6.80015H-1V27.1998H1ZM3.41619 26.1998H0V28.1998H3.41619V26.1998ZM4.41619 30.5998L4.41619 27.1998H2.41619L2.41619 30.5998H4.41619ZM0 31.5998H3.41619V29.5998H0V31.5998ZM1 30.6V30.5998H-1V30.6H1ZM1.11677e-06 31.6L3.41584 31.6L3.41584 29.6L-1.11677e-06 29.6L1.11677e-06 31.6ZM3.41584 31.6H6.83203V29.6H3.41584V31.6ZM5.83203 30.6V34H7.83203V30.6H5.83203ZM6.83203 33L3.41619 33L3.41619 35L6.83203 35L6.83203 33ZM3.41618 33L-6.69992e-06 33L6.69992e-06 35L3.4162 35L3.41618 33ZM34.1619 33H0V35H34.1619V33ZM30.7458 35L34.1619 35L34.1619 33L30.7458 33L30.7458 35ZM29.7458 30.6V34H31.7458V30.6H29.7458ZM34.1619 29.6H30.7458V31.6H34.1619V29.6ZM33.1619 30.5998V30.6H35.1619V30.5998H33.1619ZM30.7458 31.5998H34.1619V29.5998H30.7458V31.5998ZM29.7458 27.1998V30.5998H31.7458V27.1998H29.7458ZM34.1619 26.1998H30.7458V28.1998H34.1619V26.1998ZM33.1619 6.80014V27.1998H35.1619V6.80014H33.1619ZM30.7461 7.80014L34.1619 7.80014V5.80014L30.7461 5.80014V7.80014ZM29.7461 3.40015V6.80014H31.7461V3.40015H29.7461ZM34.1619 2.40015L30.7461 2.40015V4.40015L34.1619 4.40015V2.40015ZM33.1619 3.4V3.40015H35.1619V3.4H33.1619ZM30.7465 4.4L34.1619 4.4V2.4L30.7465 2.4L30.7465 4.4ZM27.3303 4.4L30.7465 4.4V2.4L27.3303 2.4V4.4ZM26.3303 6.34749e-06V3.4H28.3303V6.34749e-06H26.3303ZM30.7461 -1L27.3303 -0.999994L27.3303 1.00001L30.7461 1L30.7461 -1ZM28.3292 34V30.6H26.3292V34H28.3292ZM30.7454 33H27.3292V35H30.7454V33ZM29.7454 30.6V34H31.7454V30.6H29.7454ZM27.3292 31.6H30.7454V29.6H27.3292V31.6Z" fill="white" fill-opacity="0.15" mask="url(#path-1-inside-1_54_23153)"/>
<path d="M21.5882 12V13.1765H20.4118V14.3529H19.2353V15.5294H18.0588V16.7059H16.8824V17.8824H15.7059V19.0588H15.1176V19.6471H13.9412V19.0588H13.3529V17.8824H12.1765V17.2941H11V19.0588H12.1765V20.2353H13.3529V21.4118H13.9412V22H15.1176V21.4118H15.7059V20.2353H16.8824V19.0588H18.0588V17.8824H19.2353V16.7059H20.4118V15.5294H21.5882V14.3529H22.7647V12H21.5882Z" fill="#66BE47"/>
</svg>
