<svg width="25" height="23" viewBox="0 0 25 23" fill="none" xmlns="http://www.w3.org/2000/svg">
<path d="M0 10.6154H1.78571V12.3846H0V10.6154Z" fill="white"/>
<path d="M16.0714 21.2308H17.8571V23H16.0714V21.2308Z" fill="white"/>
<path d="M14.2857 19.4615H16.0714V21.2308H14.2857V19.4615Z" fill="white"/>
<path d="M10.7143 12.3846H12.5V14.1538H10.7143V12.3846Z" fill="white"/>
<path d="M12.5 10.6154H14.2857V12.3846H12.5V10.6154Z" fill="white"/>
<path d="M14.2857 8.84615H16.0714V10.6154H14.2857V8.84615Z" fill="white"/>
<path d="M16.0714 7.07692H17.8571V8.84615H16.0714V7.07692Z" fill="white"/>
<path d="M17.8571 5.30769H19.6429V7.07692H17.8571V5.30769Z" fill="white"/>
<path d="M19.6429 3.53846H21.4286V5.30769H19.6429V3.53846Z" fill="white"/>
<path d="M1.78571 8.84615V10.6154H5.35714V8.84615H1.78571Z" fill="white"/>
<path d="M5.35714 14.1538V12.3846H1.78571V14.1538H5.35714Z" fill="white"/>
<path d="M10.7143 19.4615H8.92857V15.9231H10.7143V14.1538H5.35714V15.9231H7.14286V23H8.92857V21.2308H10.7143V19.4615Z" fill="white"/>
<path d="M14.2857 17.6923H12.5V15.9231H10.7143V19.4615H14.2857V17.6923Z" fill="white"/>
<path d="M19.6429 15.9231H17.8571V21.2308H19.6429V15.9231Z" fill="white"/>
<path d="M21.4286 10.6154H19.6429V15.9231H21.4286V10.6154Z" fill="white"/>
<path d="M5.35714 7.07692V8.84615H8.92857V7.07692H5.35714Z" fill="white"/>
<path d="M8.92857 5.30769V7.07692H12.5V5.30769H8.92857Z" fill="white"/>
<path d="M12.5 3.53846V5.30769H16.0714V3.53846H12.5Z" fill="white"/>
<path d="M19.6429 3.53846V1.76923H16.0714V3.53846H19.6429Z" fill="white"/>
<path d="M19.6429 0V1.76923H23.2143V0H19.6429Z" fill="white"/>
<path d="M25 1.76923H23.2143V5.30769H25V1.76923Z" fill="white"/>
<path d="M23.2143 5.30769H21.4286V10.6154H23.2143V5.30769Z" fill="white"/>
</svg>
