<svg width="28" height="21" viewBox="0 0 28 21" fill="none" xmlns="http://www.w3.org/2000/svg">
<path d="M14 3.5H15.75V5.25H14V3.5Z" fill="white"/>
<path d="M15.75 1.75H17.5V3.5H15.75V1.75Z" fill="white"/>
<path d="M26.25 3.5H28V5.25H26.25V3.5Z" fill="white"/>
<path d="M21 14H22.75V15.75H21V14Z" fill="white"/>
<path d="M19.25 15.75H21V17.5H19.25V15.75Z" fill="white"/>
<path d="M5.25 17.5H7V19.25H5.25V17.5Z" fill="white"/>
<path d="M7 15.75H8.75V17.5H7V15.75Z" fill="white"/>
<path d="M8.75 14H10.5V15.75H8.75V14Z" fill="white"/>
<path d="M7 12.25H8.75V14H7V12.25Z" fill="white"/>
<path d="M3.5 7H5.25V8.75H3.5V7Z" fill="white"/>
<path d="M1.75 5.25H3.5V7H1.75V5.25Z" fill="white"/>
<path d="M0 3.5H1.75V5.25H0V3.5Z" fill="white"/>
<path d="M15.75 21V19.25H7V21H15.75Z" fill="white"/>
<path d="M19.25 19.25V17.5H15.75V19.25H19.25Z" fill="white"/>
<path d="M24.5 8.75H22.75V14H24.5V8.75Z" fill="white"/>
<path d="M26.25 5.25H24.5V8.75H26.25V5.25Z" fill="white"/>
<path d="M22.75 1.75V3.5H26.25V1.75H22.75Z" fill="white"/>
<path d="M17.5 0V1.75H22.75V0H17.5Z" fill="white"/>
<path d="M10.5 5.25V7H14V5.25H10.5Z" fill="white"/>
<path d="M5.25 3.5V5.25H10.5V3.5H5.25Z" fill="white"/>
<path d="M1.75 1.75V3.5H5.25V1.75H1.75Z" fill="white"/>
<path d="M5.25 12.25H7V8.75H5.25V12.25Z" fill="white"/>
</svg>
