<svg width="28" height="16" viewBox="0 0 28 16" fill="none" xmlns="http://www.w3.org/2000/svg">
<path d="M5.25 1.77778H7V3.55556H5.25V1.77778Z" fill="white"/>
<path d="M8.75 7.11111H10.5V8.88889H8.75V7.11111Z" fill="white"/>
<path d="M21 1.77778H22.75V3.55556H21V1.77778Z" fill="white"/>
<path d="M24.5 10.6667H26.25V12.4444H24.5V10.6667Z" fill="white"/>
<path d="M26.25 12.4444H28V14.2222H26.25V12.4444Z" fill="white"/>
<path d="M7 12.4444H8.75V14.2222H7V12.4444Z" fill="white"/>
<path d="M5.25 10.6667H7V12.4444H5.25V10.6667Z" fill="white"/>
<path d="M5.25 1.77778V0H0V3.55556H1.75V1.77778H5.25Z" fill="white"/>
<path d="M3.5 3.55556H1.75V7.11111H3.5V3.55556Z" fill="white"/>
<path d="M8.75 3.55556H7V7.11111H8.75V3.55556Z" fill="white"/>
<path d="M10.5 7.11111H12.25V1.77778H15.75V8.88889H19.25V7.11111H17.5V0H10.5V7.11111Z" fill="white"/>
<path d="M19.25 7.11111H21V3.55556H19.25V7.11111Z" fill="white"/>
<path d="M22.75 0V1.77778H26.25V3.55556H28V0H22.75Z" fill="white"/>
<path d="M26.25 3.55556H24.5V7.11111H26.25V3.55556Z" fill="white"/>
<path d="M24.5 7.11111H22.75V10.6667H24.5V7.11111Z" fill="white"/>
<path d="M26.25 16V14.2222H19.25V16H26.25Z" fill="white"/>
<path d="M19.25 14.2222V12.4444H15.75V14.2222H19.25Z" fill="white"/>
<path d="M8.75 14.2222V16H15.75V14.2222H8.75Z" fill="white"/>
<path d="M3.5 10.6667H5.25V7.11111H3.5V10.6667Z" fill="white"/>
</svg>
