<svg width="28" height="21" viewBox="0 0 28 21" fill="none" xmlns="http://www.w3.org/2000/svg">
<path d="M24.5 1.75H26.25V3.5H24.5V1.75Z" fill="white"/>
<path d="M1.75 17.5H3.5V19.25H1.75V17.5Z" fill="white"/>
<path d="M1.75 1.75H3.5V3.5H1.75V1.75Z" fill="white"/>
<path d="M24.5 17.5H26.25V19.25H24.5V17.5Z" fill="white"/>
<path d="M14 15.75V14H10.5V7H14V5.25H8.75V15.75H14Z" fill="white"/>
<path d="M14 7V8.75H17.5V7H14Z" fill="white"/>
<path d="M19.25 8.75H17.5V12.25H19.25V8.75Z" fill="white"/>
<path d="M14 12.25V14H17.5V12.25H14Z" fill="white"/>
<path d="M3.5 0V1.75H24.5V0H3.5Z" fill="white"/>
<path d="M26.25 17.5H28V3.5H26.25V17.5Z" fill="white"/>
<path d="M0 17.5H1.75V3.5H0V17.5Z" fill="white"/>
<path d="M3.5 19.25V21H24.5V19.25H3.5Z" fill="white"/>
</svg>
